<?xml version="1.0" encoding="UTF-8"?>
<svg id="Calque_2" data-name="Calque 2" xmlns="http://www.w3.org/2000/svg" viewBox="0 0 5000 4000">
  <defs>
    <style>
      .cls-1, .cls-2 {
        fill: #3b82f6;
      }

      .cls-1, .cls-3, .cls-4, .cls-5 {
        fill-rule: evenodd;
      }

      .cls-2, .cls-6, .cls-7 {
        opacity: .15;
      }

      .cls-3, .cls-6 {
        fill: #22c55e;
      }

      .cls-8 {
        opacity: .26;
      }

      .cls-4 {
        fill: #c7e7ff;
      }

      .cls-7 {
        fill: none;
      }

      .cls-5 {
        fill: #ccc;
      }
    </style>
  </defs>
  <g id="Layer_1" data-name="Layer 1">
    <g>
      <g class="cls-8">
        <path class="cls-1" d="m2062.49,1855.25v-166.81h147.92v44.86l289.58-238.75,699.29,576.52h-136.13v816.88h-1126.3v-816.88h-136.14l261.78-215.83Zm905.06,148.67l-467.55-385.47-385.19,317.57-82.36,67.9v788.43h274.35v-508.98h386.41v508.98h274.34v-788.43Z"/>
        <path class="cls-5" d="m2511.9,2078.17v95.41h95.41v-95.41h-95.41Zm-119.21,0v95.41h95.42v-95.41h-95.42Zm119.21-119.21v95.41h95.41v-95.41h-95.41Zm-119.21,0v95.41h95.42v-95.41h-95.42Z"/>
        <polygon class="cls-3" points="3693.65 2190.72 3096.78 1698.65 2959.74 1811.63 3023.88 1864.51 3096.78 1804.4 3495.85 2133.41 3495.85 2806.36 3317.1 2806.36 3261.69 2806.36 3110.95 2806.36 3110.95 2887.96 3577.45 2887.96 3577.45 2190.72 3693.65 2190.72"/>
        <polygon class="cls-3" points="1306.35 2190.72 1903.21 1698.65 2040.26 1811.63 1976.12 1864.51 1903.21 1804.4 1504.14 2133.41 1504.14 2806.36 1682.9 2806.36 1738.31 2806.36 1889.05 2806.36 1889.05 2887.96 1422.54 2887.96 1422.54 2190.72 1306.35 2190.72"/>
        <path class="cls-4" d="m4104.18,2459.64c0-49.5-40.12-89.62-89.62-89.62-4.09,0-8.11.27-12.06.8,9.43-4.14,19.86-6.44,30.82-6.44,42.42,0,76.82,34.4,76.82,76.82,0,11.44-2.5,22.3-6.99,32.06.68-4.44,1.03-8.99,1.03-13.63m-127.65-137.41c0-26.77-21.7-48.46-48.46-48.46-2.21,0-4.39.15-6.52.43,5.1-2.24,10.74-3.48,16.66-3.48,22.94,0,41.54,18.6,41.54,41.54,0,6.18-1.35,12.06-3.78,17.33.37-2.4.56-4.86.56-7.36Zm-38.32,38.49c26.77,0,48.46-21.7,48.46-48.46s-21.69-48.46-48.46-48.46-48.46,21.7-48.46,48.46,21.7,48.46,48.46,48.46Zm127.19-44.2c0-15.66-12.69-28.35-28.35-28.35-1.29,0-2.56.09-3.81.26,2.99-1.31,6.28-2.04,9.75-2.04,13.42,0,24.3,10.88,24.3,24.3,0,3.62-.79,7.06-2.22,10.14.22-1.41.33-2.85.33-4.31Zm-50.76-5.83c0,15.65,12.69,28.35,28.35,28.35s28.35-12.69,28.35-28.35-12.69-28.35-28.35-28.35-28.35,12.69-28.35,28.35Zm-3118.81,148.96c0-49.5,40.12-89.62,89.62-89.62,4.09,0,8.12.27,12.06.8-9.43-4.14-19.87-6.44-30.82-6.44-42.42,0-76.82,34.4-76.82,76.82,0,11.44,2.5,22.3,6.99,32.06-.68-4.44-1.03-8.99-1.03-13.63Zm70.85-108.05c49.5,0,89.62,40.12,89.62,89.62s-40.13,89.62-89.62,89.62-89.62-40.12-89.62-89.62,40.13-89.62,89.62-89.62Zm56.8-29.36c0-26.77,21.7-48.46,48.46-48.46,2.21,0,4.39.15,6.52.43-5.1-2.24-10.74-3.48-16.67-3.48-22.93,0-41.54,18.6-41.54,41.54,0,6.18,1.35,12.06,3.78,17.33-.37-2.4-.56-4.86-.56-7.36Zm38.31,38.49c-26.76,0-48.46-21.7-48.46-48.46s21.7-48.46,48.46-48.46,48.46,21.7,48.46,48.46-21.7,48.46-48.46,48.46Zm-127.19-44.2c0-15.66,12.7-28.35,28.36-28.35,1.29,0,2.56.09,3.81.26-2.99-1.31-6.28-2.04-9.75-2.04-13.42,0-24.3,10.88-24.3,24.3,0,3.62.79,7.06,2.22,10.14-.22-1.41-.33-2.85-.33-4.31Zm50.76-5.83c0,15.65-12.69,28.35-28.35,28.35s-28.35-12.69-28.35-28.35,12.69-28.35,28.35-28.35,28.35,12.69,28.35,28.35Zm2752.24-610.79c0-75.11-60.89-136-136-136-7.48,0-14.83.61-21.98,1.77,14.35-6,30.1-9.32,46.63-9.32,66.73,0,120.83,54.11,120.83,120.83,0,19.98-4.85,38.84-13.44,55.44,2.59-10.48,3.96-21.44,3.96-32.72Zm.06,189.44c0-45.26-28.84-83.79-69.14-98.2,46.75,5.24,83.09,44.91,83.09,93.06,0,34.65-18.81,64.89-46.77,81.09,20.21-19.01,32.82-46,32.82-75.95Zm-251.13-493.63c0-49.18-31.75-90.94-75.86-105.91,51.04,5.16,90.87,48.26,90.87,100.65,0,38.14-21.11,71.35-52.28,88.59,22.87-20.47,37.27-50.22,37.27-83.33Zm-469.43-118.15c-17.89-77.83-87.58-135.86-170.83-135.86-19.67,0-38.57,3.24-56.22,9.21-.26-.21-.52-.42-.78-.62,22.73-12.79,48.96-20.08,76.9-20.08,83.37,0,151.57,64.93,156.79,146.98-1.96.07-3.92.19-5.85.37Zm-1618.71,286.33c-75.11,0-136,60.89-136,136,0,11.28,1.37,22.24,3.96,32.72-8.59-16.61-13.44-35.46-13.44-55.44,0-66.73,54.1-120.83,120.83-120.83,16.53,0,32.28,3.32,46.63,9.32-7.16-1.16-14.5-1.77-21.98-1.77Zm-66.92,227.24c-40.31,14.41-69.15,52.95-69.15,98.2,0,29.94,12.61,56.93,32.82,75.95-27.95-16.2-46.76-46.45-46.76-81.09,0-48.15,36.34-87.82,83.09-93.06Zm257.85-501.34c-44.11,14.97-75.86,56.73-75.86,105.91,0,33.11,14.39,62.86,37.27,83.33-31.18-17.23-52.28-50.44-52.28-88.59,0-52.4,39.83-95.49,90.87-100.65Zm387.71-12.61c5.22-82.05,73.42-146.98,156.79-146.98,27.93,0,54.17,7.29,76.9,20.08-.25.21-.52.41-.78.62-17.65-5.97-36.56-9.21-56.22-9.21-83.26,0-152.95,58.03-170.84,135.86-1.93-.18-3.89-.3-5.85-.37Zm1411.25,387.45c-21.64,0-41.68-6.84-58.07-18.49,13.04,5.33,27.32,8.27,42.28,8.27,61.76,0,111.82-50.06,111.82-111.82,0-3.02-.12-5.99-.35-8.95,3.07,9.65,4.74,19.91,4.74,30.58,0,55.46-44.95,100.41-100.41,100.41Zm25.91-151.2c.8-7.07,1.21-14.26,1.21-21.55,0-105.36-85.41-190.76-190.77-190.76-17.15,0-33.77,2.26-49.58,6.5,22.84-11.26,48.54-17.59,75.73-17.59,94.68,0,171.43,76.75,171.43,171.43,0,18.12-2.81,35.57-8.02,51.96Zm-387.05-27.11c-45.1,0-83.04-30.66-94.12-72.27,19.12,34.22,55.7,57.35,97.68,57.35,32.32,0,61.43-13.71,81.85-35.63-16.56,30.13-48.6,50.54-85.4,50.54Zm-439.94-234.8c2.04-64.03,54.57-115.3,119.09-115.3,38,0,71.84,17.78,93.65,45.48-22.88-18.26-51.89-29.17-83.44-29.17-61.88,0-113.95,41.97-129.3,98.99Zm52.38,141.58c0-4.4.3-8.72.86-12.97,8.9,52.83,54.87,93.08,110.23,93.08,21.29,0,41.18-5.95,58.12-16.27-17.71,20.11-43.66,32.79-72.56,32.79-53.37,0-96.64-43.27-96.64-96.64Zm-969.79,253.04c-16.39,11.64-36.43,18.49-58.07,18.49-55.46,0-100.41-44.95-100.41-100.41,0-10.66,1.66-20.93,4.74-30.58-.23,2.96-.35,5.93-.35,8.95,0,61.75,50.06,111.82,111.81,111.82,14.96,0,29.23-2.94,42.27-8.27Zm-85.18-154.27c0,7.29.41,14.48,1.2,21.55-5.21-16.39-8.02-33.85-8.02-51.96,0-94.67,76.75-171.43,171.43-171.43,27.19,0,52.89,6.33,75.72,17.59-15.8-4.25-32.43-6.5-49.58-6.5-105.35,0-190.76,85.4-190.76,190.76Zm990.38-262.86c-18.82-19.88-45.45-32.29-74.99-32.29s-56.17,12.41-74.99,32.29c-.15-.72-.29-1.44-.45-2.16,15.93-24.81,43.76-41.24,75.43-41.24s59.5,16.43,75.43,41.24c-.15.72-.3,1.44-.45,2.16Zm-291.49-76.49c-31.56,0-60.56,10.91-83.45,29.17,21.82-27.7,55.66-45.48,93.66-45.48,64.52,0,117.04,51.27,119.08,115.3-15.36-57.02-67.42-98.99-129.3-98.99Zm-310.64,333.79c-36.8,0-68.84-20.41-85.41-50.54,20.42,21.92,49.53,35.63,81.85,35.63,41.97,0,78.56-23.13,97.68-57.35-11.08,41.61-49.03,72.27-94.12,72.27Zm290.92,3.42c-28.91,0-54.85-12.69-72.56-32.79,16.93,10.32,36.83,16.27,58.12,16.27,55.36,0,101.32-40.25,110.22-93.08.57,4.24.87,8.57.87,12.97,0,53.38-43.27,96.64-96.64,96.64Zm-810.63,188.2c0,96.8,78.48,175.29,175.29,175.29,3.69,0,7.36-.11,10.99-.34l263.78-217.47,110.5,91.1v-86.86h233.6l252.69-208.33,422.17,348.05,174.62-143.96,263.78,217.47c3.64.22,7.3.34,10.99.34,96.81,0,175.28-78.48,175.28-175.29,0-14.63-1.79-28.86-5.17-42.44,10.59,21.32,16.54,45.35,16.54,70.77,0,88-71.34,159.34-159.34,159.34-8.61,0-17.06-.68-25.29-2l410.64,338.55c60.37-22.42,103.39-80.56,103.39-148.73,0-74.23-51-136.55-119.87-153.84,81.14,4.42,145.56,71.61,145.56,153.84,0,75.42-54.18,138.18-125.75,151.48l26.11,21.53c73.55-23.12,126.89-91.83,126.89-173.01,0-99.36-79.93-180.05-179-181.3-4.2-36.48-27.23-67.23-59.12-82.28,36.09-24.46,59.82-65.8,59.82-112.69,0-75.11-60.88-136-135.99-136-39.76,0-75.54,17.06-100.4,44.27-7.84-8.23-16.46-15.7-25.75-22.28-.3-31.98-14.03-60.75-35.81-80.95,28.96-20.2,47.91-53.76,47.91-91.76,0-61.76-50.07-111.82-111.82-111.82-20.97,0-40.6,5.78-57.37,15.83-27.33-15.12-58.77-23.75-92.22-23.75-51.46,0-98.15,20.38-132.46,53.5-17.7-24.89-45.33-42.22-77.11-46.21-4.85-92.47-81.36-165.96-175.04-165.96-34.38,0-66.45,9.91-93.52,27.02-19.57-11.19-42.21-17.58-66.36-17.58-58.11,0-107.57,37.02-126.09,88.76-18.92-23.33-47.82-38.25-80.2-38.25s-61.27,14.92-80.2,38.25c-18.52-51.74-67.97-88.76-126.08-88.76-24.15,0-46.8,6.39-66.37,17.58-27.06-17.11-59.14-27.02-93.52-27.02-93.68,0-170.19,73.49-175.04,165.96-31.79,3.99-59.42,21.33-77.11,46.21-34.32-33.12-81-53.5-132.46-53.5-33.46,0-64.9,8.62-92.22,23.75-16.78-10.05-36.4-15.83-57.38-15.83-61.75,0-111.82,50.06-111.82,111.82,0,38,18.95,71.55,47.91,91.76-21.78,20.2-35.51,48.97-35.81,80.95-9.29,6.58-17.91,14.06-25.75,22.28-24.87-27.2-60.64-44.27-100.4-44.27-75.11,0-136,60.89-136,136,0,46.89,23.73,88.23,59.82,112.69-31.89,15.05-54.92,45.8-59.12,82.28-99.07,1.25-179,81.94-179,181.3,0,81.17,53.33,149.89,126.88,173.01l26.12-21.53c-71.56-13.3-125.75-76.06-125.75-151.48,0-82.23,64.42-149.42,145.56-153.84-68.87,17.29-119.87,79.61-119.87,153.84,0,68.18,43.02,126.31,103.39,148.73l410.65-338.55c-8.24,1.32-16.69,2-25.29,2-88,0-159.34-71.34-159.34-159.34,0-25.42,5.95-49.45,16.55-70.77-3.39,13.59-5.18,27.81-5.18,42.44Zm2439.73,220.5c15.05,0,27.26-12.2,27.26-27.26,0-1.24-.08-2.47-.25-3.67,1.25,2.87,1.95,6.04,1.95,9.37,0,12.91-10.46,23.36-23.36,23.36-3.48,0-6.78-.76-9.75-2.12,1.35.2,2.73.31,4.15.31Zm-21.65-21.55c0,15.05,12.21,27.26,27.26,27.26s27.26-12.2,27.26-27.26-12.21-27.26-27.26-27.26-27.26,12.21-27.26,27.26Zm25.5-86.15c0-39.4-31.94-71.33-71.34-71.33-3.25,0-6.46.21-9.6.63,7.51-3.29,15.81-5.12,24.54-5.12,33.77,0,61.15,27.38,61.15,61.15,0,9.11-1.99,17.75-5.57,25.52.54-3.53.82-7.16.82-10.85Zm-56.4,56.66c39.4,0,71.34-31.94,71.34-71.34s-31.94-71.34-71.34-71.34-71.34,31.94-71.34,71.34,31.94,71.34,71.34,71.34Zm-527.31-669.55c-17.67-34.84-60.23-48.76-95.07-31.09-2.88,1.46-5.61,3.09-8.2,4.87,5.16-6.28,11.68-11.62,19.4-15.53,29.86-15.14,66.35-3.21,81.48,26.65,4.09,8.06,6.2,16.6,6.53,25.07-1.1-3.37-2.49-6.7-4.14-9.96Zm-24.47,75.4c34.84-17.67,48.77-60.24,31.09-95.07-17.66-34.84-60.23-48.76-95.06-31.09-34.84,17.67-48.77,60.23-31.1,95.07,17.67,34.84,60.23,48.77,95.07,31.1Zm-130.53-83.35c-6.37-25.99-32.6-41.9-58.6-35.54-2.14.53-4.23,1.19-6.23,1.98,4.42-3.39,9.6-5.94,15.36-7.35,22.28-5.45,44.77,8.18,50.23,30.46,1.47,6.01,1.56,12.03.45,17.74-.21-2.42-.62-4.86-1.21-7.29Zm-28.05,46.5c26-6.37,41.9-32.6,35.54-58.6-6.38-25.99-32.61-41.9-58.61-35.53-26,6.37-41.9,32.61-35.54,58.6,6.37,26,32.61,41.9,58.6,35.53Zm-2022.85,682.03c-15.05,0-27.26-12.2-27.26-27.26,0-1.24.08-2.47.25-3.67-1.26,2.87-1.96,6.04-1.96,9.37,0,12.91,10.46,23.36,23.36,23.36,3.48,0,6.78-.76,9.75-2.12-1.35.2-2.74.31-4.14.31Zm21.65-21.55c0,15.05-12.21,27.26-27.25,27.26s-27.26-12.2-27.26-27.26,12.21-27.26,27.26-27.26,27.25,12.21,27.25,27.26Zm-25.5-86.15c0-39.4,31.95-71.33,71.34-71.33,3.26,0,6.46.21,9.6.63-7.51-3.29-15.81-5.12-24.54-5.12-33.77,0-61.15,27.38-61.15,61.15,0,9.11,1.99,17.75,5.56,25.52-.54-3.53-.82-7.16-.82-10.85Zm56.41,56.66c-39.41,0-71.34-31.94-71.34-71.34s31.93-71.34,71.34-71.34,71.34,31.94,71.34,71.34-31.94,71.34-71.34,71.34Zm527.31-669.55c17.67-34.84,60.23-48.76,95.08-31.09,2.87,1.46,5.61,3.09,8.2,4.87-5.16-6.28-11.68-11.62-19.4-15.53-29.86-15.14-66.35-3.21-81.48,26.65-4.09,8.06-6.21,16.6-6.53,25.07,1.11-3.37,2.48-6.7,4.14-9.96Zm24.47,75.4c-34.84-17.67-48.77-60.24-31.1-95.07,17.66-34.84,60.23-48.76,95.07-31.09,34.84,17.67,48.77,60.23,31.1,95.07-17.66,34.84-60.23,48.77-95.07,31.1Zm130.53-83.35c6.37-25.99,32.61-41.9,58.6-35.54,2.15.53,4.23,1.19,6.23,1.98-4.42-3.39-9.6-5.94-15.36-7.35-22.28-5.45-44.77,8.18-50.23,30.46-1.47,6.01-1.56,12.03-.45,17.74.21-2.42.62-4.86,1.21-7.29Zm28.05,46.5c-26-6.37-41.9-32.6-35.54-58.6,6.38-25.99,32.61-41.9,58.6-35.53,26,6.37,41.9,32.61,35.54,58.6-6.37,26-32.6,41.9-58.6,35.53Zm-824.89,1480.09c0,66.82,37.72,124.84,93.05,153.91-66.83-19.27-115.71-80.89-115.71-153.91s48.88-134.65,115.71-153.92c-55.32,29.07-93.05,87.09-93.05,153.92Zm164.7-392.11c33.47,0,62.52,18.92,77.03,46.66-17.94-19.45-43.65-31.63-72.2-31.63-41.25,0-76.55,25.42-91.09,61.46,5.13-43.08,41.79-76.49,86.26-76.49Zm163.91,310.73v-375.61h-116.85c-10.98,16.86-18.59,36.11-21.86,56.81-8.04-2.13-16.49-3.27-25.2-3.27-54.24,0-98.2,43.97-98.2,98.21,0,50.03,37.4,91.32,85.77,97.43-1.82,7.91-2.93,16.1-3.24,24.48-3.82-.23-7.66-.37-11.52-.37-101.46,0-183.7,82.25-183.7,183.7,0,88.28,62.29,162.02,145.32,179.67.5,4,1.19,7.93,2.06,11.8h218.61c.05-1.34.07-2.69.07-4.04,0-66.77-54.13-120.89-120.89-120.89-9.91,0-19.55,1.2-28.78,3.45,14.64-7.58,31.27-11.86,48.89-11.86,58.82,0,106.5,47.69,106.5,106.51,0,9.27-1.18,18.26-3.41,26.83h6.43v-270.97c-14.78,7.36-31.44,11.49-49.07,11.49-60.91,0-110.3-49.38-110.3-110.3,0-10.07,1.36-19.83,3.88-29.11,1.18,71.12,59.2,128.41,130.59,128.41,8.51,0,16.84-.82,24.89-2.38Zm2488.05,235.29c55.32-29.07,93.05-87.09,93.05-153.91s-37.74-124.84-93.05-153.92c66.83,19.27,115.71,80.89,115.71,153.92s-48.88,134.64-115.71,153.91Zm-76.49-530.99c-28.55,0-54.25,12.18-72.19,31.63,14.51-27.74,43.56-46.66,77.03-46.66,44.47,0,81.13,33.41,86.27,76.49-14.54-36.04-49.86-61.46-91.1-61.46Zm-159.08-79.91v375.61c8.06,1.56,16.38,2.38,24.89,2.38,71.4,0,129.42-57.3,130.59-128.41,2.53,9.28,3.88,19.03,3.88,29.11,0,60.92-49.38,110.3-110.29,110.3-17.63,0-34.3-4.14-49.08-11.5v270.98h6.44c-2.23-8.57-3.41-17.57-3.41-26.83,0-58.82,47.69-106.51,106.51-106.51,17.62,0,34.24,4.28,48.88,11.86-9.23-2.25-18.86-3.45-28.78-3.45-66.77,0-120.89,54.12-120.89,120.89,0,1.35.02,2.69.07,4.04h218.6c.88-3.87,1.57-7.8,2.06-11.8,83.03-17.65,145.32-91.38,145.32-179.67,0-101.45-82.24-183.7-183.69-183.7-3.87,0-7.71.14-11.52.37-.32-8.39-1.42-16.57-3.25-24.48,48.37-6.1,85.78-47.4,85.78-97.43,0-54.24-43.96-98.21-98.2-98.21-8.71,0-17.16,1.14-25.21,3.27-3.27-20.7-10.88-39.96-21.86-56.81h-116.85Zm407.09,112.08c-49.5,0-89.62,40.12-89.62,89.62s40.12,89.62,89.62,89.62,89.62-40.12,89.62-89.62-40.13-89.62-89.62-89.62Z"/>
      </g>
      <rect class="cls-7" width="5000" height="4000"/>
      <path class="cls-6" d="m1249.08,2999.9v263.93h-55.8v-263.93h55.8Zm45.91,0h68.82l72.68,177.33h3.09l72.68-177.33h68.82v263.93h-54.13v-171.78h-2.19l-68.3,170.5h-36.86l-68.3-171.14h-2.19v172.43h-54.13v-263.93Zm332.07,0h68.82l72.68,177.33h3.09l72.68-177.33h68.82v263.93h-54.13v-171.78h-2.19l-68.3,170.5h-36.86l-68.3-171.14h-2.19v172.43h-54.13v-263.93Zm574.6,131.96c0,28.78-5.45,53.27-16.37,73.46-10.82,20.19-25.6,35.61-44.33,46.27-18.64,10.57-39.6,15.85-62.89,15.85s-44.5-5.33-63.14-15.98c-18.64-10.65-33.38-26.08-44.2-46.27-10.83-20.19-16.24-44.63-16.24-73.33s5.41-53.27,16.24-73.46c10.83-20.19,25.56-35.57,44.2-46.14,18.64-10.65,39.69-15.98,63.14-15.98s44.25,5.33,62.89,15.98c18.73,10.57,33.5,25.95,44.33,46.14,10.91,20.19,16.37,44.67,16.37,73.46Zm-56.57,0c0-18.64-2.79-34.36-8.38-47.17-5.5-12.8-13.27-22.51-23.33-29.12-10.05-6.62-21.82-9.92-35.31-9.92s-25.26,3.31-35.31,9.92c-10.05,6.61-17.87,16.32-23.45,29.12-5.5,12.8-8.25,28.52-8.25,47.17s2.75,34.37,8.25,47.17c5.58,12.8,13.4,22.51,23.45,29.12,10.05,6.62,21.82,9.92,35.31,9.92s25.26-3.31,35.31-9.92c10.05-6.61,17.83-16.32,23.33-29.12,5.59-12.8,8.38-28.52,8.38-47.17Z"/>
      <path class="cls-2" d="m2243,3263.83v-263.93h55.8v108.9h113.28v-108.9h55.67v263.93h-55.67v-109.02h-113.28v109.02h-55.8Zm316.24,0h-59.79l91.11-263.93h71.91l90.99,263.93h-59.8l-66.11-203.62h-2.06l-66.25,203.62Zm-3.73-103.74h141.24v43.56h-141.24v-43.56Zm229.71,103.74v-263.93h105.68c19.42,0,35.61,2.88,48.58,8.63,12.97,5.76,22.73,13.75,29.25,23.97,6.53,10.14,9.8,21.82,9.8,35.05,0,10.31-2.06,19.37-6.19,27.19-4.12,7.73-9.79,14.09-17.01,19.07-7.13,4.9-15.29,8.38-24.49,10.44v2.58c10.05.43,19.46,3.26,28.22,8.51,8.85,5.24,16.02,12.59,21.52,22.04,5.5,9.36,8.25,20.53,8.25,33.51,0,14-3.47,26.5-10.43,37.5-6.88,10.91-17.06,19.54-30.55,25.9-13.48,6.36-30.11,9.54-49.87,9.54h-112.76Zm55.8-45.62h45.49c15.55,0,26.89-2.96,34.02-8.89,7.13-6.01,10.7-14,10.7-23.97,0-7.3-1.76-13.75-5.28-19.33-3.53-5.59-8.56-9.97-15.08-13.15-6.45-3.18-14.13-4.77-23.07-4.77h-46.78v70.11Zm0-107.86h41.36c7.65,0,14.43-1.33,20.37-4,6.02-2.75,10.73-6.61,14.17-11.6,3.52-4.98,5.29-10.95,5.29-17.91,0-9.54-3.39-17.23-10.19-23.07-6.7-5.84-16.23-8.76-28.61-8.76h-42.4v65.34Zm239.92-110.44v263.93h-55.8v-263.93h55.8Zm35.85,46.01v-46.01h216.77v46.01h-80.81v217.92h-55.15v-217.92h-80.81Zm265.71,217.92h-59.8l91.11-263.93h71.92l90.98,263.93h-59.8l-66.11-203.62h-2.06l-66.24,203.62Zm-3.74-103.74h141.24v43.56h-141.24v-43.56Zm187.41-114.18v-46.01h216.76v46.01h-80.81v217.92h-55.15v-217.92h-80.8Z"/>
    </g>
  </g>
</svg>