<?xml version="1.0" encoding="UTF-8"?>
<svg id="Calque_2" data-name="Calque 2" xmlns="http://www.w3.org/2000/svg" viewBox="0 0 5008.91 2297.5">
  <defs>
    <style>
      .cls-1 {
        fill: #182030;
      }

      .cls-2 {
        opacity: .4;
      }

      .cls-3 {
        fill: #22c55e;
      }

      .cls-3, .cls-4 {
        opacity: .2;
      }

      .cls-4 {
        fill: #3b82f6;
      }

      .cls-5 {
        opacity: .46;
      }
    </style>
  </defs>
  <g id="Cityscape">
    <g class="cls-5">
      <g>
        <path class="cls-3" d="m1963.35,2.1v122.22h-26.04V2.1h26.04Zm21,0h31.92l33.6,81.9h1.26l33.6-81.9h31.92v122.22h-25.2V44.94h-.42l-31.5,78.96h-17.22l-31.5-79.38h-.84v79.8h-25.2l-.42-122.22h0Zm153.72,0h31.92l33.6,81.9h1.26l33.6-81.9h31.92v122.22h-25.2V44.94h-.84l-31.5,78.96h-16.8l-31.5-79.38h-.84v79.8h-25.2l-.42-122.22h0Zm266.28,61.32c0,13.44-2.52,24.78-7.56,34.02-5.04,9.24-11.76,16.38-20.58,21.42-8.82,5.04-18.48,7.14-28.98,7.14s-20.58-2.52-29.4-7.56c-8.82-5.04-15.54-12.18-20.58-21.42-5.04-9.24-7.56-20.58-7.56-34.02s2.52-24.78,7.56-34.02c5.04-9.24,11.76-16.38,20.58-21.42,8.82-5.04,18.48-7.56,29.4-7.56s20.58,2.52,28.98,7.56c8.82,5.04,15.54,12.18,20.58,21.42,5.04,9.66,7.56,21,7.56,34.44Zm-26.46,0c0-8.82-1.26-15.96-3.78-21.84-2.52-5.88-6.3-10.5-10.92-13.44s-10.08-4.62-16.38-4.62-11.76,1.68-16.38,4.62-8.4,7.56-10.92,13.44c-2.52,5.88-3.78,13.02-3.78,21.84s1.26,15.96,3.78,21.84c2.52,5.88,6.3,10.5,10.92,13.44,4.62,2.94,10.08,4.62,16.38,4.62s11.76-1.68,16.38-4.62,8.4-7.56,10.92-13.44c2.52-5.88,3.78-13.44,3.78-21.84Z"/>
        <path class="cls-4" d="m2423.25,124.32V2.1h25.62v50.4h52.5V2.1h25.62v122.22h-25.62v-50.4h-52.5v50.4h-25.62Zm146.58,0h-27.72l42-122.22h33.18l42,122.22h-27.72l-30.66-94.08h-.84l-30.24,94.08Zm-1.68-47.88h65.52v20.16h-65.52v-20.16Zm106.26,47.88V2.1h48.72c8.82,0,16.38,1.26,22.68,4.2,6.3,2.94,10.5,6.3,13.44,10.92s4.62,10.08,4.62,16.38c0,4.62-.84,8.82-2.94,12.6s-4.62,6.72-7.98,8.82c-3.36,2.1-7.14,3.78-11.34,5.04v1.26c4.62,0,8.82,1.68,13.02,3.78,4.2,2.52,7.56,5.88,10.08,10.08,2.52,4.2,3.78,9.66,3.78,15.54,0,6.3-1.68,12.18-4.62,17.22-3.36,5.04-7.98,9.24-14.28,12.18-6.3,2.94-13.86,4.62-23.1,4.62h-52.08v-.42h0Zm26.04-21h21c7.14,0,12.6-1.26,15.96-4.2,3.36-2.94,5.04-6.3,5.04-10.92,0-3.36-.84-6.3-2.52-8.82-1.68-2.52-3.78-4.62-7.14-5.88-2.94-1.68-6.72-2.1-10.5-2.1h-21.84v31.92Zm0-49.98h19.32c3.36,0,6.72-.42,9.24-1.68,2.94-1.26,5.04-2.94,6.72-5.46,1.68-2.1,2.52-5.04,2.52-8.4,0-4.62-1.68-7.98-4.62-10.5-2.94-2.52-7.56-4.2-13.44-4.2h-19.74v30.24h0Zm110.88-51.24v122.22h-26.04V2.1h26.04Zm16.8,21.42V2.1h100.38v21.42h-37.38v100.8h-25.62V23.52h-37.38Zm122.64,100.8h-27.72l42-122.22h33.18l42,122.22h-27.72l-30.66-94.08h-.42l-30.66,94.08Zm-1.68-47.88h65.52v20.16h-65.52v-20.16Zm86.94-52.92V2.1h100.38v21.42h-37.38v100.8h-25.62V23.52h-37.38Z"/>
      </g>
      <g class="cls-2">
        <g>
          <path class="cls-1" d="m147.2,1749.5v548h274v-548H147.2Zm12,402.5h250v27h-250v-27Zm0-12v-27h250v27h-250Zm0-39v-139h250v139h-250Zm0-151v-27h250v27h-250Zm0-39v-27h250v27h-250Zm0-39v-83.55h250v83.55h-250Zm250-110.5v14.95h-250v-14.95h250Zm-250,524v-94.5h250v94.5h-250Z"/>
          <g>
            <path class="cls-1" d="m576.7,2108v-137h-167v326h333v-189h-166Zm-155,177v-302h39v302h-39Zm51,0v-302h41v302h-41Zm258,0h-205v-302h39v137h166v165Z"/>
            <rect class="cls-1" x="576.2" y="2171.02" width="133.01" height="12"/>
            <rect class="cls-1" x="576.2" y="2223.02" width="133.01" height="12"/>
          </g>
          <g>
            <path class="cls-1" d="m958.7,1827v-473h-194v473h-34v470h262v-470h-34Zm-182-461h170v461h-45v-429h-80v429h-45v-461Zm113,461h-56v-417h56v417Zm91,458h-238v-446h238v446Z"/>
            <rect class="cls-1" x="759.7" y="1865" width="88" height="12"/>
            <rect class="cls-1" x="875.7" y="1865" width="88" height="12"/>
            <polygon class="cls-1" points="875.7 1926 759.7 1926 759.7 1938 875.7 1938 910.7 1938 963.7 1938 963.7 1926 910.7 1926 875.7 1926"/>
            <rect class="cls-1" x="759.7" y="1987" width="88" height="12"/>
            <rect class="cls-1" x="875.7" y="1987" width="88" height="12"/>
            <polygon class="cls-1" points="875.7 2048 759.7 2048 759.7 2060 875.7 2060 914.7 2060 963.7 2060 963.7 2048 914.7 2048 875.7 2048"/>
            <rect class="cls-1" x="759.7" y="2109" width="88" height="12"/>
            <rect class="cls-1" x="875.7" y="2109" width="88" height="12"/>
            <polygon class="cls-1" points="875.7 2170 759.7 2170 759.7 2182 875.7 2182 914.7 2182 963.7 2182 963.7 2170 914.7 2170 875.7 2170"/>
            <rect class="cls-1" x="759.7" y="2231" width="88" height="12"/>
            <rect class="cls-1" x="875.7" y="2231" width="88" height="12"/>
          </g>
          <path class="cls-1" d="m980.7,1570v727h272v-727h-272Zm12,12h248v9h-248v-9Zm0,188.69h26.42v160.16h-26.42v-160.16Zm70-167.69v155.69h-31.58v-155.69h31.58Zm43.58,339.84v160.16h-31.58v-160.16h31.58Zm-31.58-12v-160.16h31.58v160.16h-31.58Zm43.58,12h31.58v160.16h-31.58v-160.16Zm0-12v-160.16h31.58v160.16h-31.58Zm0-172.16v-155.69h31.58v155.69h-31.58Zm-12,0h-31.58v-155.69h31.58v155.69Zm-43.58,12v160.16h-31.58v-160.16h31.58Zm-70,172.16h26.42v160.16h-26.42v-160.16Zm38.42,0h31.58v160.16h-31.58v-160.16Zm31.58,172.16v170h-31.58v-170h31.58Zm12,0h31.58v170h-31.58v-170Zm43.58,0h31.58v170h-31.58v-170Zm43.58,0h31.58v170h-31.58v-170Zm0-12v-160.16h31.58v160.16h-31.58Zm43.58-160.16h35.27v160.16h-35.27v-160.16Zm0-12v-160.16h35.27v160.16h-35.27Zm-12,0h-31.58v-160.16h31.58v160.16Zm-31.58-172.16v-155.69h31.58v155.69h-31.58Zm-142.73-155.69v155.69h-26.42v-155.69h26.42Zm-26.42,512h26.42v170h-26.42v-170Zm212.73,170v-170h35.27v170h-35.27Zm35.27-526.31h-35.27v-155.69h35.27v155.69Z"/>
          <g>
            <rect class="cls-1" x="1274.7" y="2074" width="51.94" height="12"/>
            <rect class="cls-1" x="1274.7" y="2126" width="51.94" height="12"/>
            <rect class="cls-1" x="1274.7" y="2178" width="51.94" height="12"/>
            <rect class="cls-1" x="1274.7" y="2230" width="51.94" height="12"/>
            <path class="cls-1" d="m1600.67,2019v-637h-47.97v-152h-34v-128.98l-65-88v-101.02h-12v101.02l-65,88v128.98h-34v152h-48.03v637h-53.97v278h413v-278h-53.03Zm-184.97-789v-116.13l32-43.32,32,43.32v116.13h-7v144h-50v-144h-7Zm125,144h-22v-115.53h-12v115.53h-22v-132h56v132Zm-152-269.02l59-79.88,59,79.88v125.02h-15v-120.08l-44-59.57-44,59.57v120.08h-15v-125.02Zm-34,137.02h56v132h-22v-115.53h-12v115.53h-22v-132Zm-48.03,152h282v625h-28.97v-580h-224.06v580h-28.97v-625Zm113.03,57v834h-31.6v-834h31.6Zm12,0h31.6v834h-31.6v-834Zm43.6,0h31.6v834h-31.6v-834Zm-127.6,834h-95v-254h95v254Zm-.06-266v-568h28.46v834h-16.4v-266h-12.06Zm171.27,266v-834h28.79v568h-13v266h-15.79Zm122.79,0h-95v-254h95v254Z"/>
            <rect class="cls-1" x="1568.7" y="2074" width="51.94" height="12"/>
            <rect class="cls-1" x="1568.7" y="2126" width="51.94" height="12"/>
            <rect class="cls-1" x="1568.7" y="2178" width="51.94" height="12"/>
            <rect class="cls-1" x="1568.7" y="2230" width="51.94" height="12"/>
          </g>
          <g>
            <path class="cls-1" d="m1869.49,1422c-1.43-22.04-10.67-42.58-26.44-58.34-15.77-15.77-36.3-25.01-58.34-26.44v-86.22h-12v86.2c-45.41,2.97-81.83,39.39-84.8,84.8h-46.2v875h274v-875h-46.22Zm-90.78-73c21.1,0,40.93,8.22,55.86,23.14,13.5,13.5,21.49,31.02,22.9,49.86h-15.04c-3.04-32.49-30.44-58-63.71-58s-60.67,25.51-63.71,58h-15.04c3.08-40.77,37.21-73,78.75-73Zm51.64,73h-103.29c2.99-25.86,25-46,51.64-46s48.66,20.14,51.64,46Zm73.36,863h-250v-851h250v851Z"/>
            <rect class="cls-1" x="1685.7" y="1487" width="187" height="12"/>
            <rect class="cls-1" x="1685.7" y="1552" width="125" height="12"/>
            <rect class="cls-1" x="1685.7" y="1617" width="187" height="12"/>
            <rect class="cls-1" x="1685.7" y="1682" width="125" height="12"/>
            <rect class="cls-1" x="1685.7" y="1747" width="187" height="12"/>
            <rect class="cls-1" x="1685.7" y="1812" width="125" height="12"/>
            <rect class="cls-1" x="1685.7" y="1877" width="187" height="12"/>
            <rect class="cls-1" x="1685.7" y="1942" width="125" height="12"/>
            <rect class="cls-1" x="1685.7" y="2007" width="187" height="12"/>
            <rect class="cls-1" x="1685.7" y="2072" width="125" height="12"/>
            <rect class="cls-1" x="1685.7" y="2137" width="187" height="12"/>
            <rect class="cls-1" x="1685.7" y="2201" width="125" height="12"/>
            <rect class="cls-1" x="1836.7" y="1552" width="36" height="12"/>
            <rect class="cls-1" x="1836.7" y="1682" width="36" height="12"/>
            <rect class="cls-1" x="1836.7" y="1812" width="36" height="12"/>
            <rect class="cls-1" x="1836.7" y="1942" width="36" height="12"/>
            <rect class="cls-1" x="1836.7" y="2074" width="36" height="12"/>
            <rect class="cls-1" x="1836.7" y="2201" width="36" height="12"/>
          </g>
          <path class="cls-1" d="m1903.7,1617v680h273v-680h-273Zm12,12h249v15h-249v-15Zm92,27v629h-40.97v-629h40.97Zm12,0h40.97v629h-40.97v-629Zm52.97,0h40.97v629h-40.97v-629Zm-156.97,0h39.03v629h-39.03v-629Zm249,629h-39.06v-629h39.06v629Z"/>
          <g>
            <path class="cls-1" d="m2457.7,2086v-564h-62v-87h-43.62v-43.32h-12v43.32h-17.38v-130h-12v130h-43v87h-62v564h-41v211h334v-211h-41Zm-178-639h104v75h-104v-75Zm-62,87h228v552h-228v-552Zm269,751h-310v-187h310v187Z"/>
            <rect class="cls-1" x="2211.7" y="2141" width="240" height="12"/>
            <rect class="cls-1" x="2211.7" y="2186" width="240" height="12"/>
            <rect class="cls-1" x="2211.7" y="2231" width="240" height="12"/>
            <rect class="cls-1" x="2236.7" y="1581" width="52" height="12"/>
            <rect class="cls-1" x="2305.7" y="1581" width="52" height="12"/>
            <rect class="cls-1" x="2374.7" y="1581" width="52" height="12"/>
            <polygon class="cls-1" points="2374.7 1631 2357.7 1631 2305.7 1631 2236.7 1631 2236.7 1643 2305.7 1643 2357.7 1643 2374.7 1643 2395.7 1643 2426.7 1643 2426.7 1631 2395.7 1631 2374.7 1631"/>
            <rect class="cls-1" x="2236.7" y="1681" width="52" height="12"/>
            <rect class="cls-1" x="2305.7" y="1681" width="52" height="12"/>
            <rect class="cls-1" x="2374.7" y="1681" width="52" height="12"/>
            <polygon class="cls-1" points="2374.7 1731 2357.7 1731 2305.7 1731 2236.7 1731 2236.7 1743 2305.7 1743 2357.7 1743 2374.7 1743 2395.7 1743 2426.7 1743 2426.7 1731 2395.7 1731 2374.7 1731"/>
            <rect class="cls-1" x="2236.7" y="1781" width="52" height="12"/>
            <rect class="cls-1" x="2305.7" y="1781" width="52" height="12"/>
            <rect class="cls-1" x="2374.7" y="1781" width="52" height="12"/>
            <polygon class="cls-1" points="2374.7 1831 2357.7 1831 2305.7 1831 2236.7 1831 2236.7 1843 2305.7 1843 2357.7 1843 2374.7 1843 2395.7 1843 2426.7 1843 2426.7 1831 2395.7 1831 2374.7 1831"/>
            <rect class="cls-1" x="2236.7" y="1881" width="52" height="12"/>
            <rect class="cls-1" x="2305.7" y="1881" width="52" height="12"/>
            <rect class="cls-1" x="2374.7" y="1881" width="52" height="12"/>
            <polygon class="cls-1" points="2374.7 1931 2357.7 1931 2305.7 1931 2236.7 1931 2236.7 1943 2305.7 1943 2357.7 1943 2374.7 1943 2390.7 1943 2426.7 1943 2426.7 1931 2390.7 1931 2374.7 1931"/>
            <rect class="cls-1" x="2236.7" y="1981" width="52" height="12"/>
            <rect class="cls-1" x="2305.7" y="1981" width="52" height="12"/>
            <rect class="cls-1" x="2374.7" y="1981" width="52" height="12"/>
            <polygon class="cls-1" points="2374.7 2031 2357.7 2031 2305.7 2031 2236.7 2031 2236.7 2043 2305.7 2043 2357.7 2043 2374.7 2043 2392.7 2043 2426.7 2043 2426.7 2031 2392.7 2031 2374.7 2031"/>
          </g>
          <g>
            <path class="cls-1" d="m2720.7,1049v170.6l-34.8,20.82v-70.42h-12v77.6l-187.2,112v937.4h246v-1248h-12Zm0,184.58v20.02l-222,132.82v-20.02l222-132.82Zm-222,1051.42v-884.6l222-132.82v1017.42h-222Z"/>
            <rect class="cls-1" x="2531.7" y="1426" width="66" height="12"/>
            <rect class="cls-1" x="2621.7" y="1426" width="66" height="12"/>
            <rect class="cls-1" x="2621.7" y="1367" width="66" height="12"/>
            <rect class="cls-1" x="2531.7" y="1479" width="66" height="12"/>
            <rect class="cls-1" x="2621.7" y="1479" width="66" height="12"/>
            <rect class="cls-1" x="2531.7" y="1532" width="66" height="12"/>
            <rect class="cls-1" x="2621.7" y="1532" width="66" height="12"/>
            <rect class="cls-1" x="2531.7" y="1585" width="66" height="12"/>
            <rect class="cls-1" x="2621.7" y="1585" width="66" height="12"/>
            <rect class="cls-1" x="2531.7" y="1638" width="66" height="12"/>
            <rect class="cls-1" x="2621.7" y="1638" width="66" height="12"/>
            <rect class="cls-1" x="2531.7" y="1691" width="66" height="12"/>
            <rect class="cls-1" x="2621.7" y="1691" width="66" height="12"/>
            <rect class="cls-1" x="2531.7" y="1744" width="66" height="12"/>
            <rect class="cls-1" x="2621.7" y="1744" width="66" height="12"/>
            <rect class="cls-1" x="2531.7" y="1797" width="66" height="12"/>
            <rect class="cls-1" x="2621.7" y="1797" width="66" height="12"/>
            <rect class="cls-1" x="2531.7" y="1850" width="66" height="12"/>
            <rect class="cls-1" x="2621.7" y="1850" width="66" height="12"/>
            <rect class="cls-1" x="2531.7" y="1903" width="66" height="12"/>
            <rect class="cls-1" x="2621.7" y="1903" width="66" height="12"/>
            <rect class="cls-1" x="2531.7" y="1956" width="66" height="12"/>
            <rect class="cls-1" x="2621.7" y="1956" width="66" height="12"/>
            <rect class="cls-1" x="2531.7" y="2009" width="66" height="12"/>
            <rect class="cls-1" x="2621.7" y="2009" width="66" height="12"/>
            <rect class="cls-1" x="2531.7" y="2062" width="66" height="12"/>
            <rect class="cls-1" x="2621.7" y="2062" width="66" height="12"/>
            <rect class="cls-1" x="2531.7" y="2115" width="66" height="12"/>
            <rect class="cls-1" x="2621.7" y="2115" width="66" height="12"/>
            <rect class="cls-1" x="2531.7" y="2168" width="66" height="12"/>
            <rect class="cls-1" x="2621.7" y="2168" width="66" height="12"/>
            <rect class="cls-1" x="2531.7" y="2221" width="66" height="12"/>
            <rect class="cls-1" x="2621.7" y="2221" width="66" height="12"/>
          </g>
          <g>
            <path class="cls-1" d="m3129.7,1697l3.34-4.98-100.34-67.22v-2.8h-36v-153h-137v153h-36v2.8l-100.34,67.22,3.34,4.98h-6v600h415v-600h-6Zm-62,429.24v-129.56l23.14,15.5v129.56l-23.14-15.5Zm23.14,29.95v128.81h-23.14v-144.31l23.14,15.5Zm0-302.44l-23.14-15.5v-129.56l23.36,15.65h-.22v129.41Zm-58.14-24.51l23,15.41v129.56l-23-15.41v-129.56Zm35,23.45l23.14,15.5v129.56l-23.14-15.5v-129.56Zm-12-151.69v129.21l-23-15.41v-129.56l23.52,15.76h-.52Zm-23,272.24l23,15.41v129.56l-23-15.41v-129.56Zm70.14,46.99l20.86,13.97v129.56l-20.86-13.97v-129.56Zm0-14.44v-129.56l20.86,13.97v129.56l-20.86-13.97Zm0-144v-129.56l20.86,13.97v129.56l-20.86-13.97Zm-70.14-190.99v-31.56l91,60.96v31.56l-91-60.96Zm-161-189.8h113v141h-11v-122h-91v122h-11v-141Zm23,141v-110h27.5v110h-27.5Zm39.5-110h27.5v110h-27.5v-110Zm-110.5,590.8l-23,15.41v-129.56l23-15.41v129.56Zm-58.14,38.95v-129.56l23.14-15.5v129.56l-23.14,15.5Zm23.14-1.06v144.31h-23.14v-128.81l23.14-15.5Zm-56-394.49l20.86-13.97v129.56l-20.86,13.97v-129.56Zm32.86,107.55v-129.41h-.22l23.36-15.65v129.56l-23.14,15.5Zm23.14-1.06v129.56l-23.14,15.5v-129.56l23.14-15.5Zm-56,37.51l20.86-13.97v129.56l-20.86,13.97v-129.56Zm0,144l20.86-13.97v129.56l-20.86,13.97v-129.56Zm91-75.4l-23,15.41v-129.56l23-15.41v129.56Zm0-144l-23,15.41v-129.21h-.52l23.52-15.76v129.56Zm0-144l-91,60.96v-31.56l91-60.96v31.56Zm-91,507.4l20.86-13.97v120.77h-20.86v-106.8Zm68,106.8v-152.35l23-15.41v167.76h-23Zm220,0h-185v-651h185v651Zm12-167.76l23,15.41v152.35h-23v-167.76Zm70.14,167.76v-120.77l20.86,13.97v106.8h-20.86Z"/>
            <path class="cls-1" d="m2947.7,1653h-95v613h151v-613h-56Zm-83,601v-589h18v589h-18Zm30,0v-589h14v589h-14Zm26,0v-589h15v589h-15Zm27,0v-589h14v589h-14Zm44-589v589h-18v-589h18Z"/>
          </g>
          <g>
            <path class="cls-1" d="m3372.7,1860v-585h-249v1022h309v-437h-60Zm-237,425v-998h225v573h-60v21.72h-76v12h76v38.61h-134v12h134v38.61h-76v12h76v38.61h-134v12h134v38.61h-76v12h76v38.61h-134v12h134v38.61h-76v12h76v38.61h-134v12h134v37h-165Zm285,0h-108v-413h108v413Z"/>
            <rect class="cls-1" x="3342.7" y="1914" width="12" height="337"/>
            <rect class="cls-1" x="3378.7" y="1914" width="12" height="337"/>
            <rect class="cls-1" x="3166.7" y="1325" width="163" height="12"/>
            <rect class="cls-1" x="3224.7" y="1375.61" width="105" height="12"/>
            <rect class="cls-1" x="3166.7" y="1426.22" width="163" height="12"/>
            <rect class="cls-1" x="3224.7" y="1476.83" width="105" height="12"/>
            <rect class="cls-1" x="3166.7" y="1527.44" width="163" height="12"/>
            <rect class="cls-1" x="3224.7" y="1578.06" width="105" height="12"/>
            <rect class="cls-1" x="3166.7" y="1628.67" width="163" height="12"/>
            <rect class="cls-1" x="3224.7" y="1679.28" width="105" height="12"/>
            <rect class="cls-1" x="3166.7" y="1729.89" width="163" height="12"/>
            <rect class="cls-1" x="3224.7" y="1780.5" width="105" height="12"/>
            <rect class="cls-1" x="3166.7" y="1831.11" width="163" height="12"/>
            <rect class="cls-1" x="3166.7" y="1375.61" width="31.74" height="12"/>
            <rect class="cls-1" x="3166.7" y="1476.61" width="31.74" height="12"/>
            <rect class="cls-1" x="3166.7" y="1577.61" width="31.74" height="12"/>
            <rect class="cls-1" x="3166.7" y="1679.61" width="31.74" height="12"/>
            <rect class="cls-1" x="3166.7" y="1779.61" width="31.74" height="12"/>
            <rect class="cls-1" x="3166.7" y="1880.61" width="31.74" height="12"/>
            <rect class="cls-1" x="3166.7" y="1982.61" width="31.74" height="12"/>
            <rect class="cls-1" x="3166.7" y="2084.61" width="31.74" height="12"/>
            <rect class="cls-1" x="3166.7" y="2184.61" width="31.74" height="12"/>
          </g>
          <g>
            <path class="cls-1" d="m3642.7,1622v-35h-176v35h-46v675h268v-675h-46Zm-164-23h152v23h-152v-23Zm0,686v-593h152v593h-152Zm198,0h-34v-605h-176v605h-34v-651h244v651Z"/>
            <rect class="cls-1" x="3501.7" y="1722" width="43.1" height="12"/>
            <rect class="cls-1" x="3562.7" y="1799" width="43.1" height="12"/>
            <rect class="cls-1" x="3562.7" y="1983" width="43.1" height="12"/>
            <rect class="cls-1" x="3562.7" y="2169" width="43.1" height="12"/>
            <rect class="cls-1" x="3501.7" y="1882" width="43.1" height="12"/>
            <rect class="cls-1" x="3501.7" y="2073" width="43.1" height="12"/>
          </g>
          <g>
            <path class="cls-1" d="m4031.7,2258h43v-466h-138v466h95Zm0-454h31v442h-31v-442Zm-40,0h28v442h-28v-442Zm-43,0h31v442h-31v-442Z"/>
            <rect class="cls-1" x="3713.7" y="1974" width="67" height="12"/>
            <rect class="cls-1" x="3713.7" y="2027" width="110.85" height="12"/>
            <rect class="cls-1" x="3713.7" y="2080" width="67" height="12"/>
            <rect class="cls-1" x="3713.7" y="2133" width="110.85" height="12"/>
            <rect class="cls-1" x="3713.7" y="2186" width="67" height="12"/>
            <rect class="cls-1" x="3713.7" y="2239" width="110.85" height="12"/>
            <rect class="cls-1" x="3800.77" y="1974" width="23.79" height="12"/>
            <rect class="cls-1" x="3800.77" y="2080" width="23.79" height="12"/>
            <rect class="cls-1" x="3800.77" y="2186" width="23.79" height="12"/>
            <path class="cls-1" d="m3912.7,1753v424h-50v-253h-186v373h422v-544h-186Zm174,532h-398v-349h162v253h74v-424h162v520Z"/>
          </g>
          <g>
            <path class="cls-1" d="m4329.7,1488v-76h-167v76h-76v809h319v-809h-76Zm-167,797h-64v-785h64v785Zm51.67,0h-39.67v-748h39.67v748Zm51.67,0h-39.67v-748h39.67v748Zm51.67,0h-39.67v-748h39.67v748Zm0-760h-143v-25h143v25Zm0-37h-143v-64h143v64Zm76,797h-64v-785h64v785Z"/>
            <rect class="cls-1" x="4197.75" y="1450" width="31.4" height="12"/>
            <rect class="cls-1" x="4244.75" y="1450" width="49.95" height="12"/>
          </g>
          <g>
            <path class="cls-1" d="m4613.7,2068v-416.12l-79-98v-97.88h-12v97.88l-79,98v416.12h-50v229h270v-229h-50Zm-158-411.88l73-90.56,73,90.56v411.88h-23v-389h.11v-12h-100.11v401h-23v-411.88Zm35,361.88v-37.5h76v37.5h-76Zm76,12v38h-76v-38h76Zm-76-61.5v-37.5h76v37.5h-76Zm0-49.5v-37.5h76v37.5h-76Zm0-49.5v-37.5h76v37.5h-76Zm0-49.5v-37.5h76v37.5h-76Zm0-49.5v-37.5h76v37.5h-76Zm0-49.5v-42h76v42h-76Zm161,564h-246v-205h246v205Z"/>
            <rect class="cls-1" x="4430.7" y="2111" width="54" height="12"/>
            <rect class="cls-1" x="4501.7" y="2111" width="54" height="12"/>
            <rect class="cls-1" x="4572.7" y="2111" width="54" height="12"/>
            <polygon class="cls-1" points="4572.7 2157 4555.7 2157 4501.7 2157 4430.7 2157 4430.7 2169 4501.7 2169 4555.7 2169 4572.7 2169 4591.7 2169 4626.7 2169 4626.7 2157 4591.7 2157 4572.7 2157"/>
            <rect class="cls-1" x="4430.7" y="2203" width="54" height="12"/>
            <rect class="cls-1" x="4501.7" y="2203" width="54" height="12"/>
            <rect class="cls-1" x="4572.7" y="2203" width="54" height="12"/>
            <polygon class="cls-1" points="4572.7 2249 4555.7 2249 4501.7 2249 4430.7 2249 4430.7 2261 4501.7 2261 4555.7 2261 4572.7 2261 4584.7 2261 4626.7 2261 4626.7 2249 4584.7 2249 4572.7 2249"/>
          </g>
          <path class="cls-1" d="m4809.7,1799v-151h-12v99h-35v-46.5h-12v46.5h-47v52h-52v498h210v-498h-52Zm-94-40h82v40h-82v-40Zm2,526h-54v-115h54v115Zm0-127h-54v-177.5h54v177.5Zm0-189.5h-54v-103.5h54v103.5Zm66,316.5h-54v-115h54v115Zm0-127h-54v-177.5h54v177.5Zm0-189.5h-54v-103.5h54v103.5Zm66,316.5h-54v-115h54v115Zm0-127h-54v-177.5h54v177.5Zm0-189.5h-54v-103.5h54v103.5Zm0-115.5h-186v-42h186v42Z"/>
        </g>
        <polygon class="cls-1" points="4746.11 1193.66 4732.45 1193.66 4732.45 1180 4720.45 1180 4720.45 1193.66 4706.8 1193.66 4706.8 1205.66 4720.45 1205.66 4720.45 1219.31 4732.45 1219.31 4732.45 1205.66 4746.11 1205.66 4746.11 1193.66"/>
        <polygon class="cls-1" points="3820.11 1641.65 3806.45 1641.65 3806.45 1628 3794.45 1628 3794.45 1641.65 3780.8 1641.65 3780.8 1653.65 3794.45 1653.65 3794.45 1667.31 3806.45 1667.31 3806.45 1653.65 3820.11 1653.65 3820.11 1641.65"/>
        <polygon class="cls-1" points="3820.11 463.66 3806.45 463.66 3806.45 450 3794.45 450 3794.45 463.66 3780.8 463.66 3780.8 475.66 3794.45 475.66 3794.45 489.31 3806.45 489.31 3806.45 475.66 3820.11 475.66 3820.11 463.66"/>
        <polygon class="cls-1" points="2963.11 1110.66 2949.45 1110.66 2949.45 1097 2937.45 1097 2937.45 1110.66 2923.8 1110.66 2923.8 1122.66 2937.45 1122.66 2937.45 1136.31 2949.45 1136.31 2949.45 1122.66 2963.11 1122.66 2963.11 1110.66"/>
        <polygon class="cls-1" points="1508.11 335.66 1494.45 335.66 1494.45 322 1482.45 322 1482.45 335.66 1468.8 335.66 1468.8 347.66 1482.45 347.66 1482.45 361.31 1494.45 361.31 1494.45 347.66 1508.11 347.66 1508.11 335.66"/>
        <polygon class="cls-1" points="1112.11 1244.65 1098.45 1244.65 1098.45 1231 1086.45 1231 1086.45 1244.65 1072.8 1244.65 1072.8 1256.65 1086.45 1256.65 1086.45 1270.31 1098.45 1270.31 1098.45 1256.65 1112.11 1256.65 1112.11 1244.65"/>
        <polygon class="cls-1" points="317.11 845.66 303.45 845.66 303.45 832 291.45 832 291.45 845.66 277.8 845.66 277.8 857.66 291.45 857.66 291.45 871.31 303.45 871.31 303.45 857.66 317.11 857.66 317.11 845.66"/>
        <path class="cls-1" d="m339.85,1671.73h-16.48c-22.01,0-39.91-17.9-39.91-39.9s17.9-39.9,39.9-39.9c.55,0,1.11.01,1.66.03,2.98-26.78,25.75-47.68,53.32-47.68,20.36,0,38.83,11.58,47.87,29.41,4.56-1.87,9.45-2.84,14.44-2.84,16.79,0,31.45,11.12,36.34,26.71,1.02-.09,2.04-.14,3.06-.14,18.97,0,34.41,15.43,34.41,34.41h-12c0-12.35-10.05-22.41-22.41-22.41-2.03,0-4.06.28-6.03.83-1.67.47-3.45.18-4.9-.76-1.45-.95-2.41-2.48-2.65-4.19-1.77-12.79-12.87-22.44-25.82-22.44-5.03,0-9.93,1.44-14.15,4.16-1.54.99-3.45,1.23-5.19.64-1.74-.59-3.11-1.94-3.72-3.67-5.89-16.57-21.66-27.7-39.25-27.7-22.96,0-41.65,18.68-41.65,41.65,0,.2,0,.39,0,.59.06,1.85-.73,3.63-2.16,4.82-1.43,1.19-3.32,1.65-5.13,1.25-1.97-.43-4-.66-6.05-.66-15.39,0-27.9,12.52-27.9,27.9s12.52,27.9,27.9,27.9h16.49v12Z"/>
        <path class="cls-1" d="m4583.15,672h-16.49v-12h16.48c15.4,0,27.91-12.52,27.91-27.9s-12.52-27.9-27.9-27.9c-2.04,0-4.08.22-6.04.66-1.8.4-3.7-.06-5.13-1.24-1.43-1.18-2.22-2.96-2.16-4.81,0-.2,0-.4,0-.6,0-22.96-18.68-41.65-41.65-41.65-17.59,0-33.37,11.13-39.25,27.7-.61,1.73-1.98,3.08-3.72,3.67-1.73.59-3.65.36-5.19-.64-4.22-2.72-9.11-4.16-14.15-4.16-12.95,0-24.04,9.65-25.82,22.44-.24,1.71-1.2,3.24-2.65,4.19-1.45.95-3.24,1.23-4.9.77-1.97-.55-4-.83-6.03-.83-12.35,0-22.41,10.05-22.41,22.41h-12c0-18.97,15.43-34.41,34.41-34.41,1.02,0,2.04.05,3.06.14,4.88-15.59,19.55-26.71,36.34-26.71,4.99,0,9.88.97,14.44,2.84,9.04-17.83,27.51-29.41,47.87-29.41,27.57,0,50.34,20.9,53.32,47.68.55-.02,1.11-.03,1.66-.03,22,0,39.9,17.9,39.9,39.9s-17.9,39.9-39.9,39.9Z"/>
        <path class="cls-1" d="m3222.45,893h-16.48c-22.01,0-39.91-17.9-39.91-39.9s17.9-39.9,39.9-39.9c.55,0,1.11.01,1.66.03,2.98-26.78,25.75-47.68,53.32-47.68,20.36,0,38.83,11.58,47.87,29.41,4.56-1.87,9.45-2.84,14.44-2.84,16.79,0,31.45,11.12,36.34,26.71,1.02-.09,2.04-.14,3.06-.14,18.97,0,34.41,15.43,34.41,34.41h-12c0-12.35-10.05-22.41-22.41-22.41-2.04,0-4.07.28-6.03.83-1.67.46-3.45.19-4.9-.77-1.45-.95-2.41-2.48-2.65-4.19-1.77-12.79-12.87-22.44-25.82-22.44-5.03,0-9.93,1.44-14.15,4.16-1.54.99-3.45,1.23-5.19.64-1.74-.59-3.11-1.94-3.72-3.67-5.89-16.57-21.66-27.7-39.25-27.7-22.96,0-41.65,18.68-41.65,41.65,0,.2,0,.4,0,.6.06,1.85-.74,3.63-2.16,4.81s-3.32,1.64-5.13,1.24c-1.97-.44-4-.66-6.04-.66-15.39,0-27.9,12.52-27.9,27.9s12.52,27.9,27.9,27.9h16.49v12Z"/>
        <path class="cls-1" d="m813.48,887.19h-27c-20.42,0-37.03-16.61-37.03-37.03,0-19.17,14.64-34.99,33.33-36.85-1.53-5.5-2.3-11.19-2.3-17,0-35.01,28.49-63.5,63.5-63.5,21.46,0,41.51,11.05,53.14,28.74,6.07-4.95,13.73-7.75,21.7-7.75,14.01,0,26.54,8.67,31.74,21.31,1.58-.21,3.17-.31,4.77-.31,19.92,0,36.12,16.2,36.12,36.12h-12c0-13.3-10.82-24.12-24.12-24.12-2.41,0-4.8.36-7.11,1.06-1.6.49-3.34.28-4.78-.57-1.44-.85-2.47-2.27-2.82-3.91-2.19-10.18-11.36-17.57-21.79-17.57-7.13,0-13.89,3.46-18.08,9.25-1.24,1.71-3.29,2.65-5.4,2.46-2.11-.19-3.96-1.48-4.87-3.38-8.53-17.81-26.78-29.31-46.49-29.31-28.4,0-51.5,23.1-51.5,51.5,0,7.23,1.47,14.22,4.36,20.78.89,2.01.6,4.35-.74,6.09-1.34,1.74-3.53,2.61-5.7,2.26-1.27-.2-2.59-.31-3.92-.31-13.8,0-25.03,11.23-25.03,25.03s11.23,25.03,25.03,25.03h27v12Z"/>
        <path class="cls-1" d="m2182.53,1152.53h-36.76v-12h36.76c12.64,0,22.92-10.28,22.92-22.92s-10.28-22.92-22.92-22.92c-1.64,0-3.29.18-4.88.52-1.79.39-3.66-.06-5.08-1.23-1.42-1.16-2.22-2.91-2.19-4.74,0-.47.02-.96.02-1.43,0-30.52-24.83-55.35-55.35-55.35-28.52,0-52.2,21.36-55.06,49.69-.2,1.99-1.39,3.76-3.16,4.7-1.77.94-3.89.93-5.66-.02-4.31-2.32-9.19-3.54-14.12-3.54-12.75,0-24.12,8.09-28.29,20.12-.52,1.51-1.63,2.75-3.07,3.44-1.44.69-3.1.78-4.6.25-1.94-.69-4-1.03-6.11-1.03-10.22,0-18.54,8.32-18.54,18.54h-12c0-16.84,13.7-30.54,30.54-30.54,1.54,0,3.07.11,4.58.34,7.03-14.03,21.48-23.13,37.49-23.13,4.16,0,8.29.62,12.25,1.83,6.72-30.51,33.72-52.66,65.75-52.66,35.41,0,64.53,27.47,67.15,62.22.11,0,.22,0,.33,0,19.25,0,34.92,15.67,34.92,34.92s-15.66,34.92-34.92,34.92Z"/>
        <path class="cls-1" d="m3761.78,1473.67h-16.74c-15.21,0-27.58-12.37-27.58-27.58s12.37-27.58,27.58-27.58c1.74,0,3.47.17,5.17.49,2.69-19.55,19.51-34.66,39.8-34.66s35.36,13.38,39.26,31.57c.7-.06,1.4-.09,2.1-.09,12.73,0,23.09,10.36,23.09,23.09h-12c0-6.11-4.97-11.09-11.09-11.09-1.63,0-3.2.35-4.67,1.04-1.83.86-3.96.73-5.68-.32-1.72-1.06-2.79-2.91-2.85-4.92-.48-15.29-12.85-27.26-28.16-27.26s-28.17,12.64-28.17,28.17c0,.82.04,1.63.11,2.43.21,2.24-.86,4.41-2.76,5.62-1.9,1.2-4.32,1.24-6.26.1-2.38-1.4-5.1-2.14-7.88-2.14-8.59,0-15.58,6.99-15.58,15.58s6.99,15.58,15.58,15.58h16.74v12Z"/>
        <g>
          <path class="cls-1" d="m2504.45,793c-31.43,0-57-25.57-57-57s25.57-57,57-57,57,25.57,57,57-25.57,57-57,57Zm0-102c-24.81,0-45,20.19-45,45s20.19,45,45,45,45-20.19,45-45-20.19-45-45-45Z"/>
          <g>
            <rect class="cls-1" x="2498.45" y="641" width="12" height="20.38"/>
            <rect class="cls-1" x="2498.45" y="588" width="12" height="40.38"/>
          </g>
          <g>
            <rect class="cls-1" x="2456.05" y="652.36" width="12" height="20.38" transform="translate(-1.42 1319.81) rotate(-30)"/>
            <rect class="cls-1" x="2434.55" y="605.12" width="12" height="40.38" transform="translate(14.31 1304.05) rotate(-30)"/>
          </g>
          <g>
            <rect class="cls-1" x="2425.01" y="683.41" width="12" height="20.38" transform="translate(614.82 2452.1) rotate(-60)"/>
            <rect class="cls-1" x="2387.77" y="651.91" width="12" height="40.38" transform="translate(614.83 2409.11) rotate(-60)"/>
          </g>
          <g>
            <rect class="cls-1" x="2409.45" y="730" width="20.38" height="12"/>
            <rect class="cls-1" x="2356.45" y="730" width="40.38" height="12"/>
          </g>
          <g>
            <rect class="cls-1" x="2420.82" y="772.41" width="20.38" height="12" transform="translate(-63.52 1319.76) rotate(-30)"/>
            <rect class="cls-1" x="2373.58" y="793.91" width="40.38" height="12" transform="translate(-79.25 1304.02) rotate(-30)"/>
          </g>
          <g>
            <rect class="cls-1" x="2451.86" y="803.45" width="20.38" height="12" transform="translate(530.04 2536.94) rotate(-60)"/>
            <rect class="cls-1" x="2420.36" y="840.69" width="40.38" height="12" transform="translate(487.04 2536.94) rotate(-60)"/>
          </g>
          <g>
            <rect class="cls-1" x="2498.45" y="810.62" width="12" height="20.38"/>
            <rect class="cls-1" x="2498.45" y="843.62" width="12" height="40.38"/>
          </g>
          <g>
            <rect class="cls-1" x="2540.86" y="799.26" width="12" height="20.38" transform="translate(-63.52 1381.84) rotate(-30)"/>
            <rect class="cls-1" x="2562.36" y="826.5" width="12" height="40.38" transform="translate(-79.25 1397.58) rotate(-30)"/>
          </g>
          <g>
            <rect class="cls-1" x="2571.9" y="768.21" width="12" height="20.38" transform="translate(614.84 2621.74) rotate(-60)"/>
            <rect class="cls-1" x="2609.14" y="779.71" width="12" height="40.38" transform="translate(614.83 2664.73) rotate(-60)"/>
          </g>
          <g>
            <rect class="cls-1" x="2579.07" y="730" width="20.38" height="12"/>
            <rect class="cls-1" x="2612.07" y="730" width="40.38" height="12"/>
          </g>
          <g>
            <rect class="cls-1" x="2567.71" y="687.6" width="20.38" height="12" transform="translate(-1.43 1381.84) rotate(-30)"/>
            <rect class="cls-1" x="2594.95" y="666.1" width="40.38" height="12" transform="translate(14.31 1397.58) rotate(-30)"/>
          </g>
          <g>
            <rect class="cls-1" x="2536.67" y="656.55" width="20.38" height="12" transform="translate(699.66 2536.94) rotate(-60)"/>
            <rect class="cls-1" x="2548.17" y="619.31" width="40.38" height="12" transform="translate(742.66 2536.94) rotate(-60)"/>
          </g>
        </g>
        <rect class="cls-1" y="2285.5" width="5008.91" height="12"/>
      </g>
    </g>
  </g>
</svg>