<?xml version="1.0" encoding="UTF-8"?>
<svg id="Calque_2" data-name="Calque 2" xmlns="http://www.w3.org/2000/svg" viewBox="0 0 5008.91 2305.81">
  <defs>
    <style>
      .cls-1 {
        fill: #182030;
      }

      .cls-2 {
        opacity: .4;
      }

      .cls-3 {
        fill: #22c55e;
      }

      .cls-3, .cls-4 {
        opacity: .2;
      }

      .cls-4 {
        fill: #3b82f6;
      }

      .cls-5 {
        opacity: .46;
      }
    </style>
  </defs>
  <g id="Cityscape">
    <g class="cls-5">
      <g>
        <path class="cls-3" d="m1298.85,2012.96v288.87h-61.55v-288.87h61.55Zm49.63,0h75.44l79.42,193.58h2.98l79.42-193.58h75.44v288.87h-59.56v-187.62h-.99l-74.45,186.63h-40.7l-74.45-187.62h-1.99v188.61h-59.56l-.99-288.87h0Zm363.33,0h75.44l79.42,193.58h2.98l79.42-193.58h75.44v288.87h-59.56v-187.62h-1.99l-74.45,186.63h-39.71l-74.45-187.62h-1.99v188.61h-59.56l-.99-288.87h0Zm629.37,144.93c0,31.77-5.96,58.57-17.87,80.41-11.91,21.84-27.8,38.72-48.64,50.63-20.85,11.91-43.68,16.88-68.5,16.88s-48.64-5.96-69.49-17.87c-20.85-11.91-36.73-28.79-48.64-50.63-11.91-21.84-17.87-48.64-17.87-80.41s5.96-58.57,17.87-80.41c11.91-21.84,27.8-38.72,48.64-50.63,20.85-11.91,43.68-17.87,69.49-17.87s48.64,5.96,68.5,17.87c20.85,11.91,36.73,28.79,48.64,50.63,11.91,22.83,17.87,49.63,17.87,81.4Zm-62.54,0c0-20.85-2.98-37.72-8.93-51.62-5.96-13.9-14.89-24.82-25.81-31.77s-23.82-10.92-38.72-10.92-27.8,3.97-38.72,10.92c-10.92,6.95-19.85,17.87-25.81,31.77-5.96,13.9-8.93,30.77-8.93,51.62s2.98,37.72,8.93,51.62c5.96,13.9,14.89,24.82,25.81,31.77,10.92,6.95,23.82,10.92,38.72,10.92s27.8-3.97,38.72-10.92,19.85-17.87,25.81-31.77,8.93-31.77,8.93-51.62Z"/>
        <path class="cls-4" d="m2385.86,2301.84v-288.87h60.55v119.12h124.09v-119.12h60.55v288.87h-60.55v-119.12h-124.09v119.12h-60.55Zm346.45,0h-65.52l99.27-288.87h78.42l99.27,288.87h-65.52l-72.47-222.36h-1.99l-71.47,222.36Zm-3.97-113.17h154.86v47.65h-154.86v-47.65Zm251.15,113.17v-288.87h115.15c20.85,0,38.72,2.98,53.61,9.93,14.89,6.95,24.82,14.89,31.77,25.81s10.92,23.82,10.92,38.72c0,10.92-1.99,20.85-6.95,29.78s-10.92,15.88-18.86,20.85c-7.94,4.96-16.88,8.93-26.8,11.91v2.98c10.92,0,20.85,3.97,30.77,8.93,9.93,5.96,17.87,13.9,23.82,23.82,5.96,9.93,8.93,22.83,8.93,36.73,0,14.89-3.97,28.79-10.92,40.7-7.94,11.91-18.86,21.84-33.75,28.79-14.89,6.95-32.76,10.92-54.6,10.92h-123.09v-.99h0Zm61.55-49.63h49.63c16.88,0,29.78-2.98,37.72-9.93,7.94-6.95,11.91-14.89,11.91-25.81,0-7.94-1.99-14.89-5.96-20.85-3.97-5.96-8.93-10.92-16.88-13.9-6.95-3.97-15.88-4.96-24.82-4.96h-51.62v75.44Zm0-118.13h45.66c7.94,0,15.88-.99,21.84-3.97,6.95-2.98,11.91-6.95,15.88-12.9,3.97-4.96,5.96-11.91,5.96-19.85,0-10.92-3.97-18.86-10.92-24.82-6.95-5.96-17.87-9.93-31.77-9.93h-46.66v71.47h0Zm262.07-121.11v288.87h-61.55v-288.87h61.55Zm39.71,50.63v-50.63h237.25v50.63h-88.35v238.25h-60.55v-238.25h-88.35Zm289.87,238.25h-65.52l99.27-288.87h78.42l99.27,288.87h-65.52l-72.47-222.36h-.99l-72.47,222.36Zm-3.97-113.17h154.86v47.65h-154.86v-47.65Zm205.49-125.08v-50.63h237.25v50.63h-88.35v238.25h-60.55v-238.25h-88.35Z"/>
      </g>
      <g class="cls-2">
        <g>
          <path class="cls-1" d="m147.2,1427.5v548h274v-548H147.2Zm12,402.5h250v27h-250v-27Zm0-12v-27h250v27h-250Zm0-39v-139h250v139h-250Zm0-151v-27h250v27h-250Zm0-39v-27h250v27h-250Zm0-39v-83.55h250v83.55h-250Zm250-110.5v14.95h-250v-14.95h250Zm-250,524v-94.5h250v94.5h-250Z"/>
          <g>
            <path class="cls-1" d="m576.7,1786v-137h-167v326h333v-189h-166Zm-155,177v-302h39v302h-39Zm51,0v-302h41v302h-41Zm258,0h-205v-302h39v137h166v165Z"/>
            <rect class="cls-1" x="576.2" y="1849.02" width="133.01" height="12"/>
            <rect class="cls-1" x="576.2" y="1901.02" width="133.01" height="12"/>
          </g>
          <g>
            <path class="cls-1" d="m958.7,1505v-473h-194v473h-34v470h262v-470h-34Zm-182-461h170v461h-45v-429h-80v429h-45v-461Zm113,461h-56v-417h56v417Zm91,458h-238v-446h238v446Z"/>
            <rect class="cls-1" x="759.7" y="1543" width="88" height="12"/>
            <rect class="cls-1" x="875.7" y="1543" width="88" height="12"/>
            <polygon class="cls-1" points="875.7 1604 759.7 1604 759.7 1616 875.7 1616 910.7 1616 963.7 1616 963.7 1604 910.7 1604 875.7 1604"/>
            <rect class="cls-1" x="759.7" y="1665" width="88" height="12"/>
            <rect class="cls-1" x="875.7" y="1665" width="88" height="12"/>
            <polygon class="cls-1" points="875.7 1726 759.7 1726 759.7 1738 875.7 1738 914.7 1738 963.7 1738 963.7 1726 914.7 1726 875.7 1726"/>
            <rect class="cls-1" x="759.7" y="1787" width="88" height="12"/>
            <rect class="cls-1" x="875.7" y="1787" width="88" height="12"/>
            <polygon class="cls-1" points="875.7 1848 759.7 1848 759.7 1860 875.7 1860 914.7 1860 963.7 1860 963.7 1848 914.7 1848 875.7 1848"/>
            <rect class="cls-1" x="759.7" y="1909" width="88" height="12"/>
            <rect class="cls-1" x="875.7" y="1909" width="88" height="12"/>
          </g>
          <path class="cls-1" d="m980.7,1248v727h272v-727h-272Zm12,12h248v9h-248v-9Zm0,188.69h26.42v160.16h-26.42v-160.16Zm70-167.69v155.69h-31.58v-155.69h31.58Zm43.58,339.84v160.16h-31.58v-160.16h31.58Zm-31.58-12v-160.16h31.58v160.16h-31.58Zm43.58,12h31.58v160.16h-31.58v-160.16Zm0-12v-160.16h31.58v160.16h-31.58Zm0-172.16v-155.69h31.58v155.69h-31.58Zm-12,0h-31.58v-155.69h31.58v155.69Zm-43.58,12v160.16h-31.58v-160.16h31.58Zm-70,172.16h26.42v160.16h-26.42v-160.16Zm38.42,0h31.58v160.16h-31.58v-160.16Zm31.58,172.16v170h-31.58v-170h31.58Zm12,0h31.58v170h-31.58v-170Zm43.58,0h31.58v170h-31.58v-170Zm43.58,0h31.58v170h-31.58v-170Zm0-12v-160.16h31.58v160.16h-31.58Zm43.58-160.16h35.27v160.16h-35.27v-160.16Zm0-12v-160.16h35.27v160.16h-35.27Zm-12,0h-31.58v-160.16h31.58v160.16Zm-31.58-172.16v-155.69h31.58v155.69h-31.58Zm-142.73-155.69v155.69h-26.42v-155.69h26.42Zm-26.42,512h26.42v170h-26.42v-170Zm212.73,170v-170h35.27v170h-35.27Zm35.27-526.31h-35.27v-155.69h35.27v155.69Z"/>
          <g>
            <rect class="cls-1" x="1274.7" y="1752" width="51.94" height="12"/>
            <rect class="cls-1" x="1274.7" y="1804" width="51.94" height="12"/>
            <rect class="cls-1" x="1274.7" y="1856" width="51.94" height="12"/>
            <rect class="cls-1" x="1274.7" y="1908" width="51.94" height="12"/>
            <path class="cls-1" d="m1600.67,1697v-637h-47.97v-152h-34v-128.98l-65-88v-101.02h-12v101.02l-65,88v128.98h-34v152h-48.03v637h-53.97v278h413v-278h-53.03Zm-184.97-789v-116.13l32-43.32,32,43.32v116.13h-7v144h-50v-144h-7Zm125,144h-22v-115.53h-12v115.53h-22v-132h56v132Zm-152-269.02l59-79.88,59,79.88v125.02h-15v-120.09l-44-59.57-44,59.57v120.09h-15v-125.02Zm-34,137.02h56v132h-22v-115.53h-12v115.53h-22v-132Zm-48.03,152h282v625h-28.97v-580h-224.06v580h-28.97v-625Zm113.03,57v834h-31.6v-834h31.6Zm12,0h31.6v834h-31.6v-834Zm43.6,0h31.6v834h-31.6v-834Zm-127.6,834h-95v-254h95v254Zm-.06-266v-568h28.46v834h-16.4v-266h-12.06Zm171.27,266v-834h28.79v568h-13v266h-15.79Zm122.79,0h-95v-254h95v254Z"/>
            <rect class="cls-1" x="1568.7" y="1752" width="51.94" height="12"/>
            <rect class="cls-1" x="1568.7" y="1804" width="51.94" height="12"/>
            <rect class="cls-1" x="1568.7" y="1856" width="51.94" height="12"/>
            <rect class="cls-1" x="1568.7" y="1908" width="51.94" height="12"/>
          </g>
          <g>
            <path class="cls-1" d="m1869.49,1100c-1.43-22.04-10.67-42.58-26.44-58.34-15.77-15.77-36.3-25.01-58.34-26.44v-86.22h-12v86.2c-45.41,2.97-81.83,39.39-84.8,84.8h-46.2v875h274v-875h-46.22Zm-90.78-73c21.1,0,40.93,8.22,55.86,23.14,13.5,13.5,21.49,31.02,22.9,49.86h-15.04c-3.04-32.49-30.44-58-63.71-58s-60.67,25.51-63.71,58h-15.04c3.08-40.77,37.21-73,78.75-73Zm51.64,73h-103.29c2.99-25.86,25-46,51.64-46s48.66,20.14,51.64,46Zm73.36,863h-250v-851h250v851Z"/>
            <rect class="cls-1" x="1685.7" y="1165" width="187" height="12"/>
            <rect class="cls-1" x="1685.7" y="1230" width="125" height="12"/>
            <rect class="cls-1" x="1685.7" y="1295" width="187" height="12"/>
            <rect class="cls-1" x="1685.7" y="1360" width="125" height="12"/>
            <rect class="cls-1" x="1685.7" y="1425" width="187" height="12"/>
            <rect class="cls-1" x="1685.7" y="1490" width="125" height="12"/>
            <rect class="cls-1" x="1685.7" y="1555" width="187" height="12"/>
            <rect class="cls-1" x="1685.7" y="1620" width="125" height="12"/>
            <rect class="cls-1" x="1685.7" y="1685" width="187" height="12"/>
            <rect class="cls-1" x="1685.7" y="1750" width="125" height="12"/>
            <rect class="cls-1" x="1685.7" y="1815" width="187" height="12"/>
            <rect class="cls-1" x="1685.7" y="1879" width="125" height="12"/>
            <rect class="cls-1" x="1836.7" y="1230" width="36" height="12"/>
            <rect class="cls-1" x="1836.7" y="1360" width="36" height="12"/>
            <rect class="cls-1" x="1836.7" y="1490" width="36" height="12"/>
            <rect class="cls-1" x="1836.7" y="1620" width="36" height="12"/>
            <rect class="cls-1" x="1836.7" y="1752" width="36" height="12"/>
            <rect class="cls-1" x="1836.7" y="1879" width="36" height="12"/>
          </g>
          <path class="cls-1" d="m1903.7,1295v680h273v-680h-273Zm12,12h249v15h-249v-15Zm92,27v629h-40.97v-629h40.97Zm12,0h40.97v629h-40.97v-629Zm52.97,0h40.97v629h-40.97v-629Zm-156.97,0h39.03v629h-39.03v-629Zm249,629h-39.06v-629h39.06v629Z"/>
          <g>
            <path class="cls-1" d="m2457.7,1764v-564h-62v-87h-43.62v-43.32h-12v43.32h-17.38v-130h-12v130h-43v87h-62v564h-41v211h334v-211h-41Zm-178-639h104v75h-104v-75Zm-62,87h228v552h-228v-552Zm269,751h-310v-187h310v187Z"/>
            <rect class="cls-1" x="2211.7" y="1819" width="240" height="12"/>
            <rect class="cls-1" x="2211.7" y="1864" width="240" height="12"/>
            <rect class="cls-1" x="2211.7" y="1909" width="240" height="12"/>
            <rect class="cls-1" x="2236.7" y="1259" width="52" height="12"/>
            <rect class="cls-1" x="2305.7" y="1259" width="52" height="12"/>
            <rect class="cls-1" x="2374.7" y="1259" width="52" height="12"/>
            <polygon class="cls-1" points="2374.7 1309 2357.7 1309 2305.7 1309 2236.7 1309 2236.7 1321 2305.7 1321 2357.7 1321 2374.7 1321 2395.7 1321 2426.7 1321 2426.7 1309 2395.7 1309 2374.7 1309"/>
            <rect class="cls-1" x="2236.7" y="1359" width="52" height="12"/>
            <rect class="cls-1" x="2305.7" y="1359" width="52" height="12"/>
            <rect class="cls-1" x="2374.7" y="1359" width="52" height="12"/>
            <polygon class="cls-1" points="2374.7 1409 2357.7 1409 2305.7 1409 2236.7 1409 2236.7 1421 2305.7 1421 2357.7 1421 2374.7 1421 2395.7 1421 2426.7 1421 2426.7 1409 2395.7 1409 2374.7 1409"/>
            <rect class="cls-1" x="2236.7" y="1459" width="52" height="12"/>
            <rect class="cls-1" x="2305.7" y="1459" width="52" height="12"/>
            <rect class="cls-1" x="2374.7" y="1459" width="52" height="12"/>
            <polygon class="cls-1" points="2374.7 1509 2357.7 1509 2305.7 1509 2236.7 1509 2236.7 1521 2305.7 1521 2357.7 1521 2374.7 1521 2395.7 1521 2426.7 1521 2426.7 1509 2395.7 1509 2374.7 1509"/>
            <rect class="cls-1" x="2236.7" y="1559" width="52" height="12"/>
            <rect class="cls-1" x="2305.7" y="1559" width="52" height="12"/>
            <rect class="cls-1" x="2374.7" y="1559" width="52" height="12"/>
            <polygon class="cls-1" points="2374.7 1609 2357.7 1609 2305.7 1609 2236.7 1609 2236.7 1621 2305.7 1621 2357.7 1621 2374.7 1621 2390.7 1621 2426.7 1621 2426.7 1609 2390.7 1609 2374.7 1609"/>
            <rect class="cls-1" x="2236.7" y="1659" width="52" height="12"/>
            <rect class="cls-1" x="2305.7" y="1659" width="52" height="12"/>
            <rect class="cls-1" x="2374.7" y="1659" width="52" height="12"/>
            <polygon class="cls-1" points="2374.7 1709 2357.7 1709 2305.7 1709 2236.7 1709 2236.7 1721 2305.7 1721 2357.7 1721 2374.7 1721 2392.7 1721 2426.7 1721 2426.7 1709 2392.7 1709 2374.7 1709"/>
          </g>
          <g>
            <path class="cls-1" d="m2720.7,727v170.6l-34.8,20.82v-70.42h-12v77.6l-187.2,112v937.4h246V727h-12Zm0,184.58v20.02l-222,132.82v-20.02l222-132.82Zm-222,1051.42v-884.6l222-132.82v1017.42h-222Z"/>
            <rect class="cls-1" x="2531.7" y="1104" width="66" height="12"/>
            <rect class="cls-1" x="2621.7" y="1104" width="66" height="12"/>
            <rect class="cls-1" x="2621.7" y="1045" width="66" height="12"/>
            <rect class="cls-1" x="2531.7" y="1157" width="66" height="12"/>
            <rect class="cls-1" x="2621.7" y="1157" width="66" height="12"/>
            <rect class="cls-1" x="2531.7" y="1210" width="66" height="12"/>
            <rect class="cls-1" x="2621.7" y="1210" width="66" height="12"/>
            <rect class="cls-1" x="2531.7" y="1263" width="66" height="12"/>
            <rect class="cls-1" x="2621.7" y="1263" width="66" height="12"/>
            <rect class="cls-1" x="2531.7" y="1316" width="66" height="12"/>
            <rect class="cls-1" x="2621.7" y="1316" width="66" height="12"/>
            <rect class="cls-1" x="2531.7" y="1369" width="66" height="12"/>
            <rect class="cls-1" x="2621.7" y="1369" width="66" height="12"/>
            <rect class="cls-1" x="2531.7" y="1422" width="66" height="12"/>
            <rect class="cls-1" x="2621.7" y="1422" width="66" height="12"/>
            <rect class="cls-1" x="2531.7" y="1475" width="66" height="12"/>
            <rect class="cls-1" x="2621.7" y="1475" width="66" height="12"/>
            <rect class="cls-1" x="2531.7" y="1528" width="66" height="12"/>
            <rect class="cls-1" x="2621.7" y="1528" width="66" height="12"/>
            <rect class="cls-1" x="2531.7" y="1581" width="66" height="12"/>
            <rect class="cls-1" x="2621.7" y="1581" width="66" height="12"/>
            <rect class="cls-1" x="2531.7" y="1634" width="66" height="12"/>
            <rect class="cls-1" x="2621.7" y="1634" width="66" height="12"/>
            <rect class="cls-1" x="2531.7" y="1687" width="66" height="12"/>
            <rect class="cls-1" x="2621.7" y="1687" width="66" height="12"/>
            <rect class="cls-1" x="2531.7" y="1740" width="66" height="12"/>
            <rect class="cls-1" x="2621.7" y="1740" width="66" height="12"/>
            <rect class="cls-1" x="2531.7" y="1793" width="66" height="12"/>
            <rect class="cls-1" x="2621.7" y="1793" width="66" height="12"/>
            <rect class="cls-1" x="2531.7" y="1846" width="66" height="12"/>
            <rect class="cls-1" x="2621.7" y="1846" width="66" height="12"/>
            <rect class="cls-1" x="2531.7" y="1899" width="66" height="12"/>
            <rect class="cls-1" x="2621.7" y="1899" width="66" height="12"/>
          </g>
          <g>
            <path class="cls-1" d="m3129.7,1375l3.34-4.98-100.34-67.22v-2.8h-36v-153h-137v153h-36v2.8l-100.34,67.22,3.34,4.98h-6v600h415v-600h-6Zm-62,429.24v-129.56l23.14,15.5v129.56l-23.14-15.5Zm23.14,29.95v128.81h-23.14v-144.31l23.14,15.5Zm0-302.44l-23.14-15.5v-129.56l23.36,15.65h-.22v129.41Zm-58.14-24.51l23,15.41v129.56l-23-15.41v-129.56Zm35,23.45l23.14,15.5v129.56l-23.14-15.5v-129.56Zm-12-151.69v129.21l-23-15.41v-129.56l23.52,15.76h-.52Zm-23,272.24l23,15.41v129.56l-23-15.41v-129.56Zm70.14,46.99l20.86,13.97v129.56l-20.86-13.97v-129.56Zm0-14.44v-129.56l20.86,13.97v129.56l-20.86-13.97Zm0-144v-129.56l20.86,13.97v129.56l-20.86-13.97Zm-70.14-190.99v-31.56l91,60.96v31.56l-91-60.96Zm-161-189.8h113v141h-11v-122h-91v122h-11v-141Zm23,141v-110h27.5v110h-27.5Zm39.5-110h27.5v110h-27.5v-110Zm-110.5,590.8l-23,15.41v-129.56l23-15.41v129.56Zm-58.14,38.95v-129.56l23.14-15.5v129.56l-23.14,15.5Zm23.14-1.06v144.31h-23.14v-128.81l23.14-15.5Zm-56-394.49l20.86-13.97v129.56l-20.86,13.97v-129.56Zm32.86,107.55v-129.41h-.22l23.36-15.65v129.56l-23.14,15.5Zm23.14-1.06v129.56l-23.14,15.5v-129.56l23.14-15.5Zm-56,37.51l20.86-13.97v129.56l-20.86,13.97v-129.56Zm0,144l20.86-13.97v129.56l-20.86,13.97v-129.56Zm91-75.4l-23,15.41v-129.56l23-15.41v129.56Zm0-144l-23,15.41v-129.21h-.52l23.52-15.76v129.56Zm0-144l-91,60.96v-31.56l91-60.96v31.56Zm-91,507.4l20.86-13.97v120.77h-20.86v-106.8Zm68,106.8v-152.35l23-15.41v167.76h-23Zm220,0h-185v-651h185v651Zm12-167.76l23,15.41v152.35h-23v-167.76Zm70.14,167.76v-120.77l20.86,13.97v106.8h-20.86Z"/>
            <path class="cls-1" d="m2947.7,1331h-95v613h151v-613h-56Zm-83,601v-589h18v589h-18Zm30,0v-589h14v589h-14Zm26,0v-589h15v589h-15Zm27,0v-589h14v589h-14Zm44-589v589h-18v-589h18Z"/>
          </g>
          <g>
            <path class="cls-1" d="m3372.7,1538v-585h-249v1022h309v-437h-60Zm-237,425v-998h225v573h-60v21.72h-76v12h76v38.61h-134v12h134v38.61h-76v12h76v38.61h-134v12h134v38.61h-76v12h76v38.61h-134v12h134v38.61h-76v12h76v38.61h-134v12h134v37h-165Zm285,0h-108v-413h108v413Z"/>
            <rect class="cls-1" x="3342.7" y="1592" width="12" height="337"/>
            <rect class="cls-1" x="3378.7" y="1592" width="12" height="337"/>
            <rect class="cls-1" x="3166.7" y="1003" width="163" height="12"/>
            <rect class="cls-1" x="3224.7" y="1053.61" width="105" height="12"/>
            <rect class="cls-1" x="3166.7" y="1104.22" width="163" height="12"/>
            <rect class="cls-1" x="3224.7" y="1154.83" width="105" height="12"/>
            <rect class="cls-1" x="3166.7" y="1205.44" width="163" height="12"/>
            <rect class="cls-1" x="3224.7" y="1256.06" width="105" height="12"/>
            <rect class="cls-1" x="3166.7" y="1306.67" width="163" height="12"/>
            <rect class="cls-1" x="3224.7" y="1357.28" width="105" height="12"/>
            <rect class="cls-1" x="3166.7" y="1407.89" width="163" height="12"/>
            <rect class="cls-1" x="3224.7" y="1458.5" width="105" height="12"/>
            <rect class="cls-1" x="3166.7" y="1509.11" width="163" height="12"/>
            <rect class="cls-1" x="3166.7" y="1053.61" width="31.74" height="12"/>
            <rect class="cls-1" x="3166.7" y="1154.61" width="31.74" height="12"/>
            <rect class="cls-1" x="3166.7" y="1255.61" width="31.74" height="12"/>
            <rect class="cls-1" x="3166.7" y="1357.61" width="31.74" height="12"/>
            <rect class="cls-1" x="3166.7" y="1457.61" width="31.74" height="12"/>
            <rect class="cls-1" x="3166.7" y="1558.61" width="31.74" height="12"/>
            <rect class="cls-1" x="3166.7" y="1660.61" width="31.74" height="12"/>
            <rect class="cls-1" x="3166.7" y="1762.61" width="31.74" height="12"/>
            <rect class="cls-1" x="3166.7" y="1862.61" width="31.74" height="12"/>
          </g>
          <g>
            <path class="cls-1" d="m3642.7,1300v-35h-176v35h-46v675h268v-675h-46Zm-164-23h152v23h-152v-23Zm0,686v-593h152v593h-152Zm198,0h-34v-605h-176v605h-34v-651h244v651Z"/>
            <rect class="cls-1" x="3501.7" y="1400" width="43.1" height="12"/>
            <rect class="cls-1" x="3562.7" y="1477" width="43.1" height="12"/>
            <rect class="cls-1" x="3562.7" y="1661" width="43.1" height="12"/>
            <rect class="cls-1" x="3562.7" y="1847" width="43.1" height="12"/>
            <rect class="cls-1" x="3501.7" y="1560" width="43.1" height="12"/>
            <rect class="cls-1" x="3501.7" y="1751" width="43.1" height="12"/>
          </g>
          <g>
            <path class="cls-1" d="m4031.7,1936h43v-466h-138v466h95Zm0-454h31v442h-31v-442Zm-40,0h28v442h-28v-442Zm-43,0h31v442h-31v-442Z"/>
            <rect class="cls-1" x="3713.7" y="1652" width="67" height="12"/>
            <rect class="cls-1" x="3713.7" y="1705" width="110.85" height="12"/>
            <rect class="cls-1" x="3713.7" y="1758" width="67" height="12"/>
            <rect class="cls-1" x="3713.7" y="1811" width="110.85" height="12"/>
            <rect class="cls-1" x="3713.7" y="1864" width="67" height="12"/>
            <rect class="cls-1" x="3713.7" y="1917" width="110.85" height="12"/>
            <rect class="cls-1" x="3800.77" y="1652" width="23.79" height="12"/>
            <rect class="cls-1" x="3800.77" y="1758" width="23.79" height="12"/>
            <rect class="cls-1" x="3800.77" y="1864" width="23.79" height="12"/>
            <path class="cls-1" d="m3912.7,1431v424h-50v-253h-186v373h422v-544h-186Zm174,532h-398v-349h162v253h74v-424h162v520Z"/>
          </g>
          <g>
            <path class="cls-1" d="m4329.7,1166v-76h-167v76h-76v809h319v-809h-76Zm-167,797h-64v-785h64v785Zm51.67,0h-39.67v-748h39.67v748Zm51.67,0h-39.67v-748h39.67v748Zm51.67,0h-39.67v-748h39.67v748Zm0-760h-143v-25h143v25Zm0-37h-143v-64h143v64Zm76,797h-64v-785h64v785Z"/>
            <rect class="cls-1" x="4197.75" y="1128" width="31.4" height="12"/>
            <rect class="cls-1" x="4244.75" y="1128" width="49.95" height="12"/>
          </g>
          <g>
            <path class="cls-1" d="m4613.7,1746v-416.12l-79-98v-97.88h-12v97.88l-79,98v416.12h-50v229h270v-229h-50Zm-158-411.88l73-90.56,73,90.56v411.88h-23v-389h.11v-12h-100.11v401h-23v-411.88Zm35,361.88v-37.5h76v37.5h-76Zm76,12v38h-76v-38h76Zm-76-61.5v-37.5h76v37.5h-76Zm0-49.5v-37.5h76v37.5h-76Zm0-49.5v-37.5h76v37.5h-76Zm0-49.5v-37.5h76v37.5h-76Zm0-49.5v-37.5h76v37.5h-76Zm0-49.5v-42h76v42h-76Zm161,564h-246v-205h246v205Z"/>
            <rect class="cls-1" x="4430.7" y="1789" width="54" height="12"/>
            <rect class="cls-1" x="4501.7" y="1789" width="54" height="12"/>
            <rect class="cls-1" x="4572.7" y="1789" width="54" height="12"/>
            <polygon class="cls-1" points="4572.7 1835 4555.7 1835 4501.7 1835 4430.7 1835 4430.7 1847 4501.7 1847 4555.7 1847 4572.7 1847 4591.7 1847 4626.7 1847 4626.7 1835 4591.7 1835 4572.7 1835"/>
            <rect class="cls-1" x="4430.7" y="1881" width="54" height="12"/>
            <rect class="cls-1" x="4501.7" y="1881" width="54" height="12"/>
            <rect class="cls-1" x="4572.7" y="1881" width="54" height="12"/>
            <polygon class="cls-1" points="4572.7 1927 4555.7 1927 4501.7 1927 4430.7 1927 4430.7 1939 4501.7 1939 4555.7 1939 4572.7 1939 4584.7 1939 4626.7 1939 4626.7 1927 4584.7 1927 4572.7 1927"/>
          </g>
          <path class="cls-1" d="m4809.7,1477v-151h-12v99h-35v-46.5h-12v46.5h-47v52h-52v498h210v-498h-52Zm-94-40h82v40h-82v-40Zm2,526h-54v-115h54v115Zm0-127h-54v-177.5h54v177.5Zm0-189.5h-54v-103.5h54v103.5Zm66,316.5h-54v-115h54v115Zm0-127h-54v-177.5h54v177.5Zm0-189.5h-54v-103.5h54v103.5Zm66,316.5h-54v-115h54v115Zm0-127h-54v-177.5h54v177.5Zm0-189.5h-54v-103.5h54v103.5Zm0-115.5h-186v-42h186v42Z"/>
        </g>
        <polygon class="cls-1" points="4746.11 871.65 4732.45 871.65 4732.45 858 4720.45 858 4720.45 871.65 4706.8 871.65 4706.8 883.65 4720.45 883.65 4720.45 897.31 4732.45 897.31 4732.45 883.65 4746.11 883.65 4746.11 871.65"/>
        <polygon class="cls-1" points="3820.11 1319.65 3806.45 1319.65 3806.45 1306 3794.45 1306 3794.45 1319.65 3780.8 1319.65 3780.8 1331.65 3794.45 1331.65 3794.45 1345.31 3806.45 1345.31 3806.45 1331.65 3820.11 1331.65 3820.11 1319.65"/>
        <polygon class="cls-1" points="3820.11 141.65 3806.45 141.65 3806.45 128 3794.45 128 3794.45 141.65 3780.8 141.65 3780.8 153.65 3794.45 153.65 3794.45 167.31 3806.45 167.31 3806.45 153.65 3820.11 153.65 3820.11 141.65"/>
        <polygon class="cls-1" points="2963.11 788.65 2949.45 788.65 2949.45 775 2937.45 775 2937.45 788.65 2923.8 788.65 2923.8 800.65 2937.45 800.65 2937.45 814.31 2949.45 814.31 2949.45 800.65 2963.11 800.65 2963.11 788.65"/>
        <polygon class="cls-1" points="1508.11 13.65 1494.45 13.65 1494.45 0 1482.45 0 1482.45 13.65 1468.8 13.65 1468.8 25.65 1482.45 25.65 1482.45 39.31 1494.45 39.31 1494.45 25.65 1508.11 25.65 1508.11 13.65"/>
        <polygon class="cls-1" points="1112.11 922.65 1098.45 922.65 1098.45 909 1086.45 909 1086.45 922.65 1072.8 922.65 1072.8 934.65 1086.45 934.65 1086.45 948.31 1098.45 948.31 1098.45 934.65 1112.11 934.65 1112.11 922.65"/>
        <polygon class="cls-1" points="317.11 523.65 303.45 523.65 303.45 510 291.45 510 291.45 523.65 277.8 523.65 277.8 535.65 291.45 535.65 291.45 549.31 303.45 549.31 303.45 535.65 317.11 535.65 317.11 523.65"/>
        <path class="cls-1" d="m339.85,1349.73h-16.48c-22.01,0-39.91-17.9-39.91-39.9s17.9-39.9,39.9-39.9c.55,0,1.11.01,1.66.03,2.98-26.78,25.75-47.68,53.32-47.68,20.36,0,38.83,11.58,47.87,29.41,4.56-1.87,9.45-2.84,14.44-2.84,16.79,0,31.45,11.12,36.34,26.71,1.02-.09,2.04-.14,3.06-.14,18.97,0,34.41,15.43,34.41,34.41h-12c0-12.35-10.05-22.41-22.41-22.41-2.03,0-4.06.28-6.03.83-1.67.47-3.45.18-4.9-.76-1.45-.95-2.41-2.48-2.65-4.19-1.77-12.79-12.87-22.44-25.82-22.44-5.03,0-9.93,1.44-14.15,4.16-1.54.99-3.45,1.23-5.19.64-1.74-.59-3.11-1.94-3.72-3.67-5.89-16.57-21.66-27.7-39.25-27.7-22.96,0-41.65,18.68-41.65,41.65,0,.2,0,.39,0,.59.06,1.85-.73,3.63-2.16,4.82-1.43,1.19-3.32,1.65-5.13,1.25-1.97-.43-4-.66-6.05-.66-15.39,0-27.9,12.52-27.9,27.9s12.52,27.9,27.9,27.9h16.49v12Z"/>
        <path class="cls-1" d="m4583.15,350h-16.49v-12h16.48c15.4,0,27.91-12.52,27.91-27.9s-12.52-27.9-27.9-27.9c-2.04,0-4.08.22-6.04.66-1.8.4-3.7-.06-5.13-1.24-1.43-1.18-2.22-2.96-2.16-4.81,0-.2,0-.4,0-.6,0-22.96-18.68-41.65-41.65-41.65-17.59,0-33.37,11.13-39.25,27.7-.61,1.73-1.98,3.08-3.72,3.67-1.73.59-3.65.36-5.19-.64-4.22-2.72-9.11-4.16-14.15-4.16-12.95,0-24.04,9.65-25.82,22.44-.24,1.71-1.2,3.24-2.65,4.19-1.45.95-3.24,1.23-4.9.77-1.97-.55-4-.83-6.03-.83-12.35,0-22.41,10.05-22.41,22.41h-12c0-18.97,15.43-34.41,34.41-34.41,1.02,0,2.04.05,3.06.14,4.88-15.59,19.55-26.71,36.34-26.71,4.99,0,9.88.97,14.44,2.84,9.04-17.83,27.51-29.41,47.87-29.41,27.57,0,50.34,20.9,53.32,47.68.55-.02,1.11-.03,1.66-.03,22,0,39.9,17.9,39.9,39.9s-17.9,39.9-39.9,39.9Z"/>
        <path class="cls-1" d="m3222.45,571h-16.48c-22.01,0-39.91-17.9-39.91-39.9s17.9-39.9,39.9-39.9c.55,0,1.11.01,1.66.03,2.98-26.78,25.75-47.68,53.32-47.68,20.36,0,38.83,11.58,47.87,29.41,4.56-1.87,9.45-2.84,14.44-2.84,16.79,0,31.45,11.12,36.34,26.71,1.02-.09,2.04-.14,3.06-.14,18.97,0,34.41,15.43,34.41,34.41h-12c0-12.35-10.05-22.41-22.41-22.41-2.04,0-4.07.28-6.03.83-1.67.46-3.45.19-4.9-.77-1.45-.95-2.41-2.48-2.65-4.19-1.77-12.79-12.87-22.44-25.82-22.44-5.03,0-9.93,1.44-14.15,4.16-1.54.99-3.45,1.23-5.19.64-1.74-.59-3.11-1.94-3.72-3.67-5.89-16.57-21.66-27.7-39.25-27.7-22.96,0-41.65,18.68-41.65,41.65,0,.2,0,.4,0,.6.06,1.85-.74,3.63-2.16,4.81s-3.32,1.64-5.13,1.24c-1.97-.44-4-.66-6.04-.66-15.39,0-27.9,12.52-27.9,27.9s12.52,27.9,27.9,27.9h16.49v12Z"/>
        <path class="cls-1" d="m813.48,565.19h-27c-20.42,0-37.03-16.61-37.03-37.03,0-19.17,14.64-34.99,33.33-36.85-1.53-5.5-2.3-11.19-2.3-17,0-35.01,28.49-63.5,63.5-63.5,21.46,0,41.51,11.05,53.14,28.74,6.07-4.95,13.73-7.75,21.7-7.75,14.01,0,26.54,8.67,31.74,21.31,1.58-.21,3.17-.31,4.77-.31,19.92,0,36.12,16.2,36.12,36.12h-12c0-13.3-10.82-24.12-24.12-24.12-2.41,0-4.8.36-7.11,1.06-1.6.49-3.34.28-4.78-.57-1.44-.85-2.47-2.27-2.82-3.91-2.19-10.18-11.36-17.57-21.79-17.57-7.13,0-13.89,3.46-18.08,9.25-1.24,1.71-3.29,2.65-5.4,2.46-2.11-.19-3.96-1.48-4.87-3.38-8.53-17.81-26.78-29.31-46.49-29.31-28.4,0-51.5,23.1-51.5,51.5,0,7.23,1.47,14.22,4.36,20.78.89,2.01.6,4.35-.74,6.09-1.34,1.74-3.53,2.61-5.7,2.26-1.27-.2-2.59-.31-3.92-.31-13.8,0-25.03,11.23-25.03,25.03s11.23,25.03,25.03,25.03h27v12Z"/>
        <path class="cls-1" d="m2182.53,830.53h-36.76v-12h36.76c12.64,0,22.92-10.28,22.92-22.92s-10.28-22.92-22.92-22.92c-1.64,0-3.29.18-4.88.52-1.79.39-3.66-.06-5.08-1.23-1.42-1.16-2.22-2.91-2.19-4.74,0-.47.02-.96.02-1.43,0-30.52-24.83-55.35-55.35-55.35-28.52,0-52.2,21.36-55.06,49.69-.2,1.99-1.39,3.76-3.16,4.7-1.77.94-3.89.93-5.66-.02-4.31-2.32-9.19-3.54-14.12-3.54-12.75,0-24.12,8.09-28.29,20.12-.52,1.51-1.63,2.75-3.07,3.44-1.44.69-3.1.78-4.6.25-1.94-.69-4-1.03-6.11-1.03-10.22,0-18.54,8.32-18.54,18.54h-12c0-16.84,13.7-30.54,30.54-30.54,1.54,0,3.07.11,4.58.34,7.03-14.03,21.48-23.13,37.49-23.13,4.16,0,8.29.62,12.25,1.83,6.72-30.51,33.72-52.66,65.75-52.66,35.41,0,64.53,27.47,67.15,62.22.11,0,.22,0,.33,0,19.25,0,34.92,15.67,34.92,34.92s-15.66,34.92-34.92,34.92Z"/>
        <path class="cls-1" d="m3761.78,1151.67h-16.74c-15.21,0-27.58-12.37-27.58-27.58s12.37-27.58,27.58-27.58c1.74,0,3.47.17,5.17.49,2.69-19.55,19.51-34.66,39.8-34.66s35.36,13.38,39.26,31.57c.7-.06,1.4-.09,2.1-.09,12.73,0,23.09,10.36,23.09,23.09h-12c0-6.11-4.97-11.09-11.09-11.09-1.63,0-3.2.35-4.67,1.04-1.83.86-3.96.73-5.68-.32-1.72-1.06-2.79-2.91-2.85-4.92-.48-15.29-12.85-27.26-28.16-27.26s-28.17,12.64-28.17,28.17c0,.82.04,1.63.11,2.43.21,2.24-.86,4.41-2.76,5.62-1.9,1.2-4.32,1.24-6.26.1-2.38-1.4-5.1-2.14-7.88-2.14-8.59,0-15.58,6.99-15.58,15.58s6.99,15.58,15.58,15.58h16.74v12Z"/>
        <g>
          <path class="cls-1" d="m2504.45,471c-31.43,0-57-25.57-57-57s25.57-57,57-57,57,25.57,57,57-25.57,57-57,57Zm0-102c-24.81,0-45,20.19-45,45s20.19,45,45,45,45-20.19,45-45-20.19-45-45-45Z"/>
          <g>
            <rect class="cls-1" x="2498.45" y="319" width="12" height="20.38"/>
            <rect class="cls-1" x="2498.45" y="266" width="12" height="40.38"/>
          </g>
          <g>
            <rect class="cls-1" x="2456.05" y="330.36" width="12" height="20.38" transform="translate(159.58 1276.66) rotate(-30)"/>
            <rect class="cls-1" x="2434.55" y="283.12" width="12" height="40.38" transform="translate(175.31 1260.91) rotate(-30)"/>
          </g>
          <g>
            <rect class="cls-1" x="2425.01" y="361.4" width="12" height="20.38" transform="translate(893.68 2291.1) rotate(-60)"/>
            <rect class="cls-1" x="2387.77" y="329.9" width="12" height="40.38" transform="translate(893.69 2248.11) rotate(-60)"/>
          </g>
          <g>
            <rect class="cls-1" x="2409.45" y="408" width="20.38" height="12"/>
            <rect class="cls-1" x="2356.45" y="408" width="40.38" height="12"/>
          </g>
          <g>
            <rect class="cls-1" x="2420.82" y="450.4" width="20.38" height="12" transform="translate(97.48 1276.62) rotate(-30)"/>
            <rect class="cls-1" x="2373.58" y="471.9" width="40.38" height="12" transform="translate(81.74 1260.88) rotate(-30)"/>
          </g>
          <g>
            <rect class="cls-1" x="2451.86" y="481.45" width="20.38" height="12" transform="translate(808.91 2375.94) rotate(-60)"/>
            <rect class="cls-1" x="2420.36" y="518.69" width="40.38" height="12" transform="translate(765.91 2375.94) rotate(-60)"/>
          </g>
          <g>
            <rect class="cls-1" x="2498.45" y="488.62" width="12" height="20.38"/>
            <rect class="cls-1" x="2498.45" y="521.62" width="12" height="40.38"/>
          </g>
          <g>
            <rect class="cls-1" x="2540.86" y="477.26" width="12" height="20.38" transform="translate(97.48 1338.7) rotate(-30)"/>
            <rect class="cls-1" x="2562.36" y="504.5" width="12" height="40.38" transform="translate(81.74 1354.45) rotate(-30)"/>
          </g>
          <g>
            <rect class="cls-1" x="2571.9" y="446.21" width="12" height="20.38" transform="translate(893.7 2460.74) rotate(-60)"/>
            <rect class="cls-1" x="2609.14" y="457.71" width="12" height="40.38" transform="translate(893.69 2503.73) rotate(-60)"/>
          </g>
          <g>
            <rect class="cls-1" x="2579.07" y="408" width="20.38" height="12"/>
            <rect class="cls-1" x="2612.07" y="408" width="40.38" height="12"/>
          </g>
          <g>
            <rect class="cls-1" x="2567.71" y="365.6" width="20.38" height="12" transform="translate(159.56 1338.7) rotate(-30)"/>
            <rect class="cls-1" x="2594.95" y="344.1" width="40.38" height="12" transform="translate(175.3 1354.44) rotate(-30)"/>
          </g>
          <g>
            <rect class="cls-1" x="2536.67" y="334.55" width="20.38" height="12" transform="translate(978.53 2375.94) rotate(-60)"/>
            <rect class="cls-1" x="2548.17" y="297.31" width="40.38" height="12" transform="translate(1021.53 2375.94) rotate(-60)"/>
          </g>
        </g>
        <rect class="cls-1" y="1963.5" width="5008.91" height="12"/>
      </g>
    </g>
  </g>
</svg>