<svg width="1440" height="76" viewBox="0 0 1440 76" fill="none" xmlns="http://www.w3.org/2000/svg">
<g clip-path="url(#clip0_1_16)">
<path d="M1739.86 77.9487V11.8872C1738.02 12.2769 1735.91 12.4718 1735.39 12.4718C1734.07 12.4718 1725.66 12.2769 1725.66 12.2769L1705.41 2.33846L1689.89 3.11795L1680.16 4.28718L1667.8 0H1667.28L1659.92 1.55897L1649.92 2.33846L1644.14 3.89744L1637.3 5.84615L1626.78 8.18461L1618.63 9.74359L1614.42 11.4974L1605.74 12.8615L1596.8 10.9128L1585.76 11.3026L1580.5 9.35385H1570.24L1561.83 10.1333L1553.41 10.9128L1542.63 12.0821L1538.42 13.8359L1526.85 12.0821L1506.87 11.1077L1495.82 11.3026L1487.93 11.1077L1477.68 8.57436H1460.06L1452.17 9.35385L1448.49 7.98974L1444.02 6.62564L1433.76 5.45641L1424.3 4.28718C1419.04 3.50769 1416.41 4.09231 1415.09 4.09231C1413.78 4.09231 1407.2 5.84615 1407.2 5.84615L1395.37 7.40513L1387.22 10.5231L1381.69 11.8872L1376.96 13.8359V15.7846L1369.6 16.9538L1363.55 19.4872L1355.66 19.0974C1346.46 19.6821 1343.3 20.6564 1343.3 20.6564L1333.31 21.0462C1326.47 20.2667 1320.95 20.6564 1320.95 20.6564L1313.06 21.8256L1306.75 19.8769L1299.12 19.4872L1298.86 17.5385L1293.86 15.9795L1283.08 13.8359L1269.93 13.641C1267.04 12.4718 1260.47 11.4974 1259.15 11.4974C1258.36 11.4974 1255.21 11.8872 1249.95 12.6667L1240.48 14.6154L1230.49 16.759L1226.28 18.5128L1222.86 20.2667L1214.97 20.0718L1204.45 20.8513L1197.62 21.8256L1193.41 23.9692L1187.89 25.3333L1180 26.3077L1173.95 27.8667L1155.28 30.2051L1141.87 32.1538L1133.98 31.7641L1122.93 31.3744H1106.1L1096.11 32.3487L1091.11 34.882H1083.49L1074.02 37.2205L1062.71 38L1058.24 36.6359L1054.56 34.6872L1039.04 34.4923L1031.94 33.1282L1026.16 32.1538L1015.9 32.3487H1005.38L993.025 32.1538L980.403 30.9846L969.095 31.7641L953.843 33.9077C951.476 35.4667 943.061 36.441 941.746 36.441C940.431 36.441 933.331 36.8308 933.331 36.8308L919.394 34.882L906.508 35.0769L890.73 32.9333L878.896 33.3231L871.27 32.3487L858.385 31.7641H849.181L842.869 33.7128L836.032 35.2718L826.039 36.441L822.884 38.7795L810.787 38.1949L805.002 37.2205C797.639 37.4154 797.376 36.8308 797.376 36.2462C797.376 35.6615 788.435 35.2718 788.435 35.2718L782.912 32.9333L768.712 33.1282L758.456 36.8308L755.564 38.5846L747.411 41.1179L747.674 43.0667L747.937 44.8205L740.574 42.0923L729.792 39.9487L716.907 39.7538C714.014 38.5846 707.44 37.6103 706.125 37.6103C705.336 37.6103 702.181 38 696.921 38.7795L687.454 40.7282L677.462 42.8718L666.417 42.2872L666.154 39.9487L659.054 38.9744L656.424 35.6615L653.531 39.3641L647.483 37.4154L638.016 36.2462L633.283 34.6872L627.234 35.8564L623.027 38.9744L616.716 37.0256L606.986 37.6103L601.463 34.1026L595.152 36.2462L591.471 38L587 36.441L582.004 38.3897L579.111 40.3385L574.115 43.0667L566.751 44.2359L566.488 41.1179L555.707 42.8718L549.395 45.0154L545.977 46.7692L536.247 47.3538L532.828 49.3026L522.31 53.0051L514.946 54.5641L506.794 55.9282L492.857 56.9026L488.123 55.1487L479.708 55.3436L475.501 58.0718L461.826 58.6564L451.308 57.682L440.263 57.4872L434.478 56.3179L427.903 57.2923L415.281 58.0718L407.392 58.8513L399.766 57.8769L390.299 59.4359L378.202 57.4872L368.472 56.7077L352.168 57.8769L346.12 56.5128L337.179 55.9282L327.712 54.5641L320.612 55.7333L320.875 59.4359L304.834 58.0718H295.63L289.318 60.0205L282.481 61.5795L272.488 62.7487L269.333 65.0872L257.236 64.5026L251.451 63.5282C243.562 64.1128 243.562 63.3333 243.562 62.9436C243.562 62.359 234.621 61.9692 234.621 61.9692L229.098 59.6308L214.898 59.8256L204.642 63.5282L201.75 65.2821L193.598 67.8154L193.86 69.5692L184.657 67.8154L179.66 66.2564H167.038C164.145 65.0872 157.571 64.1128 156.256 64.1128C155.467 64.1128 152.311 64.5026 147.052 65.2821L137.585 67.2308L127.592 69.3744L121.807 71.9077L112.077 72.6872L101.558 73.4667L94.7209 74.441L85.78 75.2205C83.9392 74.441 82.3614 73.8564 80.7836 73.2718C74.7353 72.882 74.4723 72.6872 74.2093 72.4923C72.3685 70.9333 72.1056 70.7385 71.8426 70.7385C68.9499 70.1538 66.3202 69.5692 63.6905 68.9846C62.1127 68.4 59.483 68.2051 56.0644 68.4L46.3345 68.9846L40.0233 71.1282L36.0787 72.882C33.1861 73.8564 30.5564 74.441 27.6637 74.6359C26.6118 76 26.3488 76.3897 25.8229 76.5846L24.5081 77.9487H1739.86Z" fill="#F3F2F2"/>
</g>
<defs>
<clipPath id="clip0_1_16">
<rect width="1470" height="76" fill="white" transform="translate(-1)"/>
</clipPath>
</defs>
</svg>
