<?xml version="1.0" encoding="utf-8"?>
<!-- Generator: Adobe Illustrator 27.1.1, SVG Export Plug-In . SVG Version: 6.00 Build 0)  -->
<svg version="1.1" id="Calque_1" xmlns="http://www.w3.org/2000/svg" xmlns:xlink="http://www.w3.org/1999/xlink" x="0px" y="0px"
	 viewBox="0 0 1440 76" style="enable-background:new 0 0 1440 76;" xml:space="preserve">
<style type="text/css">
	.st0{clip-path:url(#SVGID_00000021834045993327479950000010863242673691032224_);}
	.st1{fill:#FBFAFA;}
</style>
<g>
	<defs>
		<rect id="SVGID_1_" x="-1" width="1470" height="76"/>
	</defs>
	<clipPath id="SVGID_00000161596377471356565550000014815060464240945320_">
		<use xlink:href="#SVGID_1_"  style="overflow:visible;"/>
	</clipPath>
	<g style="clip-path:url(#SVGID_00000161596377471356565550000014815060464240945320_);">
		<path class="st1" d="M1739.9,77.9V11.9c-1.8,0.4-3.9,0.6-4.5,0.6c-1.3,0-9.7-0.2-9.7-0.2l-20.2-9.9l-15.5,0.8l-9.7,1.2L1667.8,0
			h-0.5l-7.4,1.6l-10,0.8l-5.8,1.6l-6.8,1.9l-10.5,2.3l-8.2,1.6l-4.2,1.8l-8.7,1.4l-8.9-1.9l-11,0.4l-5.3-1.9h-10.3l-8.4,0.8
			l-8.4,0.8l-10.8,1.2l-4.2,1.8l-11.6-1.8l-20-1l-11.1,0.2l-7.9-0.2l-10.2-2.5h-17.6l-7.9,0.8l-3.7-1.4l-4.5-1.4l-10.3-1.2l-9.5-1.2
			c-5.3-0.8-7.9-0.2-9.2-0.2c-1.3,0-7.9,1.8-7.9,1.8l-11.8,1.6l-8.2,3.1l-5.5,1.4l-4.7,1.9v1.9l-7.4,1.2l-6,2.5l-7.9-0.4
			c-9.2,0.6-12.4,1.6-12.4,1.6l-10,0.4c-6.8-0.8-12.4-0.4-12.4-0.4l-7.9,1.2l-6.3-1.9l-7.6-0.4l-0.3-1.9l-5-1.6l-10.8-2.1l-13.1-0.2
			c-2.9-1.2-9.5-2.1-10.8-2.1c-0.8,0-3.9,0.4-9.2,1.2l-9.5,1.9l-10,2.1l-4.2,1.8l-3.4,1.8l-7.9-0.2l-10.5,0.8l-6.8,1l-4.2,2.1
			l-5.5,1.4l-7.9,1l-6.1,1.6l-18.7,2.3l-13.4,1.9l-7.9-0.4l-11-0.4h-16.8l-10,1l-5,2.5h-7.6l-9.5,2.3l-11.3,0.8l-4.5-1.4l-3.7-1.9
			l-15.5-0.2l-7.1-1.4l-5.8-1l-10.3,0.2h-10.5L993,32.2L980.4,31l-11.3,0.8l-15.3,2.1c-2.4,1.6-10.8,2.5-12.1,2.5
			c-1.3,0-8.4,0.4-8.4,0.4l-13.9-1.9l-12.9,0.2l-15.8-2.1l-11.8,0.4l-7.6-1l-12.9-0.6h-9.2l-6.3,1.9l-6.8,1.6l-10,1.2l-3.2,2.3
			l-12.1-0.6l-5.8-1c-7.4,0.2-7.6-0.4-7.6-1c0-0.6-8.9-1-8.9-1l-5.5-2.3l-14.2,0.2l-10.3,3.7l-2.9,1.8l-8.2,2.5l0.3,1.9l0.3,1.8
			l-7.4-2.7l-10.8-2.1l-12.9-0.2c-2.9-1.2-9.5-2.1-10.8-2.1c-0.8,0-3.9,0.4-9.2,1.2l-9.5,1.9l-10,2.1l-11-0.6l-0.3-2.3l-7.1-1
			l-2.6-3.3l-2.9,3.7l-6-1.9l-9.5-1.2l-4.7-1.6l-6,1.2L623,39l-6.3-1.9l-9.7,0.6l-5.5-3.5l-6.3,2.1l-3.7,1.8l-4.5-1.6l-5,1.9
			l-2.9,1.9l-5,2.7l-7.4,1.2l-0.3-3.1l-10.8,1.8l-6.3,2.1l-3.4,1.8l-9.7,0.6l-3.4,1.9L522.3,53l-7.4,1.6l-8.2,1.4l-13.9,1l-4.7-1.8
			l-8.4,0.2l-4.2,2.7l-13.7,0.6l-10.5-1l-11-0.2l-5.8-1.2l-6.6,1l-12.6,0.8l-7.9,0.8l-7.6-1l-9.5,1.6l-12.1-1.9l-9.7-0.8l-16.3,1.2
			l-6-1.4l-8.9-0.6l-9.5-1.4l-7.1,1.2l0.3,3.7l-16-1.4h-9.2l-6.3,1.9l-6.8,1.6l-10,1.2l-3.2,2.3l-12.1-0.6l-5.8-1
			c-7.9,0.6-7.9-0.2-7.9-0.6c0-0.6-8.9-1-8.9-1l-5.5-2.3l-14.2,0.2l-10.3,3.7l-2.9,1.8l-8.2,2.5l0.3,1.8l-9.2-1.8l-5-1.6H167
			c-2.9-1.2-9.5-2.1-10.8-2.1c-0.8,0-3.9,0.4-9.2,1.2l-9.5,1.9l-10,2.1l-5.8,2.5l-9.7,0.8l-10.5,0.8l-6.8,1l-8.9,0.8
			c-1.8-0.8-3.4-1.4-5-1.9c-6-0.4-6.3-0.6-6.6-0.8c-1.8-1.6-2.1-1.8-2.4-1.8c-2.9-0.6-5.5-1.2-8.2-1.8c-1.6-0.6-4.2-0.8-7.6-0.6
			L46.3,69L40,71.1l-3.9,1.8c-2.9,1-5.5,1.6-8.4,1.8c-1.1,1.4-1.3,1.8-1.8,1.9l-1.3,1.4H1739.9z"/>
	</g>
</g>
</svg>
