<?xml version="1.0" encoding="UTF-8"?>
<svg id="Calque_2" data-name="Calque 2" xmlns="http://www.w3.org/2000/svg" viewBox="0 0 400 464">
  <defs>
    <style>
      .cls-1 {
        stroke-width: 2px;
      }

      .cls-1, .cls-2 {
        fill: #c6c6c6;
        stroke: #050c16;
        stroke-miterlimit: 10;
      }

      .cls-3 {
        fill: #121416;
      }

      .cls-2 {
        stroke-width: 6px;
      }
    </style>
  </defs>
  <g id="Calque_1-2" data-name="Calque 1">
    <g>
      <path class="cls-2" d="m200,276.44c-111.37-97.57-231.08,75.53-6.07,183.18,3.83,1.83,8.3,1.83,12.13,0,225.02-107.65,105.3-280.75-6.07-183.18Z"/>
      <path class="cls-3" d="m370.06,284.31l-47.57-47.57c-7.31-7.31-11.41-17.22-11.41-27.56v-90.5c0-1.08-.87-1.95-1.95-1.95h-23.38c-1.08,0-1.95.87-1.95,1.95v55.84c0,8.68-10.49,13.03-16.63,6.89l-65.78-65.78c-.76-.76-1.99-.76-2.76,0L29.94,284.31c-6.85,6.85-17.95,6.85-24.8,0h0c-6.85-6.85-6.85-17.95,0-24.8,35.58-35.58,138.06-138.06,178.33-178.33,9.13-9.13,23.94-9.13,33.07,0l30.19,30.19c.74.74,2,.21,2-.83v-17.19c0-6.46,5.23-11.69,11.69-11.69h74.05c6.46,0,11.69,5.23,11.69,11.69v110.99c0,4.13,1.64,8.1,4.57,11.02l44.15,44.15c6.85,6.85,6.85,17.95,0,24.8h0c-6.85,6.85-17.95,6.85-24.8,0Z"/>
      <g>
        <path class="cls-1" d="m264.4,39.58c-22.43-8.71-31.09,24.38,9.25,28.31.69.07,1.37-.18,1.85-.67,28.38-28.94.48-48.72-11.11-27.63Z"/>
        <path class="cls-1" d="m326.12,40.66c-14.26-25.95-48.6-1.61-13.67,34.01.6.61,1.43.91,2.28.83,49.65-4.84,38.99-45.56,11.39-34.84Z"/>
        <path class="cls-1" d="m293.33,4.6c-13.92-12.2-28.89,9.44-.76,22.9.48.23,1.04.23,1.52,0,28.13-13.46,13.16-35.09-.76-22.9Z"/>
      </g>
    </g>
  </g>
</svg>