<?xml version="1.0" encoding="UTF-8"?>
<svg id="Calque_2" data-name="Calque 2" xmlns="http://www.w3.org/2000/svg" viewBox="0 0 2677.51 1992.92">
  <defs>
    <style>
      .cls-1 {
        fill: #22c55e;
      }

      .cls-2 {
        fill: #3b82f6;
      }

      .cls-3 {
        fill: #586464;
      }

      .cls-4 {
        opacity: .67;
      }
    </style>
  </defs>
  <g id="Layer_1" data-name="Layer 1">
    <g class="cls-4">
      <path class="cls-3" d="m1346,716.95c-62.54-16.44-124.31-43.04-185.3-79.79-62-37.36-123.25-85.28-183.74-143.76,78.17-3.8,153.69,16.25,217.95,54.97,64.72,39,118.01,96.96,151.09,168.58m-335.58-166.88c46.3,40.4,93.14,74.87,140.5,103.42,35.1,21.15,70.48,39.02,106.14,53.63-44.67-11.29-87.18-29.1-126.23-52.63-45.51-27.42-86.34-62.64-120.41-104.42Zm85.53,389.73c39.44-24.34,83.23-42.61,131.35-54.79,49.15-12.44,102.84-18.57,161.08-18.39-35.16,42.77-82.3,71.64-133.49,84.6-51.59,13.06-107.29,9.94-158.94-11.42Zm251.26-91.27c-44.23,2.19-85.76,8.19-124.59,18.02-31.5,7.98-61.21,18.45-89.14,31.44,28.91-21.86,61.71-37.42,96.23-46.17,38.02-9.62,78.15-10.96,117.51-3.29Zm141.67,223.29c22.02,2.58,44.19,4.05,66.42,4.42,10.83.18,21.67.09,32.51-.26-12.21,6.74-24.88,12.56-37.92,17.42-24.27,9.05-49.74,14.75-75.71,16.86-5.24.42-9.14,5.01-8.72,10.25.42,5.23,5.02,9.14,10.26,8.72,27.82-2.26,55.01-8.34,80.82-17.96,13.09-4.88,25.83-10.66,38.15-17.32-18.33,24.11-41.96,43.11-68.59,55.89-35.24,16.91-75.71,22.92-116.03,15.46,1.25-4.06,2.65-8.05,4.21-11.96.12-.26.23-.54.33-.82,5.77-14.24,13.57-27.46,23.09-39.29,13.77-17.09,31.14-31.29,51.17-41.42Zm-45.93-13.57c-6.86.82-13.7,1.6-20.53,2.33-21.54,2.32-42.77,4.23-63.64,5.73-5.24.38-9.18,4.93-8.8,10.16.38,5.23,4.93,9.18,10.17,8.8,21.85-1.57,43.3-3.49,64.35-5.75,7.44-.8,14.85-1.64,22.24-2.53-8.75,7.33-16.73,15.49-23.86,24.33-8.97,11.14-16.58,23.37-22.61,36.43-19.31-6.41-37.41-15.68-53.71-27.4-16.63-11.96-31.44-26.52-43.82-43.26,11.3-13.51,24.8-24.85,39.82-33.61,15.32-8.94,32.2-15.18,49.94-18.31,8.2,11.49,18.07,21.58,29.21,29.96,6.65,5,13.76,9.4,21.25,13.13Zm45.89-5.61c-.3-.06-.61-.09-.93-.11-20.16-2.82-38.92-10.76-54.73-22.65-13.09-9.84-24.13-22.39-32.25-36.97,38.38-9.77,77.87-8.01,114.05,3.84,15.13,4.95,29.69,11.67,43.34,20.04-17.75-5.42-36.3-8.3-55.11-8.4-5.26-.04-9.56,4.19-9.59,9.45-.04,5.25,4.19,9.55,9.45,9.59,21.13.11,41.85,4.08,61.2,11.51,11.89,4.57,23.28,10.46,33.95,17.58-14.18.7-28.39.93-42.62.7-22.25-.37-44.54-1.9-66.76-4.58Zm63.31-405.14c-37.88-26.56-73.4-61.11-106.56-103.66-31.74-40.73-61.27-88.71-88.6-143.94,54.77,15.88,101.68,48.14,135.8,90.64,35.08,43.71,56.65,98.25,59.35,156.96Zm-188.14-193.33c21,37.62,43.18,71.42,66.54,101.39,14.87,19.09,30.24,36.64,46.08,52.65-22.33-16.4-42.32-35.6-59.53-57.03-23.09-28.76-41.15-61.56-53.1-97.01Zm488.18,658.12c61.7-31.52,125.02-52.37,189.97-62.56,64.97-10.19,131.57-9.72,199.78,1.42-55.23,43.24-119.75,70.66-186.93,81.2-67.16,10.53-136.97,4.19-202.82-20.06Zm316.41-88.09c-43.79-2.18-86.91.05-129.35,6.71-42.63,6.69-84.58,17.84-125.85,33.44,38.91-21.36,81-35.58,124.24-42.37,43.16-6.77,87.48-6.13,130.96,2.22Zm-214.69-277.54c10.17,9.06,20.8,17.63,31.85,25.68,2.47,1.8,4.96,3.57,7.47,5.31-9.12-.67-18.21-1.75-27.21-3.22-19.98-3.27-39.64-8.5-58.7-15.64-4.93-1.85-10.42.65-12.27,5.58-1.85,4.93.65,10.42,5.58,12.26,20.21,7.57,41.08,13.12,62.28,16.59,8.08,1.32,16.2,2.34,24.35,3.06-28.82,10.11-59.32,12.4-88.57,7.39-36.9-6.32-71.79-24.24-98.8-52.76,23.12-6.33,46.84-10.05,70.71-11.16,27.83-1.29,55.83,1,83.3,6.9Zm20.25-67.19c-3.74-3.7-9.77-3.68-13.48.06-3.71,3.74-3.68,9.77.06,13.47,13.59,13.47,25.3,28.6,34.89,44.96,5.18,8.85,9.75,18.08,13.65,27.59-4.14-2.79-8.24-5.66-12.3-8.62-10.93-7.96-21.48-16.51-31.61-25.61-15.26-19.22-26.09-41.21-32.1-64.43-5.13-19.87-6.74-40.67-4.57-61.42,33.68,13.27,60.21,37.74,76.53,67.76,12.58,23.15,19.07,49.61,18.07,76.78-3.38-7.42-7.14-14.66-11.25-21.69-10.42-17.79-23.14-34.23-37.89-48.85Zm-118.1-22.39c-4-3.4-10.01-2.92-13.42,1.08-3.41,4-2.92,10.01,1.08,13.41,17,14.52,34.71,28.02,53.04,40.45,4.64,3.14,9.33,6.23,14.06,9.24-13.69-1-27.42-1.19-41.11-.55-12.97.6-25.91,1.94-38.77,4.02-15.39-13.39-27.24-29.97-34.93-48.29-7.59-18.09-11.13-37.89-10.03-58,19.21-10.2,40.32-15.15,61.31-14.85l.56.02c21.05.38,42.02,5.99,60.87,16.79-.28,17.35,1.8,34.59,6.11,51.25,3.46,13.38,8.35,26.38,14.63,38.78-7.43-4.57-14.78-9.31-22.02-14.22-17.9-12.13-35.05-25.2-51.38-39.15Zm54.12-57.44c-19.54-9.63-40.73-14.66-62.02-15.04h-.6c-26.07-.35-52.2,6.22-75.49,19.77-3,1.75-4.69,4.87-4.74,8.11-2.16,24.69,1.83,49.13,11.15,71.35,7,16.67,17,32.09,29.65,45.4-9.43,2.19-18.79,4.77-28.05,7.76-5,1.61-7.75,6.97-6.14,11.96.37,1.14.94,2.17,1.65,3.05,31.06,38.61,74.07,62.62,119.83,70.46,44.41,7.61,91.43.02,132.67-24.2,61.77,20.97,112.48,44.11,152.11,69.43,32.9,21.01,58.05,43.46,75.46,67.34-76.66-4.56-153.65-12.83-230.99-24.8-6.77-1.05-13.54-2.13-20.32-3.23-.26-.05-.52-.1-.78-.13-67.41-11.02-135.09-24.86-203.02-41.5-45.96-27.8-88.15-59-126.57-93.58-37.96-34.17-72.14-71.56-102.54-112.16-.1-67.79-23.71-131.04-63.83-181.03-40.76-50.78-98.57-87.9-166.09-102.22h0c-1.97-.41-4.09-.21-6.06.72-3.86,1.83-5.92,5.93-5.35,9.95,6.69,65.79,32.41,126.56,72.15,176.07,37.78,47.08,88.25,83.98,147.11,105.37.29.12.58.23.88.32,1.94.7,3.89,1.38,5.85,2.05,31.26,41.78,66.3,80.15,105.13,115.1,25.52,22.97,52.72,44.5,81.6,64.6-47.44-12.71-95-26.78-142.69-42.22-.3-.11-.6-.21-.91-.29-76.21-24.7-152.73-52.88-229.58-84.55-34-81.85-92.7-147.9-164.97-191.45-73.13-44.07-160.17-65.08-249.6-56.09-1.05.02-2.11.22-3.12.6h-.03s-.1.05-.1.05l-.07.02-.05.02h-.02s-.07.04-.07.04l-.07.03-.06.03h0s-.07.03-.07.03l-.07.03-.07.03h0s-.06.03-.06.03l-.07.03-.07.03h-.02s-.05.03-.05.03l-.06.03-.07.03h-.03s-.04.03-.04.03l-.07.03-.07.04-.21.12h-.02s-.19.13-.19.13h-.02s-.19.13-.19.13h-.01s-.19.14-.19.14h0s-.19.14-.19.14h0c-1.19.88-2.12,1.98-2.78,3.22l-.02.04-.04.09-.06.12-.04.08v.02s-.09.18-.09.18h0s-.06.15-.06.15h0s-.08.19-.08.19v.02s-.04.07-.04.07l-.05.14-.03.07-.05.15-.02.07-.05.15-.02.07-.05.15-.05.18v.04s-.03.06-.03.06l-.04.16c-.45,1.83-.36,3.8.34,5.64l.05.13v.03s.09.18.09.18h0s.03.08.03.08l.07.15.03.07.08.15c.07.15.15.29.23.44l.02.03.04.06c41.86,75.7,102.36,137.39,174.06,180.6,71.2,42.91,153.42,67.52,239.34,69.46,61.38,25.34,122.56,48.47,183.54,69.4-16.33,1.55-32.32,3.98-47.98,7.3-30.9,6.55-60.5,16.54-88.81,29.95-59.18-24.79-123.02-28.52-182.12-13.56-60.26,15.25-115.6,49.94-156.06,101.54-2.84,3.18-3.28,8-.79,11.69,1.08,1.6,2.56,2.76,4.22,3.46,59.98,29.48,126.23,35.04,187.17,19.62,60.33-15.27,115.45-51.14,154.12-104.74,27.47-13.18,56.21-22.95,86.23-29.32,30.45-6.45,62.22-9.41,95.31-8.86,66.61,21.54,132.99,40.43,199.12,56.68.2.06.4.11.6.15,57.48,14.11,114.78,26.22,171.9,36.33-40.06,15.56-86.78,33.77-140.16,54.63-69.83,27.29-136.34,53.35-199.68,78.24-27.86-35.4-65.02-60.7-106.06-74.14-43.3-14.18-90.92-15.16-136.49-.87-5.02,1.57-7.82,6.92-6.25,11.94.14.44.31.87.5,1.28,1.03,2.32,2.12,4.61,3.27,6.86-17.35,3.84-33.89,10.35-49.07,19.21-19.09,11.14-36.02,26.02-49.69,43.99-2.55,3.36-2.53,7.85-.26,11.14l-.02.02c14.36,20.88,32.17,38.97,52.53,53.62,17.58,12.65,37.03,22.68,57.75,29.67-1.63,4.85-3.05,9.79-4.25,14.8-1.24,5.11,1.9,10.26,7.02,11.5,47.88,11.44,96.5,5.33,138.38-14.78,40.81-19.58,75.24-52.44,96.4-95.23,82.01-32.23,149.68-58.77,202.84-79.54,57.04-22.29,113.68-44.33,169.87-66.11,6.09.99,12.18,1.96,18.27,2.9,84.14,13.03,167.88,21.71,251.21,26.03.31.03.62.05.93.05,79.39,4.09,158.41,4.22,237.08.41-39.79,23.34-78.14,41.61-115.05,54.79-45.55,16.27-88.88,24.78-129.98,25.53-73.74-34.39-154.24-44.75-231.21-32.68-77.72,12.19-151.83,47.22-211.76,103.42-.93.88-1.7,1.95-2.23,3.19-2.08,4.84.16,10.44,5,12.53,74.63,31.82,155.08,40.96,232.19,28.87,75.98-11.92,148.73-44.48,209.5-96.3,42.84-.93,87.82-9.81,134.93-26.63,47.4-16.93,97.01-41.94,148.79-75.02,39.4-2.59,78.71-6.17,117.92-10.75,5.22-.6,8.97-5.32,8.38-10.54-.6-5.22-5.32-8.97-10.55-8.37-39.19,4.58-78.47,8.15-117.83,10.72-25.41-6.99-49.98-15.14-73.73-24.45-9.8-10.29-18.42-21.22-25.87-32.78-6.91-10.73-12.84-22.04-17.8-33.93,5.79-9.19,6.97-19.25,5.05-28.66-1.45-7.07-4.68-13.71-9.03-19.26-4.39-5.6-9.96-10.18-16.03-13.04-9.11-4.3-19.35-4.93-28.86.06-9.04,4.75-14.1,11.52-15.99,19.14-1.56,6.33-.79,12.96,1.82,19.26,2.36,5.71,6.29,11.21,11.35,15.93,8.71,8.13,21,14.1,34.5,14.85,5.31,12.59,11.63,24.57,18.96,35.94,1.4,2.18,2.84,4.34,4.32,6.47-14.23-6.57-28.14-13.59-41.72-21.05-46.27-25.43-88.89-56.11-127.85-92.03-.08-11.17-3.47-24.53-9.24-36.63-4.42-9.26-10.27-17.95-17.17-24.57-7.53-7.23-16.37-12.12-26.11-12.99-6.16-.55-12.51.51-18.92,3.56-6.46,3.08-11.29,6.93-14.71,11.29l-.02.03c-4.33,5.53-6.37,11.74-6.56,18.16-.17,6.02,1.32,12.11,4.07,17.89,3.71,7.79,9.79,15.11,17.09,20.83,8.92,6.99,19.18,11.99,30.09,14.7,9.2,2.29,18.88,2.95,28.65,1.8,40,36.88,83.83,68.42,131.49,94.61,25.25,13.88,51.55,26.24,78.91,37.09.4.19.8.35,1.21.48,9.04,3.57,18.2,6.97,27.47,10.21-71.35,2.98-142.99,2.69-214.94-.87-18.86-30.59-48.54-58.83-89.05-84.7-39.98-25.54-90.68-48.86-152.08-69.96,9.29-41.17,2.57-82.68-16.39-117.55-20.28-37.31-54.59-67.02-98.27-80.56-5.02-1.57-10.36,1.23-11.93,6.25-.13.4-.22.8-.29,1.2h-.01c-.49,2.88-.92,5.76-1.28,8.64Z"/>
      <path class="cls-3" d="m838.02,1044.21h113.97v113.92h-113.97v-113.92Zm-43.01,0v113.92h-113.97v-113.92h113.97Zm0-42.99h-113.97v-113.91h113.97v113.91Zm43.01,0v-113.91h113.97v113.91h-113.97Zm440.4-723.52L862.97,0C575.33,192.3,287.7,384.61,0,576.82v1416.1h1143.29v-33.01H33.03V594.33L862.97,39.59l415.45,277.69v-39.58Z"/>
      <g>
        <path class="cls-1" d="m803.48,1593.98c-1.38,8.61-9.09,45.3-11.57,54.23h-142.91v-11.48c25.06-2.87,26.71-4.47,26.71-31.26v-121.86c0-27.11-3.31-29.03-22.03-30.94v-11.8h89.49c28.91,0,38.55-.32,42.41-.64.27,5.74,1.65,31.9,2.75,51.68l-10.74,1.6c-2.48-10.85-7.16-23.93-11.84-29.67-4.96-6.38-8.54-8.3-22.58-8.3h-17.9c-10.46,0-11.57.64-11.57,11.49v66.67h26.99c15.42,0,18.17-4.79,22.3-27.43h10.74v71.14h-10.74c-4.4-23.6-6.61-27.43-22.58-27.43h-26.71v54.87c0,22.01.55,28.71,17.62,29.03h19.55c15.42,0,19.55-2.23,25.61-10.85,6.88-9.25,12.39-21.05,16.8-31.9l10.19,2.87Z"/>
        <path class="cls-1" d="m914.42,1648.21v-11.8c18.72-2.87,17.9-7.98,13.22-18.18-2.75-5.43-8.54-16.59-28.36-56.14-12.67,22.65-24.78,43.39-29.74,54.55-6.33,13.08-4.96,16.59,14.32,19.78v11.8h-68.56v-11.8c15.42-1.6,25.33-6.7,33.32-17.86,9.91-14.04,27.54-42.11,43.23-69.54-12.94-25.2-24.51-47.53-38.55-73.69-7.44-14.36-13.49-20.1-34.14-22.65v-11.8h85.91v11.8c-16.52,2.23-17.35,5.74-13.49,14.99,4.41,9.89,13.22,27.12,24.51,48.17,8.26-13.08,18.45-31.9,25.06-45.3,5.23-11.17,3.03-14.36-14.04-17.86v-11.8h66.64v11.8c-17.9,2.55-26.16,5.74-36.62,21.05-9.36,14.36-20.1,32.22-33.59,54.23,15.97,29.35,28.64,53.91,44.88,82.31,11.01,20.73,16.8,23.93,35.8,26.16v11.8h-89.77Z"/>
        <path class="cls-1" d="m1164.15,1496.04c-3.03-14.68-9.09-26.8-11.84-31.26-4.96-6.7-7.16-9.25-23.4-9.25h-17.62v149.94c0,26.79,2.75,28.71,27.26,30.94v11.8h-91.42v-11.8c23.41-2.23,25.88-4.15,25.88-30.94v-149.94h-16.8c-15.42,0-19.83,2.87-25.06,10.53-3.85,6.06-7.71,17.54-11.29,30.3h-10.46c1.93-23.28,3.86-48.17,4.41-63.48h8.26c4.13,7.34,7.43,7.98,15.69,7.98h110.14c7.44,0,11.29-1.92,15.97-7.98h7.99c.27,13.4,1.38,41.47,2.75,62.21l-10.46.96Z"/>
        <path class="cls-1" d="m1345.04,1593.98c-1.38,8.61-9.09,45.3-11.57,54.23h-142.91v-11.48c25.06-2.87,26.71-4.47,26.71-31.26v-121.86c0-27.11-3.31-29.03-22.03-30.94v-11.8h89.49c28.91,0,38.55-.32,42.41-.64.27,5.74,1.65,31.9,2.75,51.68l-10.74,1.6c-2.48-10.85-7.16-23.93-11.84-29.67-4.96-6.38-8.54-8.3-22.58-8.3h-17.9c-10.46,0-11.57.64-11.57,11.49v66.67h26.99c15.42,0,18.17-4.79,22.3-27.43h10.74v71.14h-10.74c-4.4-23.6-6.61-27.43-22.58-27.43h-26.71v54.87c0,22.01.55,28.71,17.62,29.03h19.55c15.42,0,19.55-2.23,25.61-10.85,6.88-9.25,12.39-21.05,16.8-31.9l10.19,2.87Z"/>
        <path class="cls-2" d="m1534.47,1650.12c-1.65,0-4.96,0-8.26-.32-34.97-1.92-45.16-10.53-53.42-23.93-11.01-17.55-19-37.01-28.36-56.15-4.13-8.61-7.98-10.53-16.8-10.53l-5.51-.32v46.58c0,25.84,2.75,28.07,23.41,30.94v11.8h-84.26v-11.8c20.93-2.55,23.41-5.11,23.41-30.94v-122.18c0-25.2-2.75-28.71-23.41-30.62v-11.8h79.85c24.51,0,38.55,3.19,49.84,12.12,11.01,8.61,18.45,22.65,18.45,42.42,0,28.39-16.25,43.39-34.42,51.68,4.13,9.57,14.87,30.31,23.13,44.98,9.64,17.54,15.69,26.16,20.93,33.18,6.33,8.29,9.36,10.85,17.35,14.03l-1.93,10.85Zm-104.91-104.31c11.84,0,20.93-2.23,26.99-8.29,9.09-8.93,12.94-21.05,12.94-37.32,0-33.82-16.8-45.93-32.22-45.93-7.44,0-11.01,1.27-12.67,3.19-1.93,1.91-2.48,5.74-2.48,12.12v76.24h7.44Z"/>
        <path class="cls-2" d="m1546.02,1648.21v-11.8c20.93-2.23,23.41-4.15,23.41-30.94v-121.54c0-26.8-2.75-29.35-23.41-31.26v-11.8h85.09v11.8c-20.65,2.23-23.41,4.46-23.41,31.26v121.54c0,26.48,2.48,28.39,23.41,30.94v11.8h-85.09Z"/>
        <path class="cls-2" d="m1751.42,1436.39c50.94,0,92.52,43.07,92.52,105.91,0,67.95-41.85,110.7-93.9,110.7-55.07,0-95-46.57-95-108.14,0-54.55,33.59-108.46,96.38-108.46Zm-4.13,14.04c-28.09,0-48.74,31.9-48.74,88.36s18.45,100.17,55.62,100.17c26.16,0,46.54-29.35,46.54-87.73,0-63.17-21.48-100.81-53.42-100.81Z"/>
        <path class="cls-2" d="m2041.07,1650.12c-1.65,0-4.96,0-8.26-.32-34.97-1.92-45.16-10.53-53.42-23.93-11.01-17.55-19-37.01-28.36-56.15-4.13-8.61-7.98-10.53-16.8-10.53l-5.51-.32v46.58c0,25.84,2.75,28.07,23.41,30.94v11.8h-84.26v-11.8c20.93-2.55,23.41-5.11,23.41-30.94v-122.18c0-25.2-2.75-28.71-23.41-30.62v-11.8h79.85c24.51,0,38.55,3.19,49.84,12.12,11.01,8.61,18.45,22.65,18.45,42.42,0,28.39-16.25,43.39-34.42,51.68,4.13,9.57,14.87,30.31,23.13,44.98,9.64,17.54,15.69,26.16,20.93,33.18,6.33,8.29,9.36,10.85,17.35,14.03l-1.93,10.85Zm-104.91-104.31c11.84,0,20.93-2.23,26.99-8.29,9.09-8.93,12.94-21.05,12.94-37.32,0-33.82-16.8-45.93-32.22-45.93-7.44,0-11.01,1.27-12.67,3.19-1.93,1.91-2.48,5.74-2.48,12.12v76.24h7.44Z"/>
      </g>
    </g>
  </g>
</svg>