<?xml version="1.0" encoding="UTF-8"?>
<svg id="Calque_2" data-name="Calque 2" xmlns="http://www.w3.org/2000/svg" viewBox="0 0 1260.56 1137.71">
  <defs>
    <style>
      .cls-1 {
        fill-rule: evenodd;
      }

      .cls-1, .cls-2 {
        opacity: .11;
      }

      .cls-1, .cls-2, .cls-3 {
        fill: #586464;
      }

      .cls-4 {
        fill: #22c55e;
      }

      .cls-5 {
        fill: #3b82f6;
      }

      .cls-6 {
        opacity: .67;
      }
    </style>
  </defs>
  <g id="Layer_1" data-name="Layer 1">
    <g class="cls-6">
      <path class="cls-1" d="m496.73,807.1l409.8-6.11c9.53-.15,13.03,8.84,17.32,17.31l64.19,126.85c4.29,8.47-7.82,17.31-17.32,17.31H452.8c-9.5,0-20.58-8.36-17.32-17.31l43.93-120.74c3.26-8.95,7.79-17.16,17.32-17.31"/>
      <rect class="cls-2" y="371.63" width="996.97" height="388.39"/>
      <path class="cls-3" d="m592.57,710.53h-133.09c-6.83,0-13.06,2.8-17.55,7.29-4.5,4.5-7.3,10.71-7.3,17.55s2.8,13.05,7.29,17.55c4.5,4.48,10.73,7.29,17.56,7.29h133.09c6.83,0,13.06-2.81,17.55-7.29,4.5-4.49,7.3-10.71,7.3-17.54s-2.8-13.05-7.29-17.56c-4.5-4.48-10.73-7.28-17.56-7.28m17.97,78.86l-10.09.19c3.42,6.29,6.66,12.02,9.56,17.16,7.4,13.1,12.75,22.59,14.18,28.87,1.38,6.07-.22,9.72-5.82,11l-.58.13-.53-.06c-7.52-.94-15.48-6.62-23.47-17.14-7.05-9.28-14.26-22.42-21.34-39.45l-96.9,1.74c-7.09,17.08-14.31,30.24-21.37,39.53-7.99,10.52-15.96,16.21-23.47,17.14l-.52.06-.59-.13c-5.61-1.28-7.2-4.93-5.82-11,1.43-6.28,6.79-15.77,14.19-28.88,2.77-4.9,5.83-10.32,9.08-16.27-10.79-.13-19.01-1.82-26.23-5.97-7.96-4.53-14.48-11.96-21.69-23.44-10.79-17.13-33.92-49.46-41.46-65.9-5.29-11.98-7.38-23.67-6.38-33.28.68-6.5,2.8-12.13,6.31-16.35,3.62-4.34,8.65-7.17,15.01-7.9,6.29-.72,13.95.64,22.85,4.63l21.15,9.48.8-69.13.19-.51c8.67-22.89,30.76-38.19,57.92-46.37,22.15-6.68,47.77-8.65,72.12-6.21,24.42,2.45,47.68,9.38,65.03,20.48,16.85,10.78,28.24,25.49,30,43.91,1.1,9.48-1.79,38.09-2.33,49.51l22.88-4.57c12.82-2.55,24.6-.45,33.03,4.89,3.32,2.09,6.17,4.72,8.36,7.76,2.2,3.05,3.76,6.55,4.53,10.36,1.54,7.64-.13,16.58-6.07,26.02l-47.73,82.11c-3.19,5.5-9.57,9.51-16.86,12.28-9.33,3.54-20.43,5.16-27.94,5.28Zm23.18-141.02l2.48-52.22c-1.61-16.15-11.85-29.2-27-38.88-16.47-10.53-38.73-17.13-62.2-19.48-23.54-2.36-48.28-.46-69.63,5.98-25.12,7.57-45.52,21.44-53.53,41.95l-.83,71.92,28.98,47.32c2.4-.59,4.91-.9,7.48-.9h133.09c3.99,0,7.82.75,11.33,2.13l29.82-57.81Zm-183.18,137.45l159.89-2.88c6.91-.13,17.14-1.62,25.77-4.89,6.05-2.29,11.22-5.42,13.55-9.46l47.8-82.24c5.02-7.94,6.47-15.27,5.25-21.39-.56-2.88-1.75-5.54-3.43-7.87-1.69-2.33-3.92-4.4-6.57-6.06-7.09-4.48-17.17-6.22-28.31-4l-25.43,5.08-29.41,57.03c1.82,1.19,3.52,2.57,5.05,4.1,5.66,5.68,9.2,13.52,9.2,22.13s-3.53,16.44-9.2,22.11c-5.67,5.68-13.52,9.21-22.13,9.21h-133.09c-8.61,0-16.46-3.52-22.13-9.19-5.66-5.68-9.2-13.52-9.2-22.12s3.53-16.45,9.2-22.12c2.45-2.45,5.31-4.5,8.45-6.04l-28.27-46.16-24.71-11.07c-7.77-3.48-14.28-4.68-19.48-4.09-4.62.52-8.23,2.53-10.77,5.59-2.66,3.2-4.28,7.64-4.84,12.89-.88,8.47,1.02,18.96,5.79,29.84l41.08,65.23c6.64,10.56,12.49,17.31,19.43,21.28,6.87,3.96,15.11,5.31,26.52,5.11Zm376.8-35.84c2.9,0,5.54,1.2,7.43,3.08,1.88,1.88,3.08,4.53,3.08,7.42s-1.17,5.54-3.07,7.44c-1.96,1.9-4.55,3.08-7.43,3.08s-5.46-1.15-7.38-3.05l-.09-.09c-1.9-1.91-3.05-4.51-3.05-7.38s1.18-5.46,3.05-7.37c1.93-1.96,4.59-3.13,7.47-3.13Zm-1.07-36.95c2.9,0,5.54,1.2,7.43,3.08,1.89,1.88,3.08,4.53,3.08,7.42s-1.17,5.54-3.07,7.44c-1.96,1.9-4.55,3.08-7.43,3.08s-5.46-1.15-7.38-3.05l-.09-.09c-1.9-1.91-3.05-4.51-3.05-7.37s1.18-5.47,3.05-7.37c1.93-1.96,4.59-3.13,7.47-3.13Zm-61.33,66.81v47.13h125.32v-47.13h-125.32Zm0-32.3v25.82h125.32v-25.82h-125.32Zm125.32-52.56h-125.32v46.08h125.32v-46.08Zm-128.56-6.48h44.61c-1.76-1.23-3.41-2.6-4.92-4.11-6.55-6.54-10.6-15.59-10.6-25.57,0-2.07.19-4.12.53-6.15.35-2.04.88-4.04,1.55-5.94l.77-2.17h33.25c1.57-12.26,1.59-21.99.08-29.2-1.46-6.98-4.37-11.39-8.7-13.2l2.51-5.97c6.4,2.68,10.59,8.64,12.52,17.86l.52,2.95c2.81-7.64,6.22-14.27,10.2-19.78,8.6-11.88,19.89-18.61,33.73-19.15l.26,6.45c-11.71.46-21.34,6.26-28.75,16.5-7.47,10.32-12.77,25.14-15.78,43.54h26.82l.77,2.17c.68,1.91,1.2,3.9,1.56,5.94.35,2.03.53,4.08.53,6.15,0,9.98-4.05,19.03-10.6,25.57-1.51,1.51-3.16,2.89-4.92,4.11h49.09v144.95h-138.29v-144.95h3.24Zm82.13-256.87c-2.36-2.35-4.94-4.48-7.71-6.36-2.62,2.51-6.19,4.05-10.08,4.05h-38.88c-3.89,0-7.44-1.55-10.07-4.04-2.77,1.87-5.35,4.01-7.7,6.36-9.51,9.5-15.41,22.67-15.41,37.19s5.89,27.68,15.41,37.19c9.52,9.51,22.69,15.4,37.22,15.4s27.7-5.9,37.22-15.4c9.51-9.52,15.41-22.68,15.41-37.2s-5.9-27.69-15.41-37.2Zm-642.85,11.89l-32.83,32.81v418.09h32.83v-450.91Zm48.16-48.13l-32.83,32.81v466.22h32.83v-499.03Zm48.16-48.13l-32.83,32.81v514.35h32.83V347.27ZM561.43,83.3l-248.82,248.65v562.48h768.73v-511.16l-271.51-156.65v173.43h16.19c4.02,0,7.69,1.65,10.35,4.3,2.65,2.65,4.3,6.32,4.3,10.34,0,1.84-.34,3.6-.97,5.22,3.11,2.11,6.02,4.5,8.68,7.15,10.71,10.71,17.33,25.47,17.33,41.77s-6.62,31.08-17.31,41.77c-10.71,10.68-25.49,17.3-41.8,17.3s-31.11-6.62-41.8-17.3c-10.69-10.68-17.31-25.47-17.31-41.77s6.62-31.07,17.31-41.76c2.65-2.66,5.56-5.06,8.68-7.18-.62-1.62-.96-3.38-.96-5.21,0-4.03,1.65-7.7,4.3-10.35,2.65-2.64,6.32-4.3,10.35-4.3h16.2v-177.17l-241.93-139.58ZM93.38,529.39l59.43-59.39v-98.98h15.33v83.66l32.83-32.81v-99.83h15.33v84.52l32.83-32.81v-114.18h15.33v98.87l32.83-32.81v-160.62h15.33v145.3l235.07-234.92-99.56-57.45,7.66-13.22,103.09,59.48L623.12,0l10.84,10.83-61.33,61.29,230.73,133.12v-58.62h6.48v62.37l271.51,156.65v-200.64h15.33v209.48l163.88,94.56-7.66,13.22-156.21-90.13v502.31h81.04v15.31h-81.04v62.43h-15.33v-62.43H312.62v62.43h-15.33v-62.43h-32.83v62.43h-15.33v-62.43h-32.83v62.43h-15.33v-62.43h-32.83v62.43h-15.33v-62.43H26.98v-15.31h125.83v-402.78l-48.6,48.56-10.84-10.83Zm733.6,159.12h.38c8.05-.11,15.34-3.42,20.62-8.69,5.37-5.36,8.7-12.8,8.7-20.99,0-1.75-.14-3.45-.42-5.06l-.6-2.72h-57.37l-.6,2.72c-.28,1.61-.42,3.31-.42,5.06,0,8.2,3.33,15.63,8.7,20.99,5.28,5.28,12.58,8.59,20.62,8.69h.38Z"/>
      <g>
        <path class="cls-4" d="m178.66,1134.99v-6.69c13.75-1.27,15.38-2.35,15.38-17.55v-68.93c0-15.2-1.81-16.65-15.38-17.73v-6.69h55.91v6.69c-13.57,1.27-15.38,2.53-15.38,17.73v68.93c0,15.02,1.63,16.1,15.38,17.55v6.69h-55.91Z"/>
        <path class="cls-4" d="m376.04,1024.09c-11.04,1.45-14.47,3.8-15.02,11.94-.54,7.06-1.09,13.21-1.09,28.95v72.01h-10.13l-75.45-90.46v40.89c0,15.74.36,22.8.9,28.04.72,7.96,4.52,12.12,17.91,12.85v6.69h-44.87v-6.69c10.31-.91,14.84-3.62,15.92-12.12.72-6.51,1.09-13.03,1.09-28.77v-42.88c0-5.97-.36-9.95-3.8-14.66-3.26-4.52-7.6-5.06-15.2-5.79v-6.69h35.28l68.93,80.15v-32.57c0-15.74-.18-21.71-.72-28.41-.54-7.78-3.44-11.58-18.45-12.48v-6.69h44.69v6.69Z"/>
        <path class="cls-4" d="m490.01,1048.69c-1.99-8.32-5.97-15.2-7.78-17.73-3.26-3.8-4.7-5.25-15.38-5.25h-11.58v85.04c0,15.2,1.81,16.28,17.91,17.55v6.69h-60.07v-6.69c15.38-1.27,17.01-2.35,17.01-17.55v-85.04h-11.04c-10.13,0-13.03,1.63-16.46,5.97-2.53,3.44-5.07,9.95-7.42,17.19h-6.88c1.27-13.21,2.53-27.32,2.9-36h5.43c2.71,4.16,4.88,4.52,10.31,4.52h72.37c4.89,0,7.42-1.09,10.49-4.52h5.25c.18,7.6.9,23.52,1.81,35.28l-6.87.54Z"/>
        <path class="cls-4" d="m608.87,1104.24c-.9,4.89-5.97,25.69-7.6,30.76h-93.9v-6.51c16.46-1.63,17.55-2.53,17.55-17.73v-69.12c0-15.38-2.17-16.46-14.47-17.55v-6.69h58.8c19,0,25.33-.18,27.86-.36.18,3.26,1.08,18.09,1.81,29.31l-7.06.91c-1.63-6.15-4.7-13.57-7.78-16.83-3.26-3.62-5.61-4.71-14.84-4.71h-11.76c-6.88,0-7.6.36-7.6,6.51v37.81h17.73c10.13,0,11.94-2.71,14.66-15.56h7.06v40.35h-7.06c-2.89-13.39-4.34-15.56-14.84-15.56h-17.55v31.12c0,12.48.36,16.28,11.58,16.46h12.85c10.13,0,12.85-1.27,16.83-6.15,4.52-5.25,8.14-11.94,11.04-18.09l6.69,1.63Z"/>
        <path class="cls-5" d="m733.33,1136.08c-1.09,0-3.26,0-5.43-.18-22.98-1.09-29.67-5.97-35.1-13.57-7.24-9.95-12.48-20.99-18.64-31.84-2.71-4.88-5.25-5.97-11.03-5.97l-3.62-.18v26.42c0,14.65,1.81,15.92,15.38,17.55v6.69h-55.36v-6.69c13.75-1.45,15.38-2.9,15.38-17.55v-69.3c0-14.29-1.81-16.28-15.38-17.37v-6.69h52.47c16.1,0,25.33,1.81,32.75,6.88,7.24,4.88,12.12,12.85,12.12,24.06,0,16.1-10.68,24.61-22.62,29.31,2.71,5.43,9.77,17.19,15.2,25.51,6.33,9.95,10.31,14.84,13.75,18.82,4.16,4.7,6.15,6.15,11.4,7.96l-1.27,6.15Zm-68.93-59.16c7.78,0,13.75-1.27,17.73-4.7,5.97-5.06,8.5-11.94,8.5-21.17,0-19.18-11.04-26.05-21.17-26.05-4.89,0-7.24.72-8.32,1.81-1.27,1.08-1.63,3.26-1.63,6.88v43.24h4.89Z"/>
        <path class="cls-5" d="m740.92,1134.99v-6.69c13.75-1.27,15.38-2.35,15.38-17.55v-68.93c0-15.2-1.81-16.65-15.38-17.73v-6.69h55.91v6.69c-13.57,1.27-15.38,2.53-15.38,17.73v68.93c0,15.02,1.63,16.1,15.38,17.55v6.69h-55.91Z"/>
        <path class="cls-5" d="m875.88,1014.86c33.47,0,60.79,24.43,60.79,60.07,0,38.54-27.5,62.78-61.7,62.78-36.18,0-62.42-26.41-62.42-61.33,0-30.94,22.07-61.52,63.32-61.52Zm-2.71,7.96c-18.45,0-32.02,18.09-32.02,50.12s12.12,56.81,36.55,56.81c17.19,0,30.58-16.65,30.58-49.75,0-35.82-14.11-57.17-35.1-57.17Z"/>
        <path class="cls-5" d="m1066.2,1136.08c-1.08,0-3.26,0-5.43-.18-22.98-1.09-29.67-5.97-35.1-13.57-7.24-9.95-12.48-20.99-18.64-31.84-2.71-4.88-5.25-5.97-11.04-5.97l-3.62-.18v26.42c0,14.65,1.81,15.92,15.38,17.55v6.69h-55.36v-6.69c13.75-1.45,15.38-2.9,15.38-17.55v-69.3c0-14.29-1.81-16.28-15.38-17.37v-6.69h52.47c16.1,0,25.33,1.81,32.75,6.88,7.24,4.88,12.12,12.85,12.12,24.06,0,16.1-10.67,24.61-22.62,29.31,2.71,5.43,9.77,17.19,15.2,25.51,6.33,9.95,10.31,14.84,13.75,18.82,4.16,4.7,6.15,6.15,11.4,7.96l-1.27,6.15Zm-68.93-59.16c7.78,0,13.75-1.27,17.73-4.7,5.97-5.06,8.5-11.94,8.5-21.17,0-19.18-11.04-26.05-21.17-26.05-4.89,0-7.24.72-8.32,1.81-1.27,1.08-1.63,3.26-1.63,6.88v43.24h4.89Z"/>
      </g>
    </g>
  </g>
</svg>