<?xml version="1.0" encoding="UTF-8"?>
<svg id="Calque_2" data-name="Calque 2" xmlns="http://www.w3.org/2000/svg" viewBox="0 0 3543.95 2074.77">
  <defs>
    <style>
      .cls-1 {
        fill: #22c55e;
      }

      .cls-2 {
        fill: #3b82f6;
      }

      .cls-3 {
        fill: #303030;
      }
    </style>
  </defs>
  <g id="_Ñëîé_1" data-name="Ñëîé 1">
    <g>
      <g>
        <path class="cls-3" d="m1892.41,897.37c-39.81,149.89-204.18,282.64-351.59,283.33q-69.74,3-88.87,72.71c-19.1,69.64-35.68,84.43-104.54,89.73-36.74,5.63-31.29,65.44-102.1,69.8-25.89,1.55-42.12,33.62-26.87,59.21,32.69,54.86,14.37,105.48-6.55,156.58-21.97,56.36-117.98,40.51-104.41,123.96,5.72,23.33-5.96,34.78-27.73,40.67-101.9,27.52,23.78,120.23-67.26,128.93-19.9,1.93-47.78,49.87-41.74,70.28,10.27,34.75-3.91,50.66-36.53,57.89-74.77,20-159.81,56.78-203.34-35.77-14.83-29.44-25.14-61.25-41.05-90.02-21.27-38.47-13-72.94,5.26-109.09,69.24-137.14,147.02-269.72,217.72-405.96,57.24-110.31,118.92-218.17,174.85-329.09,4.9-9.73,18.58-22.84,5.12-33.59-16.33-13.05-33.66-9.27-47.22,7.47-15.44,19.06-32.4,37.09-46.03,57.36-12.01,17.86-24.89,20.18-39.47,6.8-54.07-52.32-76.88,50.55-135.93,10.92-9.15-5.74-16.98-.27-23.59,4.44-95.6,50.24-73.16,151.98-202.63,164.09-133.61-8.13-51.18,107.76-141.02,89.63-111.11-4.73-28.46,116.24-119.04,90.93-107.92-29.03-33.57,67.96-102.08,79.87-53.5,8.71-100.68-9.28-147.93-30.14C6.26,1492.28-6.53,1461.84,2.47,1372.93c5-49.42,27.09-74.56,66.31-100.65,156.08-103.83,310.3-210.49,458.63-325.48,138.11-97.2,303.8-152.54,325.42-346.41,17.54-107,59.54-206.59,136.33-288.63,98.39-99.53,255.83-120.97,384.48-76.07,6.04,2.33,13.18,7.05,18.95-3.69,175.8-342.05,935.74-318.3,858.98,154.22-4.28,37.05,13.01,58.84,49.33,57.46,231.3-7.39,462.53-16.31,693.57-29.85,49.07-8.23,89.38,49.14,48.43,85.92-35.98,32.01-6.79,51.21,13.24,70.55,140.6,135.73,282.45,270.17,422.23,406.73,28.6,27.94,67.29,51.39,65.52,101.18-1.96,55.12-6.34,107.58-49.22,150.16-124.82,123.94-263.66,231.41-399.2,342.71-103.24,84.78-209.76,165.58-312.81,250.58-29.59,24.41-52.74,20.02-77.71-1.02-179.96-151.98-339.27-325.87-504.24-493.5-21.56-22.26-43.82-30.02-72.34-11.58-28.8,14.28-97.19,60.93-94.28-2.8,3.49-241.88,51.47-157.13-115.63-344.48-26.61-25.3-23.63-57.62-16.15-90.17,6.45-17.37,11.36-34.33,26.54-48.31,28.45-26.21,53.94-55.67,80.24-84.16,47.79-54.85,72.65-33.82,119.92,7.8,18.64-60.01,30.55-122.15,46.79-182.91,1.95-7.81,9.91-17.74,1.4-22.76-8.56-5.06-13.7,7.07-19.86,12.17-76.07,63-153.41,123.66-255.2,139.55-15.41,2.41-13.53,10.33-10.53,22.42,14.71,57.82,12.94,117.22.8,175.43Zm149.29-744.36c2.68,4.33,8.05,7.01,10.74,3.4,4.18-5.62-3.78-5.43-6.29-7.95-158.09-100.85-471.13-44.87-555.31,128.15,161.29-137.62,340.21-207.48,550.87-123.61Zm125.39,334.63c-179.87,199.2-516.69,232.05-733.39,72.37-9.55,16.62-3.08,28.42,11.45,38.28,53.03,42.85,113.85,66.39,181.04,76.75,196.69,21.4,433.85,4.25,545.11-183.65,2.29-2.8,5.56-5.66.81-8.78-.4-.26-3.29,3.26-5.02,5.03Zm1332.07,646.94c-224.75,186.88-439.12,385.01-660.52,575.75-46.99,38.08-101.46,30.49-141.14-8.3-166.94-163.21-339.36-320.79-501.62-488.76-12.43-12.87-16.64-7.7-27.75.95-24.18,18.83-45.12,46.91-77.54,48.69-25.72,1.42-17.76,19.33-22.77,30.95-14.7,41.65,27.62,4.5,39.55-5.54,39.23-28.77,80.36-27.19,109.81,6.11,71.11,80.41,149.84,153.14,228.57,225.7,90.78,83.67,172.86,175.84,260.91,262.13,18.9,18.52,37.02,24.39,59.28,5.75,225.43-190.97,458.45-372.84,677.56-571.18,26.64-22.47,57.37-45.52,61.98-84.68-2.11.81-4.22,1.61-6.33,2.42Zm-1411.2,45.63c0,7.13-.23,21.34.09,35.53.17,7.38-1.89,17.33,6.27,20.41,10.63,8.73,61.01-46.3,73.22-54.88,13.53-12.24,26.01-12.57,39.75.47,25.47,24.17,52.31,46.91,77.56,71.3,147.34,142.32,294.67,284.65,441.25,427.74,25.03,24.43,48.27,29.35,77.69,8.74,245.94-183,459.81-404.66,697.83-597.62,28.82-21.35,4.24-38.86-12.2-56-159.22-155.88-318.47-311.72-477.71-467.58-72.83-69.13,33.73-81.17,22.72-113.9-6.65-16.55-22.62-16.3-38.89-15.17-225.72,17.21-451.96,24.61-677.68,41.85-34.45,2.73-33.26,9.34-14.95,32.63,44.52,66.7-67.89,129.9-96.05,58.23-8.42,5.94-9.15,15.45-11.05,24.3-11.28,52.72-22.37,105.48-33.66,158.19-4.99,42.67-38.86,53.41-65.16,18.82-18.06-15.93-34.31-52.51-59.38-24.63-26.33,27.32-52.24,55.06-78.73,82.24-9.86,10.12-10.02,17.86.09,28.65,180.03,208.94,136.89,82.56,128.96,320.7Zm-350.18-592.41c0-.24,0-.47,0-.71,8.54,0,17.14.62,25.6-.17,8.97-.84,22.02,4.2,25.62-4.46-62.22-123.25-232.41-230.81-372.56-227.07-186.47,6.06-361.9,191.06-342.96,378.68,9.15,57.32,31.9,110.52,53.43,164.01,9.07,22.54,23.33,44.28,19.93,69.98-8.04,60.67-22.33,119.06-51.94,174-119.26,221.25-243.36,439.92-354.68,665.43-30.4,59.19-38.44,90.15-.57,150.33,9.84-.13,10.93-11.63,14.57-18.83,139.79-280.02,283.55-558.01,427.63-835.85,13.59-26.39,32.48-37.02,59.49-21.95,36.04,20.11,47.38,60.16,28.95,97.19-139.82,285.61-287.79,567.47-422.87,855.28,23.05-3.99,46.08-8.09,69.15-11.94,21.3-3.55,31.32-11.57,22.29-36.07-9.67-26.22,21.99-85.81,49.31-89.74,32.78-4.72,28.49-19.05,20.14-42.01-14.78-40.62,4.55-77.63,44.77-87.64,18.21-4.53,24.18-11.96,21.28-31.73-5.24-35.68,20.41-79.66,53.67-87.66,36.51-8.78,49.47-31.43,61.68-64.39,15.31-41.35,14.63-76.63-4.03-116.29-20.4-43.36,1.24-76.8,49.15-83.22,24.83-3.33,41.5-18.13,54.25-37.28,14.92-22.42,31.04-35.65,60.77-28.6,91.17,14.94,53.8-181.07,141.03-165.99,215.98,22.21,421.19-212.08,370.59-416.47-4.51-20.11-11.94-25.76-31.65-25.13-61.55,1.97-122.96,3.68-184.19-9.29-20.14-4.26-40.96-11.54-63.96-5.63-100.42,31.27-225.5-106.92-149.74-194.99,32.07-27.14,67.94-51.46,112.55-42.59,137.76,26.36,88.76,130.94,159.17,128.88,11.39.15,22.76,1.23,34.14,1.89Zm-476.65-333.25c-265.47-3.38-335.45,168.64-381.44,398.36-16.26,78.17-51.22,141.75-120.97,184.73-230.28,134.52-432.4,309.69-657.83,451.56-40.22,27.03-68.38,53.06-65.2,103.44.48,7.54-1.56,20.63,1.11,21.62,7.89,2.94,14.74-4.37,21.64-9.24,271.68-192.08,542.89-384.82,818.3-571.53,12.67-8.77,22.84-12.12,35.61-2.01,37.18,29.45,37.25,97.15-.64,123.96-253.08,183.03-516.37,357.14-764.33,544.46,17.59,5.09,35.56,9.16,52.69,15.5,25.26,9.36,43.53,10,43.48-24.87,10.18-27.25,39.71-44.95,70.59-36.1,81.4,37.23,9.66-96.41,139.17-87.47,48.24.98,4.75-98.03,116.84-84.39,132.98,7.46,120.8-141.96,219.72-182.66,8.52-5.21,16.98-10.65,26.15-4.11,57.08,42.32,82.32-64.14,135.6-12.77,13.87,12.67,21.76,7.82,31.92-3.94,20.44-23.64,41.98-46.33,62.97-69.51,10.08-11.13,17.72-20.15,34.2-4.76,46.33,38.63,24.97-72,12.56-90.72-44.07-88.19-87.93-186.23-61.79-286.84,53.62-194.6,256.69-350.33,489.95-288.05-74.21-51.53-168.5-79.86-260.32-84.68Zm891.72,43.1c.9-38.03-10.16-58.3-42.8-78.78-182.82-125.11-419.42-68.76-580.37,67.08-3.94,3.53-18.24,9.05-6.94,16.3,27.32,17.53,46.85,45.77,74.76,60.26,92.92,48.22,166.69,116.02,223.2,203.46,30.88,50.86,182.87-44.98,218.84-69.32,8.04-5.39,9.38-7.1,3.46-17.84-28.3-51.31,7.43-124.15,65.52-125.92,43.93-1.34,44.19-25.06,44.32-55.24ZM92.54,1482.59c273.98-174.8,541.05-372.1,809.23-559.09,22.59-16.81,6.93-39.45-.92-55.4-5.69-11.58-20.07,3.03-28.59,8.34-283.23,185.47-559.49,386.86-830.94,587.2,17.27,6.17,33.62,13.66,51.22,18.96Zm1151.91-349.38c5.83-36.8-28.46-44.22-42.3-10.47-138.1,292.51-286.98,579.88-434.96,867.5-12.75,24.52,6.21,41.38,21.63,51.61,18.11,12.01,18.54-11.89,23.91-21.32,130.5-250.37,255.57-503.68,383.44-755.44,21.11-41.97,41.83-84.52,48.28-131.87Zm980.89-856.47c9.25-79.72-41.07-129.61-104.37-170.15-220.18-139.23-535.04-76.24-696.26,123.47-5.13,6.7-19.12,18.51-.22,23.31,13.48,3.42,29.41,28.47,42.96,3.26,129.98-202.47,447.79-262.61,633.08-102.5,56.06,46.63,91.17,107.94,76.96,184.7-4.49,24.24,10.02,25.01,22.15,29.93,19.72,7.99,16.01-12.54,18.23-19.99,6.46-21.67,9.84-44.35,7.47-72.03Zm-474.72,355.75c148.2,4.07,301-53.46,398.56-166.28,7.27-8.1,17.02-14.72,2.68-26.84-17.94-15.16-17.56,5.91-23.15,11.13-89.58,113.47-228.79,156.99-367.67,169.06-108.45,9.34-199.7-30.98-283.98-93.56-9.78-7.26-20.28-14.1-28.73-.8-7.38,11.6,6.15,15.33,12.34,20.8,83.35,73.57,186.54,81.09,289.95,86.49Zm363.68-263.36c-28.79.13-58.45,33.52-47.61,61.81,58.33-99.72,157.87,30.11,176.64,96.62,4.8,12.71-8.06,46.47,21.6,38.46,27.9-7.53,6.18-33.19,3.75-48.99-11.91-77.41-87.94-148.63-154.37-147.9Zm-49.16,680.71c4.56-17.24-4.92-27.82-15.61-39.65-31.45-34.82-61.4-70.98-92.12-106.45-8.67-10.01-17.75-30.77-27.55-25.77-11.72,5.98-7.95,27.59-7.84,42.45.05,6.25,6.62,13.13,11.52,18.56,41.34,43.37,82.95,95.95,125.75,135.68,10.78-4.23,3.35-16.47,5.85-24.82Zm-540.34-561.24c-6.84,1.74-23.72,2.11-25.34,7.28-3.1,9.85,10.55,15.74,18.28,21.82,11.39,10.1,125.61,82.98,107.01,31.89-7-29.37-56.18-60.72-99.94-60.98Zm546.01-15.91c2.86-6.47,5.39-10.21,5.79-14.16.15-1.48-4.67-3.47-7.22-5.22-5.44,8.11-4.71,10.24,1.42,19.39Z"/>
        <path class="cls-3" d="m3090.38,1015.38c-1.37,13.04-6.62,20.82-13.69,27.42-39.46,36.89-79.17,73.52-118.42,110.63-13.38,12.65-23.45,12.52-37.01-1.37-38.43-39.4-78.04-77.67-117.95-115.58-12.19-11.59-11.35-18.05,1.63-28.56,44.96-36.39,89.05-73.87,133.07-111.41,8.87-7.56,16.3-12.77,26.69-3.05,40.24,41.38,90.79,76.81,125.67,121.93Zm-138.73-93c-38.25,29.51-73.32,62.93-110.75,93.54-8.59,7.24-6.07,12.67.98,18.03,32.59,24.76,58.75,55.96,85.7,86.24,10.08,11.32,17.6,6.87,25.63-.36,31.59-28.43,62.69-57.41,94.52-85.57,10.13-8.96,10.59-14.29-.22-23.74-32.8-28.45-63.41-59.26-95.86-88.13Z"/>
        <path class="cls-3" d="m2746.5,1018.2c-42.51,43.37-91.59,79.37-136.08,120.67-11.78,10.48-19.24,10.36-30.2-1.33-31.18-33.23-63.72-65.18-95.44-97.91-18.8-19.4-21.89-36.88,2.37-56.57,36.06-29.27,69.89-61.28,104.56-92.26,8.08-7.22,15.1-14.72,26.16-3.55,42.25,44.48,88.43,84.62,128.64,130.94Zm-37.41,3.34c-28.22-33.08-59.4-62.43-88.51-94.65-7.32-7.86-12.3-5.08-18.87.65-29.26,25.51-58.57,50.97-88.4,75.8-9.76,8.12-9.53,13.17-.54,22.19,122.59,121.83,49.13,104.11,196.32-3.98Z"/>
        <path class="cls-3" d="m2914.01,1188.97c-36.49,39.9-84.76,68.7-124.88,105.3-18.28,15.32-34.08,13.22-50.14-1.83-36.66-34.35-72.9-69.17-109.97-103.07-11.55-10.57-10.19-17.24.95-26.92,42.24-36.65,84.02-73.84,125.51-111.33,9.13-8.25,15.53-11.6,25.68-.96,43.59,47.17,90.57,90.45,132.86,138.81Zm-148.19,88.4c33.93-25.6,63.93-54.36,96.94-80.95,10.68-8.87,3.43-13.48-2.63-19.78-26.92-28-53.92-55.94-80.03-84.68-8.04-8.85-12.16-9.8-21.58-1.08-27.74,25.69-56.23,50.67-85.74,74.29-12.66,10.13-11.11,15.88-.54,25.48,31.78,28.42,61.46,58.6,93.57,86.73Z"/>
        <path class="cls-3" d="m2932.1,867.9c-52.18,36.04-97.49,79.92-146.31,120.21-12.73,11.07-20.93,11.1-32.97-1.18-37.24-37.98-75.25-75.22-113.89-111.78-12.24-11.58-9.04-17.84,2.39-26.37,43.36-32.37,86.68-64.81,129.29-98.16,16.47-12.89,28.75-12.82,44.09,2.45,38.92,40.66,80.83,70.89,117.41,114.83Zm-39.62,4.21c-30.08-32.9-64.52-59.96-95.58-91.79-9.89-9.73-14.84-2.48-21.14,2.59-31.05,24.99-61.27,51.07-93.3,74.72-12.95,9.56-9.31,14.29-.54,22.39,28.56,26.37,57.37,52.51,84.94,79.89,9.24,9.18,13.86,4.24,20.66-1.33,34.8-29.21,70.93-56.31,104.96-86.48Z"/>
      </g>
      <path class="cls-1" d="m2743.25,1469.14l46.66,55.19-11.76,9.94-46.66-55.19,11.76-9.94Zm9.48-8.02l14.41-12.19,46.44,24.16.57-.48-16.1-49.81,14.41-12.19,46.66,55.19-11.38,9.62-30.31-35.85-.19.16,15.92,47.68-7.78,6.57-44.53-23.82-.38.32,30.47,36.04-11.38,9.62-46.85-55.03h0Zm69.42-58.69l14.41-12.19,46.44,24.16.57-.48-16.1-49.81,14.41-12.19,46.66,55.19-11.38,9.62-30.31-35.85-.38.32,15.92,47.68-7.59,6.41-44.53-23.82-.38.32,30.47,36.04-11.38,9.62-46.85-55.03h0Zm143.66-73.97c5.13,6.07,8.32,12.15,9.57,18.25,1.25,6.1.94,11.89-1.12,17.53-2.06,5.64-5.62,10.28-10.36,14.29-4.93,4.17-10.26,6.72-16.16,7.81-5.91,1.09-11.67.43-17.47-1.82-5.8-2.25-11.27-6.41-16.4-12.48-5.13-6.07-8.32-12.15-9.57-18.25-1.25-6.1-.94-11.89,1.12-17.53,2.06-5.64,5.46-10.47,10.39-14.64s10.26-6.72,15.97-7.65c5.91-1.09,11.67-.43,17.47,1.82,5.96,2.44,11.43,6.6,16.56,12.67Zm-11.95,10.1c-3.37-3.98-6.66-6.73-10.05-8.42s-6.85-2.34-10.06-1.9c-3.21.44-6.32,1.76-9.16,4.17-2.84,2.41-4.67,5.25-5.63,8.34-.96,3.09-.91,6.62.2,10.24,1.11,3.62,3.26,7.32,6.63,11.31,3.37,3.98,6.66,6.73,10.05,8.42,3.38,1.69,6.85,2.34,10.06,1.9s6.32-1.76,9.16-4.17,4.67-5.25,5.63-8.34c.96-3.09.91-6.62-.2-10.24-1.11-3.62-3.42-7.51-6.63-11.31Z"/>
      <path class="cls-2" d="m2997.59,1348.74l-46.66-55.19,11.57-9.78,19.24,22.76,23.71-20.04-19.24-22.76,11.57-9.78,46.66,55.19-11.57,9.78-19.24-22.76-23.71,20.04,19.24,22.76-11.57,9.78Zm66.19-55.96l-12.52,10.58-27.7-71.23,14.98-12.67,65.63,39.16-12.52,10.58-49.76-30.78-.38.32,22.26,54.03Zm-19.04-20.98l29.59-25.01,7.7,9.1-29.59,25.01-7.7-9.1Zm66.26-18.95l-46.66-55.19,22-18.6c3.98-3.37,7.88-5.68,11.85-6.76,3.97-1.08,7.15-1.16,10.24-.2s5.93,2.79,8.34,5.63c1.76,2.09,2.99,4.3,3.48,6.81s.48,4.8-.24,7.03c-.72,2.23-1.78,4.43-3.2,6.61l.48.57c2.09-1.76,4.62-2.61,7.32-3.26,2.86-.47,5.66-.23,8.4.7,2.74.93,5.39,2.92,7.64,5.57,2.41,2.84,3.89,6.14,4.49,9.54.41,3.56-.08,7.22-1.8,10.95-1.72,3.73-4.49,7.38-8.67,10.91l-23.68,19.69h0Zm3.74-19.42l9.48-8.02c3.22-2.73,5.21-5.38,5.6-7.99s-.13-4.77-1.89-6.86c-1.28-1.52-2.78-2.52-4.51-3.02-1.72-.5-3.47-.64-5.47.07-1.97.36-3.84,1.62-5.54,3.06l-9.86,8.34,12.19,14.41Zm-19.08-22.57l8.72-7.38c1.52-1.28,2.87-2.76,3.53-4.29.85-1.69,1.15-3.25.95-5.03-.04-1.59-.79-3.24-2.07-4.76-1.76-2.09-3.81-2.96-6.1-2.98-2.29-.02-5.02.99-7.67,3.23l-8.91,7.54,11.55,13.66h0Zm30.51-65.47l46.66,55.19-11.76,9.94-46.66-55.19,11.76-9.94Zm15.76,3.26l-8.18-9.67,45.33-38.32,8.18,9.67-16.88,14.27,38.48,45.52-11.57,9.78-38.48-45.52-16.88,14.27Zm93.86-1.3l-12.52,10.58-27.7-71.23,14.98-12.67,65.63,39.16-12.52,10.58-49.76-30.78-.19.16,22.07,54.19Zm-19.04-20.98l29.59-25.01,7.7,9.1-29.59,25.01-7.7-9.1Zm19.06-57.09l-8.18-9.67,45.33-38.32,8.18,9.67-16.88,14.27,38.48,45.52-11.57,9.78-38.48-45.52-16.88,14.27Z"/>
    </g>
  </g>
</svg>