<?xml version="1.0" encoding="utf-8"?>
<!-- Generator: Adobe Illustrator 27.1.1, SVG Export Plug-In . SVG Version: 6.00 Build 0)  -->
<svg version="1.1" id="Calque_2_00000023282670789576679130000015673589115316635038_"
	 xmlns="http://www.w3.org/2000/svg" xmlns:xlink="http://www.w3.org/1999/xlink" x="0px" y="0px" viewBox="0 0 400 460"
	 style="enable-background:new 0 0 400 460;" xml:space="preserve">
<style type="text/css">
	.st0{fill:#C80050;}
	.st1{fill:#121416;}
</style>
<g id="Calque_1-2">
	<g>
		<path class="st0" d="M209,288.8C97.6,191.2-22.1,364.3,202.9,472c3.8,1.8,8.3,1.8,12.1,0C440.1,364.3,320.4,191.2,209,288.8
			L209,288.8z"/>
		<path class="st1" d="M-491.2,194.8l48.1,47c7.4,7.2,11.6,17.1,11.7,27.4l1.1,90.5c0,1.1,0.9,1.9,2,1.9l23.4-0.3
			c1.1,0,1.9-0.9,1.9-2l-0.7-55.8c-0.1-8.7,10.3-13.2,16.5-7.1l66.6,65c0.8,0.8,2,0.7,2.8,0l166.7-170.7c6.8-6.9,17.9-7.1,24.8-0.3
			l0,0c6.9,6.8,7.1,17.9,0.3,24.8c-35.2,36-136.4,139.7-176.2,180.4c-9,9.2-23.8,9.4-33.1,0.4l-30.5-29.8c-0.7-0.7-2-0.2-2,0.9
			l0.2,17.2c0.1,6.5-5.1,11.8-11.5,11.8l-74,0.9c-6.5,0.1-11.8-5.1-11.8-11.5l-1.3-111c0-4.1-1.7-8.1-4.7-11l-44.7-43.6
			c-6.9-6.8-7.1-17.9-0.3-24.8l0,0C-509.3,188.2-498.2,188.1-491.2,194.8L-491.2,194.8z"/>
		<g>
			<path class="st0" d="M273.4,51.9c-22.4-8.7-31.1,24.4,9.2,28.3c0.7,0.1,1.4-0.2,1.9-0.7C312.9,50.6,285,30.8,273.4,51.9
				L273.4,51.9z"/>
			<path class="st0" d="M335.1,53c-14.3-26-48.6-1.6-13.7,34c0.6,0.6,1.4,0.9,2.3,0.8C373.4,83,362.7,42.3,335.1,53z"/>
			<path class="st0" d="M302.3,16.9c-13.9-12.2-28.9,9.4-0.8,22.9c0.5,0.2,1,0.2,1.5,0C331.2,26.4,316.2,4.7,302.3,16.9L302.3,16.9z
				"/>
		</g>
	</g>
</g>
</svg>
