<svg width="292" height="121" viewBox="0 0 292 121" fill="none" xmlns="http://www.w3.org/2000/svg">
<path d="M27.316 72.2008C27.5433 72.0645 27.7707 71.9281 28.0007 71.7917C28.1344 71.7126 28.2708 71.6335 28.4046 71.5571C28.6105 71.4371 28.8165 71.3171 29.0251 71.1971C29.1695 71.1125 29.3193 71.0307 29.4637 70.9462C29.6643 70.8316 29.8623 70.717 30.0629 70.6052C30.2153 70.5179 30.3705 70.4334 30.5256 70.3461C30.7209 70.237 30.9188 70.1279 31.1167 70.0161C31.2772 69.9288 31.4377 69.8388 31.5982 69.7515C31.7934 69.6451 31.9887 69.5387 32.1839 69.4324C32.3497 69.3424 32.5183 69.2524 32.6841 69.1651C32.8767 69.0614 33.0719 68.9578 33.2672 68.8541C33.4384 68.7641 33.6095 68.6741 33.7834 68.5841C33.976 68.4832 34.1712 68.3823 34.3665 68.2813C34.543 68.1913 34.7195 68.0986 34.8961 68.0086C35.0886 67.9104 35.2839 67.8122 35.4765 67.7113C35.6584 67.6186 35.8402 67.5285 36.0221 67.4358C36.2147 67.3376 36.4099 67.2421 36.6052 67.1467C36.7898 67.0567 36.9743 66.964 37.1615 66.8739C37.3568 66.7785 37.552 66.683 37.7473 66.5875C37.9372 66.4948 38.1271 66.4048 38.317 66.3121C38.5096 66.2193 38.7048 66.1266 38.9001 66.0339C39.0953 65.9411 39.2906 65.8484 39.4859 65.7556C39.6784 65.6656 39.8737 65.5756 40.0663 65.4856C40.2669 65.3929 40.4675 65.3001 40.6681 65.2074C40.8607 65.1201 41.0532 65.0301 41.2485 64.9428C41.4544 64.8501 41.6577 64.7546 41.8663 64.6619C42.0562 64.5773 42.2488 64.4901 42.4387 64.4055C42.65 64.31 42.8613 64.2173 43.0753 64.1218C43.2625 64.04 43.4524 63.9555 43.6397 63.8736C43.859 63.7782 44.0783 63.6827 44.2976 63.5872C44.4795 63.5081 44.6641 63.429 44.8486 63.3499C45.076 63.2518 45.3033 63.1536 45.5334 63.0581C45.7072 62.9845 45.8837 62.9108 46.0603 62.8372C46.301 62.7363 46.5417 62.6353 46.7824 62.5344C46.9296 62.4744 47.0793 62.4117 47.2264 62.3517C48.2134 61.9453 49.2111 61.5443 50.2194 61.1461C50.3318 61.1025 50.4441 61.0588 50.5565 61.0124C50.8266 60.9061 51.1021 60.8024 51.3749 60.696C51.5354 60.6333 51.6959 60.5706 51.8564 60.5106C52.1131 60.4124 52.3753 60.3142 52.6347 60.216C52.8139 60.1478 52.9931 60.0796 53.175 60.0114C53.4237 59.9187 53.6752 59.826 53.9266 59.7332C54.1192 59.6623 54.3117 59.5914 54.5043 59.5205C54.7504 59.4305 54.9965 59.3405 55.2425 59.2505C55.4431 59.1768 55.6464 59.1032 55.847 59.0322C56.0877 58.945 56.3311 58.8577 56.5745 58.7731C56.7832 58.6995 56.9945 58.6231 57.2031 58.5495C57.4411 58.4649 57.6819 58.3804 57.9226 58.2985C58.1392 58.2222 58.3586 58.1458 58.5752 58.0721C58.8106 57.9903 59.046 57.9112 59.284 57.8294C59.5114 57.753 59.736 57.6739 59.9634 57.5976C60.1934 57.5185 60.4261 57.4421 60.6561 57.3657C60.8942 57.2866 61.1322 57.2075 61.3703 57.1284C61.5923 57.0548 61.817 56.9811 62.0416 56.9075C62.2904 56.8257 62.5418 56.7438 62.7932 56.662C63.0099 56.5911 63.2238 56.5229 63.4405 56.452C63.6438 56.3865 63.8444 56.3238 64.0477 56.2583C64.7163 56.0456 65.385 55.8356 66.0617 55.6255C81.5643 50.8387 99.1638 47.0338 118.243 44.459C124.993 43.548 131.932 42.7897 139.028 42.1978C151.139 41.1859 163.707 40.6513 176.594 40.6513C195.571 40.6513 213.852 41.8078 231 43.9489C206.414 38.1338 177.549 34.7844 146.675 34.7844C141.732 34.7844 136.84 34.8689 132.007 35.038L97.6526 0L71.4807 26.689V18.2336H56.8393V41.6223L51.9072 46.641L26 73C26.329 72.7982 26.6607 72.5963 26.995 72.3945C27.102 72.329 27.209 72.2663 27.316 72.2036V72.2008ZM97.6526 23.4569L110.317 36.3718C100.26 37.2664 90.5566 38.5238 81.3075 40.1058L97.6526 23.4569Z" fill="#464646"/>
<path d="M148.843 44.5192C108.298 47.0149 72.9517 58.0903 52 73C70.5712 64.9988 93.906 58.4899 120.096 54.3118L125.153 59.6078H148.104L140.461 51.6038C146.676 50.9386 153.014 50.402 159.451 50.0052C181.98 48.619 203.489 49.0802 223 51.0895C202.299 45.3856 176.555 42.8144 148.843 44.5192Z" fill="#3B82F6"/>
<path d="M8.67898 65.9091V95H2.52841V65.9091H8.67898ZM13.7393 65.9091H21.3246L29.3359 85.4545H29.6768L37.6882 65.9091H45.2734V95H39.3075V76.0653H39.0661L31.5376 94.858H27.4751L19.9467 75.9943H19.7053V95H13.7393V65.9091ZM50.3409 65.9091H57.9261L65.9375 85.4545H66.2784L74.2898 65.9091H81.875V95H75.9091V76.0653H75.6676L68.1392 94.858H64.0767L56.5483 75.9943H56.3068V95H50.3409V65.9091ZM113.675 80.4545C113.675 83.6269 113.074 86.3258 111.871 88.5511C110.678 90.7765 109.049 92.4763 106.985 93.6506C104.93 94.8153 102.62 95.3977 100.053 95.3977C97.468 95.3977 95.148 94.8106 93.093 93.6364C91.0381 92.4621 89.4141 90.7623 88.2209 88.5369C87.0277 86.3116 86.4311 83.6174 86.4311 80.4545C86.4311 77.2822 87.0277 74.5833 88.2209 72.358C89.4141 70.1326 91.0381 68.4375 93.093 67.2727C95.148 66.0985 97.468 65.5114 100.053 65.5114C102.62 65.5114 104.93 66.0985 106.985 67.2727C109.049 68.4375 110.678 70.1326 111.871 72.358C113.074 74.5833 113.675 77.2822 113.675 80.4545ZM107.44 80.4545C107.44 78.3996 107.132 76.6667 106.516 75.2557C105.91 73.8447 105.053 72.7746 103.945 72.0455C102.837 71.3163 101.54 70.9517 100.053 70.9517C98.5665 70.9517 97.2692 71.3163 96.1612 72.0455C95.0533 72.7746 94.1915 73.8447 93.576 75.2557C92.9699 76.6667 92.6669 78.3996 92.6669 80.4545C92.6669 82.5095 92.9699 84.2424 93.576 85.6534C94.1915 87.0644 95.0533 88.1345 96.1612 88.8636C97.2692 89.5928 98.5665 89.9574 100.053 89.9574C101.54 89.9574 102.837 89.5928 103.945 88.8636C105.053 88.1345 105.91 87.0644 106.516 85.6534C107.132 84.2424 107.44 82.5095 107.44 80.4545Z" fill="#22C55E"/>
<path d="M118.232 95V65.9091H124.382V77.9119H136.868V65.9091H143.004V95H136.868V82.983H124.382V95H118.232ZM153.089 95H146.499L156.541 65.9091H164.467L174.496 95H167.905L160.618 72.5568H160.391L153.089 95ZM152.678 83.5653H168.246V88.3665H152.678V83.5653ZM177.997 95V65.9091H189.645C191.785 65.9091 193.57 66.2263 195 66.8608C196.43 67.4953 197.505 68.3759 198.224 69.5028C198.944 70.6203 199.304 71.9081 199.304 73.3665C199.304 74.5028 199.077 75.5019 198.622 76.3636C198.168 77.2159 197.543 77.9167 196.747 78.4659C195.961 79.0057 195.062 79.3892 194.048 79.6165V79.9006C195.156 79.9479 196.193 80.2604 197.159 80.8381C198.134 81.4157 198.925 82.2254 199.531 83.267C200.137 84.2992 200.44 85.5303 200.44 86.9602C200.44 88.5038 200.057 89.8816 199.29 91.0938C198.532 92.2964 197.41 93.2481 195.923 93.9489C194.437 94.6496 192.604 95 190.426 95H177.997ZM184.148 89.9716H189.162C190.876 89.9716 192.126 89.6449 192.912 88.9915C193.698 88.3286 194.091 87.4479 194.091 86.3494C194.091 85.5445 193.897 84.8343 193.509 84.2188C193.12 83.6032 192.566 83.1203 191.847 82.7699C191.136 82.4195 190.289 82.2443 189.304 82.2443H184.148V89.9716ZM184.148 78.0824H188.707C189.55 78.0824 190.298 77.9356 190.952 77.642C191.615 77.339 192.135 76.9129 192.514 76.3636C192.902 75.8144 193.097 75.1562 193.097 74.3892C193.097 73.3381 192.723 72.4905 191.974 71.8466C191.236 71.2027 190.185 70.8807 188.821 70.8807H184.148V78.0824ZM210.593 65.9091V95H204.442V65.9091H210.593ZM214.545 70.9801V65.9091H238.438V70.9801H229.531V95H223.452V70.9801H214.545ZM243.832 95H237.241L247.283 65.9091H255.21L265.238 95H258.647L251.36 72.5568H251.133L243.832 95ZM243.42 83.5653H258.988V88.3665H243.42V83.5653ZM264.077 70.9801V65.9091H287.969V70.9801H279.062V95H272.983V70.9801H264.077Z" fill="#3B82F6"/>
</svg>
