<?xml version="1.0" encoding="UTF-8"?>
<svg id="Calque_2" data-name="Calque 2" xmlns="http://www.w3.org/2000/svg" viewBox="0 0 428.9 347.5">
  <defs>
    <style>
      .cls-1 {
        fill: #ffceb4;
      }

      .cls-2, .cls-3, .cls-4, .cls-5, .cls-6 {
        fill-rule: evenodd;
      }

      .cls-2, .cls-7 {
        fill: #e6b9a2;
      }

      .cls-3 {
        fill: #fff;
      }

      .cls-8 {
        fill: #cfa792;
      }

      .cls-4 {
        fill: #3b82f6;
      }

      .cls-5 {
        fill: #22c55e;
      }

      .cls-9 {
        opacity: .21;
      }

      .cls-10 {
        fill: #414042;
      }
    </style>
  </defs>
  <g id="Layer_1" data-name="Layer 1">
    <g class="cls-9">
      <path class="cls-10" d="m85.36,183.03h135.82c1.24,0,2.25-1.05,2.25-2.35v-38.09c0-1.3-1.01-2.35-2.25-2.35H85.36c-1.24,0-2.25,1.05-2.25,2.35v38.09c0,1.3,1.01,2.35,2.25,2.35Zm2.25-38.09h131.31v33.4H87.62v-33.4Z"/>
      <path class="cls-10" d="m197.18,96.89c12.34,0,22.38-10.07,22.38-22.45s-10.04-22.45-22.38-22.45-22.38,10.07-22.38,22.45,10.04,22.45,22.38,22.45Zm0-40.83c10.19,0,18.48,8.25,18.48,18.39s-8.29,18.39-18.48,18.39-18.49-8.25-18.49-18.39,8.29-18.39,18.49-18.39Z"/>
      <path class="cls-10" d="m370.51,275.59h54.41c2.2,0,3.98-1.86,3.98-4.15s-1.78-4.15-3.98-4.15h-50.43V123.91l32.48,7.93c.31.07.61.11.91.11,1.81,0,3.44-1.29,3.87-3.2.5-2.23-.83-4.46-2.97-4.98l-152.08-37.14v-36.43l13.87,9.62c1.83,1.27,4.3.75,5.52-1.15,1.22-1.91.72-4.48-1.11-5.75l-20.03-13.89h0S199.67.69,199.67.69c-1.3-.9-2.99-.93-4.32-.06L22.31,113.54c-1.86,1.22-2.43,3.77-1.26,5.71.76,1.26,2.05,1.95,3.38,1.95.72,0,1.45-.2,2.11-.63l29.03-18.94v165.67H3.98c-2.2,0-3.98,1.86-3.98,4.15s1.78,4.15,3.98,4.15h366.53Zm-51.17-8.29h-36.17v-112.56h36.17v112.56Zm47.19,0h-42.69v-114.91c0-1.3-1.01-2.35-2.25-2.35h-40.67c-1.24,0-2.25,1.05-2.25,2.35v114.91h-28.01V93.68l115.88,28.3v145.33ZM197.4,9.08l51.35,35.61v40.01l-6.68-1.63c-2.14-.52-4.28.86-4.78,3.09-.5,2.23.83,4.46,2.97,4.98l2.44.6v156.37H63.52V96.44L197.4,9.08ZM63.52,252.8h179.18v14.51H63.52v-14.51Z"/>
      <path class="cls-10" d="m424.92,282.84H106.34c-2.2,0-3.98,1.86-3.98,4.15s1.78,4.15,3.98,4.15h318.58c2.2,0,3.98-1.86,3.98-4.15s-1.78-4.15-3.98-4.15Z"/>
      <path class="cls-10" d="m231.82,303.01c0-2.29-1.78-4.15-3.98-4.15H29.95c-2.2,0-3.98,1.86-3.98,4.15s1.78,4.15,3.98,4.15h197.89c2.2,0,3.98-1.86,3.98-4.15Z"/>
      <path class="cls-10" d="m313.4,317.66H115.5c-2.2,0-3.98,1.86-3.98,4.15s1.78,4.15,3.98,4.15h197.89c2.2,0,3.98-1.86,3.98-4.15s-1.78-4.15-3.98-4.15Z"/>
      <path class="cls-10" d="m261.7,339.21h-94.5c-2.2,0-3.98,1.86-3.98,4.15s1.78,4.15,3.98,4.15h94.5c2.2,0,3.98-1.86,3.98-4.15s-1.78-4.15-3.98-4.15Z"/>
    </g>
    <g>
      <path class="cls-6" d="m65.22,271.28l20.03-1.32s10.95,14.44,47.05,1.32c0,0,9.35-72.06-10.04-89.68,0,0-5.47-4.28-10.57-3.52-5.1.75.3-.04.3-.04,0,0-21.45-14.06-37.31,3.56-17.85,15.62-19.08,68.95-9.46,89.68Z"/>
      <rect class="cls-7" x="79.23" y="239.02" width="35.34" height="54.02"/>
      <path class="cls-4" d="m38.2,299.79v.04c-.59,14.04-1.53,18.9-1.53,33.04h95.52c1.28-18.03,10.16-18.03,24.95-23.39v-9.73h-.29c-.39-7.7-9.66-13.78-9.66-13.78l-32.09-21.06c-18.64,28.28-13.77,27.08-35.66.34l-31.58,20.72s-9.3,6.11-9.66,13.82h0Z"/>
      <ellipse class="cls-1" cx="96.9" cy="220.97" rx="26.57" ry="33.54"/>
      <path class="cls-6" d="m124.88,211.62s-16.46,1.49-24.69-5.98c0,0,2.52,4.33,6.58,7.47,0,0-11.52-2.99-16.46-14.94,0,0-8.89,9.91-18.77,12.9l-2.63-11.4,18.1-16.43,32.14,2.3,4.07,14.13,1.65,11.95Z"/>
      <rect class="cls-8" x="183.15" y="224.75" width="51.39" height="53.32"/>
      <path class="cls-5" d="m208.75,332.79h-77.95c-4.61-56.24,8.89-74.51,48.42-79.24,8.59-1.03,18.4,21.03,29.52,21.03s21.51-22.04,30.28-20.94c38.95,4.87,52.25,23.27,47.67,79.15h-77.95Z"/>
      <polygon class="cls-6" points="208.47 266.03 208.46 266.33 196.68 272.28 195.58 273.27 195.21 277.08 196.68 279.71 199.44 282.19 202.2 284.67 196.68 311.92 202.2 331.75 207.03 331.75 215.31 331.75 220.83 311.92 215.31 284.67 218.07 282.19 220.83 279.71 222.3 277.08 221.93 273.27 220.83 272.28 209.05 266.33 209.04 266.03 208.75 266.18 208.47 266.03"/>
      <polygon class="cls-3" points="177.22 252.13 189.35 280.2 208.75 266.16 182.07 243.71 177.22 252.13"/>
      <polygon class="cls-3" points="240.29 252.13 228.16 280.2 208.75 266.16 235.44 243.71 240.29 252.13"/>
      <path class="cls-2" d="m209.68,237.65c22.87,0,41.52-22.91,41.52-51s-18.65-51-41.52-51-41.53,22.91-41.53,51,18.65,51,41.53,51Z"/>
      <path class="cls-6" d="m176.67,202.28l-8.51-14.64-1.56-25.1c-2.85-46.08,109.17-43.24,84.13,31.8l-7.04,7.49-1.2-15.11s-4.16-18.23-19.58-14.52c-36.28,8.71-53.5-21.72-46.25,30.09Z"/>
    </g>
  </g>
</svg>