<?xml version="1.0" encoding="UTF-8"?>
<svg xmlns="http://www.w3.org/2000/svg" xmlns:xlink="http://www.w3.org/1999/xlink" viewBox="0 0 3000 3000">
  <defs>
    <style>
      .cls-1 {
        fill: #fbcbc3;
      }

      .cls-2 {
        fill: #fff;
      }

      .cls-3 {
        fill: #a7a9ac;
      }

      .cls-4 {
        fill: #939598;
      }

      .cls-5 {
        fill: #f69d98;
      }

      .cls-6 {
        isolation: isolate;
      }

      .cls-7 {
        mix-blend-mode: soft-light;
      }

      .cls-8 {
        fill: #f0918f;
      }

      .cls-9 {
        fill: #6d6e71;
      }

      .cls-10 {
        fill: #f1f2f2;
      }

      .cls-11 {
        clip-path: url(#clippath);
      }

      .cls-12 {
        fill: #808285;
      }

      .cls-13 {
        fill: none;
      }

      .cls-14 {
        fill: #79c89f;
      }

      .cls-15 {
        fill: #36478a;
      }

      .cls-16 {
        fill: #d1d3d4;
      }

      .cls-17 {
        fill: #476ca3;
      }

      .cls-18 {
        fill: #e6e7e8;
      }

      .cls-19 {
        fill: #bcbec0;
      }

      .cls-20 {
        fill: #f38e8b;
      }

      .cls-21 {
        fill: #f9b9b7;
      }

      .cls-22 {
        fill: #231f20;
      }

      .cls-23 {
        fill: #dc3742;
      }

      .cls-24 {
        fill: #98d09e;
      }

      .cls-25 {
        fill: #58595b;
      }
    </style>
    <clipPath id="clippath">
      <rect class="cls-13" width="3000" height="3000"/>
    </clipPath>
  </defs>
  <g class="cls-6">
    <g id="Calque_2" data-name="Calque 2">
      <g id="Layer_1" data-name="Layer 1">
        <g class="cls-11">
          <g>
            <g>
              <circle class="cls-24" cx="2473.78" cy="630.03" r="338.29"/>
              <path class="cls-17" d="m2584.94,604.37c-3.66-2.69-8.81-1.89-11.5,1.77l-99.37,135.57-42.81-63.6c-2.54-3.77-7.65-4.77-11.42-2.23-3.77,2.54-4.77,7.65-2.23,11.42l47.95,71.24v846.37h0v145.91c0,4.54,3.68,8.23,8.23,8.23s8.23-3.68,8.23-8.23v-992.09l104.7-142.84c2.69-3.66,1.89-8.81-1.77-11.5Z"/>
            </g>
            <g>
              <polygon class="cls-17" points="2346.62 723.73 1619.71 723.73 1596.23 723.73 1871.39 971.97 1871.39 1218.43 1894.87 1218.43 2346.62 1218.43 2370.1 1218.43 2370.1 723.73 2346.62 723.73"/>
              <g class="cls-7">
                <polygon class="cls-2" points="1660.07 723.73 1660.07 781.32 1664.72 785.51 1664.72 723.73 1660.07 723.73"/>
                <path class="cls-2" d="m2370.1,796.78v-4.65h-68.4v-68.4h-4.65v68.4h-66.07v-68.4h-4.65v68.4h-66.19v-68.4h-4.65v68.4h-66.07v-68.4h-4.65v68.4h-66.07v-68.4h-4.65v68.4h-66.19v-68.4h-4.65v68.4h-66.19v-68.4h-4.65v68.4h-66.07v-68.4h-4.65v68.4h-66.07v-68.4h-4.65v68.4h-58.87l5.16,4.65h53.71v48.45l4.65,4.2v-52.65h66.07v66.07h-51.19l5.16,4.65h46.04v41.53l4.65,4.2v-45.73h66.07v66.19h-43.39l5.16,4.65h38.24v66.19h-.96v4.65h.96v66.07h-.96v4.65h.96v66.07h-.96v4.65h.96v67.8h4.65v-67.8h66.19v67.8h4.65v-67.8h66.19v67.8h4.65v-67.8h66.07v67.8h4.65v-67.8h66.07v67.8h4.65v-67.8h66.19v67.8h4.65v-67.8h66.07v67.8h4.65v-67.8h68.4v-4.65h-68.4v-66.07h68.4v-4.65h-68.4v-66.07h68.4v-4.65h-68.4v-66.19h68.4v-4.65h-68.4v-66.19h68.4v-4.65h-68.4v-66.07h68.4Zm-497.75,66.07h-66.07v-66.07h66.07v66.07Zm70.84,283.13h-66.19v-66.07h66.19v66.07Zm0-70.72h-66.19v-66.07h66.19v66.07Zm0-70.72h-66.19v-66.19h66.19v66.19Zm0-70.84h-66.19v-66.19h66.19v66.19Zm0-70.84h-66.19v-66.07h66.19v66.07Zm70.84,283.13h-66.19v-66.07h66.19v66.07Zm0-70.72h-66.19v-66.07h66.19v66.07Zm0-70.72h-66.19v-66.19h66.19v66.19Zm0-70.84h-66.19v-66.19h66.19v66.19Zm0-70.84h-66.19v-66.07h66.19v66.07Zm70.72,283.13h-66.07v-66.07h66.07v66.07Zm0-70.72h-66.07v-66.07h66.07v66.07Zm0-70.72h-66.07v-66.19h66.07v66.19Zm0-70.84h-66.07v-66.19h66.07v66.19Zm0-70.84h-66.07v-66.07h66.07v66.07Zm70.72,283.13h-66.07v-66.07h66.07v66.07Zm0-70.72h-66.07v-66.07h66.07v66.07Zm0-70.72h-66.07v-66.19h66.07v66.19Zm0-70.84h-66.07v-66.19h66.07v66.19Zm0-70.84h-66.07v-66.07h66.07v66.07Zm70.84,283.13h-66.19v-66.07h66.19v66.07Zm0-70.72h-66.19v-66.07h66.19v66.07Zm0-70.72h-66.19v-66.19h66.19v66.19Zm0-70.84h-66.19v-66.19h66.19v66.19Zm0-70.84h-66.19v-66.07h66.19v66.07Zm70.72,283.13h-66.07v-66.07h66.07v66.07Zm0-70.72h-66.07v-66.07h66.07v66.07Zm0-70.72h-66.07v-66.19h66.07v66.19Zm0-70.84h-66.07v-66.19h66.07v66.19Zm0-70.84h-66.07v-66.07h66.07v66.07Z"/>
              </g>
              <polygon class="cls-18" points="1301.99 458.27 732.72 966.31 732.72 1724.77 1302.06 1724.77 1871.39 1724.77 1871.39 971.97 1301.99 458.27"/>
              <rect class="cls-2" x="1146.36" y="735.07" width="304.34" height="240.82" transform="translate(443.06 2154.01) rotate(-90)"/>
              <rect class="cls-17" x="1198.54" y="723.73" width="199.97" height="263.49"/>
              <polygon class="cls-15" points="659.27 1031.87 632.08 1001.39 1302.13 403.39 1965.07 1001.46 1937.7 1031.79 1301.99 458.27 659.27 1031.87"/>
              <polygon class="cls-15" points="1218.97 966.8 1218.97 744.15 1378.09 744.15 1398.52 744.15 1398.52 723.73 1198.54 723.73 1198.54 987.22 1218.97 987.22 1218.97 966.8"/>
              <rect class="cls-2" x="1178.12" y="809.17" width="240.82" height="20.42"/>
              <rect class="cls-15" x="1198.54" y="829.59" width="199.97" height="20.42"/>
              <rect class="cls-16" x="732.72" y="1390.69" width="1138.67" height="334.07"/>
              <polygon class="cls-16" points="1301.99 458.27 732.72 966.31 732.72 1001.6 1301.99 493.56 1871.39 1007.26 1871.39 971.97 1301.99 458.27"/>
              <g>
                <rect class="cls-2" x="868.75" y="1250.19" width="304.34" height="240.82" transform="translate(-349.68 2391.52) rotate(-90)"/>
                <rect class="cls-17" x="920.93" y="1238.85" width="199.97" height="263.49"/>
                <polygon class="cls-15" points="941.36 1481.92 941.36 1259.27 1100.49 1259.27 1120.91 1259.27 1120.91 1238.85 920.93 1238.85 920.93 1502.34 941.36 1502.34 941.36 1481.92"/>
                <rect class="cls-15" x="920.93" y="1344.72" width="199.97" height="20.42"/>
                <rect class="cls-2" x="900.51" y="1324.3" width="240.82" height="20.42"/>
              </g>
              <g>
                <rect class="cls-2" x="1431.03" y="1250.19" width="304.34" height="240.82" transform="translate(212.6 2953.8) rotate(-90)"/>
                <rect class="cls-17" x="1483.21" y="1238.85" width="199.97" height="263.49"/>
                <polygon class="cls-15" points="1503.63 1481.92 1503.63 1259.27 1662.76 1259.27 1683.18 1259.27 1683.18 1238.85 1483.21 1238.85 1483.21 1502.34 1503.63 1502.34 1503.63 1481.92"/>
                <rect class="cls-15" x="1483.21" y="1344.72" width="199.97" height="20.42"/>
                <rect class="cls-2" x="1462.79" y="1324.3" width="240.82" height="20.42"/>
              </g>
              <rect class="cls-19" x="732.72" y="1655.36" width="1138.67" height="69.4"/>
              <rect class="cls-16" x="1871.39" y="1218.43" width="247.03" height="506.34"/>
              <rect class="cls-16" x="2266.14" y="1218.43" width="44.7" height="506.34"/>
              <rect class="cls-19" x="1871.39" y="1655.36" width="450.92" height="69.4"/>
              <rect class="cls-19" x="1871.39" y="1502.34" width="450.92" height="20.42"/>
              <rect class="cls-19" x="1871.39" y="1580.47" width="22.61" height="144.29"/>
              <rect class="cls-19" x="1957.06" y="1580.47" width="22.61" height="144.29"/>
              <rect class="cls-19" x="2042.72" y="1580.47" width="22.61" height="144.29"/>
              <rect class="cls-19" x="2128.38" y="1580.47" width="22.61" height="144.29"/>
              <rect class="cls-19" x="2214.04" y="1580.47" width="22.61" height="144.29"/>
              <rect class="cls-19" x="2299.71" y="1580.47" width="22.61" height="144.29"/>
              <rect class="cls-19" x="1876.65" y="1502.34" width="12.1" height="144.29"/>
              <rect class="cls-19" x="1962.31" y="1502.34" width="12.1" height="144.29"/>
              <rect class="cls-19" x="2047.97" y="1502.34" width="12.1" height="144.29"/>
              <rect class="cls-19" x="2133.64" y="1502.34" width="12.1" height="144.29"/>
              <rect class="cls-19" x="2219.13" y="1502.34" width="12.1" height="144.29"/>
              <rect class="cls-19" x="2304.79" y="1502.34" width="12.1" height="144.29"/>
              <rect class="cls-15" x="1871.39" y="1218.43" width="498.71" height="23.26"/>
            </g>
            <path class="cls-24" d="m2428.42,1759.02c12.79-16.99,20.37-38.12,20.37-61.03,0-56.11-45.49-101.6-101.6-101.6s-101.6,45.49-101.6,101.6c0,22.91,7.59,44.04,20.37,61.03h162.45Z"/>
            <path class="cls-24" d="m1898.31,1759.02c22.77-30.25,36.27-67.88,36.27-108.66,0-99.9-80.99-180.89-180.89-180.89s-180.89,80.99-180.89,180.89c0,40.78,13.51,78.4,36.27,108.66h289.23Z"/>
            <path class="cls-14" d="m1977.48,1759.02c13.47-17.89,21.45-40.15,21.45-64.27,0-59.09-47.9-106.99-106.99-106.99s-106.99,47.9-106.99,106.99c0,24.12,7.99,46.37,21.45,64.27h171.07Z"/>
            <path class="cls-14" d="m833.15,1759.02c16.75-22.26,26.69-49.94,26.69-79.95,0-73.51-59.59-133.1-133.1-133.1s-133.1,59.59-133.1,133.1c0,30.01,9.94,57.69,26.69,79.95h212.82Z"/>
            <path class="cls-24" d="m893.48,1759.02c11.16-14.83,17.79-33.28,17.79-53.28,0-48.98-39.71-88.69-88.69-88.69s-88.69,39.71-88.69,88.69c0,20,6.62,38.44,17.79,53.28h141.82Z"/>
            <g>
              <circle class="cls-14" cx="564.86" cy="630.03" r="365.31"/>
              <path class="cls-17" d="m618.81,675.87c-3.77-2.54-8.88-1.54-11.42,2.23l-42.81,63.6-99.37-135.57c-2.69-3.66-7.84-4.46-11.5-1.77-3.66,2.69-4.46,7.83-1.77,11.5l104.7,142.84v992.09c0,4.54,3.68,8.23,8.23,8.23s8.23-3.68,8.23-8.23v-992.27l47.95-71.24c2.54-3.77,1.54-8.88-2.23-11.42Z"/>
            </g>
          </g>
          <g>
            <g>
              <path class="cls-22" d="m1919.63,1432.63h-889.06c-7.19,0-13.07,5.88-13.07,13.08v1365.58c0,7.19,5.88,13.08,13.07,13.08h889.06c7.19,0,13.07-5.88,13.07-13.08v-1365.58c0-7.19-5.88-13.08-13.07-13.08Z"/>
              <path class="cls-10" d="m1796.38,2770.14c1.96-.14,5.68-.94,9.04-4.63l63.02-69.4c.99-1.17,3.55-4.79,3.55-10.88v-1198.37h-793.75v1283.29h718.15Z"/>
              <path class="cls-16" d="m1796.38,2770.14c1.96-.14,5.68-.94,9.04-4.63l63.02-69.4c.99-1.17,3.55-4.79,3.55-10.88,0,5.71-7.38,5.9-7.38,5.9h-60.44c-5.84,0-5.21,5.21-5.21,5.21v63.14c0,7.66-2.57,10.67-2.57,10.67Z"/>
              <path class="cls-3" d="m1624.92,1520.99h-299.64c-17.83,0-24.2-16.64-25.08-25.44l-.02-.49v-46.2h9.9v45.91c.26,1.97,2.56,16.32,15.2,16.32h299.64c12.74,0,14.95-14.28,15.2-16.31v-45.93h9.9v46.45l-.02.25c-.88,8.8-7.25,25.44-25.08,25.44Z"/>
              <g>
                <path class="cls-9" d="m1148.89,1713.12l2.54-36.78,6.36.53-2.54,36.78-6.36-.53Z"/>
                <path class="cls-9" d="m1178.23,1676.87l12.93,27.46,1.91-27.99,3.71.53-2.86,36.47-4.66-.53-13.46-27.88-2.01,28.73-3.29-.53,2.54-36.78,5.19.53Z"/>
                <path class="cls-9" d="m1230.26,1680.05c-5.51-.35-9.24.25-11.18,1.8-1.94,1.56-2.91,3.29-2.91,5.19,0,3.32,2.9,4.95,8.69,4.88,5.79-.07,8.69,1.59,8.69,4.98s-1.96,6.93-5.88,10.18c-3.92,3.25-9.31,6.01-16.17,8.27l-1.48-2.97c5.02-1.62,9.01-3.82,11.98-6.57,2.97-2.76,4.45-5.09,4.45-7,0-2.69-2.81-4.03-8.43-4.03s-8.43-2.69-8.43-8.06c0-3.46,2.01-6.13,6.04-8,4.03-1.87,8.69-2.53,13.99-1.96l.64,3.29Z"/>
                <path class="cls-9" d="m1254.2,1677.08l-1.48,21.41c-.28,4.31.14,7.35,1.27,9.12,1.13,1.77,2.58,2.65,4.35,2.65,2.76,0,4.79-.83,6.1-2.49,1.31-1.66,2.1-4.54,2.38-8.64l1.59-22.68,4.13.32-1.7,21.73c-.5,6.01-1.8,10.04-3.92,12.09-2.12,2.05-4.74,3.07-7.84,3.07-4.81,0-8.22-1.25-10.23-3.76-2.01-2.51-2.88-5.92-2.6-10.23l1.59-23.11,6.36.53Z"/>
                <path class="cls-9" d="m1293.4,1676.87c4.38.35,8.41,1.54,12.08,3.55,3.67,2.01,5.51,4.54,5.51,7.58,0,2.62-1.02,4.88-3.07,6.79-2.05,1.91-4.52,3.32-7.42,4.24l10.39,11.98-2.76,2.76-11.34-13.67c-.71.21-1.43.37-2.17.48-.74.11-1.47.23-2.17.37l-.85,12.72-6.36-.53,2.54-36.78,5.62.53Zm-.74,20.67c3.32-.42,6.15-1.66,8.48-3.71,2.33-2.05,3.5-4.27,3.5-6.68,0-1.84-1.06-3.45-3.18-4.82-2.12-1.38-4.63-2.07-7.53-2.07l-1.27,17.28Z"/>
                <path class="cls-9" d="m1346.7,1676.34l2.54,36.78-6.36.53-.95-13.89-9.86,1.17-6.57,13.04-2.97-1.59,17.81-35.51,6.36-.53Zm-12.93,21.31l7.95-1.06-.95-13.04-7,14.1Z"/>
                <path class="cls-9" d="m1369.36,1676.87l12.93,27.46,1.91-27.99,3.71.53-2.86,36.47-4.66-.53-13.46-27.88-2.01,28.73-3.29-.53,2.54-36.78,5.19.53Z"/>
                <path class="cls-9" d="m1428.49,1678.56c2.47,1.48,4.2,3.57,5.19,6.25l-3.29,1.17c-1.13-2.26-2.58-3.87-4.35-4.82-1.77-.95-4.21-1.43-7.31-1.43-3.68,0-6.52,1.71-8.53,5.14-2.01,3.43-3.02,7.09-3.02,10.97,0,4.59,1.25,8.15,3.76,10.65,2.51,2.51,5.28,3.76,8.32,3.76,2.47,0,4.65-.69,6.52-2.07,1.87-1.38,3.13-3.06,3.76-5.04l4.88-.64c-1.34,3.68-3.32,6.45-5.94,8.32-2.62,1.87-6.01,2.81-10.18,2.81-4.88,0-9.01-1.47-12.4-4.4-3.39-2.93-5.09-7.4-5.09-13.41,0-5.37,1.71-9.96,5.14-13.78,3.43-3.82,7.9-5.72,13.41-5.72,3.6,0,6.64.74,9.12,2.23Z"/>
                <path class="cls-9" d="m1468.54,1678.24l-.32,3.18-12.83-1.38-.85,12.3,12.61,1.27-.32,3.18-12.61-1.17-.95,14.1,14.31-1.48.32,3.18-21.31,2.23,2.65-37.31,19.29,1.91Z"/>
                <path class="cls-9" d="m1539.1,1678.56c2.47,1.48,4.2,3.57,5.19,6.25l-3.29,1.17c-1.13-2.26-2.58-3.87-4.35-4.82-1.77-.95-4.21-1.43-7.31-1.43-3.67,0-6.52,1.71-8.53,5.14-2.01,3.43-3.02,7.09-3.02,10.97,0,4.59,1.25,8.15,3.76,10.65,2.51,2.51,5.28,3.76,8.32,3.76,2.47,0,4.65-.69,6.52-2.07,1.87-1.38,3.13-3.06,3.76-5.04l4.88-.64c-1.34,3.68-3.32,6.45-5.94,8.32-2.62,1.87-6.01,2.81-10.18,2.81-4.88,0-9.01-1.47-12.4-4.4-3.39-2.93-5.09-7.4-5.09-13.41,0-5.37,1.71-9.96,5.14-13.78,3.43-3.82,7.9-5.72,13.41-5.72,3.6,0,6.64.74,9.12,2.23Z"/>
                <path class="cls-9" d="m1587.84,1681.53c3.11,3.46,4.66,7.81,4.66,13.04,0,5.51-1.66,10.07-4.98,13.67-3.32,3.6-7.39,5.41-12.19,5.41s-8.82-1.73-12.24-5.19c-3.43-3.46-5.14-7.95-5.14-13.46s1.62-9.91,4.88-13.41c3.25-3.5,7.42-5.25,12.51-5.25s9.4,1.73,12.51,5.19Zm-19.98,2.76c-2.37,3.04-3.55,7.74-3.55,14.1,0,3.67,1.11,6.57,3.34,8.69,2.23,2.12,4.72,3.18,7.47,3.18,3.11,0,5.72-1.75,7.84-5.25s3.18-7.69,3.18-12.56c0-4.38-.92-7.6-2.76-9.65-1.84-2.05-4.31-3.07-7.42-3.07s-5.74,1.52-8.11,4.56Z"/>
                <path class="cls-9" d="m1638.92,1713.65l-2.01-29.05-11.24,27.77-6.36.53-4.98-24.7-6.04,25.44-3.5-1.17,8.48-35.62,6.36-.53,5.51,28.41,11.24-27.88,6.36-.53,2.54,36.78-6.36.53Z"/>
                <path class="cls-9" d="m1665.82,1676.87c4.38.35,8.43,1.54,12.14,3.55,3.71,2.01,5.57,4.54,5.57,7.58,0,2.83-1.43,5.44-4.29,7.84-2.86,2.4-7.65,4.1-14.36,5.09l-.85,12.72-6.36-.53,2.54-36.78,5.62.53Zm-.74,20.67c3.32-.42,6.16-1.66,8.53-3.71,2.37-2.05,3.55-4.27,3.55-6.68,0-1.84-1.08-3.45-3.23-4.82-2.16-1.38-4.68-2.07-7.58-2.07l-1.27,17.28Z"/>
                <path class="cls-9" d="m1719.12,1676.34l2.54,36.78-6.36.53-.95-13.89-9.86,1.17-6.57,13.04-2.97-1.59,17.81-35.51,6.36-.53Zm-12.93,21.31l7.95-1.06-.95-13.04-7,14.1Z"/>
                <path class="cls-9" d="m1741.79,1676.87l12.93,27.46,1.91-27.99,3.71.53-2.86,36.47-4.66-.53-13.46-27.88-2.01,28.73-3.29-.53,2.54-36.78,5.19.53Z"/>
                <path class="cls-9" d="m1777.38,1675.7l10.18,16.32,9.54-15.69,3.18,1.7-11.45,18.98-1.17,16.64-6.36-.53,1.17-16.54-10.6-17.07,5.51-3.82Z"/>
              </g>
              <path class="cls-16" d="m1133.84,1770.08c28.29-.38,56.57-.54,84.86-.82l84.86-.47c28.29-.2,56.57-.17,84.86-.24l84.86-.15,84.86.15c28.29.08,56.57.03,84.86.24l84.86.47c28.29.28,56.57.44,84.86.83-28.29.38-56.57.55-84.86.83l-84.86.47c-28.29.2-56.57.16-84.86.24l-84.86.15-84.86-.15c-28.29-.08-56.57-.04-84.86-.24l-84.86-.47c-28.29-.28-56.57-.44-84.86-.82Z"/>
              <path class="cls-16" d="m1185.92,1907.56h-48.67c-6.73,0-12.21-5.48-12.21-12.21v-48.67c0-6.73,5.48-12.21,12.21-12.21h48.67c6.73,0,12.21,5.48,12.21,12.21v48.67c0,6.73-5.48,12.21-12.21,12.21Zm-48.67-71.93c-6.09,0-11.05,4.96-11.05,11.05v48.67c0,6.09,4.96,11.05,11.05,11.05h48.67c6.09,0,11.05-4.96,11.05-11.05v-48.67c0-6.09-4.96-11.05-11.05-11.05h-48.67Z"/>
              <path class="cls-16" d="m1185.92,2086.25h-48.67c-6.73,0-12.21-5.48-12.21-12.21v-48.67c0-6.73,5.48-12.21,12.21-12.21h48.67c6.73,0,12.21,5.48,12.21,12.21v48.67c0,6.73-5.48,12.21-12.21,12.21Zm-48.67-71.93c-6.09,0-11.05,4.96-11.05,11.05v48.67c0,6.09,4.96,11.05,11.05,11.05h48.67c6.09,0,11.05-4.96,11.05-11.05v-48.67c0-6.09-4.96-11.05-11.05-11.05h-48.67Z"/>
              <path class="cls-16" d="m1185.92,2264.95h-48.67c-6.73,0-12.21-5.48-12.21-12.21v-48.67c0-6.73,5.48-12.21,12.21-12.21h48.67c6.73,0,12.21,5.48,12.21,12.21v48.67c0,6.73-5.48,12.21-12.21,12.21Zm-48.67-71.93c-6.09,0-11.05,4.96-11.05,11.05v48.67c0,6.09,4.96,11.05,11.05,11.05h48.67c6.09,0,11.05-4.96,11.05-11.05v-48.67c0-6.09-4.96-11.05-11.05-11.05h-48.67Z"/>
              <path class="cls-16" d="m1185.92,2443.65h-48.67c-6.73,0-12.21-5.48-12.21-12.21v-48.67c0-6.73,5.48-12.21,12.21-12.21h48.67c6.73,0,12.21,5.48,12.21,12.21v48.67c0,6.73-5.48,12.21-12.21,12.21Zm-48.67-71.93c-6.09,0-11.05,4.96-11.05,11.05v48.67c0,6.09,4.96,11.05,11.05,11.05h48.67c6.09,0,11.05-4.96,11.05-11.05v-48.67c0-6.09-4.96-11.05-11.05-11.05h-48.67Z"/>
              <path class="cls-16" d="m1185.92,2622.34h-48.67c-6.73,0-12.21-5.48-12.21-12.21v-48.67c0-6.73,5.48-12.21,12.21-12.21h48.67c6.73,0,12.21,5.48,12.21,12.21v48.67c0,6.73-5.48,12.21-12.21,12.21Zm-48.67-71.93c-6.09,0-11.05,4.96-11.05,11.05v48.67c0,6.09,4.96,11.05,11.05,11.05h48.67c6.09,0,11.05-4.96,11.05-11.05v-48.67c0-6.09-4.96-11.05-11.05-11.05h-48.67Z"/>
              <path class="cls-16" d="m1810.28,1907.26c-24.49.1-48.99.09-73.48.28l-73.48.63c-48.99.45-97.97.51-146.96.35l-73.48-.47-36.74-.25-36.74-.11-36.74-.06c-6.13,0-12.22.07-18.4,0-3.17-.11-6.27-1.17-8.92-2.89-2.62-1.76-4.83-4.18-6.2-7.04-.73-1.41-1.19-2.94-1.52-4.49-.3-1.55-.34-3.18-.33-4.69l-.02-9.18-.1-18.37-.05-9.18c-.12-3.15.67-6.41,2.18-9.23,1.56-2.8,3.82-5.23,6.6-6.87,2.74-1.71,5.98-2.54,9.2-2.6,97.97-.53,195.94-1,293.91-.83,48.99,0,97.97.16,146.96.64l36.74.34c6.14.07,12.22.06,18.4.2,3.18.14,6.27,1.23,8.9,2.98,2.6,1.79,4.78,4.22,6.11,7.07.71,1.4,1.15,2.93,1.46,4.47.28,1.54.3,3.14.28,4.65l-.04,9.18-.06,18.37-.03,9.18c.09,3.1-.71,6.22-2.19,8.94-1.53,2.7-3.74,5.02-6.42,6.57-2.65,1.62-5.76,2.38-8.85,2.42Zm0-.34c3.02-.06,6.06-.82,8.64-2.43,2.61-1.54,4.74-3.82,6.22-6.45,1.42-2.67,2.17-5.68,2.07-8.71l-.03-9.18-.06-18.37-.04-9.18c0-1.55-.05-3.02-.34-4.49-.32-1.45-.75-2.89-1.45-4.21-1.3-2.68-3.4-4.93-5.86-6.57-2.5-1.59-5.39-2.56-8.35-2.64-6.06-.03-12.23.08-18.34.12l-36.74.34c-48.98.48-97.97.65-146.96.64-97.97.17-195.94-.3-293.91-.83-2.88.04-5.8.73-8.29,2.25-2.52,1.45-4.59,3.63-6.04,6.15-1.39,2.57-2.15,5.44-2.07,8.42l-.05,9.18-.1,18.37-.02,9.18c-.01,1.55.01,3,.29,4.46.3,1.44.71,2.87,1.39,4.19,1.26,2.67,3.33,4.94,5.77,6.6,2.47,1.62,5.36,2.62,8.33,2.73,6.07.09,12.23.05,18.34.08l36.74-.06,36.74-.11,36.74-.25,73.48-.47c48.99-.17,97.97-.11,146.96.35l73.48.63c24.49.18,48.99.18,73.48.28Z"/>
              <path class="cls-16" d="m1810.28,2086.43c-24.49.1-48.99.09-73.48.28l-73.48.63c-48.99.45-97.97.51-146.96.35l-73.48-.47-36.74-.25-36.74-.11-36.74-.06c-6.13,0-12.22.07-18.4,0-3.17-.11-6.27-1.17-8.92-2.89-2.62-1.76-4.83-4.18-6.2-7.04-.73-1.41-1.19-2.94-1.52-4.49-.3-1.55-.34-3.18-.33-4.69l-.02-9.18-.1-18.37-.05-9.18c-.12-3.15.67-6.41,2.18-9.23,1.56-2.8,3.82-5.23,6.6-6.87,2.74-1.71,5.98-2.53,9.2-2.6,97.97-.53,195.94-1,293.91-.83,48.99,0,97.97.16,146.96.64l36.74.34c6.14.07,12.22.06,18.4.2,3.18.14,6.27,1.23,8.9,2.98,2.6,1.79,4.78,4.22,6.11,7.07.71,1.4,1.15,2.93,1.46,4.47.28,1.54.3,3.14.28,4.65l-.04,9.18-.06,18.37-.03,9.18c.09,3.1-.71,6.22-2.19,8.94-1.53,2.7-3.74,5.02-6.42,6.57-2.65,1.63-5.76,2.38-8.85,2.42Zm0-.34c3.02-.06,6.06-.82,8.64-2.43,2.61-1.54,4.74-3.82,6.22-6.45,1.42-2.67,2.17-5.68,2.07-8.71l-.03-9.18-.06-18.37-.04-9.18c0-1.55-.05-3.02-.34-4.49-.32-1.45-.75-2.89-1.45-4.21-1.3-2.68-3.4-4.93-5.86-6.57-2.5-1.59-5.39-2.56-8.35-2.64-6.06-.03-12.23.08-18.34.12l-36.74.34c-48.98.48-97.97.65-146.96.64-97.97.17-195.94-.3-293.91-.83-2.88.04-5.8.73-8.29,2.25-2.52,1.45-4.59,3.63-6.04,6.15-1.39,2.57-2.15,5.44-2.07,8.42l-.05,9.18-.1,18.37-.02,9.18c-.01,1.55.01,3,.29,4.46.3,1.44.71,2.87,1.39,4.19,1.26,2.67,3.33,4.94,5.77,6.6,2.47,1.62,5.36,2.62,8.33,2.73,6.07.09,12.23.05,18.34.08l36.74-.06,36.74-.11,36.74-.25,73.48-.47c48.99-.17,97.97-.11,146.96.35l73.48.63c24.49.19,48.99.18,73.48.28Z"/>
              <path class="cls-16" d="m1810.28,2265.12c-24.49.1-48.99.09-73.48.28l-73.48.63c-48.99.45-97.97.51-146.96.35l-73.48-.47-36.74-.25-36.74-.11-36.74-.06c-6.13,0-12.22.07-18.4,0-3.17-.11-6.27-1.17-8.92-2.89-2.62-1.76-4.83-4.18-6.2-7.04-.73-1.41-1.19-2.94-1.52-4.49-.3-1.55-.34-3.18-.33-4.69l-.02-9.18-.1-18.37-.05-9.18c-.12-3.15.67-6.41,2.18-9.23,1.56-2.8,3.82-5.23,6.6-6.87,2.74-1.71,5.98-2.53,9.2-2.6,97.97-.53,195.94-1,293.91-.83,48.99,0,97.97.16,146.96.64l36.74.34c6.14.07,12.22.06,18.4.2,3.18.14,6.27,1.23,8.9,2.98,2.6,1.79,4.78,4.22,6.11,7.07.71,1.4,1.15,2.93,1.46,4.47.28,1.54.3,3.14.28,4.65l-.04,9.18-.06,18.37-.03,9.18c.09,3.1-.71,6.22-2.19,8.94-1.53,2.7-3.74,5.02-6.42,6.57-2.65,1.63-5.76,2.38-8.85,2.42Zm0-.34c3.02-.06,6.06-.82,8.64-2.43,2.61-1.54,4.74-3.82,6.22-6.45,1.42-2.67,2.17-5.68,2.07-8.71l-.03-9.18-.06-18.37-.04-9.18c0-1.55-.05-3.02-.34-4.49-.32-1.45-.75-2.89-1.45-4.21-1.3-2.68-3.4-4.93-5.86-6.57-2.5-1.59-5.39-2.56-8.35-2.64-6.06-.03-12.23.08-18.34.12l-36.74.34c-48.98.48-97.97.65-146.96.64-97.97.17-195.94-.3-293.91-.83-2.88.04-5.8.73-8.29,2.25-2.52,1.45-4.59,3.63-6.04,6.15-1.39,2.57-2.15,5.44-2.07,8.42l-.05,9.18-.1,18.37-.02,9.18c-.01,1.55.01,3,.29,4.46.3,1.44.71,2.87,1.39,4.19,1.26,2.67,3.33,4.94,5.77,6.6,2.47,1.62,5.36,2.62,8.33,2.73,6.07.09,12.23.05,18.34.08l36.74-.06,36.74-.11,36.74-.25,73.48-.47c48.99-.17,97.97-.11,146.96.35l73.48.63c24.49.18,48.99.18,73.48.28Z"/>
              <path class="cls-16" d="m1810.28,2443.82c-24.49.1-48.99.09-73.48.28l-73.48.63c-48.99.45-97.97.51-146.96.35l-73.48-.47-36.74-.25-36.74-.11-36.74-.06c-6.13,0-12.22.07-18.4,0-3.17-.11-6.27-1.17-8.92-2.89-2.62-1.76-4.83-4.18-6.2-7.04-.73-1.41-1.19-2.94-1.52-4.49-.3-1.55-.34-3.18-.33-4.69l-.02-9.18-.1-18.37-.05-9.18c-.12-3.15.67-6.41,2.18-9.23,1.56-2.8,3.82-5.23,6.6-6.87,2.74-1.71,5.98-2.53,9.2-2.6,97.97-.53,195.94-1,293.91-.83,48.99,0,97.97.16,146.96.64l36.74.34c6.14.07,12.22.06,18.4.2,3.18.14,6.27,1.23,8.9,2.98,2.6,1.79,4.78,4.22,6.11,7.07.71,1.4,1.15,2.93,1.46,4.47.28,1.54.3,3.14.28,4.65l-.04,9.18-.06,18.37-.03,9.18c.09,3.1-.71,6.22-2.19,8.94-1.53,2.7-3.74,5.02-6.42,6.57-2.65,1.62-5.76,2.38-8.85,2.42Zm0-.34c3.02-.06,6.06-.82,8.64-2.43,2.61-1.54,4.74-3.82,6.22-6.45,1.42-2.67,2.17-5.68,2.07-8.71l-.03-9.18-.06-18.37-.04-9.18c0-1.55-.05-3.02-.34-4.49-.32-1.45-.75-2.89-1.45-4.21-1.3-2.68-3.4-4.93-5.86-6.57-2.5-1.59-5.39-2.56-8.35-2.64-6.06-.03-12.23.08-18.34.12l-36.74.34c-48.98.48-97.97.65-146.96.64-97.97.17-195.94-.3-293.91-.83-2.88.04-5.8.73-8.29,2.25-2.52,1.45-4.59,3.63-6.04,6.15-1.39,2.57-2.15,5.44-2.07,8.42l-.05,9.18-.1,18.37-.02,9.18c-.01,1.55.01,3,.29,4.46.3,1.44.71,2.87,1.39,4.19,1.26,2.67,3.33,4.94,5.77,6.6,2.47,1.62,5.36,2.62,8.33,2.73,6.07.09,12.23.05,18.34.08l36.74-.06,36.74-.11,36.74-.25,73.48-.47c48.99-.17,97.97-.11,146.96.35l73.48.63c24.49.18,48.99.18,73.48.28Z"/>
              <path class="cls-16" d="m1810.28,2622.51c-24.49.1-48.99.09-73.48.28l-73.48.63c-48.99.45-97.97.51-146.96.35l-73.48-.47-36.74-.25-36.74-.11-36.74-.06c-6.13,0-12.22.07-18.4,0-3.17-.11-6.27-1.17-8.92-2.89-2.62-1.76-4.83-4.18-6.2-7.04-.73-1.41-1.19-2.94-1.52-4.49-.3-1.55-.34-3.18-.33-4.69l-.02-9.18-.1-18.37-.05-9.18c-.12-3.15.67-6.41,2.18-9.23,1.56-2.8,3.82-5.23,6.6-6.87,2.74-1.71,5.98-2.53,9.2-2.6,97.97-.53,195.94-1,293.91-.83,48.99,0,97.97.16,146.96.64l36.74.34c6.14.07,12.22.06,18.4.2,3.18.14,6.27,1.23,8.9,2.98,2.6,1.79,4.78,4.22,6.11,7.07.71,1.41,1.15,2.93,1.46,4.47.28,1.54.3,3.14.28,4.65l-.04,9.18-.06,18.37-.03,9.18c.09,3.1-.71,6.22-2.19,8.94-1.53,2.7-3.74,5.02-6.42,6.57-2.65,1.63-5.76,2.38-8.85,2.42Zm0-.34c3.02-.06,6.06-.82,8.64-2.43,2.61-1.54,4.74-3.82,6.22-6.45,1.42-2.67,2.17-5.68,2.07-8.71l-.03-9.18-.06-18.37-.04-9.18c0-1.55-.05-3.02-.34-4.49-.32-1.45-.75-2.89-1.45-4.21-1.3-2.68-3.4-4.93-5.86-6.57-2.5-1.59-5.39-2.56-8.35-2.64-6.06-.03-12.23.08-18.34.12l-36.74.34c-48.98.48-97.97.65-146.96.64-97.97.17-195.94-.3-293.91-.83-2.88.04-5.8.73-8.29,2.25-2.52,1.45-4.59,3.63-6.04,6.15-1.39,2.57-2.15,5.44-2.07,8.42l-.05,9.18-.1,18.37-.02,9.18c-.01,1.55.01,3,.29,4.46.3,1.44.71,2.87,1.39,4.19,1.26,2.67,3.33,4.94,5.77,6.6,2.47,1.62,5.36,2.62,8.33,2.73,6.07.09,12.23.05,18.34.08l36.74-.06,36.74-.11,36.74-.25,73.48-.47c48.99-.17,97.97-.11,146.96.35l73.48.63c24.49.18,48.99.18,73.48.28Z"/>
              <path class="cls-23" d="m1152.34,1905.37c-1.18,0-2.34-.41-3.26-1.17l-22.48-18.48c-2.19-1.8-2.5-5.04-.71-7.23.98-1.19,2.43-1.87,3.97-1.87,1.2,0,2.33.41,3.26,1.17l18.54,15.25,71.16-85.25c.98-1.17,2.42-1.85,3.94-1.85,1.2,0,2.37.42,3.29,1.19,2.17,1.81,2.47,5.06.65,7.23l-74.43,89.16c-.98,1.17-2.42,1.84-3.95,1.84Z"/>
              <path class="cls-23" d="m1152.34,2084.3c-1.18,0-2.34-.41-3.26-1.17l-22.48-18.48c-1.06-.87-1.72-2.1-1.85-3.47-.13-1.37.27-2.7,1.14-3.76.98-1.19,2.43-1.87,3.97-1.87,1.2,0,2.33.41,3.26,1.17l18.54,15.25,71.16-85.25c.98-1.17,2.42-1.85,3.94-1.85,1.2,0,2.37.42,3.29,1.19,2.17,1.81,2.47,5.06.65,7.23l-74.43,89.16c-.98,1.17-2.42,1.84-3.95,1.84Z"/>
              <path class="cls-23" d="m1152.34,2263c-1.18,0-2.34-.41-3.26-1.17l-22.48-18.48c-1.06-.87-1.72-2.1-1.85-3.47-.13-1.37.27-2.7,1.14-3.76.98-1.19,2.43-1.87,3.97-1.87,1.2,0,2.33.41,3.26,1.17l18.54,15.25,71.16-85.25c.98-1.17,2.42-1.85,3.94-1.85,1.2,0,2.37.42,3.29,1.19,1.05.88,1.7,2.12,1.82,3.48.12,1.37-.29,2.7-1.17,3.75l-74.43,89.16c-.98,1.17-2.42,1.84-3.95,1.84Z"/>
              <path class="cls-23" d="m1152.34,2441.7c-1.18,0-2.34-.41-3.26-1.17l-22.48-18.48c-2.19-1.8-2.5-5.04-.71-7.23.98-1.19,2.43-1.88,3.97-1.88,1.2,0,2.33.41,3.26,1.17l18.54,15.25,71.16-85.25c.98-1.17,2.42-1.84,3.94-1.84,1.2,0,2.37.42,3.29,1.19,2.17,1.81,2.47,5.06.65,7.23l-74.43,89.16c-.98,1.17-2.42,1.84-3.95,1.84Z"/>
              <path class="cls-23" d="m1152.34,2620.39c-1.18,0-2.34-.41-3.26-1.17l-22.48-18.48c-2.19-1.8-2.5-5.04-.71-7.23.98-1.19,2.43-1.87,3.97-1.87,1.2,0,2.33.41,3.26,1.17l18.54,15.25,71.16-85.25c.98-1.17,2.42-1.85,3.95-1.85,1.2,0,2.37.42,3.29,1.19,2.17,1.81,2.47,5.06.65,7.23l-74.43,89.16c-.98,1.17-2.42,1.84-3.95,1.84Z"/>
              <rect class="cls-22" x="1286.52" y="1413.44" width="377.16" height="53.17" rx="9" ry="9"/>
              <g>
                <path class="cls-9" d="m1314.03,1565.79l-2.12,31.42,24.63-2.55,2.12-29.93,12.74,1.06-5.09,72.18-12.74-1.06,2.55-35.67-24.63,2.55-2.55,35.67-12.74-1.06,5.1-73.67,12.74,1.06Z"/>
                <path class="cls-9" d="m1454.06,1575.13c6.23,6.94,9.34,15.64,9.34,26.11,0,11.04-3.33,20.17-9.98,27.39-6.65,7.22-14.79,10.83-24.41,10.83s-17.66-3.47-24.52-10.4c-6.87-6.93-10.3-15.92-10.3-26.96s3.25-19.85,9.77-26.86c6.51-7.01,14.86-10.51,25.05-10.51s18.82,3.47,25.05,10.4Zm-40.02,5.52c-4.74,6.09-7.11,15.5-7.11,28.24,0,7.36,2.23,13.16,6.69,17.41,4.46,4.25,9.45,6.37,14.97,6.37,6.23,0,11.46-3.5,15.71-10.51,4.25-7.01,6.37-15.39,6.37-25.16,0-8.77-1.84-15.21-5.52-19.32-3.68-4.1-8.63-6.16-14.86-6.16s-11.5,3.05-16.24,9.13Z"/>
                <path class="cls-9" d="m1572.65,1639.45l-4.03-58.17-22.5,55.62-12.74,1.06-9.98-49.47-12.1,50.95-7.01-2.34,16.98-71.33,12.74-1.06,11.04,56.9,22.5-55.84,12.74-1.06,5.1,73.67-12.74,1.06Z"/>
                <path class="cls-9" d="m1670.23,1568.55l-.64,6.37-25.69-2.76-1.7,24.63,25.26,2.55-.64,6.37-25.26-2.34-1.91,28.24,28.66-2.97.64,6.37-42.67,4.46,5.31-74.73,38.64,3.82Z"/>
              </g>
            </g>
            <path class="cls-5" d="m2158.05,2602.58c-4.98-11.06-9.98-22.11-15.1-33.1-8.38-18.04-18.08-36.4-25.16-55.2-.84-2.24-1.65-4.49-2.41-6.74-6.43-19.02-2.05-37.47-7.04-56.79-4.29-16.62-13.64-27.81-13.42-45.66.53-44.24,4.07-88.43,3.77-132.62-.24-36.2-.71-72.48-5-108.47-1.14-9.56-2.67-19.41-7.84-27.52-6.4-10.04-17.42-16.01-27.96-21.55-29.35-15.41-59-30.94-91.03-39.47-15.3-4.08-31.06-6.53-45.96-11.9-27.3-9.85-54.61-29.65-82.45-21.46-10.05,2.96-18.68,9.35-27.07,15.62-22.11,16.53-44.22,33.05-66.33,49.58-3.17,2.37-6.44,4.98-9.4,7.83-13.9,17.26.09,29.52.09,29.52,16.44,12.94,29.61,9.49,31.1,9.04,5.37-1.71,10.63-4.06,15.76-6.38,16.45-7.44,32.9-14.89,49.35-22.33,8.45,12.94,20.48,23.52,34.4,30.25,4.71,2.27,9.86,4.3,12.99,8.49,2.1,2.81,3.04,6.3,3.62,9.76,3.38,20.37-5.68,42.29-22.46,54.32-16.78,12.03-40.45,13.59-58.66,3.85-13.38-7.16-23.61-19.64-37.69-25.3-4.25-1.71-8.92-2.84-12.27-5.97-7.45-6.96-4.48-19.03-6.03-29.18-2.06-10.49-13.53-20.07-13.53-20.07-11.1-8.38-21.92-6.71-26.67-5.33-1.83.59-3.74,1.34-5.75,2.28-1.6,1.02-39.61,25.85-32.48,81.65,0,0-.37,35.3,39.3,71.26,3.33,2.54,6.53,5.25,9.6,8.09.07.05.13.1.16.15,14.34,13.3,25.8,29.72,33.2,47.83,6.48,15.85,9.91,32.86,14.25,49.47,27.42,70.28,112.05,99.65,112.06,99.66,33.38,11.54,66.01,31.56,89.67,57.96,19.42,21.68,28.4,49.78,39.78,76.13.89,2.05,4.25,10.15,8.86,21.24l14.35,30.16,143.53-64.67-14.14-24.43Z"/>
            <path class="cls-20" d="m2001.17,2165.96c-.54-10.62-1.45-21.22-2.74-31.78-.2-1.62-.42-3.25-.67-4.87-2.98-16.33-19.72-25.6-19.72-25.6l-63.44-42.58h0c-9.3-3.81-18.61-8.41-27.95-12.34,1.78,3.4,7.46,6.53,9.9,8.33,11.32,8.39,22.39,17.11,33.12,26.24,11.94,10.16,23.49,20.78,34.6,31.83,3.84,3.82,7.67,7.74,10.51,12.35,2.93,4.77,4.72,10.13,6.49,15.44,2.47,7.43,4.94,14.85,7.41,22.28.81,2.45,1.69,5,3.55,6.8,1.85,1.8,5.01,2.54,7.03.93,1.98-1.57,2.05-4.5,1.92-7.03Z"/>
            <path class="cls-20" d="m2041.11,2152.04c1.51-7.43.62-14.87-.28-22.13-.76-6.17-1.56-12.45-4.11-17.89-5.53-11.81-18.12-17.58-30.1-22.11-2.52-.95-4.79-2.44-7.27-3.49-1.47-.62-3.09-1.3-4.7-1.41-.63-.04-1.45-.06-1.87.5-1.4,1.85,3.25,3.68,4.41,4.37,1.44.85,2.87,1.7,4.31,2.55,8.65,4.63,17.6,9.53,22.93,17.91,7.64,11.99,6.41,28.7,12.56,41.68.64,1.35,2.19,2.78,3.39,1.68.45-.42.62-1.06.74-1.66Z"/>
            <path class="cls-20" d="m2076.95,2139.18c-.51-2.05-1.12-4.09-2.07-5.99-1.43-2.86-3.58-5.3-5.78-7.63-2.61-2.76-5.32-5.46-8.23-7.91-6.34-4.9-14-8.15-14-8.15-1.65.7.95,2.32,2.13,3.05,3.37,2.1,6.3,5.1,8.9,8.07,4.5,5.12,8.16,10.93,11.29,16.98,1.78,3.43,3.38,6.95,4.88,10.51.56,1.33,2.89,5.98,4.63,4.31,2.25-2.16-1.13-10.72-1.75-13.23Z"/>
            <path class="cls-20" d="m1882.52,2277.08c5.15-4.68,8.48-11.06,10.74-17.64,2.22-6.48,3.49-13.24,4.75-19.98,1.45-7.76,2.91-15.52,4.36-23.28,1.63-8.73,3.24-17.94.33-26.33-1.94-5.58-5.72-10.3-9.5-14.84-3.17-3.81-6.48-7.64-10.75-10.15l-2.56-.36c1.72,2.66,2.56,5.83,3.09,8.98,3.38,20.37-5.68,42.29-22.46,54.32-16.78,12.03-40.45,13.59-58.66,3.85-13.38-7.16-23.61-19.64-37.69-25.3-4.2-1.69-8.8-2.82-12.13-5.86-.27.8-.5,1.61-.65,2.46-.26,1.43-.32,2.97.29,4.29.6,1.32,1.79,2.26,2.92,3.16,13.1,10.44,25.03,22.34,35.5,35.42,3.71,4.64,7.32,9.5,12.16,12.93,7.58,5.37,17.21,6.61,26.16,9.12,7.11,2,13.97,4.89,20.37,8.59,4.69,2.71,9.28,5.91,14.61,6.87,6.85,1.23,14.01-1.56,19.15-6.24Z"/>
            <path class="cls-22" d="m2141.75,2410.8c4.23,2.51,8.6.68,9.84.06,36.97-21.6,37.26-52.24,34.74-67.12-.77-6.54-9.4-12.12-9.4-12.12l-354.41-164.29-41.59-19.28c-4.6,2.07-9.3,4.1-14.09,5.63-1.5.45-14.67,3.9-31.1-9.04,0,0-9.04-7.94-5.35-20.03l-58.57-27.15-36.37-.62,21.39,25.83,42.9,25.49c.07-.04.12-.08.15-.1,2.01-.94,3.92-1.68,5.75-2.28,4.75-1.38,15.57-3.05,26.67,5.33,0,0,11.47,9.58,13.53,20.07.23,1.51.36,3.06.44,4.62l99.76,59.27h0s249.36,148.16,249.36,148.16l46.35,27.54h0Z"/>
            <ellipse class="cls-12" cx="2163.05" cy="2376.14" rx="33.72" ry="13.05" transform="translate(-983.49 3027.42) rotate(-59.38)"/>
            <ellipse class="cls-12" cx="2163.05" cy="2376.14" rx="33.72" ry="13.05" transform="translate(-983.49 3027.42) rotate(-59.38)"/>
            <path class="cls-25" d="m2171.04,2380.87c-7.78,13.15-17.67,21.69-22.08,19.08-4.41-2.61-1.68-15.39,6.1-28.54,7.78-13.15,17.67-21.69,22.08-19.08,4.41,2.61,1.68,15.39-6.1,28.54Z"/>
            <polygon class="cls-4" points="1671.82 2097.47 1656.84 2122.69 1646.55 2110.27 1654.43 2097.18 1671.82 2097.47"/>
            <polygon class="cls-25" points="1654.43 2097.18 1646.55 2110.27 1642.75 2105.67 1647.93 2097.07 1654.43 2097.18"/>
            <path class="cls-21" d="m1709,2207.19c6.27-13.33,12.54-26.66,18.82-39.99,1.19-2.53,2.41-5.18,2.31-7.97-.12-3.51-2.32-6.62-4.84-9.08-8.25-8.03-18.09-6.66-26.8-1.76-6.24,3.51-11.46,8.67-15.9,14.23-2.21,2.77-4.22,5.68-6.1,8.68-2.74,4.38-4.88,9.12-6.57,14-.83,2.4-1.56,4.84-2.2,7.3-.5,1.91-1.5,4.64.32,6.27.53.48,1.11.92,1.69,1.32,9.6,6.74,21.19,10.59,32.91,10.95,1.4.04,2.9.01,4.07-.76,1.11-.73,1.73-1.99,2.29-3.2Z"/>
            <path class="cls-21" d="m1780.13,2104.9c.19-.98-.05-1.98-.31-2.95-.9-3.3-2.15-6.58-4.3-9.24-6.78-8.39-12.76-1.52-19.2,3.47-7.14,5.52-13.89,11.54-20.31,17.88-3.41,3.51-13.09,14.61-7.52,22.5,0,0,2.7,3.25,5.03,2.35,16.87-6.15,30.68-18.43,44.04-30.43,1.11-1,2.29-2.11,2.58-3.58Z"/>
            <path class="cls-20" d="m2158.05,2602.58c-4.98-11.06-9.98-22.11-15.1-33.1-6.54-14.07-13.86-28.34-20.13-42.86-.86-2-1.71-4.01-2.53-6.02-.85-2.09-1.68-4.18-2.47-6.28,0-.02-.01-.03-.02-.05-.02-.05-.04-.1-.06-.16-.1-.28-.2-.56-.3-.84-.71-1.91-1.41-3.83-2.06-5.75-6.43-19.02-2.05-37.47-7.04-56.79-2.94-11.37-8.24-20.21-11.23-30.37-1.27.39-2.32,1.72-3.04,4.33-3.4,12.37,6.7,24.69,6.16,37.51-.39,9.29-6.37,17.9-5.57,27.17,0,0,1.83,36.55-15.7,45.71-7.61,4.01-15.3,7.9-22.98,11.78-6.69,3.38-13.61,6.81-20.81,8.67-.13.03-.26.07-.39.1-15.32,4.48-31.42,1.9-45.41-5.4-10.11-5.27-17.51-14.12-26.37-21.07-9.98-7.83-21.44-13.87-32.41-20.2-25.52-14.74-55.83-30.03-85.34-17.18,17.59,9.82,30.73,14.38,30.73,14.38,33.38,11.54,66.01,31.56,89.67,57.96,19.42,21.68,28.4,49.78,39.78,76.13.89,2.05,4.25,10.15,8.86,21.24l14.35,30.16,143.53-64.67-14.14-24.43Z"/>
            <path class="cls-22" d="m2066.47,2873.93h278.19l-144.89-268.52c-1.16-2.14-3.8-2.99-5.98-1.93l-190.92,92.91c-2.12,1.03-3.1,3.51-2.25,5.71l65.86,171.83Z"/>
            <path class="cls-10" d="m2132.13,2535.11l-106.71,51.53s-4.48,1.26-3.81,5.07l23.82,74.38s.41,9.13-7.01-1.53l-30.65-60.34s-2.37-5.2-5.88-4.2l-17.67,8.53s-3.9,2.26-2.17,6.6l30.5,76.53,172.52-83.96-35.3-70.57s-3.18-7.85-17.65-2.04Z"/>
            <path class="cls-16" d="m2043.35,2659.6l2.08,6.49s.41,9.13-7.01-1.53l-1.01-2-30.4,15.19,5.55,13.91,172.52-83.96-7.59-15.17-134.13,67.05Z"/>
            <path class="cls-8" d="m1709,2207.18c-.57,1.2-1.18,2.46-2.29,3.2-1.17.77-2.67.8-4.07.76-11.72-.36-23.31-4.22-32.91-10.95-.58-.4-1.15-.85-1.69-1.32-.16-.14-.29-.29-.41-.45-.46,2.37.7,5.41,2.07,6.93,2.08,2.3,5.06,3.51,7.95,4.64,8.15,3.19,16.53,6.29,25.27,6.51,1.73.04,3.53-.04,5.08-.81,3.26-1.62,4.41-5.61,5.23-9.15.56-2.4.95-5.32-.59-7.11-1.22,2.59-2.44,5.18-3.65,7.76Z"/>
            <path class="cls-8" d="m1784.7,2099.61c-.5-2.6-1.78-5-3.29-7.18-.94-1.36-4.34-5.33-7.25-6.86-1.41,1.05-2.82,2.11-4.23,3.16.02.06.05.11.07.16,1.8.34,3.63,1.49,5.52,3.83,2.15,2.66,3.4,5.94,4.3,9.24.26.96.5,1.97.31,2.95-.29,1.47-1.46,2.58-2.58,3.58-.59.53-1.19,1.06-1.78,1.6.23.13.49.21.76.26,2.61.5,5.36-.9,6.85-3.09s1.83-5.03,1.32-7.64Z"/>
            <path class="cls-5" d="m1243.01,2204.58c-6.15-5.04-16.91-6.43-24.56-6.44-39.78,5.16-60.24,49.79-86.26,78.34-13.15,14.42-31.61,51.02-31.61,51.02-4.47,5.85-9.83,11.85-16.19,14.97-8.2,4.02-19.97-1.21-26.5-7.21-5.43-4.99-9.84-11.45-13.23-18.34-18.48-37.63-23.16-81.96-23.94-125.07-.78-43.11,1.96-86.5-3.19-129.21-8.56,4.25-17.33,8.71-25.31,14.28-3.04,2.47-6.6,6.01-10.09,10.88-9.34,10.88-15.86,24.19-18.5,38.28-2.35,12.58-1.8,25.9-6.93,37.63-3.36,7.68-8.95,14.16-12.98,21.51-4.26,7.77-6.75,16.5-7.2,25.35-.5,9.68,1.37,19.55-.76,29.01-2.18,9.71-8.44,18.3-9.56,28.19-1.15,10.21,3.33,20.17,4.21,30.41,1.01,11.76-2.76,23.38-3.49,35.16-.58,9.38.77,18.75,1.18,28.14.5,11.42-.4,22.85-1.29,34.25-1,12.77-2.01,25.61-5.05,38.05-2.01,8.26-4.91,16.34-5.92,24.77-1.1,9.23.09,18.51,1.76,27.69-9.13,26.41-20.16,52.51-30.3,78.86l-30.59,59.47,133.47,67.12,28.52-58.68c5.02-8.46,10.37-16.71,16.42-24.47,19.12-24.51,44.51-43.35,65.47-66.31,36.89-40.42,58.64-92.36,68.86-146.45.07-.01.14-.02.21-.03,0-.38,0-.77,0-1.15,1.31-7.05,2.42-14.14,3.34-21.24,1.12-3.87,2.43-7.58,3.85-11.01,8.22-14.28,16.65-28.43,25.11-42.57,8.02-13.41,16.01-22.34,26.71-33.59,9.78-10.28,20.49-22.25,26.41-35.39,7.25-16.1,1.38-35.17-12.08-46.21Z"/>
            <path class="cls-1" d="m1251.11,2219.28c-5.54-10.98-15.32-17.33-26.37-18.11-2.73-.19-5.5-.25-8.2.28-2.81.55-4.77,2.92-6.89,4.96-8.79,8.47-17.67,17.09-24.16,27.89-.56.94-1.13,1.95-1.17,3.08-.05,1.11.41,2.15.87,3.12,6.38,13.35,17.12,23.94,29.68,29.27,2.07.88,4.29,1.63,6.47,1.19,1.94-.39,3.65-1.69,5.24-3.01,5.06-4.21,9.73-9.03,13.9-14.35,2.56-3.27,4.81-6.82,7.09-10.34,1.14-1.76,2.33-3.48,3.48-5.23,1.49-2.28,2.89-3.78,2.84-6.83-.04-2.66-.69-5.29-1.32-7.83,0,0-.43-1.65-1.45-4.09Z"/>
            <path class="cls-8" d="m1186.41,2228.21c.87-.93,1.8-1.9,2.98-2.13.56-.11,1.12-.04,1.68.1-2,2.58-3.87,5.27-5.58,8.12-.56.94-1.13,1.95-1.17,3.08-.05,1.11.41,2.15.87,3.12,6.38,13.35,17.12,23.94,29.68,29.27,2.07.88,4.29,1.63,6.47,1.19,1.94-.39,3.65-1.69,5.24-3.01,2.59-2.15,5.08-4.47,7.45-6.93.07.77,0,1.56-.27,2.35-1.78,5.34-7.13,9.53-11.75,11.19-4.72,1.69-9.98,1.32-14.47-1.01-3.31-1.72-6.13-4.41-8.91-7.07-6.36-6.1-12.88-12.41-16.76-20.77-.82-1.76-1.52-3.65-1.59-5.64-.17-4.72,3.1-8.59,6.13-11.85Z"/>
            <path class="cls-20" d="m1132.71,2275.89c-.18.2-.35.4-.53.59-13.15,14.42-31.61,51.02-31.61,51.02-4.47,5.85-9.83,11.85-16.19,14.97-8.2,4.02-19.97-1.21-26.5-7.21-2.09-1.92-4.03-4.07-5.82-6.37,0-.01.01-.02.02-.04-2.15-2.78-4.11-5.78-5.8-8.83-.01-.02-.02-.04-.03-.06-.56-1.01-1.09-2.03-1.59-3.05-18.48-37.63-23.16-81.96-23.94-125.07-.78-43.11,1.96-86.5-3.19-129.21-3.91,1.95-7.87,3.93-11.78,6.05-2.6,27.78.56,57.89,1.62,85.39.76,19.73,1.74,39.45,2.72,59.16,1.74,35.06,3.69,71.12,16.91,102.84,4.5,10.79,10.2,20.81,16.6,30.28.18,1.75,6.22,5.45,7.35,6.32,5.9,4.53,12.28,8.39,19.04,11.03,7.97,3.11,16.61,4.52,24.97,2.57,30.5-7.11,18.09-53.22,34.16-73.99,0,0,5.02-8.61,3.59-16.39Z"/>
            <path class="cls-20" d="m1097.08,2524.68c-12.96,4.13-23.73,13.1-34,22.02-9.55,8.3-20.29,17.24-32.95,16.94-5.95-.14-11.63-2.37-17.15-4.59-20.44-8.22-40.75-16.75-60.92-25.58-4.28-1.88-8.86-4.04-11.03-8.18-1.39-2.65-1.58-5.75-1.72-8.74-1.78-37.59-.81-75.3,2.9-112.74,1.31-13.26,2.97-26.71.7-39.84-2.95-17.09-9-23.47-16.08-23.41.17,6.97.99,13.94,1.29,20.91.5,11.42-.4,22.85-1.29,34.25-1,12.77-2.01,25.61-5.05,38.05-2.01,8.26-4.91,16.34-5.92,24.77-1.1,9.23.09,18.51,1.76,27.69-9.13,26.41-20.16,52.51-30.3,78.86l-30.59,59.47,133.47,67.12,28.52-58.68c5.02-8.46,10.37-16.71,16.42-24.47,19.12-24.51,44.51-43.35,65.47-66.31,5.58-6.12,10.82-12.5,15.72-19.12-6.37-.97-13.13-.36-19.25,1.59Z"/>
            <path class="cls-22" d="m965.19,2873.93l65.86-171.83c.84-2.2-.14-4.68-2.25-5.71l-190.92-92.91c-2.19-1.06-4.83-.21-5.98,1.93l-144.89,268.52h278.19Z"/>
            <path class="cls-10" d="m899.54,2535.11l106.71,51.53s4.48,1.26,3.81,5.07l-23.82,74.38s-.41,9.13,7.01-1.53l30.65-60.34s2.37-5.2,5.88-4.2l17.67,8.53s3.9,2.26,2.17,6.6l-30.5,76.53-172.52-83.96,35.3-70.57s3.18-7.85,17.65-2.04Z"/>
            <path class="cls-16" d="m988.31,2659.6l-2.08,6.49s-.41,9.13,7.01-1.53l1.01-2,30.4,15.19-5.55,13.91-172.52-83.96,7.59-15.17,134.13,67.05Z"/>
            <path class="cls-22" d="m965.19,2873.93l65.86-171.83c.84-2.2-.14-4.68-2.25-5.71l-56.9-27.69-88.14,205.23h81.43Z"/>
            <path class="cls-22" d="m2066.47,2873.93h81.43l-88.14-205.23-56.9,27.69c-2.12,1.03-3.1,3.51-2.25,5.71l65.86,171.83Z"/>
          </g>
          <path class="cls-18" d="m884.2,1818.72l-158.27,257.11-158.72,256.83-79.18,128.53c-26.39,42.84-53.05,85.52-79.99,128.02l-40.54,63.67c-13.6,21.17-27.12,42.39-40.82,63.5-27.3,42.28-54.77,84.44-82.74,126.3-.16.24-.49.31-.73.15-.23-.16-.3-.47-.16-.71,25.39-43.47,51.27-86.63,77.32-129.69,12.98-21.56,26.14-43,39.21-64.5l39.49-64.33c26.42-42.83,53.11-85.48,80.08-127.97l80.88-127.46,161.41-255.15,161.86-254.87c.16-.25.48-.32.73-.16.24.16.32.48.17.72Z"/>
          <path class="cls-18" d="m2129.12,1818.16l161.86,254.87,161.41,255.15,80.88,127.46c26.96,42.49,53.66,85.14,80.08,127.97l39.49,64.33c13.07,21.5,26.23,42.94,39.21,64.5,26.05,43.06,51.93,86.22,77.32,129.69.15.25.06.58-.19.72-.24.14-.55.07-.71-.16-27.96-41.86-55.44-84.03-82.74-126.3-13.7-21.11-27.21-42.33-40.82-63.5l-40.54-63.67c-26.94-42.5-53.59-85.18-79.99-128.02l-79.18-128.53-158.72-256.83-158.27-257.11c-.15-.25-.08-.57.17-.73.25-.15.57-.08.72.17Z"/>
          <path class="cls-10" d="m786.33,1818.82l-67.05,64.8-67.11,64.74-134.53,129.15-67.12,64.73c-22.37,21.58-44.96,42.93-67.77,64.04l-34.33,31.55c-11.52,10.44-22.96,20.95-34.55,31.31-23.11,20.8-46.36,41.45-70,61.68-.22.19-.56.16-.75-.06-.18-.21-.16-.52.02-.71,21.56-22.44,43.52-44.45,65.62-66.32,11.01-10.97,22.17-21.79,33.25-32.69l33.48-32.45c22.39-21.56,45.01-42.87,67.84-63.96l68.5-63.27,136.7-126.84,68.5-63.26,68.56-63.2c.21-.2.55-.18.75.03.2.21.18.54-.02.74Z"/>
          <path class="cls-10" d="m2226.82,1818.05l68.56,63.2,68.5,63.26,136.7,126.84,68.5,63.27c22.83,21.09,45.45,42.4,67.84,63.96l33.48,32.45c11.09,10.89,22.24,21.71,33.25,32.69,22.1,21.87,44.05,43.88,65.62,66.32.2.21.2.55-.01.75-.2.19-.51.19-.71.02-23.64-20.23-46.89-40.88-70-61.68-11.59-10.36-23.04-20.87-34.55-31.31l-34.33-31.55c-22.81-21.11-45.4-42.46-67.77-64.04l-67.12-64.73-134.53-129.15-67.11-64.74-67.05-64.8c-.21-.2-.22-.54-.01-.75.2-.21.53-.22.74-.02Z"/>
        </g>
      </g>
    </g>
  </g>
</svg>