<?xml version="1.0" encoding="utf-8"?>
<!-- Generator: Adobe Illustrator 27.1.1, SVG Export Plug-In . SVG Version: 6.00 Build 0)  -->
<svg version="1.1" id="Calque_1" xmlns="http://www.w3.org/2000/svg" xmlns:xlink="http://www.w3.org/1999/xlink" x="0px" y="0px"
	 viewBox="0 0 3000 3000" style="enable-background:new 0 0 3000 3000;" xml:space="preserve">
<style type="text/css">
	.st0{clip-path:url(#SVGID_00000103245530683028728590000015447704574085703060_);}
	.st1{fill:#98D09E;}
	.st2{fill:#476CA3;}
	.st3{fill:#FFFFFF;}
	.st4{fill:#E6E7E8;}
	.st5{fill:#36478A;}
	.st6{fill:#D1D3D4;}
	.st7{fill:#BCBEC0;}
	.st8{fill:#79C89F;}
	.st9{fill:#231F20;}
	.st10{fill:#F1F2F2;}
	.st11{fill:#A7A9AC;}
	.st12{fill:#DC3742;}
	.st13{fill:#6D6E71;}
	.st14{fill:#F69D98;}
	.st15{fill:#F38E8B;}
	.st16{fill:#808285;}
	.st17{fill:#58595B;}
	.st18{fill:#939598;}
	.st19{fill:#F9B9B7;}
	.st20{fill:#F0918F;}
	.st21{fill:#FBCBC3;}
</style>
<g>
	<g id="Calque_2_00000173145731573342912510000002342634628486208439_">
		<g id="Layer_1">
			<g>
				<defs>
					<rect id="SVGID_1_" x="-105.1" y="-54.3" width="3000" height="3000"/>
				</defs>
				<clipPath id="SVGID_00000174588445328802932150000011525330289617048448_">
					<use xlink:href="#SVGID_1_"  style="overflow:visible;"/>
				</clipPath>
				<g style="clip-path:url(#SVGID_00000174588445328802932150000011525330289617048448_);">
					<g>
						<g>
							<circle class="st1" cx="2361.6" cy="579.2" r="338.3"/>
							<path class="st2" d="M2472.8,553.6c-3.7-2.7-8.8-1.9-11.5,1.8l-99.4,135.6l-42.8-63.6c-2.5-3.8-7.6-4.8-11.4-2.2
								c-3.8,2.5-4.8,7.7-2.2,11.4l47.9,71.2v846.4l0,0V1700c0,4.5,3.7,8.2,8.2,8.2s8.2-3.7,8.2-8.2V707.9l104.7-142.8
								C2477.3,561.4,2476.5,556.3,2472.8,553.6L2472.8,553.6z"/>
						</g>
						<g>
							<polygon class="st2" points="2234.5,672.9 1507.6,672.9 1484.1,672.9 1759.3,921.2 1759.3,1167.6 1782.7,1167.6 
								2234.5,1167.6 2258,1167.6 2258,672.9 							"/>
							<g>
								<polygon class="st3" points="1547.9,672.9 1547.9,730.5 1552.6,734.7 1552.6,672.9 								"/>
								<path class="st3" d="M2258,746v-4.7h-68.4v-68.4h-4.6v68.4h-66.1v-68.4h-4.6v68.4H2048v-68.4h-4.6v68.4h-66.1v-68.4h-4.6
									v68.4h-66.1v-68.4h-4.7v68.4h-66.2v-68.4h-4.7v68.4h-66.2v-68.4h-4.7v68.4h-66.1v-68.4h-4.7v68.4h-66.1v-68.4h-4.7v68.4
									h-58.9l5.2,4.7h53.7v48.5l4.7,4.2V746h66.1v66.1h-51.2l5.2,4.7h46v41.5l4.7,4.2v-45.7h66.1v66.2h-43.4l5.2,4.7h38.2v66.2h-1
									v4.7h1v66.1h-1v4.7h1v66.1h-1v4.7h1v67.8h4.7v-67.8h66.2v67.8h4.7v-67.8h66.2v67.8h4.7v-67.8h66.1v67.8h4.6v-67.8h66.1v67.8
									h4.6v-67.8h66.2v67.8h4.6v-67.8h66.1v67.8h4.6v-67.8h68.4v-4.7h-68.4v-66.1h68.4v-4.7h-68.4v-66.1h68.4v-4.7h-68.4v-66.2
									h68.4v-4.7h-68.4v-66.2h68.4v-4.7h-68.4V746H2258L2258,746z M1760.2,812.1h-66.1V746h66.1V812.1z M1831.1,1095.2h-66.2
									v-66.1h66.2L1831.1,1095.2L1831.1,1095.2z M1831.1,1024.5h-66.2v-66.1h66.2L1831.1,1024.5L1831.1,1024.5z M1831.1,953.7
									h-66.2v-66.2h66.2L1831.1,953.7L1831.1,953.7z M1831.1,882.9h-66.2v-66.2h66.2L1831.1,882.9L1831.1,882.9z M1831.1,812.1
									h-66.2V746h66.2L1831.1,812.1L1831.1,812.1z M1901.9,1095.2h-66.2v-66.1h66.2V1095.2z M1901.9,1024.5h-66.2v-66.1h66.2
									V1024.5z M1901.9,953.8h-66.2v-66.2h66.2V953.8z M1901.9,882.9h-66.2v-66.2h66.2V882.9z M1901.9,812.1h-66.2V746h66.2V812.1
									z M1972.6,1095.2h-66.1v-66.1h66.1V1095.2z M1972.6,1024.5h-66.1v-66.1h66.1V1024.5z M1972.6,953.8h-66.1v-66.2h66.1V953.8z
									 M1972.6,882.9h-66.1v-66.2h66.1V882.9z M1972.6,812.1h-66.1V746h66.1V812.1z M2043.3,1095.2h-66.1v-66.1h66.1V1095.2z
									 M2043.3,1024.5h-66.1v-66.1h66.1V1024.5z M2043.3,953.8h-66.1v-66.2h66.1V953.8z M2043.3,882.9h-66.1v-66.2h66.1V882.9z
									 M2043.3,812.1h-66.1V746h66.1V812.1z M2114.2,1095.2H2048v-66.1h66.2V1095.2z M2114.2,1024.5H2048v-66.1h66.2V1024.5z
									 M2114.2,953.8H2048v-66.2h66.2V953.8z M2114.2,882.9H2048v-66.2h66.2V882.9z M2114.2,812.1H2048V746h66.2V812.1z
									 M2184.9,1095.2h-66.1v-66.1h66.1V1095.2z M2184.9,1024.5h-66.1v-66.1h66.1V1024.5z M2184.9,953.8h-66.1v-66.2h66.1V953.8z
									 M2184.9,883h-66.1v-66.2h66.1V883z M2184.9,812.1h-66.1V746h66.1V812.1z"/>
							</g>
							<polygon class="st4" points="1189.9,407.5 620.6,915.5 620.6,1674 1189.9,1674 1759.3,1674 1759.3,921.2 							"/>
							<rect x="1066" y="652.5" class="st3" width="240.8" height="304.3"/>
							<rect x="1086.4" y="672.9" class="st2" width="200" height="263.5"/>
							<polygon class="st5" points="547.1,981.1 519.9,950.6 1190,352.6 1852.9,950.7 1825.6,981 1189.9,407.5 							"/>
							<polygon class="st5" points="1106.8,916 1106.8,693.4 1266,693.4 1286.4,693.4 1286.4,672.9 1086.4,672.9 1086.4,936.4 
								1106.8,936.4 							"/>
							<rect x="1066" y="758.4" class="st3" width="240.8" height="20.4"/>
							<rect x="1086.4" y="778.8" class="st5" width="200" height="20.4"/>
							<rect x="620.6" y="1339.9" class="st6" width="1138.7" height="334.1"/>
							<polygon class="st6" points="1189.9,407.5 620.6,915.5 620.6,950.8 1189.9,442.8 1759.3,956.5 1759.3,921.2 							"/>
							<g>
								<rect x="788.4" y="1167.6" class="st3" width="240.8" height="304.3"/>
								<rect x="808.8" y="1188.1" class="st2" width="200" height="263.5"/>
								<polygon class="st5" points="829.2,1431.1 829.2,1208.5 988.4,1208.5 1008.8,1208.5 1008.8,1188.1 808.8,1188.1 
									808.8,1451.5 829.2,1451.5 								"/>
								<rect x="808.8" y="1293.9" class="st5" width="200" height="20.4"/>
								<rect x="788.4" y="1273.5" class="st3" width="240.8" height="20.4"/>
							</g>
							<g>
								<rect x="1350.7" y="1167.6" class="st3" width="240.8" height="304.3"/>
								<rect x="1371.1" y="1188.1" class="st2" width="200" height="263.5"/>
								<polygon class="st5" points="1391.5,1431.1 1391.5,1208.5 1550.6,1208.5 1571,1208.5 1571,1188.1 1371.1,1188.1 
									1371.1,1451.5 1391.5,1451.5 								"/>
								<rect x="1371.1" y="1293.9" class="st5" width="200" height="20.4"/>
								<rect x="1350.7" y="1273.5" class="st3" width="240.8" height="20.4"/>
							</g>
							<rect x="620.6" y="1604.6" class="st7" width="1138.7" height="69.4"/>
							<rect x="1759.3" y="1167.6" class="st6" width="247" height="506.3"/>
							<rect x="2154" y="1167.6" class="st6" width="44.7" height="506.3"/>
							<rect x="1759.3" y="1604.6" class="st7" width="450.9" height="69.4"/>
							<rect x="1759.3" y="1451.5" class="st7" width="450.9" height="20.4"/>
							<rect x="1759.3" y="1529.7" class="st7" width="22.6" height="144.3"/>
							<rect x="1844.9" y="1529.7" class="st7" width="22.6" height="144.3"/>
							<rect x="1930.6" y="1529.7" class="st7" width="22.6" height="144.3"/>
							<rect x="2016.2" y="1529.7" class="st7" width="22.6" height="144.3"/>
							<rect x="2101.9" y="1529.7" class="st7" width="22.6" height="144.3"/>
							<rect x="2187.6" y="1529.7" class="st7" width="22.6" height="144.3"/>
							<rect x="1764.5" y="1451.5" class="st7" width="12.1" height="144.3"/>
							<rect x="1850.2" y="1451.5" class="st7" width="12.1" height="144.3"/>
							<rect x="1935.8" y="1451.5" class="st7" width="12.1" height="144.3"/>
							<rect x="2021.5" y="1451.5" class="st7" width="12.1" height="144.3"/>
							<rect x="2107" y="1451.5" class="st7" width="12.1" height="144.3"/>
							<rect x="2192.7" y="1451.5" class="st7" width="12.1" height="144.3"/>
							<rect x="1759.3" y="1167.6" class="st5" width="498.7" height="23.3"/>
						</g>
						<path class="st1" d="M2316.3,1708.2c12.8-17,20.4-38.1,20.4-61c0-56.1-45.5-101.6-101.6-101.6s-101.6,45.5-101.6,101.6
							c0,22.9,7.6,44,20.4,61H2316.3L2316.3,1708.2z"/>
						<path class="st1" d="M1786.2,1708.2c22.8-30.2,36.3-67.9,36.3-108.7c0-99.9-81-180.9-180.9-180.9s-180.9,81-180.9,180.9
							c0,40.8,13.5,78.4,36.3,108.7H1786.2L1786.2,1708.2z"/>
						<path class="st8" d="M1865.3,1708.2c13.5-17.9,21.4-40.2,21.4-64.3c0-59.1-47.9-107-107-107s-107,47.9-107,107
							c0,24.1,8,46.4,21.4,64.3H1865.3L1865.3,1708.2z"/>
						<path class="st8" d="M721,1708.2c16.8-22.3,26.7-49.9,26.7-79.9c0-73.5-59.6-133.1-133.1-133.1s-133.1,59.6-133.1,133.1
							c0,30,9.9,57.7,26.7,79.9H721z"/>
						<path class="st1" d="M781.3,1708.2c11.2-14.8,17.8-33.3,17.8-53.3c0-49-39.7-88.7-88.7-88.7s-88.7,39.7-88.7,88.7
							c0,20,6.6,38.4,17.8,53.3H781.3L781.3,1708.2z"/>
						<g>
							<circle class="st8" cx="452.7" cy="579.2" r="365.3"/>
							<path class="st2" d="M506.7,625.1c-3.8-2.5-8.9-1.5-11.4,2.2l-42.8,63.6l-99.4-135.6c-2.7-3.7-7.8-4.5-11.5-1.8
								s-4.5,7.8-1.8,11.5l104.7,142.8V1700c0,4.5,3.7,8.2,8.2,8.2s8.2-3.7,8.2-8.2V707.7l48-71.2
								C511.5,632.7,510.5,627.6,506.7,625.1L506.7,625.1z"/>
						</g>
					</g>
					<g>
						<g>
							<path class="st9" d="M-1208.4,1061.2h-889.1c-7.2,0-13.1,5.9-13.1,13.1v1365.6c0,7.2,5.9,13.1,13.1,13.1h889.1
								c7.2,0,13.1-5.9,13.1-13.1V1074.2C-1195.3,1067.1-1201.2,1061.2-1208.4,1061.2L-1208.4,1061.2z"/>
							<path class="st10" d="M-1331.6,2398.7c2-0.1,5.7-0.9,9-4.6l63-69.4c1-1.2,3.6-4.8,3.6-10.9V1115.4h-793.8v1283.3
								L-1331.6,2398.7L-1331.6,2398.7z"/>
							<path class="st6" d="M-1331.6,2398.7c2-0.1,5.7-0.9,9-4.6l63-69.4c1-1.2,3.6-4.8,3.6-10.9c0,5.7-7.4,5.9-7.4,5.9h-60.4
								c-5.8,0-5.2,5.2-5.2,5.2v63.1C-1329.1,2395.7-1331.6,2398.7-1331.6,2398.7L-1331.6,2398.7z"/>
							<path class="st11" d="M-1503.1,1149.5h-299.6c-17.8,0-24.2-16.6-25.1-25.4l0-0.5v-46.2h9.9v45.9c0.3,2,2.6,16.3,15.2,16.3
								h299.6c12.7,0,14.9-14.3,15.2-16.3v-45.9h9.9v46.4l0,0.2C-1478.9,1132.9-1485.3,1149.5-1503.1,1149.5L-1503.1,1149.5z"/>
							<path class="st6" d="M-1994.2,1398.6c28.3-0.4,56.6-0.5,84.9-0.8l84.9-0.5c28.3-0.2,56.6-0.2,84.9-0.2l84.9-0.2l84.9,0.2
								c28.3,0.1,56.6,0,84.9,0.2l84.9,0.5c28.3,0.3,56.6,0.4,84.9,0.8c-28.3,0.4-56.6,0.6-84.9,0.8l-84.9,0.5
								c-28.3,0.2-56.6,0.2-84.9,0.2l-84.9,0.2l-84.9-0.2c-28.3-0.1-56.6,0-84.9-0.2l-84.9-0.5
								C-1937.6,1399.2-1965.9,1399-1994.2,1398.6L-1994.2,1398.6z"/>
							<path class="st6" d="M-1942.1,1536.1h-48.7c-6.7,0-12.2-5.5-12.2-12.2v-48.7c0-6.7,5.5-12.2,12.2-12.2h48.7
								c6.7,0,12.2,5.5,12.2,12.2v48.7C-1929.9,1530.6-1935.4,1536.1-1942.1,1536.1z M-1990.8,1464.2c-6.1,0-11.1,5-11.1,11.1v48.7
								c0,6.1,5,11.1,11.1,11.1h48.7c6.1,0,11.1-5,11.1-11.1v-48.7c0-6.1-5-11.1-11.1-11.1H-1990.8z"/>
							<path class="st6" d="M-1942.1,1714.8h-48.7c-6.7,0-12.2-5.5-12.2-12.2v-48.7c0-6.7,5.5-12.2,12.2-12.2h48.7
								c6.7,0,12.2,5.5,12.2,12.2v48.7C-1929.9,1709.3-1935.4,1714.8-1942.1,1714.8z M-1990.8,1642.9c-6.1,0-11.1,5-11.1,11.1v48.7
								c0,6.1,5,11.1,11.1,11.1h48.7c6.1,0,11.1-5,11.1-11.1v-48.7c0-6.1-5-11.1-11.1-11.1H-1990.8z"/>
							<path class="st6" d="M-1942.1,1893.5h-48.7c-6.7,0-12.2-5.5-12.2-12.2v-48.7c0-6.7,5.5-12.2,12.2-12.2h48.7
								c6.7,0,12.2,5.5,12.2,12.2v48.7C-1929.9,1888-1935.4,1893.5-1942.1,1893.5z M-1990.8,1821.6c-6.1,0-11.1,5-11.1,11.1v48.7
								c0,6.1,5,11.1,11.1,11.1h48.7c6.1,0,11.1-5,11.1-11.1v-48.7c0-6.1-5-11.1-11.1-11.1H-1990.8z"/>
							<path class="st6" d="M-1942.1,2072.2h-48.7c-6.7,0-12.2-5.5-12.2-12.2v-48.7c0-6.7,5.5-12.2,12.2-12.2h48.7
								c6.7,0,12.2,5.5,12.2,12.2v48.7C-1929.9,2066.7-1935.4,2072.2-1942.1,2072.2z M-1990.8,2000.3c-6.1,0-11.1,5-11.1,11.1v48.7
								c0,6.1,5,11.1,11.1,11.1h48.7c6.1,0,11.1-5,11.1-11.1v-48.7c0-6.1-5-11.1-11.1-11.1H-1990.8z"/>
							<path class="st6" d="M-1942.1,2250.9h-48.7c-6.7,0-12.2-5.5-12.2-12.2V2190c0-6.7,5.5-12.2,12.2-12.2h48.7
								c6.7,0,12.2,5.5,12.2,12.2v48.7C-1929.9,2245.4-1935.4,2250.9-1942.1,2250.9z M-1990.8,2178.9c-6.1,0-11.1,5-11.1,11.1v48.7
								c0,6.1,5,11.1,11.1,11.1h48.7c6.1,0,11.1-5,11.1-11.1V2190c0-6.1-5-11.1-11.1-11.1H-1990.8z"/>
							<path class="st6" d="M-1317.7,1535.8c-24.5,0.1-49,0.1-73.5,0.3l-73.5,0.6c-49,0.4-98,0.5-147,0.3l-73.5-0.5l-36.7-0.2
								l-36.7-0.1l-36.7-0.1c-6.1,0-12.2,0.1-18.4,0c-3.2-0.1-6.3-1.2-8.9-2.9c-2.6-1.8-4.8-4.2-6.2-7c-0.7-1.4-1.2-2.9-1.5-4.5
								c-0.3-1.6-0.3-3.2-0.3-4.7l0-9.2l-0.1-18.4l-0.1-9.2c-0.1-3.2,0.7-6.4,2.2-9.2c1.6-2.8,3.8-5.2,6.6-6.9
								c2.7-1.7,6-2.5,9.2-2.6c98-0.5,195.9-1,293.9-0.8c49,0,98,0.2,147,0.6l36.7,0.3c6.1,0.1,12.2,0.1,18.4,0.2
								c3.2,0.1,6.3,1.2,8.9,3c2.6,1.8,4.8,4.2,6.1,7.1c0.7,1.4,1.2,2.9,1.5,4.5c0.3,1.5,0.3,3.1,0.3,4.7l0,9.2l-0.1,18.4l0,9.2
								c0.1,3.1-0.7,6.2-2.2,8.9c-1.5,2.7-3.7,5-6.4,6.6C-1311.6,1535-1314.7,1535.8-1317.7,1535.8L-1317.7,1535.8z M-1317.7,1535.5
								c3-0.1,6.1-0.8,8.6-2.4c2.6-1.5,4.7-3.8,6.2-6.4c1.4-2.7,2.2-5.7,2.1-8.7l0-9.2l-0.1-18.4l0-9.2c0-1.6-0.1-3-0.3-4.5
								c-0.3-1.4-0.8-2.9-1.4-4.2c-1.3-2.7-3.4-4.9-5.9-6.6c-2.5-1.6-5.4-2.6-8.3-2.6c-6.1,0-12.2,0.1-18.3,0.1l-36.7,0.3
								c-49,0.5-98,0.7-147,0.6c-98,0.2-195.9-0.3-293.9-0.8c-2.9,0-5.8,0.7-8.3,2.2c-2.5,1.4-4.6,3.6-6,6.2
								c-1.4,2.6-2.2,5.4-2.1,8.4l-0.1,9.2l-0.1,18.4l0,9.2c0,1.6,0,3,0.3,4.5c0.3,1.4,0.7,2.9,1.4,4.2c1.3,2.7,3.3,4.9,5.8,6.6
								c2.5,1.6,5.4,2.6,8.3,2.7c6.1,0.1,12.2,0.1,18.3,0.1l36.7-0.1l36.7-0.1l36.7-0.2l73.5-0.5c49-0.2,98-0.1,147,0.3l73.5,0.6
								C-1366.7,1535.4-1342.2,1535.4-1317.7,1535.5L-1317.7,1535.5z"/>
							<path class="st6" d="M-1317.7,1715c-24.5,0.1-49,0.1-73.5,0.3l-73.5,0.6c-49,0.4-98,0.5-147,0.4l-73.5-0.5l-36.7-0.2
								l-36.7-0.1l-36.7-0.1c-6.1,0-12.2,0.1-18.4,0c-3.2-0.1-6.3-1.2-8.9-2.9c-2.6-1.8-4.8-4.2-6.2-7c-0.7-1.4-1.2-2.9-1.5-4.5
								c-0.3-1.6-0.3-3.2-0.3-4.7l0-9.2l-0.1-18.4l-0.1-9.2c-0.1-3.2,0.7-6.4,2.2-9.2c1.6-2.8,3.8-5.2,6.6-6.9
								c2.7-1.7,6-2.5,9.2-2.6c98-0.5,195.9-1,293.9-0.8c49,0,98,0.2,147,0.6l36.7,0.3c6.1,0.1,12.2,0.1,18.4,0.2
								c3.2,0.1,6.3,1.2,8.9,3c2.6,1.8,4.8,4.2,6.1,7.1c0.7,1.4,1.2,2.9,1.5,4.5c0.3,1.5,0.3,3.1,0.3,4.7l0,9.2l-0.1,18.4l0,9.2
								c0.1,3.1-0.7,6.2-2.2,8.9c-1.5,2.7-3.7,5-6.4,6.6C-1311.6,1714.2-1314.7,1714.9-1317.7,1715L-1317.7,1715z M-1317.7,1714.6
								c3-0.1,6.1-0.8,8.6-2.4c2.6-1.5,4.7-3.8,6.2-6.4c1.4-2.7,2.2-5.7,2.1-8.7l0-9.2l-0.1-18.4l0-9.2c0-1.6-0.1-3-0.3-4.5
								c-0.3-1.4-0.8-2.9-1.4-4.2c-1.3-2.7-3.4-4.9-5.9-6.6c-2.5-1.6-5.4-2.6-8.3-2.6c-6.1,0-12.2,0.1-18.3,0.1l-36.7,0.3
								c-49,0.5-98,0.7-147,0.6c-98,0.2-195.9-0.3-293.9-0.8c-2.9,0-5.8,0.7-8.3,2.2c-2.5,1.4-4.6,3.6-6,6.2
								c-1.4,2.6-2.2,5.4-2.1,8.4l-0.1,9.2l-0.1,18.4l0,9.2c0,1.6,0,3,0.3,4.5c0.3,1.4,0.7,2.9,1.4,4.2c1.3,2.7,3.3,4.9,5.8,6.6
								c2.5,1.6,5.4,2.6,8.3,2.7c6.1,0.1,12.2,0.1,18.3,0.1l36.7-0.1l36.7-0.1l36.7-0.2l73.5-0.5c49-0.2,98-0.1,147,0.4l73.5,0.6
								C-1366.7,1714.6-1342.2,1714.5-1317.7,1714.6L-1317.7,1714.6z"/>
							<path class="st6" d="M-1317.7,1893.7c-24.5,0.1-49,0.1-73.5,0.3l-73.5,0.6c-49,0.4-98,0.5-147,0.4l-73.5-0.5l-36.7-0.2
								l-36.7-0.1l-36.7-0.1c-6.1,0-12.2,0.1-18.4,0c-3.2-0.1-6.3-1.2-8.9-2.9c-2.6-1.8-4.8-4.2-6.2-7c-0.7-1.4-1.2-2.9-1.5-4.5
								c-0.3-1.6-0.3-3.2-0.3-4.7l0-9.2l-0.1-18.4l-0.1-9.2c-0.1-3.1,0.7-6.4,2.2-9.2c1.6-2.8,3.8-5.2,6.6-6.9
								c2.7-1.7,6-2.5,9.2-2.6c98-0.5,195.9-1,293.9-0.8c49,0,98,0.2,147,0.6l36.7,0.3c6.1,0.1,12.2,0.1,18.4,0.2
								c3.2,0.1,6.3,1.2,8.9,3c2.6,1.8,4.8,4.2,6.1,7.1c0.7,1.4,1.2,2.9,1.5,4.5c0.3,1.5,0.3,3.1,0.3,4.6l0,9.2l-0.1,18.4l0,9.2
								c0.1,3.1-0.7,6.2-2.2,8.9c-1.5,2.7-3.7,5-6.4,6.6C-1311.6,1892.9-1314.7,1893.6-1317.7,1893.7L-1317.7,1893.7z
								 M-1317.7,1893.3c3-0.1,6.1-0.8,8.6-2.4c2.6-1.5,4.7-3.8,6.2-6.4c1.4-2.7,2.2-5.7,2.1-8.7l0-9.2l-0.1-18.4l0-9.2
								c0-1.6-0.1-3-0.3-4.5c-0.3-1.4-0.8-2.9-1.4-4.2c-1.3-2.7-3.4-4.9-5.9-6.6c-2.5-1.6-5.4-2.6-8.3-2.6c-6.1,0-12.2,0.1-18.3,0.1
								l-36.7,0.3c-49,0.5-98,0.6-147,0.6c-98,0.2-195.9-0.3-293.9-0.8c-2.9,0-5.8,0.7-8.3,2.2c-2.5,1.4-4.6,3.6-6,6.1
								c-1.4,2.6-2.2,5.4-2.1,8.4l-0.1,9.2l-0.1,18.4l0,9.2c0,1.6,0,3,0.3,4.5c0.3,1.4,0.7,2.9,1.4,4.2c1.3,2.7,3.3,4.9,5.8,6.6
								c2.5,1.6,5.4,2.6,8.3,2.7c6.1,0.1,12.2,0.1,18.3,0.1l36.7-0.1l36.7-0.1l36.7-0.2l73.5-0.5c49-0.2,98-0.1,147,0.4l73.5,0.6
								C-1366.7,1893.2-1342.2,1893.2-1317.7,1893.3L-1317.7,1893.3z"/>
							<path class="st6" d="M-1317.7,2072.4c-24.5,0.1-49,0.1-73.5,0.3l-73.5,0.6c-49,0.4-98,0.5-147,0.4l-73.5-0.5l-36.7-0.2
								l-36.7-0.1l-36.7-0.1c-6.1,0-12.2,0.1-18.4,0c-3.2-0.1-6.3-1.2-8.9-2.9c-2.6-1.8-4.8-4.2-6.2-7c-0.7-1.4-1.2-2.9-1.5-4.5
								c-0.3-1.6-0.3-3.2-0.3-4.7l0-9.2l-0.1-18.4l-0.1-9.2c-0.1-3.1,0.7-6.4,2.2-9.2c1.6-2.8,3.8-5.2,6.6-6.9
								c2.7-1.7,6-2.5,9.2-2.6c98-0.5,195.9-1,293.9-0.8c49,0,98,0.2,147,0.6l36.7,0.3c6.1,0.1,12.2,0.1,18.4,0.2
								c3.2,0.1,6.3,1.2,8.9,3c2.6,1.8,4.8,4.2,6.1,7.1c0.7,1.4,1.2,2.9,1.5,4.5c0.3,1.5,0.3,3.1,0.3,4.6l0,9.2l-0.1,18.4l0,9.2
								c0.1,3.1-0.7,6.2-2.2,8.9c-1.5,2.7-3.7,5-6.4,6.6C-1311.6,2071.6-1314.7,2072.3-1317.7,2072.4L-1317.7,2072.4z M-1317.7,2072
								c3-0.1,6.1-0.8,8.6-2.4c2.6-1.5,4.7-3.8,6.2-6.4c1.4-2.7,2.2-5.7,2.1-8.7l0-9.2l-0.1-18.4l0-9.2c0-1.6-0.1-3-0.3-4.5
								c-0.3-1.4-0.8-2.9-1.4-4.2c-1.3-2.7-3.4-4.9-5.9-6.6c-2.5-1.6-5.4-2.6-8.3-2.6c-6.1,0-12.2,0.1-18.3,0.1l-36.7,0.3
								c-49,0.5-98,0.6-147,0.6c-98,0.2-195.9-0.3-293.9-0.8c-2.9,0-5.8,0.7-8.3,2.2c-2.5,1.4-4.6,3.6-6,6.1
								c-1.4,2.6-2.2,5.4-2.1,8.4l-0.1,9.2l-0.1,18.4l0,9.2c0,1.6,0,3,0.3,4.5c0.3,1.4,0.7,2.9,1.4,4.2c1.3,2.7,3.3,4.9,5.8,6.6
								c2.5,1.6,5.4,2.6,8.3,2.7c6.1,0.1,12.2,0.1,18.3,0.1l36.7-0.1l36.7-0.1l36.7-0.2l73.5-0.5c49-0.2,98-0.1,147,0.4l73.5,0.6
								C-1366.7,2071.9-1342.2,2071.9-1317.7,2072L-1317.7,2072z"/>
							<path class="st6" d="M-1317.7,2251c-24.5,0.1-49,0.1-73.5,0.3l-73.5,0.6c-49,0.4-98,0.5-147,0.4l-73.5-0.5l-36.7-0.2
								l-36.7-0.1l-36.7-0.1c-6.1,0-12.2,0.1-18.4,0c-3.2-0.1-6.3-1.2-8.9-2.9c-2.6-1.8-4.8-4.2-6.2-7c-0.7-1.4-1.2-2.9-1.5-4.5
								c-0.3-1.6-0.3-3.2-0.3-4.7l0-9.2l-0.1-18.4l-0.1-9.2c-0.1-3.1,0.7-6.4,2.2-9.2c1.6-2.8,3.8-5.2,6.6-6.9
								c2.7-1.7,6-2.5,9.2-2.6c98-0.5,195.9-1,293.9-0.8c49,0,98,0.2,147,0.6l36.7,0.3c6.1,0.1,12.2,0.1,18.4,0.2
								c3.2,0.1,6.3,1.2,8.9,3c2.6,1.8,4.8,4.2,6.1,7.1c0.7,1.4,1.2,2.9,1.5,4.5c0.3,1.5,0.3,3.1,0.3,4.6l0,9.2l-0.1,18.4l0,9.2
								c0.1,3.1-0.7,6.2-2.2,8.9c-1.5,2.7-3.7,5-6.4,6.6C-1311.6,2250.3-1314.7,2251-1317.7,2251L-1317.7,2251z M-1317.7,2250.7
								c3-0.1,6.1-0.8,8.6-2.4c2.6-1.5,4.7-3.8,6.2-6.4c1.4-2.7,2.2-5.7,2.1-8.7l0-9.2l-0.1-18.4l0-9.2c0-1.6-0.1-3-0.3-4.5
								c-0.3-1.4-0.8-2.9-1.4-4.2c-1.3-2.7-3.4-4.9-5.9-6.6c-2.5-1.6-5.4-2.6-8.3-2.6c-6.1,0-12.2,0.1-18.3,0.1l-36.7,0.3
								c-49,0.5-98,0.6-147,0.6c-98,0.2-195.9-0.3-293.9-0.8c-2.9,0-5.8,0.7-8.3,2.2c-2.5,1.4-4.6,3.6-6,6.1
								c-1.4,2.6-2.2,5.4-2.1,8.4l-0.1,9.2l-0.1,18.4l0,9.2c0,1.6,0,3,0.3,4.5c0.3,1.4,0.7,2.9,1.4,4.2c1.3,2.7,3.3,4.9,5.8,6.6
								c2.5,1.6,5.4,2.6,8.3,2.7c6.1,0.1,12.2,0.1,18.3,0.1l36.7-0.1l36.7-0.1l36.7-0.2l73.5-0.5c49-0.2,98-0.1,147,0.4l73.5,0.6
								C-1366.7,2250.6-1342.2,2250.6-1317.7,2250.7L-1317.7,2250.7z"/>
							<path class="st12" d="M-1975.7,1533.9c-1.2,0-2.3-0.4-3.3-1.2l-22.5-18.5c-2.2-1.8-2.5-5-0.7-7.2c1-1.2,2.4-1.9,4-1.9
								c1.2,0,2.3,0.4,3.3,1.2l18.5,15.2l71.2-85.2c1-1.2,2.4-1.8,3.9-1.8c1.2,0,2.4,0.4,3.3,1.2c2.2,1.8,2.5,5.1,0.7,7.2
								l-74.4,89.2C-1972.7,1533.2-1974.2,1533.9-1975.7,1533.9L-1975.7,1533.9z"/>
							<path class="st12" d="M-1975.7,1712.8c-1.2,0-2.3-0.4-3.3-1.2l-22.5-18.5c-1.1-0.9-1.7-2.1-1.8-3.5c-0.1-1.4,0.3-2.7,1.1-3.8
								c1-1.2,2.4-1.9,4-1.9c1.2,0,2.3,0.4,3.3,1.2l18.5,15.2l71.2-85.2c1-1.2,2.4-1.8,3.9-1.8c1.2,0,2.4,0.4,3.3,1.2
								c2.2,1.8,2.5,5.1,0.7,7.2l-74.4,89.2C-1972.7,1712.2-1974.2,1712.8-1975.7,1712.8L-1975.7,1712.8z"/>
							<path class="st12" d="M-1975.7,1891.5c-1.2,0-2.3-0.4-3.3-1.2l-22.5-18.5c-1.1-0.9-1.7-2.1-1.8-3.5c-0.1-1.4,0.3-2.7,1.1-3.8
								c1-1.2,2.4-1.9,4-1.9c1.2,0,2.3,0.4,3.3,1.2l18.5,15.2l71.2-85.2c1-1.2,2.4-1.9,3.9-1.9c1.2,0,2.4,0.4,3.3,1.2
								c1.1,0.9,1.7,2.1,1.8,3.5c0.1,1.4-0.3,2.7-1.2,3.8l-74.4,89.2C-1972.7,1890.9-1974.2,1891.5-1975.7,1891.5L-1975.7,1891.5z"
								/>
							<path class="st12" d="M-1975.7,2070.2c-1.2,0-2.3-0.4-3.3-1.2l-22.5-18.5c-2.2-1.8-2.5-5-0.7-7.2c1-1.2,2.4-1.9,4-1.9
								c1.2,0,2.3,0.4,3.3,1.2l18.5,15.2l71.2-85.2c1-1.2,2.4-1.8,3.9-1.8c1.2,0,2.4,0.4,3.3,1.2c2.2,1.8,2.5,5.1,0.7,7.2
								l-74.4,89.2C-1972.7,2069.6-1974.2,2070.2-1975.7,2070.2L-1975.7,2070.2z"/>
							<path class="st12" d="M-1975.7,2248.9c-1.2,0-2.3-0.4-3.3-1.2l-22.5-18.5c-2.2-1.8-2.5-5-0.7-7.2c1-1.2,2.4-1.9,4-1.9
								c1.2,0,2.3,0.4,3.3,1.2l18.5,15.2l71.2-85.2c1-1.2,2.4-1.9,3.9-1.9c1.2,0,2.4,0.4,3.3,1.2c2.2,1.8,2.5,5.1,0.7,7.2
								l-74.4,89.2C-1972.7,2248.2-1974.2,2248.9-1975.7,2248.9L-1975.7,2248.9z"/>
							<path class="st9" d="M-1832.5,1042h359.2c5,0,9,4,9,9v35.2c0,5-4,9-9,9h-359.2c-5,0-9-4-9-9V1051
								C-1841.5,1046-1837.5,1042-1832.5,1042z"/>
							<g>
								<path class="st13" d="M-1814,1194.3l-2.1,31.4l24.6-2.6l2.1-29.9l12.7,1.1l-5.1,72.2l-12.7-1.1l2.6-35.7l-24.6,2.6
									l-2.6,35.7l-12.7-1.1l5.1-73.7L-1814,1194.3L-1814,1194.3z"/>
								<path class="st13" d="M-1674,1203.7c6.2,6.9,9.3,15.6,9.3,26.1c0,11-3.3,20.2-10,27.4s-14.8,10.8-24.4,10.8
									s-17.7-3.5-24.5-10.4c-6.9-6.9-10.3-15.9-10.3-27s3.2-19.8,9.8-26.9c6.5-7,14.9-10.5,25.1-10.5S-1680.2,1196.7-1674,1203.7z
									 M-1714,1209.2c-4.7,6.1-7.1,15.5-7.1,28.2c0,7.4,2.2,13.2,6.7,17.4s9.4,6.4,15,6.4c6.2,0,11.5-3.5,15.7-10.5
									s6.4-15.4,6.4-25.2c0-8.8-1.8-15.2-5.5-19.3c-3.7-4.1-8.6-6.2-14.9-6.2S-1709.2,1203.1-1714,1209.2L-1714,1209.2z"/>
								<path class="st13" d="M-1555.4,1268l-4-58.2l-22.5,55.6l-12.7,1.1l-10-49.5l-12.1,50.9l-7-2.3l17-71.3l12.7-1.1l11,56.9
									l22.5-55.8l12.7-1.1l5.1,73.7L-1555.4,1268L-1555.4,1268z"/>
								<path class="st13" d="M-1457.8,1197.1l-0.6,6.4l-25.7-2.8l-1.7,24.6l25.3,2.6l-0.6,6.4l-25.3-2.3l-1.9,28.2l28.7-3l0.6,6.4
									l-42.7,4.5l5.3-74.7L-1457.8,1197.1L-1457.8,1197.1z"/>
							</g>
						</g>
						<path class="st14" d="M-970,2231.1c-5-11.1-10-22.1-15.1-33.1c-8.4-18-18.1-36.4-25.2-55.2c-0.8-2.2-1.6-4.5-2.4-6.7
							c-6.4-19-2.1-37.5-7-56.8c-4.3-16.6-13.6-27.8-13.4-45.7c0.5-44.2,4.1-88.4,3.8-132.6c-0.2-36.2-0.7-72.5-5-108.5
							c-1.1-9.6-2.7-19.4-7.8-27.5c-6.4-10-17.4-16-28-21.6c-29.3-15.4-59-30.9-91-39.5c-15.3-4.1-31.1-6.5-46-11.9
							c-27.3-9.9-54.6-29.7-82.4-21.5c-10.1,3-18.7,9.4-27.1,15.6c-22.1,16.5-44.2,33.1-66.3,49.6c-3.2,2.4-6.4,5-9.4,7.8
							c-13.9,17.3,0.1,29.5,0.1,29.5c16.4,12.9,29.6,9.5,31.1,9c5.4-1.7,10.6-4.1,15.8-6.4c16.4-7.4,32.9-14.9,49.3-22.3
							c8.4,12.9,20.5,23.5,34.4,30.2c4.7,2.3,9.9,4.3,13,8.5c2.1,2.8,3,6.3,3.6,9.8c3.4,20.4-5.7,42.3-22.5,54.3
							c-16.8,12-40.4,13.6-58.7,3.9c-13.4-7.2-23.6-19.6-37.7-25.3c-4.2-1.7-8.9-2.8-12.3-6c-7.4-7-4.5-19-6-29.2
							c-2.1-10.5-13.5-20.1-13.5-20.1c-11.1-8.4-21.9-6.7-26.7-5.3c-1.8,0.6-3.7,1.3-5.8,2.3c-1.6,1-39.6,25.9-32.5,81.6
							c0,0-0.4,35.3,39.3,71.3c3.3,2.5,6.5,5.2,9.6,8.1c0.1,0.1,0.1,0.1,0.2,0.1c14.3,13.3,25.8,29.7,33.2,47.8
							c6.5,15.9,9.9,32.9,14.2,49.5c27.4,70.3,112.1,99.6,112.1,99.7c33.4,11.5,66,31.6,89.7,58c19.4,21.7,28.4,49.8,39.8,76.1
							c0.9,2.1,4.2,10.1,8.9,21.2l14.3,30.2l143.5-64.7L-970,2231.1L-970,2231.1z"/>
						<path class="st15" d="M-1126.9,1794.5c-0.5-10.6-1.4-21.2-2.7-31.8c-0.2-1.6-0.4-3.2-0.7-4.9c-3-16.3-19.7-25.6-19.7-25.6
							l-63.4-42.6l0,0c-9.3-3.8-18.6-8.4-27.9-12.3c1.8,3.4,7.5,6.5,9.9,8.3c11.3,8.4,22.4,17.1,33.1,26.2
							c11.9,10.2,23.5,20.8,34.6,31.8c3.8,3.8,7.7,7.7,10.5,12.4c2.9,4.8,4.7,10.1,6.5,15.4c2.5,7.4,4.9,14.9,7.4,22.3
							c0.8,2.4,1.7,5,3.6,6.8c1.8,1.8,5,2.5,7,0.9C-1126.8,1800-1126.7,1797-1126.9,1794.5L-1126.9,1794.5z"/>
						<path class="st15" d="M-1086.9,1780.6c1.5-7.4,0.6-14.9-0.3-22.1c-0.8-6.2-1.6-12.4-4.1-17.9c-5.5-11.8-18.1-17.6-30.1-22.1
							c-2.5-0.9-4.8-2.4-7.3-3.5c-1.5-0.6-3.1-1.3-4.7-1.4c-0.6,0-1.4-0.1-1.9,0.5c-1.4,1.9,3.2,3.7,4.4,4.4
							c1.4,0.9,2.9,1.7,4.3,2.6c8.7,4.6,17.6,9.5,22.9,17.9c7.6,12,6.4,28.7,12.6,41.7c0.6,1.4,2.2,2.8,3.4,1.7
							C-1087.2,1781.8-1087,1781.2-1086.9,1780.6L-1086.9,1780.6z"/>
						<path class="st15" d="M-1051.1,1767.7c-0.5-2.1-1.1-4.1-2.1-6c-1.4-2.9-3.6-5.3-5.8-7.6c-2.6-2.8-5.3-5.5-8.2-7.9
							c-6.3-4.9-14-8.1-14-8.1c-1.7,0.7,0.9,2.3,2.1,3.1c3.4,2.1,6.3,5.1,8.9,8.1c4.5,5.1,8.2,10.9,11.3,17
							c1.8,3.4,3.4,6.9,4.9,10.5c0.6,1.3,2.9,6,4.6,4.3C-1047.1,1778.8-1050.5,1770.2-1051.1,1767.7L-1051.1,1767.7z"/>
						<path class="st15" d="M-1245.5,1905.6c5.2-4.7,8.5-11.1,10.7-17.6c2.2-6.5,3.5-13.2,4.8-20c1.4-7.8,2.9-15.5,4.4-23.3
							c1.6-8.7,3.2-17.9,0.3-26.3c-1.9-5.6-5.7-10.3-9.5-14.8c-3.2-3.8-6.5-7.6-10.8-10.1l-2.6-0.4c1.7,2.7,2.6,5.8,3.1,9
							c3.4,20.4-5.7,42.3-22.5,54.3c-16.8,12-40.4,13.6-58.7,3.9c-13.4-7.2-23.6-19.6-37.7-25.3c-4.2-1.7-8.8-2.8-12.1-5.9
							c-0.3,0.8-0.5,1.6-0.7,2.5c-0.3,1.4-0.3,3,0.3,4.3c0.6,1.3,1.8,2.3,2.9,3.2c13.1,10.4,25,22.3,35.5,35.4
							c3.7,4.6,7.3,9.5,12.2,12.9c7.6,5.4,17.2,6.6,26.2,9.1c7.1,2,14,4.9,20.4,8.6c4.7,2.7,9.3,5.9,14.6,6.9
							C-1257.8,1913.1-1250.6,1910.3-1245.5,1905.6L-1245.5,1905.6z"/>
						<path class="st9" d="M-986.3,2039.3c4.2,2.5,8.6,0.7,9.8,0.1c37-21.6,37.3-52.2,34.7-67.1c-0.8-6.5-9.4-12.1-9.4-12.1
							l-354.4-164.3l-41.6-19.3c-4.6,2.1-9.3,4.1-14.1,5.6c-1.5,0.4-14.7,3.9-31.1-9c0,0-9-7.9-5.3-20l-58.6-27.1l-36.4-0.6
							l21.4,25.8l42.9,25.5c0.1,0,0.1-0.1,0.2-0.1c2-0.9,3.9-1.7,5.8-2.3c4.8-1.4,15.6-3.1,26.7,5.3c0,0,11.5,9.6,13.5,20.1
							c0.2,1.5,0.4,3.1,0.4,4.6l99.8,59.3l0,0l249.4,148.2L-986.3,2039.3L-986.3,2039.3L-986.3,2039.3z"/>
						
							<ellipse transform="matrix(0.5093 -0.8606 0.8606 0.5093 -2198.7068 153.252)" class="st16" cx="-965" cy="2004.8" rx="33.7" ry="13.1"/>
						
							<ellipse transform="matrix(0.5093 -0.8606 0.8606 0.5093 -2198.7068 153.252)" class="st16" cx="-965" cy="2004.8" rx="33.7" ry="13.1"/>
						<path class="st17" d="M-957,2009.4c-7.8,13.1-17.7,21.7-22.1,19.1c-4.4-2.6-1.7-15.4,6.1-28.5c7.8-13.1,17.7-21.7,22.1-19.1
							C-946.5,1983.5-949.2,1996.3-957,2009.4z"/>
						<polygon class="st18" points="-1456.2,1726 -1471.2,1751.2 -1481.5,1738.8 -1473.6,1725.7 						"/>
						<polygon class="st17" points="-1473.6,1725.7 -1481.5,1738.8 -1485.3,1734.2 -1480.1,1725.6 						"/>
						<path class="st19" d="M-1419,1835.7c6.3-13.3,12.5-26.7,18.8-40c1.2-2.5,2.4-5.2,2.3-8c-0.1-3.5-2.3-6.6-4.8-9.1
							c-8.2-8-18.1-6.7-26.8-1.8c-6.2,3.5-11.5,8.7-15.9,14.2c-2.2,2.8-4.2,5.7-6.1,8.7c-2.7,4.4-4.9,9.1-6.6,14
							c-0.8,2.4-1.6,4.8-2.2,7.3c-0.5,1.9-1.5,4.6,0.3,6.3c0.5,0.5,1.1,0.9,1.7,1.3c9.6,6.7,21.2,10.6,32.9,10.9
							c1.4,0,2.9,0,4.1-0.8C-1420.2,1838.2-1419.6,1836.9-1419,1835.7L-1419,1835.7z"/>
						<path class="st19" d="M-1347.9,1733.4c0.2-1-0.1-2-0.3-2.9c-0.9-3.3-2.2-6.6-4.3-9.2c-6.8-8.4-12.8-1.5-19.2,3.5
							c-7.1,5.5-13.9,11.5-20.3,17.9c-3.4,3.5-13.1,14.6-7.5,22.5c0,0,2.7,3.2,5,2.4c16.9-6.1,30.7-18.4,44-30.4
							C-1349.4,1736-1348.2,1734.9-1347.9,1733.4L-1347.9,1733.4z"/>
						<path class="st15" d="M-970,2231.1c-5-11.1-10-22.1-15.1-33.1c-6.5-14.1-13.9-28.3-20.1-42.9c-0.9-2-1.7-4-2.5-6
							c-0.9-2.1-1.7-4.2-2.5-6.3c0,0,0,0,0-0.1c0-0.1,0-0.1-0.1-0.2c-0.1-0.3-0.2-0.6-0.3-0.8c-0.7-1.9-1.4-3.8-2.1-5.8
							c-6.4-19-2.1-37.5-7-56.8c-2.9-11.4-8.2-20.2-11.2-30.4c-1.3,0.4-2.3,1.7-3,4.3c-3.4,12.4,6.7,24.7,6.2,37.5
							c-0.4,9.3-6.4,17.9-5.6,27.2c0,0,1.8,36.6-15.7,45.7c-7.6,4-15.3,7.9-23,11.8c-6.7,3.4-13.6,6.8-20.8,8.7
							c-0.1,0-0.3,0.1-0.4,0.1c-15.3,4.5-31.4,1.9-45.4-5.4c-10.1-5.3-17.5-14.1-26.4-21.1c-10-7.8-21.4-13.9-32.4-20.2
							c-25.5-14.7-55.8-30-85.3-17.2c17.6,9.8,30.7,14.4,30.7,14.4c33.4,11.5,66,31.6,89.7,58c19.4,21.7,28.4,49.8,39.8,76.1
							c0.9,2.1,4.2,10.1,8.9,21.2l14.3,30.2l143.5-64.7L-970,2231.1L-970,2231.1z"/>
						<path class="st9" d="M-1061.6,2502.5h278.2l-144.9-268.5c-1.2-2.1-3.8-3-6-1.9l-190.9,92.9c-2.1,1-3.1,3.5-2.2,5.7
							L-1061.6,2502.5L-1061.6,2502.5z"/>
						<path class="st10" d="M-995.9,2163.6l-106.7,51.5c0,0-4.5,1.3-3.8,5.1l23.8,74.4c0,0,0.4,9.1-7-1.5l-30.7-60.3
							c0,0-2.4-5.2-5.9-4.2l-17.7,8.5c0,0-3.9,2.3-2.2,6.6l30.5,76.5l172.5-84l-35.3-70.6C-978.3,2165.7-981.4,2157.8-995.9,2163.6
							L-995.9,2163.6z"/>
						<path class="st6" d="M-1084.7,2288.1l2.1,6.5c0,0,0.4,9.1-7-1.5l-1-2l-30.4,15.2l5.6,13.9l172.5-84l-7.6-15.2L-1084.7,2288.1
							L-1084.7,2288.1z"/>
						<path class="st20" d="M-1419,1835.7c-0.6,1.2-1.2,2.5-2.3,3.2c-1.2,0.8-2.7,0.8-4.1,0.8c-11.7-0.4-23.3-4.2-32.9-10.9
							c-0.6-0.4-1.2-0.9-1.7-1.3c-0.2-0.1-0.3-0.3-0.4-0.4c-0.5,2.4,0.7,5.4,2.1,6.9c2.1,2.3,5.1,3.5,7.9,4.6
							c8.2,3.2,16.5,6.3,25.3,6.5c1.7,0,3.5,0,5.1-0.8c3.3-1.6,4.4-5.6,5.2-9.1c0.6-2.4,0.9-5.3-0.6-7.1
							C-1416.6,1830.6-1417.8,1833.1-1419,1835.7L-1419,1835.7z"/>
						<path class="st20" d="M-1343.3,1728.1c-0.5-2.6-1.8-5-3.3-7.2c-0.9-1.4-4.3-5.3-7.2-6.9c-1.4,1.1-2.8,2.1-4.2,3.2
							c0,0.1,0.1,0.1,0.1,0.2c1.8,0.3,3.6,1.5,5.5,3.8c2.2,2.7,3.4,5.9,4.3,9.2c0.3,1,0.5,2,0.3,2.9c-0.3,1.5-1.5,2.6-2.6,3.6
							c-0.6,0.5-1.2,1.1-1.8,1.6c0.2,0.1,0.5,0.2,0.8,0.3c2.6,0.5,5.4-0.9,6.8-3.1S-1342.8,1730.8-1343.3,1728.1L-1343.3,1728.1z"/>
						<path class="st14" d="M-1885,1833.1c-6.2-5-16.9-6.4-24.6-6.4c-39.8,5.2-60.2,49.8-86.3,78.3c-13.2,14.4-31.6,51-31.6,51
							c-4.5,5.9-9.8,11.9-16.2,15c-8.2,4-20-1.2-26.5-7.2c-5.4-5-9.8-11.4-13.2-18.3c-18.5-37.6-23.2-82-23.9-125.1
							s2-86.5-3.2-129.2c-8.6,4.2-17.3,8.7-25.3,14.3c-3,2.5-6.6,6-10.1,10.9c-9.3,10.9-15.9,24.2-18.5,38.3
							c-2.3,12.6-1.8,25.9-6.9,37.6c-3.4,7.7-8.9,14.2-13,21.5c-4.3,7.8-6.8,16.5-7.2,25.4c-0.5,9.7,1.4,19.6-0.8,29
							c-2.2,9.7-8.4,18.3-9.6,28.2c-1.2,10.2,3.3,20.2,4.2,30.4c1,11.8-2.8,23.4-3.5,35.2c-0.6,9.4,0.8,18.8,1.2,28.1
							c0.5,11.4-0.4,22.9-1.3,34.2c-1,12.8-2,25.6-5.1,38.1c-2,8.3-4.9,16.3-5.9,24.8c-1.1,9.2,0.1,18.5,1.8,27.7
							c-9.1,26.4-20.2,52.5-30.3,78.9l-30.6,59.5l133.5,67.1l28.5-58.7c5-8.5,10.4-16.7,16.4-24.5c19.1-24.5,44.5-43.4,65.5-66.3
							c36.9-40.4,58.6-92.4,68.9-146.4c0.1,0,0.1,0,0.2,0c0-0.4,0-0.8,0-1.1c1.3-7.1,2.4-14.1,3.3-21.2c1.1-3.9,2.4-7.6,3.8-11
							c8.2-14.3,16.7-28.4,25.1-42.6c8-13.4,16-22.3,26.7-33.6c9.8-10.3,20.5-22.2,26.4-35.4
							C-1865.7,1863.2-1871.6,1844.2-1885,1833.1L-1885,1833.1z"/>
						<path class="st21" d="M-1876.9,1847.8c-5.5-11-15.3-17.3-26.4-18.1c-2.7-0.2-5.5-0.2-8.2,0.3c-2.8,0.6-4.8,2.9-6.9,5
							c-8.8,8.5-17.7,17.1-24.2,27.9c-0.6,0.9-1.1,1.9-1.2,3.1c-0.1,1.1,0.4,2.1,0.9,3.1c6.4,13.4,17.1,23.9,29.7,29.3
							c2.1,0.9,4.3,1.6,6.5,1.2c1.9-0.4,3.7-1.7,5.2-3c5.1-4.2,9.7-9,13.9-14.4c2.6-3.3,4.8-6.8,7.1-10.3c1.1-1.8,2.3-3.5,3.5-5.2
							c1.5-2.3,2.9-3.8,2.8-6.8c0-2.7-0.7-5.3-1.3-7.8C-1875.5,1851.9-1875.9,1850.3-1876.9,1847.8L-1876.9,1847.8z"/>
						<path class="st20" d="M-1941.6,1856.7c0.9-0.9,1.8-1.9,3-2.1c0.6-0.1,1.1,0,1.7,0.1c-2,2.6-3.9,5.3-5.6,8.1
							c-0.6,0.9-1.1,1.9-1.2,3.1c-0.1,1.1,0.4,2.1,0.9,3.1c6.4,13.4,17.1,23.9,29.7,29.3c2.1,0.9,4.3,1.6,6.5,1.2
							c1.9-0.4,3.7-1.7,5.2-3c2.6-2.1,5.1-4.5,7.4-6.9c0.1,0.8,0,1.6-0.3,2.4c-1.8,5.3-7.1,9.5-11.8,11.2c-4.7,1.7-10,1.3-14.5-1
							c-3.3-1.7-6.1-4.4-8.9-7.1c-6.4-6.1-12.9-12.4-16.8-20.8c-0.8-1.8-1.5-3.6-1.6-5.6C-1947.9,1863.9-1944.6,1860-1941.6,1856.7
							L-1941.6,1856.7z"/>
						<path class="st15" d="M-1995.3,1904.4c-0.2,0.2-0.3,0.4-0.5,0.6c-13.2,14.4-31.6,51-31.6,51c-4.5,5.9-9.8,11.9-16.2,15
							c-8.2,4-20-1.2-26.5-7.2c-2.1-1.9-4-4.1-5.8-6.4c0,0,0,0,0,0c-2.2-2.8-4.1-5.8-5.8-8.8c0,0,0,0,0-0.1c-0.6-1-1.1-2-1.6-3.1
							c-18.5-37.6-23.2-82-23.9-125.1s2-86.5-3.2-129.2c-3.9,1.9-7.9,3.9-11.8,6.1c-2.6,27.8,0.6,57.9,1.6,85.4
							c0.8,19.7,1.7,39.4,2.7,59.2c1.7,35.1,3.7,71.1,16.9,102.8c4.5,10.8,10.2,20.8,16.6,30.3c0.2,1.8,6.2,5.4,7.4,6.3
							c5.9,4.5,12.3,8.4,19,11c8,3.1,16.6,4.5,25,2.6c30.5-7.1,18.1-53.2,34.2-74C-1998.9,1920.8-1993.9,1912.2-1995.3,1904.4z"/>
						<path class="st15" d="M-2030.9,2153.2c-13,4.1-23.7,13.1-34,22c-9.6,8.3-20.3,17.2-32.9,16.9c-5.9-0.1-11.6-2.4-17.1-4.6
							c-20.4-8.2-40.8-16.8-60.9-25.6c-4.3-1.9-8.9-4-11-8.2c-1.4-2.6-1.6-5.8-1.7-8.7c-1.8-37.6-0.8-75.3,2.9-112.7
							c1.3-13.3,3-26.7,0.7-39.8c-2.9-17.1-9-23.5-16.1-23.4c0.2,7,1,13.9,1.3,20.9c0.5,11.4-0.4,22.9-1.3,34.2
							c-1,12.8-2,25.6-5,38.1c-2,8.3-4.9,16.3-5.9,24.8c-1.1,9.2,0.1,18.5,1.8,27.7c-9.1,26.4-20.2,52.5-30.3,78.9l-30.6,59.5
							l133.5,67.1l28.5-58.7c5-8.5,10.4-16.7,16.4-24.5c19.1-24.5,44.5-43.4,65.5-66.3c5.6-6.1,10.8-12.5,15.7-19.1
							C-2018.1,2150.7-2024.8,2151.3-2030.9,2153.2L-2030.9,2153.2z"/>
						<path class="st9" d="M-2162.8,2502.5l65.9-171.8c0.8-2.2-0.1-4.7-2.2-5.7l-190.9-92.9c-2.2-1.1-4.8-0.2-6,1.9l-144.9,268.5
							H-2162.8L-2162.8,2502.5z"/>
						<path class="st10" d="M-2228.5,2163.6l106.7,51.5c0,0,4.5,1.3,3.8,5.1l-23.8,74.4c0,0-0.4,9.1,7-1.5l30.6-60.3
							c0,0,2.4-5.2,5.9-4.2l17.7,8.5c0,0,3.9,2.3,2.2,6.6l-30.5,76.5l-172.5-84l35.3-70.6
							C-2246.1,2165.7-2242.9,2157.8-2228.5,2163.6L-2228.5,2163.6z"/>
						<path class="st6" d="M-2139.7,2288.1l-2.1,6.5c0,0-0.4,9.1,7-1.5l1-2l30.4,15.2l-5.6,13.9l-172.5-84l7.6-15.2L-2139.7,2288.1
							L-2139.7,2288.1z"/>
						<path class="st9" d="M-2162.8,2502.5l65.9-171.8c0.8-2.2-0.1-4.7-2.2-5.7l-56.9-27.7l-88.1,205.2H-2162.8z"/>
						<path class="st9" d="M-1061.6,2502.5h81.4l-88.1-205.2l-56.9,27.7c-2.1,1-3.1,3.5-2.2,5.7L-1061.6,2502.5z"/>
					</g>
					<path class="st4" d="M772.1,1767.9L613.8,2025l-158.7,256.8l-79.2,128.5c-26.4,42.8-53,85.5-80,128l-40.5,63.7
						c-13.6,21.2-27.1,42.4-40.8,63.5c-27.3,42.3-54.8,84.4-82.7,126.3c-0.2,0.2-0.5,0.3-0.7,0.1c-0.2-0.2-0.3-0.5-0.2-0.7
						c25.4-43.5,51.3-86.6,77.3-129.7c13-21.6,26.1-43,39.2-64.5l39.5-64.3c26.4-42.8,53.1-85.5,80.1-128l80.9-127.5l161.4-255.1
						l161.9-254.9c0.2-0.2,0.5-0.3,0.7-0.2C772.1,1767.4,772.2,1767.7,772.1,1767.9L772.1,1767.9z"/>
					<path class="st4" d="M2017,1767.4l161.9,254.9l161.4,255.1l80.9,127.5c27,42.5,53.7,85.1,80.1,128l39.5,64.3
						c13.1,21.5,26.2,42.9,39.2,64.5c26.1,43.1,51.9,86.2,77.3,129.7c0.1,0.2,0.1,0.6-0.2,0.7c-0.2,0.1-0.6,0.1-0.7-0.2
						c-28-41.9-55.4-84-82.7-126.3c-13.7-21.1-27.2-42.3-40.8-63.5l-40.5-63.7c-26.9-42.5-53.6-85.2-80-128l-79.2-128.5L2174.3,2025
						l-158.3-257.1c-0.1-0.2-0.1-0.6,0.2-0.7C2016.5,1767.1,2016.8,1767.1,2017,1767.4L2017,1767.4z"/>
					<path class="st10" d="M674.2,1768l-67,64.8l-67.1,64.7l-134.5,129.2l-67.1,64.7c-22.4,21.6-45,42.9-67.8,64l-34.3,31.6
						c-11.5,10.4-23,20.9-34.5,31.3c-23.1,20.8-46.4,41.4-70,61.7c-0.2,0.2-0.6,0.2-0.8-0.1c-0.2-0.2-0.2-0.5,0-0.7
						c21.6-22.4,43.5-44.4,65.6-66.3c11-11,22.2-21.8,33.2-32.7l33.5-32.4c22.4-21.6,45-42.9,67.8-64l68.5-63.3l136.7-126.8
						l68.5-63.3l68.6-63.2c0.2-0.2,0.5-0.2,0.8,0C674.4,1767.5,674.4,1767.8,674.2,1768L674.2,1768z"/>
					<path class="st10" d="M2114.7,1767.3l68.6,63.2l68.5,63.3l136.7,126.8l68.5,63.3c22.8,21.1,45.4,42.4,67.8,64l33.5,32.4
						c11.1,10.9,22.2,21.7,33.2,32.7c22.1,21.9,44.1,43.9,65.6,66.3c0.2,0.2,0.2,0.6,0,0.8c-0.2,0.2-0.5,0.2-0.7,0
						c-23.6-20.2-46.9-40.9-70-61.7c-11.6-10.4-23-20.9-34.6-31.3l-34.3-31.6c-22.8-21.1-45.4-42.5-67.8-64l-67.1-64.7l-134.5-129.2
						l-67.1-64.7L2114,1768c-0.2-0.2-0.2-0.5,0-0.8C2114.1,1767.1,2114.5,1767,2114.7,1767.3L2114.7,1767.3z"/>
				</g>
			</g>
		</g>
	</g>
</g>
</svg>
