<?xml version="1.0" encoding="UTF-8"?>
<svg id="Calque_2" data-name="Calque 2" xmlns="http://www.w3.org/2000/svg" viewBox="0 0 3202.45 1869.93">
  <defs>
    <style>
      .cls-1 {
        fill: none;
        stroke: rgba(0, 0, 0, 0.189);
        stroke-miterlimit: 10;
        stroke-width: 4px;
      }

      .cls-2 {
      }
    </style>
  </defs>
  <g id="Layer_1" data-name="Layer 1">
    <g class="cls-2">
      <g>
        <path class="cls-1" d="m1368.41,1113.67l5.91-.88m187.65-28.13l63.12-9.44m-332.11,219.7l-71.11-142.57"/>
        <path class="cls-1" d="m1293.19,1251.47l-71.15-124.89m471.79,18.8l11.74,4.1m-11.72,6.56l11.74,4.33m0,0l-55.99,15.19m-182.13-34.51l-32.53,6.2m-60.8,11.56l-5.91,1.14"/>
        <path class="cls-1" d="m1295.29,1234.69l39.37-9.49m172.68-41.59l83.81-20.2"/>
        <path class="cls-1" d="m1591.15,1163.42l-34.37-15.97m-89.38,23.41l-4.23-2.77m0,0l-28.29,6.12m-60.84,13.12l-5.91,1.27m-33.32,7.21l-55.87,12.03m184.26-52.86l4.23-.86m0,3.45l-4.23-2.59m0,0l-.02,13.12m242.42-7.73l-.02-10.89m0,0l76.92,26.96m-76.89-16.07v10.86m-59.72-2.62l47.98-12.57m-.02-10.66l.02,10.66"/>
        <path class="cls-1" d="m1221.87,1152.35l.17-25.77m0,0l33.05-4.72m4.57,5.94l-4.57-5.94"/>
        <path class="cls-1" d="m1293.19,1251.47l-.21,43.45m346.58-108.29l-.02-11.61m-265.84,55.97l-80.5,20.48"/>
        <line class="cls-1" x1="1334.64" y1="1282.81" x2="1292.98" y2="1294.92"/>
        <path class="cls-1" d="m1625.11,1160.99l-117.79,29.14m-39.99,9.9l-99.33,24.58"/>
        <path class="cls-1" d="m1373.7,1230.99l-5.69-6.38m271.55-37.98l-4.52-2.1m4.52,2.1l10.05.57"/>
        <path class="cls-1" d="m1639.53,1175.01l10.07.54m-10.07-.54l-4.5-2m14.57,2.54v11.64"/>
        <path class="cls-1" d="m1223.16,940.36l37.53.08m740.28-1.97l-13.27-.13"/>
        <path class="cls-1" d="m1537.5,933.9l.1-99.56m-191.58,104.14l.19-51.39m-51.49,51.18l-71.56,2.07m71.56-2.07l.26-53.67"/>
        <line class="cls-1" x1="1223.16" y1="940.36" x2="1223.35" y2="908.37"/>
        <line class="cls-1" x1="1346.02" y1="938.49" x2="1294.72" y2="938.28"/>
        <line class="cls-1" x1="1546.16" y1="941.01" x2="1625.04" y2="941.21"/>
        <path class="cls-1" d="m1559.77,939.63l-37.19.31m0,0l-14.88-.05m559.23-23.13l-66.13-4.02"/>
        <line class="cls-1" x1="2066.93" y1="916.76" x2="2066.83" y2="901.47"/>
        <line class="cls-1" x1="2056.17" y1="939.76" x2="2000.97" y2="939.32"/>
        <path class="cls-1" d="m2066.93,916.76l-10.93.31m-55.03,22.89l55.2-.21"/>
        <path class="cls-1" d="m2056,916.84l-55.2-3.29m-493.1,25.74l117.34.49"/>
        <line class="cls-1" x1="1625.04" y1="939.79" x2="1629.42" y2="939.76"/>
        <line class="cls-1" x1="1695.83" y1="940.02" x2="1781.79" y2="939.53"/>
        <line class="cls-1" x1="1467.9" y1="935.87" x2="1467.88" y2="943.78"/>
        <line class="cls-1" x1="1537.5" y1="933.9" x2="1454.25" y2="935.79"/>
        <line class="cls-1" x1="1467.9" y1="935.87" x2="1454.25" y2="935.79"/>
        <line class="cls-1" x1="1987.69" y1="938.34" x2="1537.5" y2="933.9"/>
        <path class="cls-1" d="m1805.76,940.9l56.64-.21m-80.62.29l-18.01-.05m262.42,280.39l.07,8.84m-23.32,13.97l23.32-13.97"/>
        <line class="cls-1" x1="2002.86" y1="1234.85" x2="2026.17" y2="1221.32"/>
        <path class="cls-1" d="m2002.35,1155.65l56.9,13.64m-252.68,24.08l56.78-20.33"/>
        <line class="cls-1" x1="2059.25" y1="1169.28" x2="2004.05" y2="1197.31"/>
        <path class="cls-1" d="m2059.42,1192.33l-45.23,25.3m-207.62-24.27l.07,17.01m97.53,18.41l.1,19.42"/>
        <line class="cls-1" x1="2004.05" y1="1197.31" x2="2004.15" y2="1214.58"/>
        <line class="cls-1" x1="2059.25" y1="1169.28" x2="2059.42" y2="1192.33"/>
        <path class="cls-1" d="m1863.54,1214.03l-56.97-20.66m196.02-2l45.75-22.61m0,0l-45.97-11.12m-139.01,19.83l-45.32,16.54m0,0l42.67,15.27m0,0l2.8-1.14"/>
        <path class="cls-1" d="m1625.13,1183.98l-117.84,32.23m-40.01,10.94l-93.68,25.61m408.93-51.72l-76.94-29.81"/>
        <line class="cls-1" x1="1681.12" y1="1643.55" x2="2070.42" y2="1312.6"/>
        <path class="cls-1" d="m1373.58,1261.4l93.4,116.04m214.18,288.58l389.35-341.65"/>
        <line class="cls-1" x1="1681.12" y1="1643.55" x2="1681.15" y2="1666.02"/>
        <line class="cls-1" x1="2070.42" y1="1312.6" x2="2070.49" y2="1324.37"/>
        <line class="cls-1" x1="1190.18" y1="732.12" x2="1386.25" y2="160.97"/>
        <path class="cls-1" d="m2081.52,704.87l-2.58.65m-886.89,26.91l-1.87-.31m.07-8.82l-.07,8.82m891.24-37.2l.1,9.96"/>
        <path class="cls-1" d="m1389.86,169.87l-197.82,562.15m886.89-27.02l-95.84-53.64m2.15-.73l96.27,54.24M1386.25,160.97l665.68,465.71"/>
        <line class="cls-1" x1="2051.84" y1="613.46" x2="2051.93" y2="626.68"/>
        <path class="cls-1" d="m1386.37,128.57l-.12,32.41m3.61,8.89l-.02,5.76"/>
        <line class="cls-1" x1="2048.54" y1="627.82" x2="2051.93" y2="626.68"/>
        <path class="cls-1" d="m2048.54,626.89l-658.67-457.02m-.02,5.76l-197.79,558"/>
        <path class="cls-1" d="m1192.05,733.62l65.13,10.4m696.65-6.43l125.11-30.8"/>
        <path class="cls-1" d="m2078.94,706.79l-98.28-54.6m67.88-22.92l-658.7-453.65"/>
        <line class="cls-1" x1="1441.24" y1="944.69" x2="1424.57" y2="944.71"/>
        <line class="cls-1" x1="1373.58" y1="974.37" x2="1368.94" y2="973.8"/>
        <path class="cls-1" d="m1373.6,972.97l-4.66.13m6.39,20.27l-6.46.29"/>
        <line class="cls-1" x1="1373.53" y1="990.47" x2="1368.86" y2="989.62"/>
        <path class="cls-1" d="m1419.23,997.91l-26.88-4.85m215.87,151.98v14.29m0-14.29l-17.08-7.03"/>
        <line class="cls-1" x1="1591.15" y1="1148.88" x2="1608.23" y2="1145.04"/>
        <line class="cls-1" x1="1591.15" y1="1134.33" x2="1576.42" y2="1128.4"/>
        <path class="cls-1" d="m1576.42,1137.42l14.73-3.09m-29.94-8.74l15.21-2.95m-30.92-9.28l15.71-2.77"/>
        <path class="cls-1" d="m1561.2,1110.59l-15.71-5.94m0-6.53l-16.24-5.86"/>
        <line class="cls-1" x1="1529.25" y1="1100.74" x2="1545.49" y2="1098.12"/>
        <line class="cls-1" x1="1529.28" y1="1085.23" x2="1512.49" y2="1079.45"/>
        <line class="cls-1" x1="1512.46" y1="1087.67" x2="1529.28" y2="1085.23"/>
        <line class="cls-1" x1="1512.49" y1="1071.91" x2="1507.51" y2="1070.3"/>
        <line class="cls-1" x1="1507.49" y1="1072.55" x2="1512.49" y2="1071.91"/>
        <line class="cls-1" x1="1467.66" y1="1041.23" x2="1458.5" y2="1038.67"/>
        <line class="cls-1" x1="1458.5" y1="1045.69" x2="1467.66" y2="1044.81"/>
        <line class="cls-1" x1="1458.53" y1="1029.1" x2="1439.2" y2="1024.25"/>
        <line class="cls-1" x1="1439.2" y1="1030.68" x2="1458.53" y2="1029.1"/>
        <line class="cls-1" x1="1439.25" y1="1013.81" x2="1419.21" y2="1009.4"/>
        <line class="cls-1" x1="1419.18" y1="1015.13" x2="1439.25" y2="1013.81"/>
        <line class="cls-1" x1="1595.98" y1="1162.28" x2="1608.23" y2="1159.33"/>
        <line class="cls-1" x1="1507.46" y1="1094.36" x2="1595.98" y2="1162.28"/>
        <path class="cls-1" d="m1389.77,1018.19l8.08,6.12m198.13,137.98l-34.56-15.82m-250.39,24.37l-15.88,3.03m0,0l.72-149.62m250.29-83.27l-8.13-.03m0,0l-2.44.03"/>
        <line class="cls-1" x1="1537.93" y1="1040.61" x2="1538.03" y2="940.95"/>
        <path class="cls-1" d="m1533.1,1036.54l.07-75.78m230.99,133.18l-6.48,1.32m0,0l-7.61-1.82m13.68-152.55l-6.48-.03m0,0l-7.56.03"/>
        <line class="cls-1" x1="1757.68" y1="1095.26" x2="1757.28" y2="940.88"/>
        <path class="cls-1" d="m1750.08,1093.45l-.36-152.55m-48.84,201.37l-9.33,2.31m0,0l-2.49-.88m11.5-203.6l-9.33-.05"/>
        <line class="cls-1" x1="1691.55" y1="1144.58" x2="1691.24" y2="940.05"/>
        <path class="cls-1" d="m1904.17,1228.78l-16.79-6.09m16.74-3.6l-16.79-5.89m16.84,15.58l-.05-9.7m-16.74,3.6l-.05-9.49m-547.72,18.43l-4.95-6.43m24.04,1.71l-19.09,4.72m1.22-293.01l-4.95.1m10.12-.08l-5.17-.03"/>
        <line class="cls-1" x1="1339.61" y1="1231.64" x2="1340.83" y2="938.62"/>
        <path class="cls-1" d="m1358.7,1226.92l1.08-283.27m201.64,202.82l-53.98-40.83m-39.85-30.13l-32.41-24.5m-61.16,136.32l2.22,2.1m.55-156.44l-.55,156.44m.55-156.44l19.06,6.59m-.55,168l2.54,2.41m-1.99-170.41l-.55,168"/>
        <line class="cls-1" x1="1427.25" y1="1032.78" x2="1426.77" y2="1203.01"/>
        <path class="cls-1" d="m1427.25,1032.78l7.99,6.12m-7.99-6.12l-29.39-8.48"/>
        <path class="cls-1" d="m1377.9,1037.19l-.55,153.3m1.43-152.99l-.55,152.78"/>
        <path class="cls-1" d="m1394.05,1205.27l-15.81-14.99m-83.09-16.41l-33.1,6.3m0,0l-2.65-4.35m3.97-236.34l-2.68.05m2.3,69.79l.38-69.84"/>
        <line class="cls-1" x1="1296.32" y1="1024.46" x2="1296.75" y2="938.57"/>
        <path class="cls-1" d="m1296.75,938.57l39.13.16m-72.52.75l33.39-.91m183.16,475.22l-12.99-16.85"/>
        <path class="cls-1" d="m1493.64,1407.49l64.65,79.8m-21.38,30.39l-83.76-114.72"/>
        <path class="cls-1" d="m1582.78,1490.45l-75.77-89.11m51.28,85.94l-15.09,8.68"/>
        <line class="cls-1" x1="1582.78" y1="1490.45" x2="1536.9" y2="1517.68"/>
        <path class="cls-1" d="m1507.01,1401.35l-13.37,6.14m-40.49-4.54l13.78-6.01m115.83,151.61l-45.92,30.15m0,0l-83.81-127.01m40.61-44.2l-.05,24.09"/>
        <line class="cls-1" x1="1536.9" y1="1517.68" x2="1536.83" y2="1578.71"/>
        <path class="cls-1" d="m1453.15,1402.95l-.12,48.74m-94.33-224.78l9.3-2.31m83.06-101.14l-16.05-8.66m16.05,8.66l.07-34.84m.31-121.18l.05-21.8m285.04,143.21l3.2.75m-3.54-148.63h3.23m147.9,272.22l-23.85-8.37m23.89,17.86l-23.84-8.66m139.36,27.12l-13.3,7.91m0,0l-85.48-29.97m99.04,64.06l-3.18,2.15"/>
        <line class="cls-1" x1="1989.61" y1="1249.06" x2="1989.82" y2="1281.36"/>
        <line class="cls-1" x1="1375.51" y1="943.68" x2="1375.32" y2="993.38"/>
        <line class="cls-1" x1="1431.86" y1="866" x2="1468.1" y2="837.87"/>
        <path class="cls-1" d="m1468.12,836.81l-38.34,29.71m-54.46,126.86l-1.79-.36"/>
        <line class="cls-1" x1="1377.16" y1="993.74" x2="1377.35" y2="943.68"/>
        <path class="cls-1" d="m1377.16,993.74l15.19-.67m-17.03.31l1.84.36m561.38-189.6l-.41-70.96m-36.88-104.95l-28.92-15.09m30.11,262.34l-1.2-247.26m-9.38,57.37l-27.12-11.41"/>
        <path class="cls-1" d="m1892.43,802.2l-.55-116.59m0,0l-8.39,2.8"/>
        <path class="cls-1" d="m1817.91,797.76l-.65-184.57m27.12,13.04l-27.12-13.04m-177.63,146.77l-.14-232.17m0,0l-47.19-22.66m-97.56,248.84l.41-235.28m0,0l6.96-7.8m-141.35,182.44l23.01,5.03m63.33,13.84l21.26,4.64m-202.86,9.7l71.73-105.26m-72.64,273.41l.91-168.16m70.6,160.07l1.12-265.33m-30.52,98.6l17.7-20.95m-55.06,145.99l.43-81.41m0,0l15.4-18.2m0,0l-.45,89.63m0,0l-15.38,9.98m-12.15-106.22l6.12-9m-.89,165.69l.89-165.69m690.41-8.06l-6.17-2.49"/>
        <path class="cls-1" d="m1948.44,877.62l-.07-11.59m0-1.68l-.07-11.48m-.1-15.01l-.05-11.33m-.02-1.92l-.05-9.96"/>
        <path class="cls-1" d="m1954.62,875.88l-.05-8.69m-.02-1.97l-.05-7.7m0-1.04v-2.62m-.02-1.76l-.02-3.91m-.02-4.33l-.02-3.03m0-1.81l-.07-11.2m0-1.92l-.05-9.83m-12.2,60.8l-.07-11.72m0-1.71l-.07-11.62m0-1.79l-.07-11.54m0-1.87l-.07-11.43m0-1.97l-.07-10.06m-.02-8.24l-.41-70.57m-124.03-121.15l-177.77-85.4m47.81,35.73l-42.24-19.63"/>
        <line class="cls-1" x1="1645.94" y1="551.94" x2="1687.32" y2="570.78"/>
        <line class="cls-1" x1="1687.32" y1="570.78" x2="1687.51" y2="716.51"/>
        <line class="cls-1" x1="1687.32" y1="570.78" x2="1685.45" y2="572.03"/>
        <path class="cls-1" d="m1685.45,572.03l.19,143.97m-39.7-161.88l39.51,17.91"/>
        <path class="cls-1" d="m1813.72,617.74l-168.66-79.52m168.66,79.52l-4.88,2.28"/>
        <path class="cls-1" d="m1737.59,582.86l-46.49-21.86m46.83,173.42l-.33-151.56"/>
        <line class="cls-1" x1="1691.31" y1="721.72" x2="1691.1" y2="561.01"/>
        <line class="cls-1" x1="1691.1" y1="561.01" x2="1687.29" y2="563.52"/>
        <path class="cls-1" d="m1696,570.58l37.19,17.16m0,0l.31,139.12m-.31-139.12l-1.91,1.11"/>
        <path class="cls-1" d="m1731.28,588.85l.29,137.46m-35.56-153.64l35.28,16.18m47.81,17.32l29.75,13.84m.45,133.86l-.45-133.86"/>
        <path class="cls-1" d="m1805.28,624.58l-26.19-11.95m26.6,136.71l-.41-124.76m0,0l-1.94.88"/>
        <path class="cls-1" d="m1803.75,748.79l-.41-123.33m0,0l-24.23-10.99m-41.52-31.6l41.47,19.5"/>
        <path class="cls-1" d="m1775.14,607.08l-33.17-15.3m33.56,146.87l-.38-131.57m0,0l-1.94.99"/>
        <path class="cls-1" d="m1773.56,738.11l-.36-130.04m0,0l-31.24-14.31m-96.79,115.4v7.8m169.05,44.54l-.02-6.27m.02,6.27l-2.94.75m0,0l.1,29.95m-166.2-73.32l88.64,23.15m7.29,1.89l70.17,18.33m64.15-121.1l4.9-1.97"/>
        <line class="cls-1" x1="1529.68" y1="468.32" x2="1525.57" y2="473.07"/>
        <path class="cls-1" d="m1529.71,450.51l-4.14,4.93m354.76,183.74l-.05-11.43"/>
        <line class="cls-1" x1="1529.68" y1="468.32" x2="1529.71" y2="450.51"/>
        <path class="cls-1" d="m1525.57,473.07v-17.63m357.92,232.97l-18.7-7.67m19.21,119.49l-.5-111.82"/>
        <path class="cls-1" d="m1881.02,692.19l-16.22-6.53m16.22,6.53l-4.14,1.37m4.62,104.77l-.48-106.14"/>
        <path class="cls-1" d="m1872.77,697.92l.41,95.41m-8.35-98.49l7.94,3.09m4.11-4.36l-12.08-4.8m12.53,108.6l-.45-103.81"/>
        <path class="cls-1" d="m1864.83,693.65l9.59,3.73m0,0l.41,96.34"/>
        <line class="cls-1" x1="1876.24" y1="823.46" x2="1881.17" y2="822.68"/>
        <line class="cls-1" x1="1529.35" y1="754.55" x2="1525.21" y2="756.44"/>
        <path class="cls-1" d="m1529.37,736.58l-4.14,2.07m355.93,84.03l-.05-11.51"/>
        <line class="cls-1" x1="1529.35" y1="754.55" x2="1529.37" y2="736.58"/>
        <path class="cls-1" d="m1525.21,756.44l.02-17.79m339.41-90.14l7.84-3.08m-28.08-13.25l-.02-5.94m20.81,152.5l7.87-1.74m0,0l-.02-5.73m-28.08-1.69l-.02-5.99m28.27,45.89l-.02-3.81m-28.1-2.15v-3.99m-.69-173.29l3.25,1.56m.02,10.27l16.98,7.88m-370.04,199.55l.12-70.83"/>
        <line class="cls-1" x1="1532.26" y1="835.72" x2="1532.36" y2="757.81"/>
        <path class="cls-1" d="m1495.31,416.21l37.48-52.32m0,0l339.36,202.35m-376.96-74.46l.12-75.57"/>
        <line class="cls-1" x1="1532.7" y1="452.02" x2="1532.79" y2="363.9"/>
        <line class="cls-1" x1="1502.08" y1="518.98" x2="1502.11" y2="510.89"/>
        <line class="cls-1" x1="1532.65" y1="485.25" x2="1532.67" y2="476.49"/>
        <path class="cls-1" d="m1592.3,513.36v-8.22m-90.19,5.76l3.56-4.04m-3.87,199.32v-8.17"/>
        <line class="cls-1" x1="1532.43" y1="687.24" x2="1532.46" y2="678.43"/>
        <path class="cls-1" d="m1592.27,703.01v-8.27m-90.55,55.74v-3.47"/>
        <line class="cls-1" x1="1532.38" y1="737.23" x2="1532.38" y2="731.32"/>
        <path class="cls-1" d="m1592.27,749.93v-5.55m.02-239.24l-6.24-3.01m-4.38,12.31l-46.14-21.47m46.06,249.1l.02-38.47m0-11.77l.05-177.39"/>
        <path class="cls-1" d="m1535.54,492.98l-.19,186.25m-.02,12.37l-.02,40.37"/>
        <path class="cls-1" d="m1512.08,741.71l.05-36.14m.02-14.18l.24-173.44m0,0l23.15-24.97m345.58,318.19l-2.99-.62"/>
        <path class="cls-1" d="m1878.2,822.11l-4.95.78m7.92-.21l-2.97-.57m-.07-11.56l.07,11.56"/>
        <line class="cls-1" x1="1880.28" y1="627.74" x2="1877.32" y2="626.24"/>
        <path class="cls-1" d="m1877.36,637.72l-4.9,2m7.87-.54l-2.97-1.45m-.05-11.48l.05,11.48"/>
        <line class="cls-1" x1="1891.88" y1="685.61" x2="1896.16" y2="684.18"/>
        <line class="cls-1" x1="1896.16" y1="684.18" x2="1864.73" y2="670.81"/>
        <path class="cls-1" d="m1896.11,674.44l-31.43-13.87m31.47,23.62l-.05-9.75m-408.14,99.09l6.74,1.14"/>
        <line class="cls-1" x1="1536.55" y1="755.95" x2="1529.35" y2="754.55"/>
        <path class="cls-1" d="m1487.99,757.37l-.02,16.15m48.6-35.42l-.02,17.84m-48.12-240.07l6.72,2.83"/>
        <line class="cls-1" x1="1536.83" y1="471.8" x2="1529.68" y2="468.32"/>
        <path class="cls-1" d="m1488.47,499.85l-.05,16.02m48.43-61.76l-.02,17.68"/>
        <line class="cls-1" x1="1447.02" y1="740" x2="1434.64" y2="737.62"/>
        <path class="cls-1" d="m1383.52,770.8l10.91,1.68m0,0l52.59-32.48"/>
        <line class="cls-1" x1="1434.64" y1="737.62" x2="1383.52" y2="770.8"/>
        <path class="cls-1" d="m1447.43,572.36l-12.34-4.33m0,0l-51.06,60.41"/>
        <path class="cls-1" d="m1434.64,737.62l.45-169.58m-2.54,9.98l-46.76,54.26m0,0l-.45,131.37"/>
        <path class="cls-1" d="m1390.51,755.07l.41-117.99m0,0l16.48-18.46m2.13-12.16l-22.63,26.13"/>
        <line class="cls-1" x1="1409.09" y1="747.7" x2="1409.52" y2="606.46"/>
        <path class="cls-1" d="m1386.44,762.89l.45-130.3m22.63-26.13l4.66,1.43"/>
        <path class="cls-1" d="m1388.71,636.48l18.68-21.18m-19.11,141.3l.43-120.11m0,0l2.2.6"/>
        <path class="cls-1" d="m1416.48,615.01l-.36,126.49m16.38-144.1l-16.02,17.6m-2.3-7.13l18.34-20.77"/>
        <line class="cls-1" x1="1432.51" y1="593.96" x2="1414.16" y2="614.31"/>
        <line class="cls-1" x1="1414.16" y1="614.31" x2="1413.78" y2="743.06"/>
        <path class="cls-1" d="m1414.16,614.31l2.32.7m-93.64,195.17l-15.71,10.22m0,0l-.31,64.79m16.5-180.42l-15.74,18.25m0,0l-.43,93.15m.43-93.15l4.16.78"/>
        <line class="cls-1" x1="1316.03" y1="815.27" x2="1307.97" y2="820.48"/>
        <line class="cls-1" x1="1315.72" y1="885.6" x2="1316.03" y2="815.27"/>
        <path class="cls-1" d="m1307.66,885.21l.31-64.74m8.06-5.21l3.47.39"/>
        <path class="cls-1" d="m1308.86,824.16l6.17-3.86m-6.46,64.97l.29-61.11"/>
        <path class="cls-1" d="m1310.24,885.34l.29-61.03m0,0l4.5-2.77m7.8-8.01l-3.32,2.13"/>
        <line class="cls-1" x1="1319.47" y1="820.06" x2="1322.82" y2="818.01"/>
        <path class="cls-1" d="m1319.16,885.78l.31-65.72m1.41,65.64l.31-65.46m-9.45-96.44l-.41,89.55m11.96-102.61l-11.55,13.07"/>
        <path class="cls-1" d="m1284.46,749.88l-14.11,16.36m0,0l-.41,74.9"/>
        <path class="cls-1" d="m1272.65,836.42l.36-67.15m0,0l4.45-5m.67-6.12l-7.08,8.19"/>
        <line class="cls-1" x1="1277.74" y1="835.93" x2="1278.12" y2="758.15"/>
        <path class="cls-1" d="m1270.66,840.67l.38-74.33m7.08-8.19l2.89.44"/>
        <path class="cls-1" d="m1271.62,769.07l5.86-6.64m-6.22,74.95l.36-68.31"/>
        <path class="cls-1" d="m1282.43,762.35l-.36,69.84m2.34-72.02l-1.98,2.18m-1.41-3.76l3.42-3.89"/>
        <line class="cls-1" x1="1284.41" y1="758.33" x2="1280.99" y2="762.14"/>
        <line class="cls-1" x1="1280.99" y1="762.14" x2="1280.63" y2="833.15"/>
        <line class="cls-1" x1="1686.67" y1="1147.14" x2="1686.48" y2="1004.16"/>
        <line class="cls-1" x1="1686.67" y1="1147.14" x2="1689.09" y2="1146.55"/>
        <line class="cls-1" x1="1686.1" y1="1146.94" x2="1685.91" y2="1004.19"/>
        <path class="cls-1" d="m1646.28,1156.84l39.82-9.9m120.16-51.7l33.7,7.44m-57.74-12.42l-14.85,3.03m72.44-24.19l-26.69-4.64m49.46-77.78l-49.72-2.9m.26,80.68l-.26-80.68"/>
        <path class="cls-1" d="m1817.36,1061.77l-2.13.36m0,0l24.59,4.17"/>
        <line class="cls-1" x1="1859.19" y1="997.16" x2="1859.16" y2="989.33"/>
        <line class="cls-1" x1="1861.55" y1="992.16" x2="1861.58" y2="996.95"/>
        <path class="cls-1" d="m1862.15,992.18l.02,4.72m-46.69,48.97l-.22-59.24m.22,59.24l21.84,3.22"/>
        <path class="cls-1" d="m1837.33,1049.09l-.22-61.11m-2.03,58l-17.48-2.49m0,0l-.19-54.08"/>
        <path class="cls-1" d="m1835.08,1045.8l-16.86-2.41m0,0l-.19-53.93m20.52,56.65l-.21-55.48m18.46,1.22l.02,5.52m-17.67,48.66l-.21-55.35"/>
        <line class="cls-1" x1="1815.18" y1="1045.93" x2="1839.74" y2="1049.53"/>
        <path class="cls-1" d="m1815.18,1048.62v-2.7m2.15,3.03l.02,12.81m0,0l22.46,3.79m-33.94-87.94l56.68,2.83m-22.72,94.27l-26.69-4.88m0,0l-.02-5.37m-.29-86.05l3.04-.15m0,0l46.69,2.33"/>
        <line class="cls-1" x1="1862.56" y1="980.93" x2="1812.84" y2="978.42"/>
        <path class="cls-1" d="m1812.86,983.78l-.02-5.37m100.28-154.6l.07,11.93m0,1.55l.07,11.95m0,1.5l.05,12m.02,1.48l.05,12.06"/>
        <line class="cls-1" x1="1909.89" y1="876.32" x2="1909.58" y2="810.03"/>
        <path class="cls-1" d="m1909.58,810.03l3.49.78m-5.31,65.28l-.31-65.7m2.13-.36l-2.13.36"/>
        <line class="cls-1" x1="1998.77" y1="886.35" x2="1998.36" y2="823.56"/>
        <path class="cls-1" d="m1998.36,823.56l-6.34.86m-43.36,23.67l.02,3.06m0,1.76l.07,11.48m0,1.69l.07,11.59"/>
        <path class="cls-1" d="m1950.26,847.91l.02,3.5m0,1.76l.07,11.46m0,1.69l.07,11.54"/>
        <path class="cls-1" d="m1952.75,876.04l-.05-8.66m-.02-2.41l-.02-7.23m-.02-1.06v-3.11m-.05-5.26l-2.32-.39"/>
        <line class="cls-1" x1="2047.32" y1="899.58" x2="2046.86" y2="835.02"/>
        <line class="cls-1" x1="2046.86" y1="835.02" x2="2040.81" y2="835.75"/>
        <path class="cls-1" d="m2001.32,842.05l.02,5.86m.02,1.69l.07,10.32m0,1.58l.07,10.4m0,1.53l.07,10.47m0,1.45l.07,9.88"/>
        <path class="cls-1" d="m2003.91,895.43l-.02-1.94m0-1.04l-.05-6.84m-.02-3.42l-.05-8.45m0-1.82l-.07-9.18m-.02-2.46l-.05-7.78m-.05-10.01l-2.25-.44m-1.82.21l1.82-.21m-37.69-12.26l.05,10.99"/>
        <line class="cls-1" x1="1970.42" y1="883.16" x2="1970.02" y2="816.85"/>
        <line class="cls-1" x1="1970.02" y1="816.85" x2="1963.56" y2="817.81"/>
        <line class="cls-1" x1="2024.29" y1="897.37" x2="2023.83" y2="829.58"/>
        <path class="cls-1" d="m2023.83,829.58l-6.19.78m-85.81-7.26l.05,11.64m.02,1.89l.05,11.75m.02,1.81l.05,11.85m.02,1.71l.05,11.93"/>
        <line class="cls-1" x1="1938.73" y1="879.59" x2="1938.35" y2="809.35"/>
        <path class="cls-1" d="m1938.35,809.35l-6.6,1.06m39.42,31.45l20.95-2.49m7.22-.86l3.8-.44m5.24-.62l9.28-1.11m7.01-.83l9.02-1.06"/>
        <path class="cls-1" d="m1906.85,810.26l21.79-3.68m0,0l126.78,30.13"/>
        <path class="cls-1" d="m2055.43,836.71l-7.82.88m-6.77.78l-16.12,1.84m-7.44.83l-13.7,1.58m-11.43,1.3l-7.46.83m-5.76.67l-7.73.88"/>
        <path class="cls-1" d="m1948.28,848.01l15.45-1.76m7.46-.88l4.69-.52m5.76-.67l10.5-1.19m7.22-.83l14.97-1.74m10.36-1.19l16.12-1.84"/>
        <path class="cls-1" d="m2017.64,830.72l-18.37-4.25m-7.25-1.66l-20.98-4.87m-39.3-9.07l-7.34-1.71m0,0l-11.34,1.89m-6.24-5.52l.02,4.74"/>
        <line class="cls-1" x1="1928.62" y1="801.71" x2="1928.64" y2="806.58"/>
        <path class="cls-1" d="m2055.4,832.89l.02,3.81m-107.17,7.91l.02,3.4m99.4-2.18l3.73.8m-80.17,8.09l20.95-2.15m21.74-2.28l3.83-.39m7.01-.72l16.12-1.69"/>
        <path class="cls-1" d="m1910.8,823.77l16.31-2.46m0,0l9.09,1.92m3.35.7l28.39,6.02m3.16.67l25.21,5.32m3.04.65l22.48,4.74m2.89.62l20.21,4.28m2.75.57l3.73.8"/>
        <path class="cls-1" d="m2051.41,847.6l-3.73.36m-6.77.7l-16.14,1.66m-32.58,3.34l-17.53,1.82"/>
        <path class="cls-1" d="m1951.1,857.68l12.68-1.3m10.12-1.04l18.3-1.89m9.95-1.01l9.33-.96m13.3-1.37l16.14-1.66"/>
        <path class="cls-1" d="m2047.75,856.72l3.73.7m-92.89,8.37l5.24-.47m7.49-.7l20.95-1.94m16.69-1.53l8.87-.83m7.01-.65l16.14-1.48"/>
        <path class="cls-1" d="m1910.87,837.22l16.31-2.18m0,0l9.09,1.71m3.35.62l28.39,5.34m3.18.6l25.18,4.72m3.04.57l22.51,4.23m2.87.54l20.21,3.79m2.75.52l3.76.7"/>
        <path class="cls-1" d="m2051.5,858.38l-3.73.34m-6.79.62l-16.14,1.48m-6.98.62l-4.62.41m-20.98,1.92l-20.95,1.92"/>
        <path class="cls-1" d="m1951.15,867.35l4.02-.39m16.14-1.45l20.95-1.92m9.95-.91l4.14-.39m6.15-.55l5.33-.49m7.01-.65l16.14-1.48"/>
        <path class="cls-1" d="m2047.82,867.61l3.76.62m-80.22,6.3l20.95-1.71m32.6-2.62l16.14-1.3"/>
        <path class="cls-1" d="m1910.94,850.71l16.31-1.89m0,0l9.09,1.48m3.35.54l28.39,4.67m3.18.52l25.21,4.12m3.01.49l22.51,3.71m2.89.47l20.19,3.29m2.77.47l3.73.6"/>
        <path class="cls-1" d="m2051.57,869.16l-3.73.31m-6.79.54l-16.14,1.27m-7.01.57l-10.71.86m-14.85,1.17l-20.95,1.66"/>
        <path class="cls-1" d="m1951.19,877l12.7-1.01m7.49-.6l20.95-1.66m14.11-1.14l11.46-.91m7.01-.55l16.14-1.3"/>
        <path class="cls-1" d="m2047.89,878.5l3.75.52m-73.9,4.95l7.56-.52m39.68-2.72l16.14-1.11"/>
        <path class="cls-1" d="m1911.01,864.19l16.31-1.61m0,0l9.11,1.27m3.32.47l28.39,3.97m3.18.44l25.21,3.53m3.01.44l22.51,3.14m2.89.41l20.19,2.83m2.77.39l3.73.52"/>
        <path class="cls-1" d="m2051.65,879.98l-3.73.26m-6.79.47l-16.14,1.09m-34.08,2.31l-7.53.52"/>
        <path class="cls-1" d="m1982.62,884.54l7.51-.52m12.2-.83l15.64-1.06m7.01-.49l16.14-1.09"/>
        <path class="cls-1" d="m2047.99,889.39l3.73.44m-26.67,1.4l16.14-.91"/>
        <path class="cls-1" d="m1917.35,877.18l10.04-.83m0,0l9.11,1.04m3.32.39l28.41,3.32m3.16.36l25.21,2.93m3.01.34l22.51,2.62m2.89.34l20.21,2.36m2.75.31l3.73.44"/>
        <path class="cls-1" d="m2051.72,890.79l-3.73.21m-6.79.39l-16.14.91"/>
        <path class="cls-1" d="m2002.4,893.46l15.64-.91m7.01-.39l16.14-.91"/>
        <path class="cls-1" d="m1926.35,876.66l-7.84.65m-71.8,293.69l-6.51-2.02"/>
        <path class="cls-1" d="m1862.63,997.89l-16.6,1.4m0,0l-6.48-.49m7.15,172.2l-.67-171.71"/>
        <path class="cls-1" d="m1862.63,1001.78l-14.45,1.3m.67,167.17l-2.15.75m16.6-12.5l-14.47,4.85m.02,4.77l14.47-4.95m-15.12-156.72l14.45-1.37"/>
        <line class="cls-1" x1="1863.3" y1="1159.3" x2="1848.83" y2="1164.18"/>
        <path class="cls-1" d="m1736.2,940.98l.1,38.19m-35.68-2.07l35.68,2.07m-35.73-38.03l35.64-.16m.33,147.88l-1.79-.41m1.79.41l-.24-109.69m-30.88,3.01l.17,96.6m0,0l27.72,6.38m1.43,3.16l-31.38-7.39"/>
        <path class="cls-1" d="m1704.97,1078.88l28.34,6.56m-28.51-103.29l.17,96.73"/>
        <path class="cls-1" d="m1700.78,1077.17l2.58.6m0,2.67l-2.58-.62"/>
        <line class="cls-1" x1="1700.78" y1="1077.43" x2="1703.37" y2="1078.02"/>
        <path class="cls-1" d="m1703.2,981.89l-2.58-.18m-20.69,660.36l-97.17-120.74"/>
        <line class="cls-1" x1="1679.93" y1="1642.07" x2="1616.12" y2="1698.82"/>
        <path class="cls-1" d="m1679.98,1664.49l-63.86,58.59m63.81-81.02l.05,22.43"/>
        <line class="cls-1" x1="1616.12" y1="1698.82" x2="1616.12" y2="1723.09"/>
        <line class="cls-1" x1="1334.64" y1="1282.81" x2="1616.12" y2="1723.09"/>
        <path class="cls-1" d="m1334.64,1282.81l.05-10.47m0,0l38.89-10.94m78.76-172.95l-.07,35.67m.77-35.75l-.1,35.62"/>
        <path class="cls-1" d="m1452.93,1123.99l14.54,7.85m47.19-149.05l-7.03.28m6.98,37.8l.05-38.09"/>
        <line class="cls-1" x1="1512.51" y1="985.52" x2="1512.46" y2="1019.07"/>
        <path class="cls-1" d="m1508.73,988.11l-.02,27.77m2.61,2.2l.02-32.51"/>
        <line class="cls-1" x1="1509.21" y1="988.11" x2="1509.16" y2="1016.27"/>
        <path class="cls-1" d="m1514.69,961.1l-.02,21.7m.02-21.7l-7.03.13m27.94-20.25l-27.89-.08m27.86,19.83l.02-19.76m-200.23,123.28l-23.85,2.46"/>
        <line class="cls-1" x1="1335.36" y1="1061.15" x2="1311.53" y2="1063.56"/>
        <path class="cls-1" d="m1335.38,1057.39l-15.21,1.48m-.02,3.32l15.23-1.5"/>
        <line class="cls-1" x1="1335.38" y1="1057.57" x2="1320.17" y2="1059.07"/>
        <path class="cls-1" d="m1316.99,1023.06l-.17,36.53m0,0l-5.29.52m0,3.35l8.61-.86"/>
        <path class="cls-1" d="m1317.11,1059.75l-5.57.54m5.72-37.23l-.14,36.69"/>
        <path class="cls-1" d="m1335.12,1120.13l-23.87,3.6m196.45-187.91l-26.88-.21m0,0l-12.92.26"/>
        <line class="cls-1" x1="1479.91" y1="1413.79" x2="1480.82" y2="935.61"/>
        <line class="cls-1" x1="1987.69" y1="938.34" x2="1902.76" y2="938.83"/>
        <line class="cls-1" x1="1987.69" y1="938.34" x2="1989.61" y2="1249.06"/>
        <path class="cls-1" d="m1902.76,938.83l1.36,280.26m-1.36-280.26l-16.67.1m1.24,274.27l-1.24-274.27m0,0l-23.73.13m48.62-234.6l36.57,14.7m0,0l.07,13.58"/>
        <line class="cls-1" x1="1947.63" y1="732.74" x2="1911.06" y2="718.92"/>
        <path class="cls-1" d="m1947.63,732.74l-6.34,1.61m-580.25-114.98l-18.87-5.34m0,0l-4.95,7.26"/>
        <line class="cls-1" x1="1341.05" y1="886.85" x2="1342.17" y2="614.03"/>
        <path class="cls-1" d="m1495.31,416.21l-13.49-7.05m0,0l-12.84,18.85"/>
        <line class="cls-1" x1="1480.99" y1="849.05" x2="1481.82" y2="409.16"/>
        <path class="cls-1" d="m1910.63,633.14l-9.38-4.9m-635.76,98.31l-2.18,3.16m518.47,209.77l19.06-.1"/>
        <line class="cls-1" x1="1800.85" y1="939.37" x2="1801.64" y2="1186.58"/>
        <path class="cls-1" d="m1801.74,1212.27l-19.18-7.54m19.18,7.54l4.9-1.89m-5.79-271l4.9.03"/>
        <path class="cls-1" d="m1801.64,1186.58l4.9-1.69m-4.9,1.69l-19.16-6.82m19.16,6.82l.1,25.69"/>
        <line class="cls-1" x1="1691.07" y1="940.02" x2="1629.42" y2="939.76"/>
        <line class="cls-1" x1="1629.42" y1="939.76" x2="1629.54" y2="1186.06"/>
        <path class="cls-1" d="m1629.54,1186.06l5.5-1.53m0,0v-11.51m0,0l10.83-2.85m-20.74,13.82l4.4,2.07"/>
        <line class="cls-1" x1="1773.37" y1="977.33" x2="1781.89" y2="976.94"/>
        <path class="cls-1" d="m1769.57,977.15l3.8.18m-3.8-.18l12.29-.57m-8.47,5.96l-.02-5.21m.02,7.8v-2.59m.17,62.51v-2.62m.05,18.25v-2.59m8.51-1.97l-6.96,1.09m31,11.38l6.98,1.24"/>
        <line class="cls-1" x1="1805.88" y1="978.08" x2="1812.84" y2="978.42"/>
        <path class="cls-1" d="m1815.87,978.26l-10-.49m-66.11,116.1l3.71.91m0,0l6.6-1.32m14.09.49l3.2-.65m2.2-116.15l-5.72.26m-24.42-36.5l3.71-.03m0,0l6.58.03"/>
        <path class="cls-1" d="m1763.85,977.77l9.52-.44m-29.9,117.44l-.33-153.9"/>
        <path class="cls-1" d="m1764.16,1093.94l-.31-116.17m3.44,89.19l6.34-1.04m-6.27,27.38l-.07-26.34m6.34-1.04l8.51-1.45m-8.51,1.45l-.02-5.24m7.87-84.28l-17.63.8"/>
        <line class="cls-1" x1="1806.54" y1="1184.89" x2="1846.7" y2="1171"/>
        <path class="cls-1" d="m1262.05,1180.17l16.89,27.66m0,0l16.36,26.86m72.73-17.53l29.82-7.18m408.69-25.1l.02,8.48m-432.87,37.62l-.1,21.78m0,0l-.02,8.63m693.26-359.93l-18.77-1.82m-688.04-15.94l-13.8,3.4m108.03,48.69l.17-75.37m0,0l.02-4.49m13.63-3.55l-13.63,3.55m-159.45,28.67l-30.4,10.09m243.12,44.7l14.88.08m0,0l37.19.16m496.4.13l-.17-22.69"/>
        <line class="cls-1" x1="1691.07" y1="940.02" x2="1695.83" y2="940.02"/>
        <path class="cls-1" d="m1359.78,943.65h-13.78m0-5v5m680.18,277.67l-11.98-3.68m0,0l-10.05-3.06m-99.88,33.63l-97.63-37.83m174.02-558.19l2.44-.83m-529.43,292.39l-2.18,1.89m0,0l-12.75,11.07m152.4,192.16v-10.86m0,0v-3.68m-14.73-11.69v5.76m0,0v9.02m-30.92-39.3v6.53m0,0v8.71m30.92,9.28l-14.47-5.65m-.74-6.4v6.12m0,0v8.89m-31.93-40.37l-.02,7.03m0,0v8.48m-16.77-28.83v7.54m0,0l-.02,8.22m-53.93-58.57l-.02,9.57m0,0v7.03m-19.25-31.89l-.05,10.45m0,0v6.43m-19.97-32.77l-.02,11.49m0,0l-.02,5.73m-50.42,4.46l5.88-.39"/>
        <line class="cls-1" x1="1406.75" y1="1017.05" x2="1427.25" y2="1032.78"/>
        <path class="cls-1" d="m1311.03,1170.84l.21-47.11m234.82-76.22l.1-106.5m154.72,201.26l-.1-62.46m-265.69,11.02l16.05-2.2m-76.99,70.18l-.12,28.52m20.57-144.12l-15.81-5.7m15.26,167.77l.55-162.06"/>
        <line class="cls-1" x1="1262.05" y1="1180.17" x2="1262.98" y2="1009.32"/>
        <path class="cls-1" d="m1259.4,1175.82l.26-48.02m52.04-104.38l-15.38,1.04m-33.34-15.14l32.89,14.93m197.77,383.24l-13.73,6.3m102.87,76.66l-.02,30.88m0,0v27.22m280.74-343.72l.02,3.32m0,0l.02,5.88m139.36,27.12l.02,2.98m0,0l.24,39.02m-441.22-166.16l.02-32.33m0,0l.02-23.7m303.27-265.04l18.73,4.3m0,0l8.44,1.97m-586.18,14.57l.45-96.88m17.24,85.01l.46-105.96m-68.07,198.49l.84-153.4m0,0l.02-5.31"/>
        <path class="cls-1" d="m1948.25,844.61l-.02-4.93m-.19-33.21l-.41-73.73"/>
        <path class="cls-1" d="m1954.23,808.01l-.41-70.41m0,0l-.1-15.94m-266.22-5.13l-1.87-.52m0,0l-39.61-10.99m0,0l-.1-150.89m0,0v-2.18"/>
        <line class="cls-1" x1="1814.32" y1="792.84" x2="1814.22" y2="761.49"/>
        <path class="cls-1" d="m1814.32,792.84l-2.94-.65m-123.84-71.5l-.02-4.17m45.99,10.34l-1.94-.54m0,0l-35.35-9.93m0,0l-.22-143.71m0,0v-2.1m83.47,171.47l24.28,6.74m0,0l1.94.55m-26.21-3.58v-3.71m-37.5-150.27v1.97m0,0l.31,135.57m0,0l31.28,8.79m0,0l1.96.54m38.67,16.57l-4.9-1.35"/>
        <path class="cls-1" d="m1741.11,742.23l73.11,19.26m-77.42,19.08v-4.67"/>
        <path class="cls-1" d="m1737.93,734.43l3.16.88m.1,41.56l.02,4.64m-215.64-308.44l7.1,3.42m.02-24.47l-2.99-1.5m335.56,344.04l12.08,2.83m0,0l4.16.96m-8.32-5l-7.94-1.89m-340.03-35l7.15,1.37m.02-20.59l-3.01-.65"/>
        <path class="cls-1" d="m1872.48,645.42l-24.83-11.72m0,0l-3.25-1.53"/>
        <path class="cls-1" d="m1872.46,639.72l-24.83-11.93m24.85,17.63l-.02-3.11m0,0v-2.59"/>
        <path class="cls-1" d="m1873.06,777l-24.87-6.56m0,0l-3.23-.86"/>
        <path class="cls-1" d="m1873.03,771.27l-7.87-2.15m-16.86,31.11l-3.23-.7m3.25,4.69l-.02-3.99m16.53-105.39l.33,74.28m.1,26.81l.05,8.01m8.16,68.29l-.19-48.3m-340.6-347.43l53.38,25.64m286.33,121.62l-.05-10.6m0,0l-.19-46.9"/>
        <path class="cls-1" d="m1502.08,518.98l3.59-3.94m0,0l26.98-29.79m0,0l53.41,25.15m0,0l6.24,2.96"/>
        <line class="cls-1" x1="1505.67" y1="506.85" x2="1532.67" y2="476.49"/>
        <path class="cls-1" d="m1505.31,745.19v3.5m-3.52-42.52l3.59-2.2m0,0l27.05-16.72m0,0l53.57,14.1m0,0l6.27,1.66"/>
        <path class="cls-1" d="m1501.79,698l3.59-2.28m27.07-17.29l2.89.8m-23.27,62.48l20.31-10.4m0,0l2.92.65"/>
        <line class="cls-1" x1="1586.05" y1="510.4" x2="1586.05" y2="502.13"/>
        <path class="cls-1" d="m1873.27,823.92l2.97-.47m-3.78-181.14l2.97-1.17m-380.69,112.83l-6.74,3.4m48.58-19.26l-4.19-.88"/>
        <line class="cls-1" x1="1525.21" y1="756.44" x2="1487.97" y2="773.52"/>
        <path class="cls-1" d="m1495.19,491.79l-6.72,8.06m48.38-45.73l-4.16-2.1"/>
        <line class="cls-1" x1="1525.57" y1="473.07" x2="1488.42" y2="515.87"/>
        <path class="cls-1" d="m1447.02,740l.07-27.79m0,0l.33-139.84m-63.91,198.44l.24-72.44m0,0l.26-69.92m23.37-13.14v3.32m0,0l-.41,125.07m0,0l-16.48,11.38m0,0l-2.22,1.53m25.5-13.53l2.34-1.56m0,0l16.02-10.86m-108.56,155.35l.33-76.48m0,0l.02-4.62m-18.03,80.24l.31-64.14m0,0l.02-4.23m.91-.6l4.19-2.83m0,0l11.53-7.75m0,0l.43-94.86m0,0l.02-5.96m-3.85,115.29l.02-4.41m-4.47,5.89l-.29,64.04m-37.29-121.31l-.36,69.07m0,0l-4.45,3.08m9.42-4.23l1.98-1.35m405.03,315.7l-.02-2.85m0,0l-.19-142.88m-2.97,3.37l-39.75,2.96m0,0l.12,149.7"/>
        <path class="cls-1" d="m1806.16,1063.25l6.96,1.22m-45.82,2.49v-5.26m6.31-1.01l-6.31,1.01"/>
        <line class="cls-1" x1="1859.16" y1="989.33" x2="1862.58" y2="989.57"/>
        <line class="cls-1" x1="1815.18" y1="1045.93" x2="1814.96" y2="986.61"/>
        <path class="cls-1" d="m1838.55,1048.91v-2.8m-20.52-56.65l16.84,1.11m0,0l.22,55.22m3.85-55.12l17.87,1.17m-17.05,60.49l-22.41-3.37m0,0l-2.15-.34m97.89-237.58l.05,11.17m78.9,2.59l.05,9.15m.02,1.79l.02,3.63m.05,8.5l.02,4.69m.05,7.44l.02,2.67m-39.65-10.89l-.02-3.4m95.02-10.81v-2.38m-6.77,3.16l.05,6.01m-41.35-1.32l.02,4.51m0,1.69l.02,2.54m4.02-3.45l-.02-5.73m-40.01-24.4l.05,9.67m.24,40.29l.05,6.95m61.2,22.32l-.05-5.16m-7.39-55.95l.02,3.09m.17,24.76l.05,6.59m.05,4.93l.02,5.5m.05,6.04l.02,4.41m-86.29-80.79l.05,10.24m-3.18-19.39l9.93,2.44m9.71,40.47l6.17-.75m0,0l9.28-1.09m-56.87-37.26l4.66-.83m0,0l17.12-2.98m35.11,45.42l-9.28,1.06m0,0l-1.87.21m88.23-12.32l-7.13-1.63m0,0l-9.04-2.1m-97.56-12.26l4.71,1.01m0,0l4.4.93m34.9,7.47l20.98,4.46m0,0l4.23.91m21.38,4.56l4.14.88m2.89.62l16.17,3.45m0,0l4.02.86m-41.28,6.15l4.69-.49m-97.51-28.31l2.32-.36m0,0l13.97-2.13m85.12,31.53l-8.59.88m39.27-6.07l-2.01-.42m0,0l-16.17-3.4m-30.52-6.43l-2.1-.44m0,0l-20.98-4.41m-37.12-7.78l-2.18-.47m0,0l-5.76-1.22m0,0l-12.94,1.94m14.04,10.01l4.71.91m0,0l4.4.83m34.9,6.64l10.48,1.97m43.15,8.19l16.17,3.06m0,0l4.04.78m-134.13-20.14l2.32-.31m0,0l13.97-1.92m79.93,28.6l-3.4.31m39.27-5.39l-2.01-.36m0,0l-16.17-3.01m-90.72-16.93l-2.18-.42m0,0l-5.76-1.06m0,0l-12.94,1.74m14.04,10.29l4.71.78m0,0l4.4.73m88.52,14.7l16.17,2.67m0,0l4.04.67m-41.3,4.77l14.14-1.14m-106.96-21.26l2.32-.26m0,0l13.97-1.66m115.83,20.69l-2.03-.34m0,0l-16.14-2.62m-30.54-4.98l-2.1-.34m0,0l-20.98-3.42m-37.12-6.04l-2.18-.36m0,0l-5.76-.93m0,0l-12.94,1.5m14.04,10.6l4.71.67m0,0l4.4.62m34.92,4.95l20.98,2.98m0,0l4.23.6m28.41,4.04l16.14,2.31m0,0l4.04.57m-41.33,4.07l14.16-.99m-106.98-18.17l2.32-.26m0,0l13.99-1.4m90.67,20.9l-14.13.96m39.3-4.02l-2.01-.26m0,0l-16.17-2.26m-30.54-4.25l-2.1-.28m0,0l-20.98-2.93m-37.12-5.16l-2.18-.31m0,0l-5.76-.8m0,0l-12.94,1.3m14.06,10.89l4.69.54m0,0l4.4.52m34.92,4.15l20.98,2.46m0,0l4.23.52m28.41,3.34l16.17,1.92m0,0l4.02.47m-41.33,3.4l14.16-.8m-106.79-15.17l2.13-.18m0,0l14.02-1.17m90.65,17.55l-14.16.8m39.32-3.35l-2.01-.23m0,0l-16.17-1.87m-39.73-4.59l-13.9-1.61m-37.12-4.28l-2.18-.26m0,0l-5.76-.65m-86.15,292.31l-.24-66.29m8.9,65.44v2.13m-148.24-190.74l2.58.16m0,0l31.33,1.94m0,0l.22,106.71m-1.43-3.16l-.22-101.14m0,0l-27.67-1.84"/>
        <line class="cls-1" x1="1334.69" y1="1272.34" x2="1453.03" y2="1451.69"/>
        <path class="cls-1" d="m1507.63,985.73l3.71-.15m-191.17,73.29l.14-36.01m186.7,378.49l.29-185.14m495.56,18.64l.05,6.3m-61.61-506.8l-3.16-1.17m0,0l-27.05-10.06m-551.07,160.59l.74-190.37m0,0l.29-73.97m107.03,233.02l.02-14.52m442.89-133.42l-.36-71.32m-128.08,571.59l-.02-3.68m0,0l-.05-21.28m23.77-84.52l.29,89.65m-24.06-5.13v-3.32m-157.37-15.45l.02,23m20.62-180.13l43.12-3.03m0,0l2.3-.18m0,0l-.1-60.56m83.88,42.39l6.96-.39m-6.94,2.98l6.94-.41m-6.77,60.17l6.94-.96"/>
        <line class="cls-1" x1="1775.12" y1="1042.22" x2="1782.08" y2="1041.29"/>
        <line class="cls-1" x1="1775.19" y1="1060.45" x2="1782.13" y2="1059.33"/>
        <line class="cls-1" x1="1775.17" y1="1057.83" x2="1782.13" y2="1056.74"/>
        <line class="cls-1" x1="1739.77" y1="1093.87" x2="1739.74" y2="1089.61"/>
        <path class="cls-1" d="m1848.85,1170.24l14.47-5m-528.4,1.06l-23.89,4.54"/>
        <line class="cls-1" x1="1397.85" y1="1209.99" x2="1426.77" y2="1203.01"/>
        <line class="cls-1" x1="1693.82" y1="1145.38" x2="1689.09" y2="1146.55"/>
        <path class="cls-1" d="m2000.97,938.46l-.17-24.91m0-.8l-.12-17.63m0,0l-.05-8.56m-98.18-11.07l-28.99-3.27m0,0l-335.87-37.88m-83.18,26.08l-22.55,5.57m-175.53,31.42l-32.98,10.94m122.86-21.26l-5.17-.26m0,0l-4.95-.23m-30.18-1.48l-10.93-.52m74.05,59.06l-9.26-.03m710.65,368.95l-70.44-27.3m-1.55-639.13l50.11-16.9m-673.89,389.93l15.12-1.01m0,0l16.98-1.14"/>
        <line class="cls-1" x1="1435.23" y1="1038.9" x2="1467.62" y2="1063.76"/>
        <path class="cls-1" d="m1311.25,1123.73l.26-57.01m23.15,158.49l.14-29.4m0,0l.12-29.5m0,0l.19-46.17m39.54-100.93l-.33,93.59m0,0l-.17,46.02m60.87-44l-.07,32.43m0,0l-.07,26.96m0,0l-.07,26.89m-175.14-73.29l1.03-187.37m56.3,82.63l-5.29.36m168.21,390.37l13.68,17.79m0,0l49.6,64.4m-174.95-336.03l.17-46.28m5.29-170l-.1,29.3m-.02,1.4l-.05,16.1m0,0v2.54m51.04-48.3l14.18,12m73.71,62.35l2.15,1.82m330.46-221.36l-.12-29.94"/>
        <line class="cls-1" x1="1948.28" y1="851.1" x2="1948.28" y2="848.01"/>
        <path class="cls-1" d="m1645.18,716.95v1.92m0,0l.02,37.07"/>
        <line class="cls-1" x1="1814.2" y1="755.22" x2="1813.72" y2="617.74"/>
        <path class="cls-1" d="m1811.38,792.19l-70.2-15.32m-53.86-206.09l-.02-7.26m92.18,178.53l-.36-127.58m30.18,139.4l-29.82-8.12"/>
        <path class="cls-1" d="m1645.18,716.95l91.53,24.11m0,0l4.4,1.17m-4.3,33.68l-.1-34.84m0,0v-6.97"/>
        <line class="cls-1" x1="1741.11" y1="743.92" x2="1741.18" y2="776.87"/>
        <path class="cls-1" d="m1877.36,637.72l-340.53-165.93m341.37,350.31l-341.65-66.16"/>
        <path class="cls-1" d="m1865.17,769.12l-17-4.64m0,0l-3.23-.88m28.25,42.08l-7.87-1.74m0,0l-17-3.71m0,0l-.12-29.79"/>
        <line class="cls-1" x1="1505.67" y1="506.85" x2="1505.67" y2="515.04"/>
        <path class="cls-1" d="m1505.38,695.72l6.77-4.33m0,0l20.31-12.96m2.89.8l46.28,12.6m-79.91,55.17l3.59-1.81m0,0l6.77-3.47m23.22-9.75l46.3,10.11m-79.88,8.4l-6.98,3.5m37.62,3.84l4.19-1.87m-10.98-300.51l-30.37,36.35m-108.75,271.11l22.65-15.19m23.06-17.06l.36-133.23m-18.34,16.9l.02-6.43m-143.53,232.79l7.08-4.74m6.31-5.08l.36-70.67m-3.42,1.97l.02-3.55m557.29,229.47l20.86,1.27"/>
        <line class="cls-1" x1="1815.23" y1="1062.13" x2="1815.18" y2="1048.62"/>
        <path class="cls-1" d="m1838.33,990.63l-.02-2.57m153.83-144.15v2.26m.05,7.49l.05,4.72m.02,5.39l.05,6.82m.02,3.29l.05,8.92m55.3-36.97l-.07-8.24m-6.7,11.07l.05,6.77m.02,3.91l.05,7.13m.02,3.55l.05,7.52m.02,3.16l.07,7.88m0,2.8l.07,7.62m-41.69-46.1l.05,6.69m.1,13.69l.05,9.18m-36.04-35.34l.02,6.53m.14,22.48l.02,3.29m53.72-48.71l.02,5.63m.05,4.8l.05,8.76m.14,21.96l.02,2.36m.05,8.04l.02,3.58m.05,6.84l.02,4.1m-54.51-78.56l-9.28-2.15m0,0l-6.19-1.43m0,0l-6.36-1.48m0,0l-2.25-.52m.07,10.11l2.25.47m0,0l6.34,1.37m0,0l6.19,1.3m44.99,9.62l9.06,1.94m0,0l9.3,1.97m-65.05,17.24l1.87-.18m0,0l9.28-.99m0,1.09l-9.28.93m0,0l-1.84.21m67.11-16.18l-2.06-.41m-.43-.1l-2.94-.62m-60.01-12.6l-6.17-1.3m0,0l-6.36-1.32m0,0l-2.25-.47m.07,11.48l2.25.41m0,0l6.34,1.22m0,0l6.19,1.17m27.24,5.16l3.04.57m14.88,2.83l1.79.34m-46.78,19.29l-1.87.18m48.67-17.78l-1.82-.34m-5.29-.99l-2.1-.39m0,0l-13.25-2.46m0,0l-3.04-.57m0,0l-4.69-.88m-16.79-3.14l-6.17-1.14m0,0l-6.36-1.19m0,0l-2.25-.41m.07,11.59l2.25.36m0,0l6.34,1.06m22.98,3.81l2.63.44m.77.13l17.58,2.9m0,0l4.21.7m3.18.52l1.82.31m-48.69,16.13l1.87-.16m0,0l9.28-.75m0,1.01l-9.28.75m0,0l-1.87.13m48.69-15.53l-1.82-.28m-51.33-8.35l-6.36-1.04m0,0l-2.25-.36m.07,11.67l2.25.31m0,0l6.36.91m51.33,7.31l1.82.23m0,1.53l-1.79-.26m-51.35-7.13l-6.36-.88m0,0l-2.25-.31m.07,11.74l2.25.28m0,0l6.36.75m51.33,6.07l1.82.21m0,1.45l-1.79-.21m-51.35-5.94l-6.36-.73m0,0l-2.25-.26m-100.28,120.58l17.27-1.43m0,0l2.37-.21m0,0l2.39-.21"/>
        <line class="cls-1" x1="1536.83" y1="1578.71" x2="1616.12" y2="1698.82"/>
        <path class="cls-1" d="m1535.57,960.74l-2.39.03m0,0l-18.49.34m-7.39,255.11l.02-26.08m-40.4,206.81l.05-19.5m.38-184.18l.05-22.4m535.33,43.27l.12,20.71m-139.53-69.61l.02,7.8m47.71-454.12l-.07-14.47m-128.51,471.98l-.26-86.18m-157.13-15.04l.02,85.76m20.76,7.62l-.02-11.28m0,0l-.1-153.48m129.44,56.6l-.02-2.62m-35.42,31.79l-.31-148.63m-312.67,262.03l8.04-1.92m0,0l32.55-7.83"/>
        <line class="cls-1" x1="1686.67" y1="1147.14" x2="1646.28" y2="1157.23"/>
        <path class="cls-1" d="m2047.32,899.58l-6.05-.57m-131.38-22.69l-2.13-.23m0,0l-5.31-.6m-470.59-9.49l-2.08.52m0,0l-69.77,17.19m177.58-49.36l-5.33,1.37m0,0l-37.67,9.78m0,0l-13.61,3.55m0,0l-12.92,3.34m-203.49,42.31l-2.15.7m0,0l-6.1,2.02m79.76-10.81l-12.51-.62"/>
        <line class="cls-1" x1="1805.76" y1="939.4" x2="1862.37" y2="939.06"/>
        <path class="cls-1" d="m1373.7,943.68h-4.66m630.95,341.63l-10.17-3.94m0,0l-85.55-33.16m78.83-596.84l2.15-.73m0,0l13.18-4.46m-686.92,420.54l.02-3.16m452.32-86.36l-.1-36.27m-62.97,138.89v-2.39m-365.67,42.7l.24-55.87m117.67,24.11l14.54-2.02m-32.48,4.48l-.07,23.98m-99.49-93l-15.21,1.04m47.69,201.76l.02-7.44m.81-216.71l.02-6.79m0,0v-4.04m69.88-32.9l12.7,10.73m0,0l16.36,13.84m46.81,39.59l18.49,15.66m59.17-292.16v-41.38m0-8.27l.02-181.38m-90.57,233.64l.07-40.83m0-8.17l.29-179.02m142.98,19.24v5.68m0,0l.12,165.25m96,67.72l-4.38-.96m0,0l-91.6-19.96m133.89-149.77l-.02-3.81m-37.98,132.95l.02,6.92m131.28-118.48l-335.53-169.63m49.13,294.47l-49.41-10.47m311.61,32.33l-.02-5.96m16.65-75.7l.02,4.87m.41,97.79l.02,3.11"/>
        <line class="cls-1" x1="1505.38" y1="703.97" x2="1505.31" y2="745.19"/>
        <path class="cls-1" d="m1581.63,691.83l4.38,1.19m0,0l6.27,1.71m-10.67,47.34l4.38.93m0,0l6.29,1.37"/>
        <path class="cls-1" d="m1585.98,748.58v-5.57m0,0l.02-41.66m0,0v-8.32m0,0l.05-182.62"/>
        <path class="cls-1" d="m1532.67,476.49l4.16-4.69m-127.74,275.9l4.69-3.16m0,0l18.37-12.31m.38-145.11l.02-9.1m-110.04,307.22l.29-65.98m.02-1.24v-4.49m0,0l.02-3.34m-45.11,25.74l2.87-1.94m0,0l3.42-2.31m715.36,15.87l-.02-4.46m0-.93l-.02-3.63m-.07-12.06l-.02-2.7m-7.13,15.61l.02,3.6m7.51,20.12l.05,8.56m-28.65-51.72l-.02-2.85m-7.32,25.69l.02,3.47m.05,10.34l.05,8.74m53.96-12.68l.05,7.67m-77.99,16.25l-.07-11.74m-1.22-60.69l3.16.78m0,0l6.34,1.56m0,0l6.19,1.53m0,0l101.17,24.89m-101.07-7l9.28,2m0,0l4.33.91m46.4,11.61l-11.19-2.33m0,0l-3.8-.8m-33.56-7.05l-2.15-.44m0,0l-9.3-1.97m.07,11.2l9.28,1.76m0,0l4.33.8m16.67,3.16l7.46,1.43m0,0l4.23.8m21.41,4.07l4.11.78m-18.27-1.81l-2.25-.41m-35.52-6.61l-2.15-.41m0,0l-9.3-1.74m63.45,21.8l4.14.67m-4.07,10.91l4.14.6m-18.3-1.09l-2.25-.31m16.48,12.42l4.14.49m-18.3-.73l-2.25-.26m-7.08-.83l-2.13-.23m-2.25-.26l-4.83-.57m-145.34,219.23l-.12-27.97m0,0l-.02-5.6m0,0v-2.8m8.37-63.23l.02,3.37m0,0l.62,156.9m0,.83l.02,3.94m-145.49-87.68v-2.41m0-.26l-.17-95.87m0,0v-2.23m-383.05,82.52l.02-3.11m187.15,131.06l.02-6.51m-40.01,16.41l.02-6.77m.05-22.4l.02-13.3m535.19,39.33l.12,17.24m-139.41-50.97v2.07m.02,7.8l.02,4.43m0,0l.12,27.35m-395.37-368.02l.24-119.96m0,0l.62-288.84m442.51,376.68l-.41-81.56m0,0l-.02-4.2m-104.9,344.32v5.34m0,0l.1,26.65m-24.04-4.98l-.07-25.8m-157.11-123.25l.05,134.01m148.52-17.14l-.05-13.04m0-2.62l-.17-57.3m1.77,72.07l-.02-12.39m0,0l-.02-2.59m0,0l-.14-57.17m0,0l-.02-2.59m228.96-87.03l-2.25-.21m-84.31-18.04l-6.1-.7m-535.74,67.2h-1.82m327.09,133.49l-.17-95.46m0,0v-2.2m0,0v-2.41m-365.26,87.16v-3.11m99.88-22.25l-.05,12.11m0,0l-.1,39.82m-114.78-67.98l-3.06.21m50.78,194.11l.1-28.57m0,0l.12-28.65m.17-46.28l.36-94.09m0,0l.07-19.13m.02-10.84l.07-15.82m140.23,42.47l2.15,1.81m34.75,29.43l15.93,13.45m282.94-297.37l-.53-131.42m-65.32-19.55v-6.46m.38,139.59l-38.39-10.45m131.38-95.59l2.97,1.43m1.89-14.91l-4.93-2.49m.86,199.14l2.99.57m-283.97-73.53l-6.29-1.35m262.18,15.89l-.5-126.41m17.15,47.6v3.11m.38,89.96l.05,12.7"/>
        <path class="cls-1" d="m1505.67,515.04l-.29,180.68m0,0v8.24"/>
        <path class="cls-1" d="m1525.23,738.65l-19.92,10.03m0,0l-3.59,1.79m-69.22-153.07v-3.45m0,0l.02-6.84m-148.12,171.21l.02-3.63m0,0l.02-4.82m530.81,236.76l21.84,1.35m162.21-152.47l-.05-9.05m-28.03,28.26l-.05-8.43m-.1-16.8l-.05-9.57m48.79,33.11l-2.06-.39m-67.49-1.25l2.32.39m60.63,10.06l4.62.78m2.06,1.87l-2.06-.31m-65.22-10.63l-2.34-.39m.07,11.46l2.32.34m67.33,11.02l-2.06-.29m0,0l-14.18-1.97m-53.33,4.12l2.32.29m48.84,5.75l2.25.29m0,0l14.16,1.66m2.08,1.63l-2.06-.23m0,0l-14.18-1.63m-51.06-5.88l-2.34-.29m-443.09,304.19l.1-77.99m-40.47,271.81l.31-150.29m0,0l.05-27.12m.1-42.47v-3.45m535.17,37.26l.02,5.52m-140.03-210.21v2.88m.72,169.74l.02,3.86m-57.57-222.26l.12,36.71m-23.73,86.85l-.02-5.13m259.14-160.33l-16.17-1.56m-713.56,162.66l.17-36.68m388.91-46.33l-.05-35.96m-331.63,31.97l.1-29.43m164.07,92.87l4.83,4.07m0,0l8.13,6.9m190.64-313.42l-45.39-12.37m156.35-83.66v-4.36m0,0l-.02-5.91m151.85,231.78l-.05-6.66m0-1.09l-.02-2.59m48.34,7.49l-.07-8.76m-22.63,43.27l-.02-3.19m-11.1-37.75l3.13.6m.72,1.76l-5.57-1.04m-59.6.18l1.87.31m63.38,12.08l-10.76-1.76m-52.59-8.56l-1.87-.31m.05,11.41l1.87.26m52.64,7.49l10.74,1.5m-65.17,3.92l1.87.21m.02,1.58l-1.87-.21m-445.33,225.92l.02-11.28m-40.04,59.76l.05-13.07m394.92-200.36l.17,39.74m.02,9.13l.02,2.64m-56.73-14.13l.29,85.17m211.9-166.47l-14.16-1.35m-71.8-16.59l-13.61-1.53m-477.26,66.45l-17.82-.03m0,0l-46.06-.05m0,0h-1.84m-63.98,119.78v-3.16m23.85-2.9l.14-35.57m0,0l.36-83.09m355.43-217l-3.78-1.04m0,0l-42.36-11.54m228.02,100.33l-24.87-5.26m0,0l-3.25-.7m19.66-132.72l.02,3.4m0,0l.02,6.53m0,0l.02,4.93m134.75,185.97l-.05-8.5m-28.34-21.26l-.05-10.53m53.91,55.33l-.05-4.87m-85.22-18.67l-.07-11.67m61.66-3.55l2.25.44m0,0l10.33,1.94m-59.46,1.81l9.28,1.56m0,0l4.33.7m33.36,5.55l2.22.36m2.68,2.02l-3.56-.57m-36.86-5.99l-2.15-.36m0,0l-9.28-1.5m.05,11.36l4.04.57m43.77,6.22l4.09.57m-40.44-4.1l-2.15-.31m0,0l-7.89-1.09m-.79-.13l-3.71-.49m3.16,11.88l9.3,1.09m0,0l4.31.52m-2.15,1.3l-2.15-.26m0,0l-9.28-1.06m-114.9,169.14v-2.77m-372.27,94.76v-9.2m533.49-191.88l1.39,215.68m0,0l.02,2m0,0l.22,33.73m-140.03-210.44l.02,5.76m-80.67-2.05v-2.57m0,0l-.02-5.13m242.4-79.57l-6.22-.6m-698.9-10.99l-3.44-.18m152.16,58.18l-14.21-.03m0,0h-12.44m-105.86,116.93v-3.11m542.75-247.02l-4.93-1.06m-28.13-5.96l-27.17-5.76m46.78-137.2l.05,10.24m106.57,193.82l-.05-8.04m40.2-5.11l-3.16-.6m0,0l-4.69-.88m.05,10.27l5.29.88m0,0l3.54.6m-172.68,203.8l-.07-13.22m0,0v-2.8m-.02-3.42l-.17-47.32m-331.85-59.5v-3.47m-40.23,196.03l.1-45.5m395.04-94.14l.02,4.67m0,1.01v3.89m85.81-121.1l-6.34-.73m-619.59,5.99l-2.13-.1m319.24-125.87l-47.36-10.03m272.37-103.99v2.57m0,0l.05,12.06m183.13,207.04l-.05-8.89m-76.44,8.89l-.02-1.92m-12.72.1l3.68.52m1.58.23l4.3.62m-105.52,134.61l.02,3.29m0,0l.65,153.43m-81.17-99.17v-2.59m-.05-12.89v-2.57m0,0l-.17-56.65m160.2-104.69l-2.27-.23m-203.03-99.14l-97.18-20.61m360,122.5l-.07-9.15m-28.15,7.03l-.02-4.8m-31.69-25.87l-.07-11.59m-432.16,256.28l.02-21.8m0,0l.02-2.25m0,0l.07-55.35m274.54,41.17l-.05-12.26m170.7-162.68l-2.32-.26m-11.72-1.32l-6.63-.75m-617.37,6.74l-4.5-.23m507.66-87.58l-76.7-16.26m0,0l-4.4-.93m234.55,93.96l-.02-5.31m53.65,11.51l-.02-4.04m-557.29,164.55l.14-59.94m0,0l.07-37.51m314.01,32.64l-.1-35.44m172.85-59.6l-1.87-.21m95.12-2.67l-.05-9.02m-22.89,5.76l-.05-3.94m-517.28,114.44v-2.64m0,0l.02-21.86m-40.08,125.12l.02-10.84m0,0l.02-11.74m0,0l.05-18.95m0,0v-3.58m471.95-205.02l-.07-11.48m-431.97,190.22l.05-26.78m0,0v-2.44m.02-24.5l.05-20.33m470.04-56.93l-6.31-.7m-7.51-.86l-9.28-1.04m27.98,3.16l-4.88-.57m-7.32-.8l-6.51-.75m84.07,6.97l-.07-9.15m-23.01-10.03l-.02-4.87m-85.34-42.57l-.07-10.11m0,0v-3.03m108.58,90.04l-.07-8.66m-23.13-27.2l-.02-2.98m-32.43,24.81l-9.04-1.01m15.4,1.74l-6.36-.73m32.43-25.95l-.05-5.7m0-1.61l-.02-2.05m0-1.14l-.05-6.56m-.02-3.4l-.02-3.71m0,0l-.02-3.16m0,0v-2.59m-375.04,357.44l55.99-15.97"/>
        <line class="cls-1" x1="1368.84" y1="1000.45" x2="1419.23" y2="997.91"/>
        <path class="cls-1" d="m1532.36,757.81l340.89,65.07m-378.53-48.22l37.65-16.85m-145.99-629.25l-196.12,594.74m891.17-28.39l-82.99-48.74M1386.37,128.57l665.47,484.89m-542.17,553.7l-1.67-13.17m-.31-2.33l4.95-1.87m.29-.1l1.87-.7m-264.14-52.24l-2.46.28m-.33-.39l6.1-.75m.45.52l-3.06.36m-3.16.26l-3.35.44m0,0l-3.32.47m0,0l-3.28.52m0,0l-3.25.54m0,0l-3.16.57m0,0l-3.09.6m0,0l-2.99.65m0,0l-2.89.65m0,0l-2.77.7m0,0l-2.65.7m0,0l-2.49.75m0,0l-2.34.75m0,0l-2.18.75m0,0l-2.01.78m0,0l-1.79.78m49.15-.73l-55.34,7.21m55.73-6.74l3.64-.47m-1.44-.31l-2.58.31m-55.49,6.84l55.2-7.18m196.57,1.58l-2.97.49m0,0l-2.87.54m0,0l-2.8.57m0,0l-2.68.62m0,0l-2.56.65m0,0l-2.46.7m31.81,7.52l-32.53,5.47m0-.54l32.53-5.47m178.52,19.76l2.73.83m0,0l2.92.78m0,0l3.11.75m0,0l3.28.67m0,0l3.42.62m0,0l3.56.57m0,0l3.66.49m0,0l3.75.41m0,0l3.85.36m0,0l3.9.28m0,0l3.92.21m0,0l3.92.1m0,0l3.92.05m0,0l3.87-.03m0,0l3.85-.1m0,0l3.75-.21m0,0l3.64-.26m0,0l3.54-.34m0,0l3.4-.41m0,0l3.25-.49m0,0l3.06-.54m0,0l2.89-.6m-36.11-12.57l37.62,12.21m-1.51.36l-38.12-12.42m-307.81,12.89l-9.02,1.58m-33.29,5.86l-11.19,1.94m70.67,3.71l-3.61.65m0,0l-3.71.57m0,0l-3.75.52m0,0l-3.83.47m0,0l-3.83.39m0,0l-3.85.31m0,0l-3.66.21m-33.27-1.94l-2.22-.54m0,0l-2.15-.65m0,0l-1.91-.7m-4.28-2.41l10.59-1.87m33.29-5.86l9.69-1.71m-249.98,726.89l-17.87-732.41m224.65,62.85l2.44,2.88m-41.97-49.42l15.88-2.75m446.51-68.55l6.51-1.19m1117.76,381.27l55.44,68.96m-935.39-439.57l1198.5,220.08m-1860.72-105.91l19.06-4.28m1841.66,354.12l-318.55-93.41m-1192.86-336.13l2.46.78m-582.24-24.55l141.47-16m499.32-5.81l7.58,1.63m-529.07,38.63l7.13-.99m-1.79-2.64l-7.01.96m660.35,70.99l16.74,5.34m-212.48-67.56l4.71-1.06m-460.52-6.01l24.04-3.32m-32.84,1.63l1.67,2.67m33.6,38.37l33.08-5.7m171.77,202.17l6.36,7.49m-238.6-244.64l24.97-3.42m0-1.4l-25.85,3.5m246.08,253.74l13.73-5.7m-194.09-150.37l40.11-9.02m-54.55,5.03l3.99,6.33m-35.54-56.52l31.55,50.19m-23.01-51.67l-1.34-1.97m174.24-57.3l13.68,6.71m-220.18,14.18l22.55,35.86m44.32,51.96l-33.27-49.44m72.61,40.83l-39.34,8.61m-35.92-53.38l-8.4,1.43m38.05,60.51l10.45-2.33m-45.99-54.19l8.54-1.48m37.45,55.66l-2.13-3.16m-46.38-55.02l2.51,3.99m5.88-5.42l-23.82-35.41m61.8,91.86l39.73-8.79m-41.78,5.73l-10.26,2.23m31.86-103.63l-5.72.78m5.72-.78l3.06-.41m-8.97,43.92l23.87-4.12m33.32-5.76l5.91-1.01m74.53-33.21l2.37,1.14m-79.07,30.41l-3.73.65m-33.29,5.68l-23.89,4.1m24.06-43.87l-15.09,2.07m678.29,110l-4.45,2.38m8.78-4.72l-4.33,2.33m-440.05,220.68l-15.09,7.88m450.69-226.18l-9.09,4.9m-432.11,232.45l15.26-8.22m29.11-15.66l-9.97-10.16m397.72-198.41l-10.43-3.37m-406.42,227.6l29.11-15.66m-38.77,4.82l9.66,10.84m411.04-230.01l-75.05-23.85m70.44,26.26l4.62-2.41m-91.79-29.19l-16.07-5.11m0,0l-7.77-2.46m-403.91-43.74l-1.94.36m9.93,4.15l-7.99-4.51m55.18,1.09l30.78,15.09m-38.05-13.66l7.27-1.43m-119.15,17.14l2.58,1.97m69,159l-108.3-115.47m280.71-57.56l-4.5-1.74m-93.42-9.75l-34.2,6.66m1.1,19.94l3.87,2.13m74.76,261.28l-80.03-81.48m-39.99-40.7l-99.02-100.85m139.29-53.2l21.79,11.28m122.79-10.81l53.6-12.7m-53.6,12.7l-16.1-.75m-168.85,209.66l-127.29-149.83m442.68-50.01l-76.87-24.45m-242.28-6.92l4.23,2.2m108.92.93l31.81,12.7m27.65,5.7l-10.76-4.17m349.31,78.92l-268.85-86.7m-175.84,1.92l31.45,14.6m-193.08,48.92l99.28-22.27m39.99-8.97l117.74-26.42m24.47,2.64l55.97-13.09m-55.97,13.09l-10.07-.47m166.96,19.47l56.92,18.1m-254.21-133.29l-5.96.7m381.62,175.13l952.49,307.12m-935.16-400.81l56.87,11.95m-663.55,13.69l-17.53-13.35m624.55,40.81l40.09-19.08m-21.64-5.13l21.64,5.13m-439.38-115.45l2.22.47m8.23-.21l-2.25-.49m390.8,89.78l8.18,1.79m-768.38-49.47l1.6,1.89m10.05-3.24l-11.65,1.35m817.03,51.51l-38.1,16.93m-423.86,273.39l429.07,436.9m-418.48-819.65l2.99-.36m-367.05,43.17l5.93-.7m319.41-38.53l-13.18,1.53m12.65-1.66l-13.18,1.53m13.44-1.48l-13.18,1.56m-2.15-.23l29.92-3.47m2.18.49l-31.28,3.66m15.4-1.37l-5.12.6m275.4,34.27l-24.59-4.93m-2.1-.41l2.1.41m21.72,5.03l2.87.6m-33.67-7.44l2.8.54m54.22,62.92l-14.47,4.54m-39.75-67.46l4.19.86m-33.32-5.5l2.3-.42m.21,72.36l-81.53-25.23m-4.64,1.04l14.04,4.41m129.87,18.77l-4.35,1.35m-26.21,8.06l-3.09.96m0,4.07l9.62-3.01m32.67-12.19l14.47-4.51m-16.62,7.1l-6.48-1.84m9.16.05l13.94-4.36m-53.67,13.72l6.53,2.02m26.17-8.22l-6.48-1.87m12.99-.18l-2.15.67"/>
        <path class="cls-1" d="m1835.77,1149.32l-26.21,8.06m39.2-9.7l14.47-4.51m-47.14,16.23l26.17-8.22m0,0l4.35-1.37m-37.05,7.57l-3.11-.96m-117.41-30.02l2.46-.54m-66.39,9.7l-16.89,3.68m-240.13,55.77l1.79-.39m47.81-10.58l4.14-.93m5-4.25l8.01-1.74m-13.01,5.99l-3.13-2.46m16.14-3.53l3.28,2.38m-40.04-22.53l28.75,21.88m11.29.65l29.27-6.46m39.97-8.87l117.74-26.06m-195.07,43.17l8.08-1.79m-19.42,1.14l-4.11.91m12.25-2.7l3.2,2.44m113.2,263.04l-63.26-74.46m72.76,85.63l-9.5-11.17m29.7-15.48l-65.87-70.23m-13.37,5.55l64.62,72.28m28.8-14.99l-14.18,7.39m-151.11-245.75l8.2-1.81m-12.34,2.75l-47.81,10.58m44.7-13.07l-46.47,10.14m66.87-63.41l28.27-4.87m4.23-2.59l-32.5,5.57m38.39,235.72l-13.92,5.65m0,0l68.19,84.7m0,0l15.59-8.12m-76.22-89.73l-13.78,5.44m0,0l6.22,7.7m68.19,84.7l9.3,11.54m-110.11-285.13l-8.13,1.79m-46.66-43.5l2.18,1.66m41.9,43.97l-47.59,10.47m5.69-56.47l-2.18.36m164.91,326.85l15.79-8.48m211.4-375.56l9.52-1.74m-399.22-3.76l-5.88.67m0,.93l5.88-.7m-127.45,20.25l6.05-.73m0,0l-3.47-3.89m-5.93.7l3.35,3.91m.86,1.04l6.1-.75m-.26-7.44l6.22-.73m-.02,1.01l-5.33.62m-25.97,30.41l-118.44,16.36m143.55-47.68l-2.94-3.14m374.35-33.73l-14.4-3.06m-354.55,57.89l-8.3-9.77m359.86-47.76l17.39,3.73m-365.31,53.33l-3.64.47m523.73-29.37l-6.22,1.17m-517.52,28.21l2.01,2.36m328.91-58.23l3.11-.36m-2.18-.49l-3.11.36m18.34-2.13l-15.23,1.76m0,0l2.18.49m-7.89.36l-12.75,1.48m13.3-1.37l-12.77,1.5m14.83-2.1l2.18.49m-4.5.05l-12.77,1.48m20.38-1.89l15.28-1.79m97.89,19.6l-2.58-.54m33.96,7.52l-33.96-7.23m2.58.1l-2.58-.54m35.73,8.06l-1.77-.39m-360.31,6.22l-5.88.73m334.81-14.23l-2.58-.54m-82.78-20.92l7.1-.83m0,.73l-4.86.57m116.26,28.67l3.23.67m-119.73-29.87l5.09-.6m-4.81.65l4.81-.57m-4.54.62l4.54-.52m-8.56.62l2.25.47m-5.17-.13l-4.42.52m6.67-.05l2.92-.34m-7.34.86l4.42-.52m0,0l-2.25-.47m2.92-.34l-2.92.34m-503.48,89.42l-.86-34.82m1828.07,428.87l263.11,327.34m-1504.24-732.72l4.64-1.04m-450.12-38.45l9.16-1.04m108.66-12.32l5.91-.65m176.17-19.94l74.45-8.43m-287.87,158.9l2.51,2.93m233.21,224.08l-14.61,7.6m-297.5-280.29l-1.32-1.97m37.98,56.44l-2.06-3.06m198.27,156.59l13.37-5.55m69.34-212.44l-15.24,3.32m0,0l-15.74,3.45m62.78-13.72l-17.08,3.73m-216.93-4.17l2.2,1.66m135.94,19.73l-5,1.09m-39.97,8.74l-32.55,7.1m94.33-20.61l-16.81,3.68m33.08-7.23l-16.26,3.55m61.97-13.53l-14.73,3.21m133.84-16.98l72.16,22.63m219.85-9.33l8.16-3.24m-404.96-90.87l2.25.49m2.99-.36l2.99-.34m-2.25-.49l-2.25-.47m-359.62,43.76l5.86-.7m224.56,279.59l-6.6-7.78m-15.78-224.96l9.85,5.63m238.09-12.44l4.71-1.11m310.71,29.04l-17.12,7.6m-489.17-27.97l15.07-2.96m-66.47-11.51l4.23-.73m62.23,12.24l13.58-2.67m-159.79-257.03l6.17-.29m0,0l-5.84,1.48m47.93-10.4l-46.85,11.56m49.36-12.19l-2.51.62m-48.65,12l1.79-.44m597.85,6.97l55.77-3.79m-387.07-56.62l403.41,56.41m-16.34.21l-384.97-51.75m401.3,51.54l-67.54,4.51m-333.76-56.05l-56.44,12.06m-14.21-1.61l68.55-15.32m-439.86,88.12l11.69.29m.02-4.17l-1.87.62m0,0l1.87.05m0-.67l67.45-22.37m88.83-7.13l3.52-.86m154.46-43.66l-76.99,19.99m-114.4,32.77l33.41-8.24m621.01,7.7l-13.27-1.5m79.48,16.41l-66.15-6.35m-561.21-31.01l14.95-3.68m-20.11,4.95l5.17-1.27m21.14-9.77l-6.17,1.61m128.51-16.49l-45.35-5.11m449.76,50.71l-4.57-.52m-761.3,24.45l-9.85,3.27m385.52-71.19l-14.21-1.61m399.84,45.08l-385.64-43.48m404.01,128.1l123.75,3.63m5.79,77.21l-5.14-.54m4.5-76.53l.02,4.54m0,0l-5.12-.18m5.69,68.19l.05,4.54m396.52,104.84l-267.73-40.16m-220.99-138.24l.41,57.71m21.48-54.83l.41,54.88m-2.66-57.06l.02,2.1m-56.61,51.23l18.49,1.81m82.94,10.37l-.53-66.14m23.03,66.16l.02,2.25m-44.08-6.61l-.48-60.38m44.01-.67v2.26m-46.33.49l-18.25-.7m18.68,56.62l-.43-55.92m-20.09,53.95l-17.51-1.69m63.88-53.46l.5,61.89m-24.47-62.77l-22.82-.8m47.28,63.57l17.53,1.71m-39.15-1.69l-.5-64.87m41.66,3.66l-2.54-.08m0,0l.53,62.97m-62.16-8.22l18.27,1.74m-38.03-3.66l-.38-53.72m0,0l17.51.67m155.2-203.26l-3.2,5.65m-190.5,194.13l.02,2m-65.8-231.86l15.67-12.19m156.01,315.73l.19,22.58m-108.13-94.34l.36,52.4m-16.38-52.99l16.02.6m-63.76-234.92l9.69-7.57m56.49,295.06l16.72,1.61m-35.54-56.78l18.44.67m16.72,2.64l-16.69-.65m104.78-59.01l.31,36.01m-.31-36.01l-1.03-123.15m-103.78,180.16l18.85.67m-1.75,55.43l-.38-53.46m172.25-202.27l-200.52-51.9m9.88,305.85l-16.05-1.56m0,0l-.33-51.44m214.46-203.13l-165.29-42.18m-40.99,128.05l-.05-7.96m-.02-2.39l-.05-7.57m-23.39,4.85l.05,6.4m0,1.09l.02,3.14m.02,2.7l4.04-.39m13.27-1.27l4.09-.39m0,0l-.05-5.96m-.02-2.96l-.05-6.97m-23.27,4.28l.05,6.95m0,1.09l.02,2.62m0,1.66l.02,3.47m21.19-19.83l-2.08.26"/>
        <path class="cls-1" d="m1992.14,843.94l-3.99.44m-3.68,17.84l7.77-.73m11.93-1.14l5.6-.52m108.58-63.49l1.03,122.55m-113.63-62.64l-.02-3.97m-.02-3.55l-.05-6.35m49.22-5.6l.31,41.82m18.03-1.24l-.31-42.62m-88.59,5.57l-.02-3.21m0,0l7.8-.96m7.22-.88l10.28-1.27m43.07,3.03l.31,43.81m-43.39-46.85l.02,3.32m40.85-.03l.07,9.18m0,1.22l.07,9.59m.02,1.19l.07,9.62m0,1.17l.07,9.67m0,1.11l.02,3.03m-61.61-25.17l3.01-.31m11.43-1.11l2.1-.21m47.24,24.58l22.55-1.5m-2.63-44.59l-18.03,2.05m20.66,42.55l-.36-46.98m-19.99,46.25l18.03-1.24m1.96-45.01l-19.78,2.28m22.05-8.97l.02,4.28m-27.05-.96l27.03-3.32m-27,6.01l-.02-2.7m-62.26,18.15l.02,5.86m.02,1.09l.02,3.63m89.64,23.62l-.41-51.39m-26.67,53.12l27.07-1.74m47.86,190.71l-124.03-15.82m87.3-255.55l.93,118.95m-12.46-89.68l-23.03,2.72m196.43,83.02l-.1-10.11m11.53-138.76l-1.46,2.52m-77.85,48.14l.74,80.81m78.57-131.47l-184.54-44m0,0l-32.74,7.52m31.69-5.39l-27.89,6.35m158.88,51.93l45.56-6.69m4.11,138.99l2.1,199.16m-125.54-291.41l49.05-5.81m39.51,98.91l5.5-.13m-47.83-96.08l.72,78.22m69.77-2.96l-49.46,2.1m49.58,8.04l-116.09,3.86m87.92,16.83l-87.75,1.35m65.27-143.27l1.08,113.19m21.31,18.85l.1,9.88m-221.59,21.21l256.73,1.17m-122.67,6.25l-10.31-.1m9.21-129.24l46.21-5.37m29.97-38.53l43.94-6.51m.17-5.96l-178.04-43.14m183.16,42.93l-3.47,5.91m-40.52.23l38.87-5.94m-120.54,24.91l.24,29.19m90.48,286.14l-.38-37.23m3.11.36l-3.11-.36m-50.15-12.91l-.93-103.96m-367.01-2.98l4.11.05m52.26,28.03l-.05-10.29m0,0l-14.83-.54m-37.38-17.19l30.61-11.61m-21.81,26.21l.02,11.28m-7.44-24.37l.1,24.01m50.97-9.44l-43.65-1.48m408.29,105.57l-.07-7.44m-150.87-339.09l-25.45,5.76m-240.1,220.6l30.69-11.61m385.73,124.34l-53.19-5.83m-367.94-106.94l30.26-11.54m-16.1,27.82l.02,9.72m40.78,2.02l-.02-8.63m-27.05-1.04l.02,8.32m27.03-7.28l-12.1-.47m0,0l.05,8.5m-27.48-9.54l.02,8.17m26.07-7.18l-13.61-.52m-1.29-.05l-11.19-.41m-14.71-16.41l.07,23.85m12.13-13.82l43.65,1.3m-43.62,1.84l-.02-3.14m201.19,68.44l18.87,1.87m97.39,62.04l-10.36-1.56m-87.03-60.49l19.66,1.94m-.43-58.96l-19.64-.7m86.41-3.66l5.14.13m-4.5,76.53l-123.96-13.04m82.2,4.33l19.18,1.92m-101.41-10.22l82.23,8.3m39.15,1.69l2.54.26m-66.92-6.59l22.86,2.23m21.02-61.81l-19.16-.65m42.21,69.07l5.14.52m128.84,69.22l-35.06-5.26m-1.91-193.04l-87.75,2.15m-31.79,124.13l22.53,2.28m-.55-67.67l-22.51-.75m19.97,2.93l-17.51-.62m14.47-59.94l5.07-.13m-104.42,111.51v2.02m191.93-256.64l-201.64-51.96m198.3,52.45l3.35-.49m-76.03,279.46l.36,41.09m-164.17-283.78l236.49-36.27m-73.54,178.73l.86,100.23m-77.78-75.86l.38,54.73m-7.77-302.19l-1.94-.49m86.03,196.31l.22,27.27m-180.77-134.43l9.26-1.35m22.39-3.29l103.06-15.14m-30.47,233.31l.02,2.13m59.79-239.76l5.07-.73m-33.48,124l29.44-.73m14.33-124.81l66.42-9.75m-245.84,35.18l9.14-1.35m20.07-2.96l224.99-33.31m-83.71,172.87l.14,18.02m-105.23,4.98l.36,52.5m105.71,41.77l.19,22.61m-69.91-174.2l33.91-.83m-.93-118.95l29.35-4.33m5.07-.73l10.28-1.53m1.05,124.44l.1,9.08m39.03,131.68l-37.96-4.17m-329.29-101.29l4.81.08m36,15.69l-14.9-.52m-21.09-15.17l50.99.78m388.34-49.1l-.12-10.14m-66.92,2.85l-2.85.1m76.99-129.79l-181.17-43.66m48.05,229.83l-123.7-1.4m226.95-37.13l29.37-.73m-409.94,55.69l.05,8.48m376.55,92.5l-88.04-10.24m-2.06-238.67l.02,2.26m120.11-50.4l1.82-.26m-54.7,122.65l-17.46.75m70.51-129.11l3.64-.57m-425.34,202.04l.02,8.3m121.31-234.08l13.63-10.63m232.62,50.11l7.58-1.11m-162.68-52.89l-30.28-7.73m68.55,253.27l-82.11-2.75m133.43-72.77l.07,9.07m-.72-83.9l.65,74.82m-8.68,194.29l-124.08-18.62m-191.19-123.64l51.78.67m-29.9,16l-12.44-.44m218.39,7.83l-37.29-1.35m47.62-243.81l-3.8-.96m179.4,379.09l-88.13-13.22m-1.6-186.77l.07,9.1m46.14-20.14l-46.28,1.97m-760.06,143.45l-5.88.54m-108.61,9.65l-75.58,6.71m381.52-33.91l-19.92,1.79m-12.99,1.14l-7.29.65m73.69,7.57l-53.43,5.57m-171.58,17.94l-5.88.6m-108.63,11.36l-202.1,21.1m127.55-173.57l-.02,5.16m22.65-115.27l-.69,110.47m-40.23-120.09l2.44,4.64m-4.47-6.25l1.03,1.97m75.03,84.96l.26-47.06m-69.98-32.41l36.62,3.76m33.36,28.65l15.24,1.27m-13.2.86l-.24,43.06m2.03-1.84l.24-39.1m10.93,39.61l-11.17-.52m.24-39.1l11.14.88m-15.19-9.05l15.24,1.3m-13.47,47.81l13.18.62m0,1.94l-15.24-.7m.26-47.06l.02-3.91m-70.72-34.46l86.32-30.62m-91.94,29.12l91.96-32.38m-88.87,33.63l2.53.26m395.32,152.16l-.02,73.53m-380.83-69.51l-.69,103.42m388.91-108.89l-3.8.03m3.49,1.37l-7.06.05m-342.83-22.69l-28.99-.28m28.99,1.27l-28.99-.26m374.8,20.56l-22.86-8.89m23.44,8.87l-23.44-9.07m27.24,9.05l-27.24-10.63m-360.98,16.1l.02-1.97m72.37,60.02l-13.08.75m16-41.61l-2.68.08m-17.44,45.71l.26-47.26m2.03,1.92l-.24,43.24m-1.79-45.16l19.88-.47m-.74,3.89l-.22,38.79m.69,3.84l-19.88,1.22m17.44-45.71l-.02,1.92"/>
        <path class="cls-1" d="m1242.44,1018.16l15.14-.88m-16.93-44.28l.02-3.94m0,0l19.87-.39m-16.05,47.42l.21-39.25m0,0l13.08-.36m297.96,24.63l.02-35.47m-34.73,34.51l9.81-.57m-11.05.62l-5.17.31m41.14-34.87l-9.64.21m-12.96.31l-18.49.44m16.17,32.98l.05-30.33m-16.26,32.8l6.39-.36m9.88-32.43l-9.83.26m33.51,30.18l.02-32.54m-39.92,2.54l5.14-.16m34.78-2.39l-8.47.21m-31.5,36.25l18.49-1.12m12.99-.8l9.64-.57m-35.92-31.58l-.02,30.67m12.32-32.51l-.05,33.34m14.04-2.33l7.32-.42m0,0l.02-29.63m0,0l-7.32.18m9.64-6.15v2.96m-41.09-2.13l18.49-.39m12.96-.26l9.64-.18m-332.49-41.09l-15.93-.28m-13.13,10.01l-.17,23.93m-8.66-29.14l-.19,29.22m71.42-112.65l-13.18-1.06m14.13,175.67l2.7-.16m-2.49-40.65l-.22,38.86m0,0v1.94m-34.34-90.69l-37.84-.49m380.61,100.7l-.02,14.65m-357.94-230.61l48.72,4.98m-72.28,244.9l-.12,20.58m-13.51-275.31l85.93,8.87m309.25,138.42l-19.9.23m-285.55,2.98l-75.41.8m72.64,17.27l-15.14.36m-71.97-173.81l86.1,9.18m264.26,159.21l-.02,30.64m-.02,1.53l11.05-.65m.05-33.34l-11.05.29m0,0l-6.39.16m-346.51-167.27l88.85-31.45m312,182.47l-22.86.18m-285.55,2.59l-75.41.67m22.15-34.02l-21.93-.36m360.69,79.26l8.47-.52m-652.15-188.56l1.22-109.23M600.75,1.87l223.48,211.63m79.43,488.39l-30.11-34.02m0,0l-1.46,124.57m-109.9,68.55l-1.32,97.84m179.45-277.41l-115.95-478.49m115.95,478.49l-.38,2.88M619.81,1.87l121.52,119.44m130.75,671.14l30.35,18.67m35.97-130.82l-114.18-466.8m113.82,477.32l-3.61-5.08m5.17-2.8l-.91,6.87m-65.13,98.36l1.34-113.53M675.49,1.87l22.58,24.97m192.1,664.71l-.07,4.82m10.21,104.17l1.03-91.99m-12.48-13.56l-1.12,97.27M293.63,1.87l-15.86,746.8m597.28,35.29l1.2-102.62m-2.58-23.8l-.12,10.34m27.84,137.98l-12.44-7.91m12.39-89.39l-11.24-12.18M342.97,1868.53l209.15-249.77m351.63-925.97l-30.09-35.26m15.33,135.57l11.31,7.44M689.57,1.87l5.74,6.56m207.19,696.78l-1.12,100.64m-760.68-88.95l-42.36-9.83m777.9-25.74l12.6,13.66m42.74,256.46l-10.45.44m-46.23-277.25l15.26,16.9m13.49,10.34l.1-9.1m-16.02,99.48l-12.68-8.32m-114.18,174.9l-6.65,493.84m199.06-488.52l-1.96,188.22m-611.22-389.25l-20.26,1000.48m609.62-768.42l-.1,7.93m-366.41-35.75l-10.83,651.39m378.03-611.96l-1.77,166.57m6.05-487.64l-2.3,214.67M84.45,1.87l-17.2,698m876.22,291.46l-14.02,3.86m26.5-28.73l-24.13-37.67m-611.99,834.81l81.08-83.35m555.26-717.06l-24.3-38.53m-13.37,268.96l32.81-41.25m-30.18-200.49l-2.49,229.19m23.08-23.93l1.67-158.49m-2.39,159.37l1.63-155.43m-541.72,677.65l13.39-706.46m540.55-7.18l-1.58-2.46m-10.64,38.45l-12.48,4.2M695.31,8.42l54.96,121.7m179.09,873l14.04-4.46m-624.59,815.81l218.84-238.62M697.15,20.69l47.21,103.63m211.81,838.88l-.22,3.27m-26.6,36.66l-1.84,171.29m4.62-274.01l-92.22-21.39M698.06,26.83l43.27,94.47m202.07,877.36l.07-7.34m-103.56-112.31l2.99-245.67m-38.17,230.87l19.25,4.87m14.16,3.58l1.22-100.31m-186.93-344.01l-3.33,217.08m8.61-221.1l.31-19.44m181.34,367.47l-14.06-8.66M492.19,210.6l-.48,26.37m13.3,303.72l4.54-257.47m-8.78-22.79l89.81,99.45m-98.87-122.91l-5.69,318.19m104.56-195.27l-.17,11.12m-80.86-87.78l74.09,80.45m3.11,230.77l57.19,37.59m198.97,1.32l-37.02-41.82m-147.86-186.64l-165.84-194.29m313.7,380.93l-3.59,278.78m-316.28-315.15l168.14,103.37m3.56-234.19l-166.01-187.37m162.44,421.55l3.56-234.19m-74.07-60.67l-3.73,226.28m64.03,42.08l3.09-199.55m159.14,319.48l-1.44,112.26m34.7-97.74l-33.17-21.1m0,0l1.84-144.67m-312.45-52.89l5.12-287.39m148.33,385l-62.54-39.8m-6.65-15.69l-74.91-49.26m142.02-108.21l-56.61-61.47m233.65,491.89l12.27,3.37m4.69-229.13l-1.58,129.34m-33.39-188.17l-.17,13.22m37.02,41.82l.14-11.67m-21.05,240.64l-14.85-4.07m.96-257.55l32.91,36.43m-17.84,131.55l-1.17,93.64m14.33,3.94l1.1-89.13m5.62-155.45l-37-43.37m1.1,279.95l1.24-98.34m29.04,17.22l-12.2-7.23m.07-6.2l-.07,6.2m-16.84-9.98l14.78,8.76m127.91,408.18l18.77-26.31m-31.45-470.24L476.21,1.87m413.96,689.68l12.34,13.66m-62.59,173.81l-27.77-6.46m-411.23,807.7l137.36-141.22m350.72-745.94l-.05,4.85m1.15-101.58l-1.1,96.73m-298.41-433.22l61.85,68.47M607.32,1.87l216.95,208.08m107.55,718.85l.05-4.12m-654.11-176.01l62.33,14.47m-199.4-46.22l137.07,31.76m656.67-62.92L448.13,1.87m490.13,687.32L453.23,1.87m98.9,1616.9l366.53-437.68m2.49-229.19l-80.31,3.47m-86.6,497.31l163.97-229.75M680.32,1.87l16.84,18.82m221.04,1202.24l32.89-46.07M98.34,707.08l-31.09-7.21m390.21,1168.66l296.76-415.85m-12.89-1331.37l3.04,3.01m144.58,673.63l-15.38-9.77m-32.74,167.2l-79.95,3.47m-170.46-587.84l-3.66,223.43m237.23,274.66l14.16,3.58m90.24,300.71l12.63-15.35m-22.36,23.05l-.14,12.55m13.32-264.83l-.02,2.07m-345.24-325.24l-90.91-57.81m329.58,222.08l-1.17,93m127.26,289.49l-.24,24.47m-364.33-582.43l-.19,11.2m-266.72,1157.98l-1.03,50.87m506.49-1050.78l-19.13-11.74m147.11,212.2l-21.48-33.29m-107.75-67.98l-.07,6.2m115.28-187.52l-114.99-471.62m107.6,714.73l.26-24.27m-.34,30.46l-.22,20.59M744.37,124.31l5.91,5.81m10.6,828.72l-197.91,8.53m-244.14,847.1l-1.1,54.06M67.25,699.87L.45,684.37m811.7,188.2l-9.85-2.26m-462.2-107.18l422.09,97.87m156.32,332.63l-.31,29.3"/>
        <path class="cls-1" d="m750.27,130.12l74.09,72.83m-410.06,770.86L.45,991.69m801.84-121.39l-40.11-9.31m-199.23,106.37l-148.64,6.43m1724.82-639.57L2696.47,1.87m-557.34,332.37L1939.71,1.87m139.2,368.28l60.22-35.91m-946.99,101.08L1255.69,1.87m700.94,514.27L1296.99,1.87m-22.31,465.42l-82.54-31.97m688.26,53.23l198.51-118.4m0,0L1805.4,1.87m-613.26,433.46L72.37,1.87m2119.45,520.31l-112.91-152.03m161.56,132.95l-101.34-168.86m-978.04,312.87l31.04-211.79m1447.7,862.5l217.64,570.71m-196.74-1114.45l-3.35-196.08m0,0l8.01-20.2m15.26,200.8l-11.58,13.45m-12.77-199.14l3.59,209.84m9.04-18.67l-8.2,9.98m4.52-224.18l.14,7.91m-54.84,683.28l29.27,76.74m-40.18-63.65l207.19,634.36m-129.25-1379.31l4.45,256.51m0,0l-39.2,43.69m-3.35-200.12l38.1-100.07m-53.26,391.09l7.22-3.81m11.96-94.66l-3.16-187.83m-13.08-54.73l5.57,336.52m7.51-281.79l7.96-20.48m-5.48,215.88l-3.35-200.12m30.54,153.48l9.23-11.2m0,0l-3.78-219.23m1.05-11.46l4.11,237.72m-5.17-226.26l-9.04,22.76m0,0l3.59,207.67m-22.43-160.04l3.09,183.5m81.29-315.21l-17.41,37.75m19.42-171.29l-24.92,68.03m0,0l.36,20.14m-17.91-78.09l9.45,536.25m-45.44-301.08l-7.08,17.86m2.25,185.63l-6.53,7.93m7.39-8.97l7.25-8.79m73.66-399.57l1.87,100.83m0,0l-21.36,45.14m0,0l-1.63-91.54m-67.18,362.91l-2.94-175.36m95.48-134.4l-25.28,52.19m-70.2,82.21l6.39-16.07m-22.79,326.46l-.05-2.88m105.81-532.99l1.41,77.7m-83.66,122.5l.12,7.08m28.87-108.4l-38.03,103.78m38.31-86.77l-.29-17.01m34.11,44.38l-1.98-110.94m5.14,83.12l-1.29-71.79m-3.85-11.33l24.97-65.62m-23.06,71.22l21.12-54.42m-73.66,399.57l-3.28-193.67m57.76-145.75l17.29-43.66m3.83-33.29l2.3,124.37m-97.41,111.58l.22,13.3m366.27-403.2l-80.53,121.7m-190.83,32.25l-.41-22.56M2904.55,1.87l7.77,366.07m103.73-197.43L3127.65,1.87m-126.09,0l4.21,184.23m-87.11,152.26l-7.15-336.49m237.38,0l-132.26,193.3m-104.3,172.77L3171.61,1.87m-246.37,305.93l-6.55-305.93m-262.18,1056.66l.12,7.21m31.14,7.93l3.61,208.91m-43.34-230.46l8.47,6.4m28.96,30.44l-9.61-7.75m1.63,160.46l-8.71-15.04m-18.22-24.86l-2.51-149.64m30.59,191.51l9.83,16.96m-71.08-705.52L2673.97,1.87m15.95,1269.64l-12.29-21.75m-61.56-692.69L2672.24,1.87m-54.6,566.27l.17,2.36m-1.75-13.43l.31,4.15m52.4,665.41l-2.61-153.22m-19.04-28.65l40.63,28.91m-71.39-512.45l.22-2.05m74.79,723.41l-41.54-75.47m0,0l-2.7-162.35m39.49,36.61l3.3,190.14m-73.33-712.34l.74,9.96m57.26,503.12l.12,8.04m13.75,180.32l-2.99-171.63m-9.61-7.75l2.77,162.43m-12.46-170.23l8.54,6.87m-9.66-15.27l2.85,167.48m115.09,216.51l-5.84-311.73m-110.4,85.84l-2.58-151.3m112.98,65.46l-43.72-31.09m0,0l4.74,261.39m-50.7-311.24l-40.56-25.04m88.8,87.29l19.11,14.52m-148.17-156.9l3.92,244.9m77.2-147.41l-.31-17.34m87.06,91.7l5.29,282.72m-175.86-459.93l.19,4.56m42.76,55.9l.24,13.48m-43-69.38l2.51.8m18.13-69.87l575.68-177.88m-575.63,180.76l575.63-163.98m-574.39-201.89l5.5,333.17m-26.07,94.73l19.21-69.53m39.46,170.1l-7.53-6.07m-51.35-94.55l19.4-70.36m34.39,309.04l7.68,13.25m-17.79-163.57l6.79,5.47m-51.8-94.19l20.64-76.01m0,0l76.39-30.98m-49.72,332.55l-2.3-136.84m9.21,148.74l-6.91-11.9m4.5-131.37l2.42,143.27m80,159.29l44.82,81.43m-3.18-18.25l-20.16-35.73m-19.56-34.66l-4.38-241.79m36.26,39.98l-16.93-13.61m232.5,164.6l91.79,69.61m-71.56,432.52l-10.48-471.72m-259.28-208.73l14.61,11.77m2.2-9.9l.22,11.85m-2.42-1.94l4.35,235.8m438.18,88.17l5.31,210.03m-201.69,141.56l-11.24-509m-210.88-198.1l-43.6-26.96m23.92,294.31l-14.95-25.77m35.13-215.76l-.5-25.82m423.81,327.03l-222.33-158.2m-201.43,132.61l-4.74-254.33m295.4,237.82l11.03,472.16m-37.67,0l-32.96-56.86m-17.7,13.48l23.89,43.37m-254.52-485.46l17.27,29.82m-43.65-328.4l.38,21.7m345.89,272.97l.65,27.35m-337.95-53.48l-4.02-221.8m240.13,149.05l11.93,544.88m7.22-485.2l70.08,56.41m133.1-23.13l-223.34-137.95m0,0l1.01,44.98m209.35,588.26l-9.59-383.21m0,0l-97.92-78.81m-448.23-366.75l2.18,132.56m-13.51-135.77l-4.04-3.21m-3.28,106.97l-1.96-121.15m22.08,146.04l-1.99-119.93m-3.49,110.5l-4.47-7.73m5.07,8.74l4.88,8.43m-22.08-146.04l21.14,15.04m-9.02,113.84l-1.79-110.63m12.46,134.92l-6.1-10.81m-6.36-124.11l4.4,3.55m-12.41,95.1l-1.79-111.53m19.56,20.74l-4.78-3.86m-.67-6.17l.1,5.73m-14.21-16.44l4.64,3.53m18.37,151.49l-21.57-39.23m19.18-106.11l2.39,145.34m-8.23-138.13l1.89,115.37m-7.49-125.27l1.96,121.13m-5.19-14.34l-3.78-6.53m2.46-103.7l.07,5.29m-2.54,98.41l-1.65-101.81m0,0l3.71,3.01m0,0l1.72,105.34m.48.86l4.09,7.05m0,0l-1.77-109.64m-9.45-27.48l.17,10.09m20.95,2.96l-21.12-13.04m21.31,25.12l-.19-12.08m.79-146.3l567.6-299.34m-548.9,188.74l.12,7.13m-26.91,133.99l-.07-4.62m44.39-149.64l-9.18,10.71m-3.59-209.84l8.94-23.02m0,0l11.29-29.01m-28.22,72.64l7.99-20.61m12.63,191.18l.14,7.96m-3.68-214.25l3.54,206.29m-44.27,156.72l-.1-6.01m23.87-314.2l3.11,184.59m365.07-570.03l-97.96,143.19m97.39-167.85l.57,24.66m-4.42-193.3l3.85,168.65m-341.46,901.73l12.03,9.13m-11.91-1.09l2.77,161.39m349.48,626.86l-28.2-49.99m81.2-412.04l10.86,462.03m-474.01-1311.46L2673.39,1.87m-46.11,537.42l-1.22,4.04"/>
        <path class="cls-1" d="m2691.52,327.57l-64.24,211.71m73.69,324.54l499.48-202.56m-589.89,559.82l.79,48.95m143.45-136.94l19.71,14.93M2790.32,1.87l-98.8,325.71m-34.9,738.16l2.44,144.12m5.98-144.85l9.54,7.23m-58-513.07l.22-2.1m9.26-13.74l-8.25,27.17m38.7,488.03l8.54,6.48m-5.98,144.85l.12,7.23M2788.08,1.87l-170.43,566.27m59.98,681.62l-9.73-17.27m-61.25-256.3l593.81,190.87m-440.81,227.97l-19.56-34.66m19.35,22.71l.22,11.95m319.67-15.87l115.83,87.81m-517.66-225.3l.14,8.09m-60.25-694.69l-.57,2M2777.91,1.87l-160.53,553.21m137.64,589.87l4.4,238.13m-133.58-342.12l1.87,114.8m0,0l.1,5.76m0,0l-5.02-8.89m-6.51-124.57l4.54,3.45m-4.47,1.84l1.72,105.8m2.75-107.64l4.93,3.73m0,0l5.98,4.54m-13.66,99.37l.1,5.29m6.41-249.61l-.24-14.49m35.56-117.55l-8.23,9.57m16.22,460.16l-8.71-15.4m-53.69-245.86l594.96,164.29m-577.67,17.09l-4.62-8.19m0,0l-4.74-8.37m38.24-363.71l-8.16,9.51m15.67,435.24l-8.63-15.32"/>
      </g>
    </g>
  </g>
</svg>