<?xml version="1.0" encoding="UTF-8"?>
<svg xmlns="http://www.w3.org/2000/svg" xmlns:xlink="http://www.w3.org/1999/xlink" viewBox="0 0 2284.02 2078.08">
  <defs>
    <style>
      .cls-1 {
        fill: url(#linear-gradient-3);
      }

      .cls-1, .cls-2, .cls-3, .cls-4 {
        mix-blend-mode: multiply;
      }

      .cls-5 {
        fill: #22c55e;
      }

      .cls-6 {
        filter: url(#luminosity-noclip-7);
      }

      .cls-2 {
        fill: url(#linear-gradient);
      }

      .cls-3 {
        fill: url(#linear-gradient-4);
      }

      .cls-7 {
        filter: url(#luminosity-noclip-5);
      }

      .cls-8 {
        mask: url(#mask-2);
      }

      .cls-9 {
        isolation: isolate;
      }

      .cls-10 {
        mask: url(#mask-3);
      }

      .cls-11 {
        mask: url(#mask-5);
      }

      .cls-12 {
        mask: url(#mask-4);
      }

      .cls-4 {
        fill: url(#linear-gradient-2);
      }

      .cls-13 {
        mask: url(#mask-6);
      }

      .cls-14 {
        mix-blend-mode: overlay;
      }

      .cls-15 {
        filter: url(#luminosity-noclip);
      }

      .cls-16 {
        mask: url(#mask-1);
      }

      .cls-17 {
        mask: url(#mask);
      }

      .cls-18 {
        mask: url(#mask-7);
      }

      .cls-19 {
        filter: url(#luminosity-noclip-3);
      }
    </style>
    <filter id="luminosity-noclip" x="512.28" y="249.28" width="1702.81" height="914.46" color-interpolation-filters="sRGB" filterUnits="userSpaceOnUse">
      <feFlood flood-color="#fff" result="bg"/>
      <feBlend in="SourceGraphic" in2="bg"/>
    </filter>
    <filter id="luminosity-noclip-2" x="512.28" y="-9227.54" width="1702.81" height="32766" color-interpolation-filters="sRGB" filterUnits="userSpaceOnUse">
      <feFlood flood-color="#fff" result="bg"/>
      <feBlend in="SourceGraphic" in2="bg"/>
    </filter>
    <mask id="mask-1" x="512.28" y="-9227.54" width="1702.81" height="32766" maskUnits="userSpaceOnUse"/>
    <linearGradient id="linear-gradient" x1="1352.59" y1="1188.4" x2="1376.32" y2="618.97" gradientUnits="userSpaceOnUse">
      <stop offset="0" stop-color="#fff"/>
      <stop offset="1" stop-color="#000"/>
    </linearGradient>
    <mask id="mask" x="512.28" y="249.28" width="1702.81" height="914.46" maskUnits="userSpaceOnUse">
      <g class="cls-15">
        <g class="cls-16">
          <path class="cls-2" d="m2215.08,700.4c-151.85-233.68-415.05-388.06-714.32-388.06-470.31,0-851.4,381.1-851.4,851.4h-137.08c0-505.11,409.36-914.46,914.25-914.46,335.96,0,629.54,181.16,788.56,451.11Z"/>
        </g>
      </g>
    </mask>
    <filter id="luminosity-noclip-3" x="0" y="0" width="2283.97" height="1163.75" color-interpolation-filters="sRGB" filterUnits="userSpaceOnUse">
      <feFlood flood-color="#fff" result="bg"/>
      <feBlend in="SourceGraphic" in2="bg"/>
    </filter>
    <filter id="luminosity-noclip-4" x="0" y="-9227.54" width="2283.97" height="32766" color-interpolation-filters="sRGB" filterUnits="userSpaceOnUse">
      <feFlood flood-color="#fff" result="bg"/>
      <feBlend in="SourceGraphic" in2="bg"/>
    </filter>
    <mask id="mask-3" x="0" y="-9227.54" width="2283.97" height="32766" maskUnits="userSpaceOnUse"/>
    <linearGradient id="linear-gradient-2" x1="1116.01" y1="1178.55" x2="1139.74" y2="609.12" xlink:href="#linear-gradient"/>
    <mask id="mask-2" x="0" y="0" width="2283.97" height="1163.75" maskUnits="userSpaceOnUse">
      <g class="cls-19">
        <g class="cls-10">
          <path class="cls-4" d="m631.86,455.54h-357.48c-95.54,0-173.15,77.61-173.15,173.15v535.05H0v-535.05c0-151.43,123.17-274.38,274.38-274.38h357.48c49.98,0,97.86-21.3,131.39-58.21l196.35-215.54C1010.63,29.32,1081.07,0,1153.2,0h583.98c73.39,0,142.15,28.47,194.03,80.35l5.27,5.69,346.93,400.5c18.35,21.09-424.33-335.33-424.33-335.33-32.69-32.27-75.92-49.98-121.9-49.98h-583.98c-45.34,0-89.84,18.35-121.9,50.62l-.21.21-192.97,212.17c-52.73,58-128.02,91.32-206.26,91.32Z"/>
        </g>
      </g>
    </mask>
    <filter id="luminosity-noclip-5" x="213.64" y="567.74" width="377.3" height="596" color-interpolation-filters="sRGB" filterUnits="userSpaceOnUse">
      <feFlood flood-color="#fff" result="bg"/>
      <feBlend in="SourceGraphic" in2="bg"/>
    </filter>
    <filter id="luminosity-noclip-6" x="213.64" y="-9227.54" width="377.3" height="32766" color-interpolation-filters="sRGB" filterUnits="userSpaceOnUse">
      <feFlood flood-color="#fff" result="bg"/>
      <feBlend in="SourceGraphic" in2="bg"/>
    </filter>
    <mask id="mask-5" x="213.64" y="-9227.54" width="377.3" height="32766" maskUnits="userSpaceOnUse"/>
    <linearGradient id="linear-gradient-3" x1="379.36" y1="1147.85" x2="403.09" y2="578.42" xlink:href="#linear-gradient"/>
    <mask id="mask-4" x="213.64" y="567.74" width="377.3" height="596" maskUnits="userSpaceOnUse">
      <g class="cls-7">
        <g class="cls-11">
          <path class="cls-1" d="m590.94,567.74c-120.21,168.3-191.08,373.93-191.08,596h-186.23v-535.05c0-33.53,27.21-60.95,60.74-60.95h316.56Z"/>
        </g>
      </g>
    </mask>
    <filter id="luminosity-noclip-7" x="816.61" y="380.25" width="1459.01" height="783.49" color-interpolation-filters="sRGB" filterUnits="userSpaceOnUse">
      <feFlood flood-color="#fff" result="bg"/>
      <feBlend in="SourceGraphic" in2="bg"/>
    </filter>
    <filter id="luminosity-noclip-8" x="816.61" y="-9227.54" width="1459.01" height="32766" color-interpolation-filters="sRGB" filterUnits="userSpaceOnUse">
      <feFlood flood-color="#fff" result="bg"/>
      <feBlend in="SourceGraphic" in2="bg"/>
    </filter>
    <mask id="mask-7" x="816.61" y="-9227.54" width="1459.01" height="32766" maskUnits="userSpaceOnUse"/>
    <linearGradient id="linear-gradient-4" x1="1536.49" y1="1196.07" x2="1560.22" y2="626.64" xlink:href="#linear-gradient"/>
    <mask id="mask-6" x="816.61" y="380.25" width="1459.01" height="783.49" maskUnits="userSpaceOnUse">
      <g class="cls-6">
        <g class="cls-18">
          <path class="cls-3" d="m2275.61,1163.75h-117.47c0-403.03-326.68-729.5-729.5-729.5-256.45,0-481.91,132.45-612.03,332.59,136.24-231.36,387.63-386.58,675.51-386.58,432.77,0,783.49,350.73,783.49,783.49Z"/>
        </g>
      </g>
    </mask>
  </defs>
  <g class="cls-9">
    <g id="Calque_2" data-name="Calque 2">
      <g id="Layer_1" data-name="Layer 1">
        <g>
          <g>
            <path class="cls-5" d="m1500.74,312.3c299.33,0,562.53,154.5,714.34,388.07-158.96-269.93-452.52-451.11-788.44-451.11-505.01,0-914.41,409.39-914.41,914.41,0,293.83,138.75,555.11,354.13,722.4H271.49c-93.9,0-170.3-76.39-170.3-170.3V628.6c0-95.48,77.68-173.16,173.16-173.16h357.5c78.34,0,153.5-33.25,206.22-91.21l193.04-212.27.12-.11c32.11-32.2,76.6-50.68,122.07-50.68h583.93c45.97,0,89.21,17.79,121.85,50.13,0,0,442.68,356.29,424.39,335.17l-347.06-400.52-5.2-5.58C1879.4,28.55,1810.51.01,1737.23.01h-583.93c-72.15,0-142.75,29.31-193.75,80.46l-196.32,215.71c-33.59,36.92-81.47,58.11-131.38,58.11h-357.5C123.09,354.28.03,477.34.03,628.6v1087.17c0,149.68,121.78,271.46,271.45,271.46h749.68c2.2,0,4.31-.38,6.43-.65,120.59,58.58,255.96,91.5,399.03,91.5,335.92,0,629.48-181.18,788.44-451.11-151.8,233.57-415.01,388.07-714.34,388.07-470.2,0-851.37-381.17-851.37-851.37s381.17-851.37,851.37-851.37Z"/>
            <path class="cls-5" d="m274.35,567.84c-33.51,0-60.76,27.25-60.76,60.76v1087.17c0,31.93,25.98,57.9,57.9,57.9h329.7c-126.46-170.68-201.36-381.74-201.36-610s70.82-427.71,191.02-595.84h-316.49Z"/>
            <path class="cls-5" d="m1428.65,434.24c402.85,0,729.43,326.58,729.43,729.43s-326.57,729.43-729.43,729.43c-256.45,0-481.96-132.37-612.02-332.48,136.19,231.27,387.7,386.49,675.51,386.49,432.68,0,783.43-350.76,783.43-783.43s-350.75-783.43-783.43-783.43c-287.81,0-539.32,155.22-675.51,386.49,130.06-200.12,355.57-332.49,612.02-332.49Z"/>
          </g>
          <g class="cls-14">
            <g class="cls-17">
              <path class="cls-5" d="m2215.08,700.4c-151.85-233.68-415.05-388.06-714.32-388.06-470.31,0-851.4,381.1-851.4,851.4h-137.08c0-505.11,409.36-914.46,914.25-914.46,335.96,0,629.54,181.16,788.56,451.11Z"/>
            </g>
            <g class="cls-8">
              <path class="cls-5" d="m631.86,455.54h-357.48c-95.54,0-173.15,77.61-173.15,173.15v535.05H0v-535.05c0-151.43,123.17-274.38,274.38-274.38h357.48c49.98,0,97.86-21.3,131.39-58.21l196.35-215.54C1010.63,29.32,1081.07,0,1153.2,0h583.98c73.39,0,142.15,28.47,194.03,80.35l5.27,5.69,346.93,400.5c18.35,21.09-424.33-335.33-424.33-335.33-32.69-32.27-75.92-49.98-121.9-49.98h-583.98c-45.34,0-89.84,18.35-121.9,50.62l-.21.21-192.97,212.17c-52.73,58-128.02,91.32-206.26,91.32Z"/>
            </g>
            <g class="cls-12">
              <path class="cls-5" d="m590.94,567.74c-120.21,168.3-191.08,373.93-191.08,596h-186.23v-535.05c0-33.53,27.21-60.95,60.74-60.95h316.56Z"/>
            </g>
            <g class="cls-13">
              <path class="cls-5" d="m2275.61,1163.75h-117.47c0-403.03-326.68-729.5-729.5-729.5-256.45,0-481.91,132.45-612.03,332.59,136.24-231.36,387.63-386.58,675.51-386.58,432.77,0,783.49,350.73,783.49,783.49Z"/>
            </g>
          </g>
          <path class="cls-5" d="m1012.59,1210.22c.79-.4,1.98-1.19,2.77-1.58.4-.4,1.19-.79,1.58-.79.79-.4,1.58-.79,2.37-1.58.4-.4,1.19-.79,1.58-1.19.79-.4,1.58-.79,2.37-1.19.79-.4,1.19-.79,1.98-1.19.79-.4,1.58-.79,2.37-1.19.79-.4,1.19-.79,1.98-1.19.79-.4,1.58-.79,2.37-1.19.79-.4,1.19-.79,1.98-1.19.79-.4,1.58-.79,2.37-1.19.79-.4,1.19-.79,1.98-1.19.79-.4,1.58-.79,2.37-1.19.79-.4,1.58-.79,1.98-1.19.79-.4,1.58-.79,2.37-1.19.79-.4,1.58-.79,1.98-1.19.79-.4,1.58-.79,2.37-1.19.79-.4,1.58-.79,2.37-1.19.79-.4,1.58-.79,2.37-1.19.79-.4,1.58-.79,2.37-1.19.79-.4,1.58-.79,2.37-1.19.79-.4,1.58-.79,2.37-1.19.79-.4,1.58-.79,2.37-1.19.79-.4,1.58-.79,2.37-1.19.79-.4,1.58-.79,2.37-1.19.79-.4,1.58-.79,2.37-1.19.79-.4,1.58-.79,2.37-1.19.79-.4,1.58-.79,2.37-1.19.79-.4,1.58-.79,2.37-.79.79-.4,1.58-.79,2.77-1.19.79-.4,1.58-.79,2.37-.79.79-.4,1.98-.79,2.77-1.19.79-.4,1.58-.4,1.98-.79.79-.4,1.98-.79,2.77-1.19.4-.4,1.19-.4,1.58-.79,3.96-1.58,7.91-3.17,11.87-4.75.4,0,.79-.4,1.19-.4,1.19-.4,1.98-.79,3.17-1.19.79-.4,1.19-.4,1.98-.79,1.19-.4,1.98-.79,3.17-1.19.79-.4,1.58-.4,1.98-.79.79-.4,1.98-.79,3.17-1.19.79-.4,1.58-.4,2.37-.79s1.98-.79,2.77-1.19c.79-.4,1.58-.4,2.37-.79s1.98-.79,2.77-1.19c.79-.4,1.58-.4,2.37-.79s1.98-.79,2.77-1.19c.79-.4,1.58-.79,2.77-.79.79-.4,1.98-.79,2.77-.79.79-.4,1.98-.79,2.77-.79.79-.4,1.98-.79,2.77-.79.79-.4,1.98-.79,2.77-.79.79-.4,1.58-.4,2.77-.79.79-.4,1.98-.79,3.17-.79.79-.4,1.58-.4,2.37-.79s1.58-.4,2.37-.79c2.77-.79,5.14-1.58,7.91-2.37,61.34-19,130.99-34.03,206.57-44.32,26.91-3.56,54.22-6.73,82.31-9.1,47.88-3.96,97.75-5.94,148.8-5.94,75.19,0,147.61,4.75,215.28,13.06-97.35-22.95-211.72-36.41-333.6-36.41-19.39,0-38.78.4-58.17,1.19l-136.13-138.51-103.68,105.66v-32.85h-57.78v92.6l-19.39,19.79-102.5,104.47c1.19-.79,2.77-1.58,3.96-2.37-.4-.4,0-.79.39-1.19h0Zm278.6-192.72l50.26,51.05c-39.97,3.56-78.36,8.71-114.76,14.64l64.5-65.69Z"/>
          <path class="cls-5" d="m1493.8,1100.6c-160.27,9.89-300.36,53.82-383.07,112.78,73.61-31.66,165.81-57.38,269.49-74l20.18,20.97h91.02l-30.08-31.66c24.54-2.77,49.86-4.75,75.19-6.33,89.04-5.54,174.12-3.56,251.29,4.35-82.71-22.56-184.41-32.85-294.03-26.12Z"/>
          <path class="cls-5" d="m938.98,1185.29v115.16h-24.54v-115.16h24.54Zm19.79,0h30.08l31.66,77.17h1.19l31.66-77.17h30.08v115.16h-23.74v-74.79h-.4l-29.68,74.4h-16.23l-29.68-74.79h-.79v75.19h-23.74v-115.16h-.4Zm144.84,0h30.08l31.66,77.17h1.19l31.66-77.17h30.08v115.16h-23.74v-74.79h-.79l-29.68,74.4h-15.83l-29.68-74.79h-.79v75.19h-23.74v-115.16h-.4Zm250.9,57.78c0,12.66-2.37,23.35-7.12,32.05-4.75,8.71-11.08,15.43-19.39,20.18s-17.41,6.73-27.31,6.73-19.39-2.37-27.7-7.12c-8.31-4.75-14.64-11.48-19.39-20.18-4.75-8.71-7.12-19.39-7.12-32.05s2.37-23.35,7.12-32.05c4.75-8.71,11.08-15.43,19.39-20.18,8.31-4.75,17.41-7.12,27.7-7.12s19.39,2.37,27.31,7.12c8.31,4.75,14.64,11.48,19.39,20.18,4.75,9.1,7.12,19.79,7.12,32.45Zm-24.93,0c0-8.31-1.19-15.04-3.56-20.58-2.37-5.54-5.94-9.89-10.29-12.66s-9.5-4.35-15.43-4.35-11.08,1.58-15.43,4.35-7.91,7.12-10.29,12.66c-2.37,5.54-3.56,12.27-3.56,20.58s1.19,15.04,3.56,20.58c2.37,5.54,5.94,9.89,10.29,12.66s9.5,4.35,15.43,4.35,11.08-1.58,15.43-4.35,7.91-7.12,10.29-12.66,3.56-12.66,3.56-20.58Z"/>
          <path class="cls-5" d="m1372.31,1300.45v-115.16h24.14v47.49h49.47v-47.49h24.14v115.16h-24.14v-47.49h-49.47v47.49h-24.14Zm138.11,0h-26.12l39.57-115.16h31.26l39.57,115.16h-26.12l-28.89-88.64h-.79l-28.49,88.64Zm-1.58-45.11h61.73v19h-61.73v-19Zm100.12,45.11v-115.16h45.91c8.31,0,15.43,1.19,21.37,3.96,5.94,2.77,9.89,5.94,12.66,10.29s4.35,9.5,4.35,15.43c0,4.35-.79,8.31-2.77,11.87s-4.35,6.33-7.52,8.31c-3.17,1.98-6.73,3.56-10.68,4.75v1.19c4.35,0,8.31,1.58,12.27,3.56,3.96,2.37,7.12,5.54,9.5,9.5,2.37,3.96,3.56,9.1,3.56,14.64,0,5.94-1.58,11.48-4.35,16.23-3.17,4.75-7.52,8.71-13.46,11.48-5.94,2.77-13.06,4.35-21.77,4.35h-49.07v-.4Zm24.54-19.79h19.79c6.73,0,11.87-1.19,15.04-3.96s4.75-5.94,4.75-10.29c0-3.17-.79-5.94-2.37-8.31-1.58-2.37-3.56-4.35-6.73-5.54-2.77-1.58-6.33-1.98-9.89-1.98h-20.58v30.08Zm0-47.09h18.2c3.17,0,6.33-.4,8.71-1.58,2.77-1.19,4.75-2.77,6.33-5.14,1.58-1.98,2.37-4.75,2.37-7.91,0-4.35-1.58-7.52-4.35-9.89-2.77-2.37-7.12-3.96-12.66-3.96h-18.6v28.49h0Zm104.47-48.28v115.16h-24.54v-115.16h24.54Zm15.83,20.18v-20.18h94.58v20.18h-35.22v94.98h-24.14v-94.98h-35.22Zm115.55,94.98h-26.12l39.57-115.16h31.26l39.57,115.16h-26.12l-28.89-88.64h-.4l-28.89,88.64Zm-1.58-45.11h61.73v19h-61.73v-19Zm81.92-49.86v-20.18h94.58v20.18h-35.22v94.98h-24.14v-94.98h-35.22Z"/>
        </g>
      </g>
    </g>
  </g>
</svg>