<?xml version="1.0" encoding="UTF-8"?>
<svg id="Calque_2" data-name="Calque 2" xmlns="http://www.w3.org/2000/svg" viewBox="0 0 805.27 331.14">
  <defs>
    <style>
      .cls-1, .cls-2 {
        fill: #22c55e;
      }

      .cls-3 {
        fill: #3b82f6;
      }

      .cls-3, .cls-2, .cls-4 {
        opacity: .46;
      }
    </style>
  </defs>
  <g id="Layer_1" data-name="Layer 1">
    <g class="cls-4">
      <g>
        <g>
          <rect class="cls-1" x="501.69" y="83.64" width="25.45" height="25.45"/>
          <rect class="cls-1" x="501.69" y="111.91" width="25.45" height="25.45"/>
          <rect class="cls-1" x="529.96" y="83.64" width="25.45" height="25.45"/>
          <rect class="cls-1" x="529.96" y="111.91" width="25.45" height="25.45"/>
        </g>
        <path class="cls-1" d="m0,246.78c1.01-1.34,2.74-3.37,4.22-5.13,1.57-1.91,2.92-3.18,4.4-4.8,2.85-3.16,5.88-5.91,8.88-8.76,2.94-2.92,6.12-5.45,9.24-8.08,3.11-2.64,6.23-5.25,9.55-7.56l9.79-7.15,10.19-6.45c6.69-4.49,13.87-8.02,20.93-11.78,6.95-3.98,14.46-6.71,21.7-9.99,7.21-3.41,14.83-5.64,22.3-8.25,3.75-1.25,7.48-2.58,11.25-3.76l11.48-2.88,11.46-2.86c1.91-.46,3.81-.98,5.73-1.39l5.81-.95,23.21-3.76c7.75-1.01,15.56-1.34,23.33-2.03l11.66-.9c3.88-.37,7.77-.08,11.66-.15l23.28.1,5.81.04,5.78.48,11.56.97,23.08,1.95c7.63,1.1,15.22,2.41,22.81,3.61l22.77,3.69.62.1.58.19c8.87,2.89,18.03,5.69,27.11,8.39,9.1,2.72,18.25,5.31,27.41,7.87,18.33,5.07,36.76,9.87,55.27,14.29,37.02,8.86,74.36,16.47,112.01,22.05,9.42,1.37,18.84,2.66,28.3,3.73,9.44,1.16,18.92,2,28.4,2.8l14.23,1.01,14.25.61c4.75.27,9.5.21,14.26.26,4.76.06,9.51.09,14.26-.13,9.51-.14,18.99-.88,28.46-1.69l14.14-1.8c4.69-.75,9.34-1.73,14.02-2.59,4.67-.9,9.2-2.34,13.83-3.49,4.62-1.16,8.99-3.07,13.51-4.57,4.49-1.59,8.66-3.94,13.02-5.88,4.21-2.21,8.14-4.96,12.24-7.42-3.98,2.63-7.8,5.56-11.94,7.97-4.28,2.13-8.39,4.69-12.84,6.49-4.47,1.71-8.83,3.83-13.43,5.21-4.6,1.36-9.14,3.02-13.81,4.13-4.68,1.07-9.35,2.27-14.06,3.23l-14.22,2.45c-9.53,1.23-19.09,2.4-28.69,2.96-4.8.43-9.6.61-14.4.76-4.8.15-9.61.42-14.42.36l-14.42.02-14.41-.39c-9.6-.38-19.21-.82-28.79-1.57-9.59-.66-19.16-1.55-28.72-2.52-38.24-3.98-76.22-10.01-113.95-17.31-18.87-3.65-37.66-7.68-56.39-11.99-9.36-2.18-18.72-4.4-28.05-6.75-9.36-2.34-18.61-4.73-28.04-7.35l1.19.29-22.15-2.59c-7.38-.84-14.75-1.79-22.12-2.54l-22.19-.89-11.08-.45-5.53-.23-5.52.21-22.07.87c-3.67.23-7.36.09-11,.61l-10.91,1.34c-7.25.97-14.57,1.57-21.75,2.83l-21.39,4.44-5.34,1.1c-1.76.45-3.48,1.02-5.22,1.52l-10.42,3.1-10.41,3.07c-3.39,1.24-6.73,2.61-10.09,3.9-6.69,2.68-13.54,4.97-19.87,8.35-6.38,3.25-13.06,5.95-19.08,9.8-6.13,3.64-12.41,7.03-18.11,11.26l-8.73,6.05-8.24,6.6c-2.82,2.12-5.38,4.49-7.94,6.86-2.56,2.36-5.22,4.64-7.52,7.18-2.38,2.47-4.85,4.9-6.95,7.48-1.02,1.22-2.36,2.62-3.12,3.69-.89,1.19-1.64,2.02-2.83,3.75L0,246.78Z"/>
        <path class="cls-1" d="m510.79,156.78s1.04.39,3,1.13c2.05.73,5.06,1.8,8.9,3.16,7.75,2.66,19,6.27,32.68,10.1,27.33,7.64,64.55,16.06,102.42,19.19,9.46.82,18.95,1.32,28.29,1.42,9.35.17,18.54-.17,27.44-.74,4.44-.32,8.79-.84,13.07-1.23,4.25-.61,8.4-1.22,12.45-1.8,4.01-.8,7.92-1.58,11.7-2.33,3.73-.96,7.34-1.9,10.81-2.79,6.83-2.11,13.12-4.13,18.48-6.46,5.51-2.02,9.93-4.58,13.77-6.36,3.74-1.94,6.51-3.78,8.49-4.89,1.96-1.16,3-1.78,3-1.78,0,0-.96.73-2.77,2.11-1.84,1.33-4.4,3.5-7.93,5.88-3.62,2.21-7.82,5.33-13.14,8.02-5.17,2.99-11.3,5.78-18.05,8.76-3.44,1.33-7.03,2.71-10.74,4.14-3.79,1.22-7.71,2.49-11.73,3.79-4.1,1.09-8.3,2.21-12.6,3.35-4.34.92-8.78,1.97-13.33,2.84-9.1,1.65-18.57,3.11-28.25,4.05-9.68,1.03-19.55,1.65-29.42,1.93-39.56,1.3-79.03-2.92-108.36-7.56-14.68-2.33-26.86-4.74-35.42-6.6-4.3-.98-7.68-1.76-9.98-2.29-2.38-.59-3.65-.91-3.65-.91l10.88-34.12Z"/>
        <path class="cls-1" d="m421.04,123.85h28.35l73.86-95.5-17.91-22.38-84.31,117.88Z"/>
        <path class="cls-1" d="m512.8,2.98l89.53,118.63s190.25,0,185.78,0S694.85,0,694.85,0l-182.04,2.98Z"/>
      </g>
    </g>
    <path class="cls-2" d="m170.28,273.33v57.03h-12.15v-57.03h12.15Zm9.8,0h14.89l15.68,38.22h.59l15.68-38.22h14.89v57.03h-11.76v-37.04h-.2l-14.7,36.84h-8.04l-14.7-37.04h-.39v37.24h-11.76l-.2-57.03h0Zm71.73,0h14.89l15.68,38.22h.59l15.68-38.22h14.89v57.03h-11.76v-37.04h-.39l-14.7,36.84h-7.84l-14.7-37.04h-.39v37.24h-11.76l-.2-57.03h0Zm124.25,28.61c0,6.27-1.18,11.56-3.53,15.87-2.35,4.31-5.49,7.64-9.6,9.99s-8.62,3.33-13.52,3.33-9.6-1.18-13.72-3.53c-4.12-2.35-7.25-5.68-9.6-9.99-2.35-4.31-3.53-9.6-3.53-15.87s1.18-11.56,3.53-15.87c2.35-4.31,5.49-7.64,9.6-9.99,4.12-2.35,8.62-3.53,13.72-3.53s9.6,1.18,13.52,3.53c4.12,2.35,7.25,5.68,9.6,9.99,2.35,4.51,3.53,9.8,3.53,16.07Zm-12.35,0c0-4.12-.59-7.45-1.76-10.19-1.18-2.74-2.94-4.9-5.1-6.27s-4.7-2.16-7.64-2.16-5.49.78-7.64,2.16-3.92,3.53-5.1,6.27c-1.18,2.74-1.76,6.08-1.76,10.19s.59,7.45,1.76,10.19c1.18,2.74,2.94,4.9,5.1,6.27s4.7,2.16,7.64,2.16,5.49-.78,7.64-2.16,3.92-3.53,5.1-6.27,1.76-6.27,1.76-10.19Z"/>
    <path class="cls-3" d="m384.88,330.36v-57.03h11.95v23.52h24.5v-23.52h11.95v57.03h-11.95v-23.52h-24.5v23.52h-11.95Zm68.4,0h-12.93l19.6-57.03h15.48l19.6,57.03h-12.93l-14.31-43.9h-.39l-14.11,43.9Zm-.78-22.34h30.57v9.41h-30.57v-9.41Zm49.58,22.34v-57.03h22.73c4.12,0,7.64.59,10.58,1.96s4.9,2.94,6.27,5.1,2.16,4.7,2.16,7.64c0,2.16-.39,4.12-1.37,5.88s-2.16,3.14-3.72,4.12c-1.57.98-3.33,1.76-5.29,2.35v.59c2.16,0,4.12.78,6.08,1.76,1.96,1.18,3.53,2.74,4.7,4.7,1.18,1.96,1.76,4.51,1.76,7.25,0,2.94-.78,5.68-2.16,8.04-1.57,2.35-3.72,4.31-6.66,5.68-2.94,1.37-6.47,2.16-10.78,2.16h-24.3v-.2h0Zm12.15-9.8h9.8c3.33,0,5.88-.59,7.45-1.96s2.35-2.94,2.35-5.1c0-1.57-.39-2.94-1.18-4.12-.78-1.18-1.76-2.16-3.33-2.74-1.37-.78-3.14-.98-4.9-.98h-10.19v14.89Zm0-23.32h9.02c1.57,0,3.14-.2,4.31-.78,1.37-.59,2.35-1.37,3.14-2.55.78-.98,1.18-2.35,1.18-3.92,0-2.16-.78-3.72-2.16-4.9-1.37-1.18-3.53-1.96-6.27-1.96h-9.21v14.11h0Zm51.74-23.91v57.03h-12.15v-57.03h12.15Zm7.84,9.99v-9.99h46.84v9.99h-17.44v47.04h-11.95v-47.04h-17.44Zm57.23,47.04h-12.93l19.6-57.03h15.48l19.6,57.03h-12.93l-14.31-43.9h-.2l-14.31,43.9Zm-.78-22.34h30.57v9.41h-30.57v-9.41Zm40.57-24.69v-9.99h46.84v9.99h-17.44v47.04h-11.95v-47.04h-17.44Z"/>
  </g>
</svg>