<?xml version="1.0" encoding="UTF-8"?>
<svg id="Calque_2" data-name="Calque 2" xmlns="http://www.w3.org/2000/svg" viewBox="0 0 2387.3 1393.41">
  <defs>
    <style>
      .cls-1 {
        fill: #3b82f6;
      }

      .cls-1, .cls-2 {
        fill-rule: evenodd;
      }

      .cls-3 {
        opacity: .19;
      }

      .cls-2 {
        fill: #22c55e;
      }
    </style>
  </defs>
  <g id="Calque_1-2" data-name="Calque 1">
    <g class="cls-3">
      <path class="cls-1" d="m756.14,360.7v-166.81h147.92v44.86L1193.65,0l699.29,576.52h-136.13v816.88H630.5v-816.88h-136.14l261.78-215.83Zm905.06,148.67l-467.55-385.47-385.19,317.57-82.36,67.9v788.43h274.35v-508.98h386.41v508.98h274.34V509.37Z"/>
      <polygon class="cls-2" points="2387.3 696.17 1790.44 204.09 1653.39 317.08 1717.53 369.95 1790.44 309.85 2189.5 638.86 2189.5 1311.81 2010.75 1311.81 1955.34 1311.81 1804.61 1311.81 1804.61 1393.41 2271.11 1393.41 2271.11 696.17 2387.3 696.17"/>
      <polygon class="cls-2" points="0 696.17 596.86 204.09 733.91 317.08 669.77 369.95 596.86 309.85 197.8 638.86 197.8 1311.81 376.55 1311.81 431.96 1311.81 582.7 1311.81 582.7 1393.41 116.2 1393.41 116.2 696.17 0 696.17"/>
    </g>
  </g>
</svg>