<?xml version="1.0" encoding="UTF-8"?>
<svg id="Calque_2" data-name="Calque 2" xmlns="http://www.w3.org/2000/svg" viewBox="0 0 263.02 229.04">
  <defs>
    <style>
      .cls-1 {
        fill: #414042;
      }
    </style>
  </defs>
  <g id="Layer_1" data-name="Layer 1">
    <path class="cls-1" d="m261.88,91.24l-50.23-35.38V2.67C211.65,1.2,210.45,0,208.98,0h-34.6c-1.48,0-2.67,1.2-2.67,2.67v25.06l-17.64-12.42c-.07-.07-.15-.13-.23-.18L133.05.49c-.92-.65-2.16-.65-3.08,0L1.13,91.22c-.71.5-1.13,1.32-1.13,2.19v29.29c0,1,.56,1.91,1.44,2.37.89.46,1.95.39,2.77-.19l35.04-24.68v126.17c0,1.48,1.2,2.67,2.67,2.67h179.16c1.48,0,2.67-1.2,2.67-2.67v-126.15l35.04,24.68c.46.32,1,.49,1.54.49.42,0,.84-.1,1.23-.3.89-.46,1.44-1.37,1.44-2.37v-29.29c0-.87-.42-1.69-1.13-2.19ZM177.06,15.35h29.25v3.21h-29.25v-3.21Zm29.25-10v7.33h-29.25v-7.33h29.25Zm-29.25,15.88h29.25v30.87l-29.25-20.6v-10.27Zm-45.55-15.29l19.01,13.39c.07.07.15.13.23.18l106.92,75.3v16.17L132.28,21.86c-.46-.33-1.09-.33-1.55,0L5.35,110.98v-16.19L131.51,5.94ZM44.6,96.43l3.82-2.69v129.95h-3.82v-127.26Zm86.89-61.19l80.42,56.64v131.82H51.1V91.86l80.4-56.62Zm86.92,188.46h-3.82V93.76l3.82,2.69v127.24ZM133.03,29.79c-.46-.33-1-.49-1.54-.49s-1.08.16-1.54.49L5.35,117.54v-3.28L131.51,24.59l126.16,89.67v3.3L133.03,29.79Z"/>
    <g>
      <path class="cls-1" d="m179.22,152.87l10.41,10.41c.72.72.72,1.9,0,2.62l-29.53,29.53c-.25.25-.55.41-.87.49l-15.56,4.48c-.98.28-2.01-.29-2.29-1.27-.12-.42-.08-.85.08-1.23l5.19-14.79c.09-.27.25-.51.44-.7h0s29.53-29.53,29.53-29.53c.72-.72,1.9-.72,2.62,0h0Zm6.48,11.72l-7.79-7.79-27.93,27.93-3.9,11.12,11.73-3.38,27.88-27.88Z"/>
      <path class="cls-1" d="m166.95,165.13c-.72-.72-.72-1.9,0-2.62.72-.72,1.9-.72,2.62,0l10.41,10.41c.72.72.72,1.9,0,2.62-.72.72-1.9.72-2.62,0l-10.41-10.41Z"/>
      <path class="cls-1" d="m160.18,192.77c.72.72.72,1.9,0,2.62-.72.72-1.9.72-2.62,0l-10.42-10.42c-.72-.72-.72-1.9,0-2.62.72-.72,1.9-.72,2.62,0l10.42,10.42Z"/>
      <path class="cls-1" d="m127.48,81.86c7.48,0,14.25,3.03,19.15,7.93,4.9,4.9,7.93,11.67,7.93,19.15s-3.03,14.25-7.93,19.15c-4.9,4.9-11.67,7.93-19.15,7.93s-14.25-3.03-19.15-7.93c-4.9-4.9-7.93-11.67-7.93-19.15s3.03-14.25,7.93-19.15c4.9-4.9,11.67-7.93,19.15-7.93h0Zm16.53,10.55c-4.23-4.23-10.07-6.84-16.53-6.84s-12.3,2.62-16.53,6.84-6.84,10.07-6.84,16.53,2.62,12.3,6.84,16.53,10.07,6.84,16.53,6.84,12.3-2.62,16.53-6.84,6.84-10.07,6.84-16.53-2.62-12.3-6.84-16.53Z"/>
      <path class="cls-1" d="m170.17,160.57c-1.13-2.31-4.51-7.54-6.77-9.43-4.07-3.38-10.31-6.26-19.93-9-2.01,1.33-4.21,2.39-6.56,3.14-2.56.82-5.26,1.26-8.06,1.26s-5.5-.44-8.05-1.25c-2.33-.74-4.52-1.8-6.52-3.11-8.81,2.85-14.84,5.53-18.95,8.54-4.04,2.95-6.2,6.25-7.4,10.39-1.49,5.19-1.66,12.17-1.81,18.29-.01.54-.03,1.07-.04,1.59h63.31c.04,1.26.19,2.5.43,3.71h-65.64s-.04,0-.06,0c-1.02-.03-1.82-.88-1.79-1.9.04-1.16.07-2.3.09-3.47.15-6.36.33-13.62,1.94-19.22,1.42-4.94,3.99-8.86,8.77-12.36,4.56-3.33,11.15-6.25,20.78-9.32.56-.21,1.21-.15,1.73.22,1.9,1.35,4.01,2.42,6.26,3.13,2.17.69,4.5,1.06,6.94,1.06s4.77-.37,6.94-1.07c2.26-.72,4.37-1.79,6.27-3.14h0c.44-.31,1.01-.43,1.56-.27,10.61,2.96,17.53,6.14,22.13,9.96,3.18,2.64,6.7,7.85,8.06,11.18-8.83-.29,6.73-.36-3.65,1.09Z"/>
    </g>
  </g>
</svg>