<?xml version="1.0" encoding="UTF-8"?>
<svg id="Calque_2" data-name="Calque 2" xmlns="http://www.w3.org/2000/svg" viewBox="0 0 318.69 327.99">
  <defs>
    <style>
      .cls-1 {
        fill: #010101;
      }
    </style>
  </defs>
  <g id="Calque_1-2" data-name="Calque 1">
    <g>
      <g>
        <path class="cls-1" d="m85.26,147.09l-6.5,4.52-15.04-10.34-8.65,6.01,9.74,14.02-6.15,4.27-23.7-34.11,14.79-10.28c4.11-2.86,7.78-4.03,11.01-3.52,3.22.51,5.86,2.25,7.91,5.19,3.04,4.38,3.09,8.82.14,13.32l16.44,10.92Zm-33.6-4.74l7.65-5.31c2.22-1.54,3.54-3.15,3.98-4.84.43-1.69.08-3.34-1.05-4.98-1.04-1.5-2.42-2.34-4.13-2.52-1.71-.18-3.52.39-5.44,1.72l-8.15,5.66,7.14,10.27Z"/>
        <path class="cls-1" d="m113.72,127.31l-22.16,15.4-23.7-34.11,21.94-15.25,3.53,5.07-15.79,10.97,6.43,9.25,12.69-8.82,3.44,4.95-12.69,8.82,6.63,9.55,16.02-11.13,3.68,5.3Z"/>
        <path class="cls-1" d="m144.78,105.72l-5.97,4.15-28.09-12.79c-.43-.19-1.13-.51-2.1-.95-.43-.19-1.1-.5-2.02-.93l17.37,24.99-4.95,3.44-23.7-34.11,6.8-4.72,25.91,11.79c.22.1,1.79.82,4.73,2.16l-16.51-23.76,4.85-3.37,23.7,34.11Z"/>
        <path class="cls-1" d="m164.19,92.23l-6.6,4.58-20.04-28.84-9.07,6.3-3.66-5.27,24.74-17.19,3.66,5.27-9.07,6.3,20.04,28.84Z"/>
      </g>
      <g>
        <g id="_511305448" data-name=" 511305448">
          <path class="cls-1" d="m285.6,327.99H94c-2.35,0-4.26-1.91-4.26-4.26v-103.08c0-2.35,1.91-4.26,4.26-4.26s4.26,1.91,4.26,4.26v98.82h183.09v-98.82c0-2.35,1.91-4.26,4.26-4.26s4.26,1.91,4.26,4.26v103.08c0,2.34-1.92,4.26-4.27,4.26Z"/>
        </g>
        <g id="_511306120" data-name=" 511306120">
          <path class="cls-1" d="m292.63,230.24c-.92,0-1.85-.28-2.55-.85l-100.8-76.1-99.6,75.96c-1.85,1.42-4.54,1.06-5.96-.78l-22.01-28.82c-1.42-1.85-1.06-4.54.78-5.96h0l8.31-6.32c.85-.64,1.91-.92,2.98-.85l18.32,1.77,106.7-80.01c1.49-1.14,3.62-1.14,5.11,0l113.09,85.4c1.85,1.42,2.27,4.12.85,5.96h0l-21.87,28.96c-.72.99-2,1.63-3.35,1.63Zm-103.36-86.55c.92,0,1.85.28,2.55.85l99.96,75.46,16.75-22.15-107.13-80.93-105.5,79.15c-.85.64-1.91.92-2.98.85l-18.32-1.77-3.62,2.77,16.83,22.08,98.75-75.32c.86-.71,1.78-1,2.71-1Z"/>
        </g>
        <g id="_511306048" data-name=" 511306048">
          <path class="cls-1" d="m229.53,293.78h-79.44c-2.35,0-4.26-1.91-4.26-4.26v-68.58c0-2.35,1.91-4.26,4.26-4.26h79.44c2.35,0,4.26,1.91,4.26,4.26v68.58c0,2.34-1.92,4.26-4.26,4.26h0Zm-75.18-8.52h70.92v-60.05h-70.92v60.05Z"/>
        </g>
        <g id="_511305880" data-name=" 511305880">
          <path class="cls-1" d="m189.84,293.78c-2.35,0-4.26-1.91-4.26-4.26v-68.58c0-2.35,1.91-4.26,4.26-4.26s4.26,1.91,4.26,4.26v68.58c0,2.34-1.91,4.26-4.26,4.26h0Z"/>
        </g>
        <g id="_511304248" data-name=" 511304248">
          <path class="cls-1" d="m93.44,196.94h-.42L3.85,188.28c-2.35-.22-4.04-2.27-3.83-4.62,0-.14,0-.28.08-.36l16.61-88.1c.22-1.06.78-1.99,1.63-2.63L140.65.86c1.91-1.42,4.54-1.06,5.96.85l72.48,96.62c1.42,1.91,1.06,4.54-.85,5.96l-122.31,91.79c-.71.5-1.64.85-2.49.85Zm-84.13-16.69l82.85,8.02,117.63-88.25L142.34,10.23,24.79,98.48l-15.48,81.78Z"/>
        </g>
        <g id="_511304320" data-name=" 511304320">
          <path class="cls-1" d="m247.48,150.44c-2.35,0-4.26-1.91-4.26-4.26,0-1.56.85-2.98,2.2-3.76,21.09-11.5,28.82-37.91,17.32-58.99-11.5-21.09-37.91-28.82-58.99-17.32-3.13,1.71-5.96,3.76-8.59,6.11-1.77,1.56-4.48,1.35-6.03-.42-1.49-1.71-1.42-4.33.28-5.89,21.15-19.38,54.09-17.96,73.47,3.19,19.38,21.15,17.96,54.09-3.19,73.47-3.05,2.84-6.46,5.26-10.15,7.25-.63.5-1.34.64-2.06.64Z"/>
        </g>
      </g>
    </g>
  </g>
</svg>