<?xml version="1.0" encoding="UTF-8"?>
<svg id="Calque_2" data-name="Calque 2" xmlns="http://www.w3.org/2000/svg" viewBox="0 0 323.55 332.99">
  <defs>
    <style>
      .cls-1 {
        fill: #010101;
      }
    </style>
  </defs>
  <g id="Calque_1-2" data-name="Calque 1">
    <g>
      <g id="_511305448" data-name=" 511305448">
        <path class="cls-1" d="m289.96,332.99H95.43c-2.38,0-4.33-1.94-4.33-4.33v-104.66c0-2.38,1.94-4.33,4.33-4.33s4.33,1.94,4.33,4.33v100.33h185.88v-100.33c0-2.38,1.94-4.33,4.33-4.33s4.33,1.94,4.33,4.33v104.66c0,2.37-1.95,4.33-4.34,4.33Z"/>
      </g>
      <g id="_511306120" data-name=" 511306120">
        <path class="cls-1" d="m297.09,233.75c-.93,0-1.88-.29-2.59-.87l-102.34-77.26-101.12,77.12c-1.88,1.44-4.61,1.08-6.05-.79l-22.34-29.26c-1.44-1.88-1.08-4.61.79-6.05h0l8.43-6.41c.87-.65,1.94-.93,3.03-.87l18.6,1.8,108.32-81.23c1.51-1.15,3.68-1.15,5.19,0l114.81,86.7c1.88,1.44,2.31,4.18.87,6.05h0l-22.2,29.4c-.73,1-2.03,1.66-3.4,1.66Zm-104.93-87.87c.93,0,1.88.29,2.59.87l101.48,76.61,17.01-22.49-108.76-82.16-107.1,80.36c-.87.65-1.94.93-3.03.87l-18.6-1.8-3.68,2.81,17.08,22.42,100.25-76.47c.88-.72,1.81-1.02,2.75-1.02Z"/>
      </g>
      <g id="_511306048" data-name=" 511306048">
        <path class="cls-1" d="m233.03,298.26h-80.65c-2.38,0-4.33-1.94-4.33-4.33v-69.62c0-2.38,1.94-4.33,4.33-4.33h80.65c2.38,0,4.33,1.94,4.33,4.33v69.62c0,2.37-1.95,4.33-4.33,4.33h0Zm-76.33-8.65h72v-60.97h-72v60.97Z"/>
      </g>
      <g id="_511305880" data-name=" 511305880">
        <path class="cls-1" d="m192.73,298.26c-2.38,0-4.33-1.94-4.33-4.33v-69.62c0-2.38,1.94-4.33,4.33-4.33s4.33,1.94,4.33,4.33v69.62c0,2.37-1.94,4.33-4.33,4.33h0Z"/>
      </g>
      <g id="_511304248" data-name=" 511304248">
        <path class="cls-1" d="m94.86,199.95h-.43L3.91,191.15c-2.38-.22-4.11-2.31-3.89-4.69,0-.14,0-.29.08-.36l16.86-89.44c.22-1.08.79-2.02,1.66-2.67L142.8.88c1.94-1.44,4.61-1.08,6.05.87l73.58,98.09c1.44,1.94,1.08,4.61-.87,6.05l-124.18,93.19c-.72.5-1.67.87-2.52.87Zm-85.41-16.94l84.11,8.15,119.42-89.59L144.51,10.39,25.16,99.98l-15.71,83.03Z"/>
      </g>
      <g id="_511304320" data-name=" 511304320">
        <path class="cls-1" d="m251.25,152.73c-2.38,0-4.33-1.94-4.33-4.33,0-1.58.87-3.03,2.23-3.82,21.41-11.67,29.26-38.48,17.59-59.89-11.67-21.41-38.48-29.26-59.89-17.59-3.17,1.73-6.05,3.82-8.72,6.2-1.8,1.58-4.54,1.37-6.13-.43-1.51-1.73-1.44-4.39.29-5.98,21.48-19.68,54.92-18.24,74.59,3.24,19.68,21.48,18.24,54.92-3.24,74.59-3.1,2.89-6.56,5.34-10.31,7.36-.64.5-1.36.65-2.09.65Z"/>
      </g>
      <g>
        <path class="cls-1" d="m58.79,157.5l5.35-5.51c3.12,3.03,7.17,2.88,12.17-.47,2.28-1.53,3.73-3.15,4.35-4.88.62-1.73.48-3.26-.41-4.6-.65-.98-1.53-1.69-2.65-2.14-1.11-.45-2.74-.3-4.88.45l-8.01,2.79c-2.74.95-4.93,1.41-6.56,1.39-1.63-.03-3.26-.52-4.87-1.49-1.61-.96-2.96-2.24-4.03-3.85-2.13-3.19-2.66-6.54-1.58-10.05,1.08-3.51,3.47-6.5,7.16-8.97,3.07-2.05,6.25-3.21,9.56-3.49,3.31-.27,6.12.6,8.42,2.61l-5.1,5.61c-2.75-2.07-5.85-1.95-9.29.36-2,1.34-3.25,2.78-3.75,4.32-.49,1.54-.31,2.96.55,4.25,1.36,2.04,3.97,2.36,7.83.96l7.08-2.54c4.29-1.54,7.67-1.82,10.13-.86s4.42,2.53,5.88,4.71c2.34,3.5,2.87,7.14,1.58,10.92s-4.04,7.07-8.23,9.88c-3.54,2.37-7.13,3.7-10.77,4-3.65.3-6.96-.83-9.92-3.38Z"/>
        <path class="cls-1" d="m122.02,127.63l-23.17,15.51-23.87-35.66,22.94-15.35,3.55,5.3-16.51,11.05,6.47,9.67,13.27-8.88,3.46,5.17-13.27,8.88,6.68,9.98,16.75-11.21,3.71,5.54Z"/>
        <path class="cls-1" d="m149.5,109.23l-21.94,14.69-23.87-35.66,6.77-4.53,19.97,29.83,15.18-10.16,3.9,5.83Z"/>
        <path class="cls-1" d="m176.18,91.37l-21.94,14.69-23.87-35.66,6.77-4.53,19.97,29.83,15.18-10.16,3.9,5.83Z"/>
      </g>
    </g>
  </g>
</svg>