<?xml version="1.0" encoding="UTF-8"?>
<svg id="Calque_2" data-name="Calque 2" xmlns="http://www.w3.org/2000/svg" viewBox="0 0 2085.11 1069.55">
  <defs>
    <style>
      .cls-1 {
        fill: #edeeef;
      }

      .cls-2 {
        fill: #7feabc;
      }

      .cls-3 {
        fill: #7eaced;
      }

      .cls-4 {
        opacity: .21;
      }
    </style>
  </defs>
  <g id="Layer_1" data-name="Layer 1">
    <g class="cls-4">
      <g>
        <g>
          <path class="cls-2" d="m862.67,815.97l-11.12-3.59,7.96-8.55c2.89-3.11,5.55-6.38,8.03-9.76l-9.13-2.95,7.96-8.55c8.06-8.66,14.51-18.47,19.21-29.01,1.47-7.03,2.25-14.24,2.25-21.55,0-44.8-28.08-83.13-67.54-98.43h-22.92v272.25c13.04,14.55,31.43,22.85,51.07,22.85,26.57,0,49.64-15.18,61.05-37.32.48-3.28.74-6.64.74-10.05,0-29.89-19.11-56.14-47.54-65.32Z"/>
          <path class="cls-2" d="m1389.87,989.76c-17.5,0-34.31,5.81-47.97,16.28l-8.48,9.88-.58-1.78c-.99,1.04-1.96,2.11-2.91,3.21l-8.63,10.05-4.09-12.59c-10.6-32.63-40.79-54.56-75.11-54.56-17.65,0-34.43,5.9-47.99,16.27-3.46,4.05-6.53,8.49-9.16,13.27l-2.84,5.17-4.53-1.27c-1.71,2.42-3.3,4.94-4.74,7.57l-2.84,5.17-5.68-1.59c-6.98-1.96-14.18-2.95-21.38-2.95-17.78,0-34.47,5.84-47.94,16.14-4.19,4.92-7.82,10.42-10.79,16.41l-13.33-6.59c3.22-6.52,7.13-12.51,11.58-17.96-10.41-4.86-22.61-8-34.24-8-7.2,0-14.39.99-21.38,2.95l-5.68,1.59-2.84-5.17c-13.9-25.3-40.44-41.01-69.26-41.01-17.84,0-34.55,5.93-47.98,16.2-6.57,7.72-11.73,16.79-15.01,26.89l-4.09,12.59-5.9-6.88c-.77,1.88-1.48,3.8-2.12,5.76l-4.09,12.59-8.62-10.05c-15.05-17.53-36.89-27.59-59.94-27.59-1.32,0-2.62.05-3.92.11v64.81h621.4v-59.44c-8.95-3.53-18.69-5.49-28.88-5.49Z"/>
          <path class="cls-2" d="m1489.07,625.92c-17.56-13.04-39.29-20.77-62.8-20.77-19.7,0-38.15,5.44-53.95,14.87-21.99,19.36-35.91,47.69-35.91,79.23,0,26.7,10.05,52.21,28.31,71.83l7.96,8.55-11.12,3.59c-3.01.97-5.9,2.14-8.69,3.48l4.1,4.4-11.12,3.59c-3.92,1.27-7.66,2.87-11.21,4.75-12.91,12.61-20.62,30.11-20.62,49.1,0,37.85,30.79,68.64,68.64,68.64,11.36,0,22.3-2.78,32.03-7.93,1.4-1.36,2.76-2.77,4.06-4.26v-90.16h-58.3l128.62-188.92Z"/>
        </g>
        <path class="cls-3" d="m987.23,161.95v775.64c21.11,6.11,39.62,19.53,52.02,38.15,1.98-.13,3.95-.21,5.93-.21,2.59,0,5.16.12,7.72.33,2.47-.2,4.94-.33,7.41-.33,13.84,0,27.34,3.03,39.7,8.82,12.22-5.71,25.76-8.82,39.89-8.82,2.46,0,4.92.13,7.38.33,2.56-.21,5.14-.33,7.75-.33,1.98,0,3.96.08,5.93.21,12.41-18.62,30.91-32.04,52.02-38.15V161.95h-225.77Zm99.66,778.76h-71.79v-73.65h71.79v73.65Zm0-130.91h-71.79v-73.65h71.79v73.65Zm0-130.91h-71.79v-73.65h71.79v73.65Zm0-130.91h-71.79v-73.65h71.79v73.65Zm0-130.91h-71.79v-73.65h71.79v73.65Zm0-130.91h-71.79v-73.65h71.79v73.65Zm113.37,654.53h-71.79v-73.65h71.79v73.65Zm0-130.91h-71.79v-73.65h71.79v73.65Zm0-130.91h-71.79v-73.65h71.79v73.65Zm0-130.91h-71.79v-73.65h71.79v73.65Zm0-130.91h-71.79v-73.65h71.79v73.65Zm0-130.91h-71.79v-73.65h71.79v73.65Z"/>
        <g>
          <path class="cls-3" d="m1742.79,662.29h-72.48l28.64,42.07c11.51-16.89,26.45-31.26,43.84-42.07Z"/>
          <polygon class="cls-3" points="1673.54 721.81 1633.01 662.29 1578.55 662.29 1619.07 721.81 1673.54 721.81"/>
          <path class="cls-3" d="m1774.82,647.42c14.13-4.57,29.18-7.05,44.81-7.05,3.22,0,6.41.14,9.58.35,3.22-.21,6.46-.35,9.73-.35,8.95,0,17.7.82,26.21,2.37l-29.75-43.7h-104.28l32.93,48.37h10.77Z"/>
          <polygon class="cls-3" points="1612.39 617.26 1597.52 617.26 1597.52 599.04 1593.07 599.04 1535.49 599.04 1568.42 647.42 1726.75 647.42 1693.82 599.04 1663.69 599.04 1663.69 617.26 1648.82 617.26 1648.82 599.04 1648.82 564.52 1612.39 564.52 1612.39 599.04 1612.39 617.26"/>
          <path class="cls-3" d="m1674.32,799.97c-.42-4.49-.64-9.04-.64-13.64,0-17.42,3.07-34.14,8.7-49.64h-53.18l43.09,63.29h2.03Z"/>
        </g>
        <g>
          <path class="cls-1" d="m1831.44,655.46c-68.8,3.9-123.58,61.1-123.58,130.86s54.78,126.96,123.58,130.86c68.8-3.9,123.58-61.1,123.58-130.86s-54.78-126.96-123.58-130.86Z"/>
          <g>
            <polygon class="cls-3" points="1512.31 618.21 1388.57 799.97 1404.02 799.97 1520.04 629.56 1512.31 618.21"/>
            <path class="cls-3" d="m1539.83,873.21c-15.15,3.4-26.51,16.95-26.51,33.11v148.35h53.02v-148.35c0-16.16-11.36-29.71-26.51-33.11Z"/>
            <path class="cls-3" d="m1884.23,1009.68l-23.67-50.68,12.77-5.95-10.55-22.72c-7.76,1.28-15.72,1.95-23.83,1.95-2.51,0-4.99-.08-7.47-.21-2.45.12-4.92.21-7.4.21-70.72,0-129.85-50.57-143.15-117.44h-5.13v194.83h208.44Z"/>
            <path class="cls-3" d="m1433.62,809.7v199.98h50.09v-94.61c0-20.93,13.24-38.81,31.78-45.74,8.55-7.35,19.65-11.81,31.78-11.81,26.92,0,48.82,21.9,48.82,48.82v103.35h50.09v-191.25l-109.25-160.47-103.3,151.73Z"/>
          </g>
          <path class="cls-3" d="m1959.07,1019.09l-30.01-64.35-32.17,15,32.87,70.48c2.82,6.05,7.83,10.64,14.11,12.93.19.07.38.11.57.18.86-.29,1.71-.62,2.54-1.01,12.49-5.83,17.92-20.73,12.09-33.22Z"/>
        </g>
        <g>
          <path class="cls-3" d="m216.03,510.63l-84.1,117.88v232.63h61.3v144.96h-61.3v48.58h140.2v-48.58h-48.21v-144.96h48.21v-49.61h27.92v-183.36l-84.01-117.54Zm-22.81,286.82h-48.47v-119.29h48.47v119.29Zm-21.46-154.05v-46.44c0-19.86,16.16-36.01,36.02-36.01h1.54c19.86,0,36.02,16.16,36.02,36.01v46.44h-73.57Zm100.62,154.05h-48.47v-119.29h48.47v119.29Z"/>
          <path class="cls-3" d="m767.11,861.14v-232.63l-83.86-117.53-83.76,117.19v183.36h27.92v49.61h48.21v144.96h-48.21v48.58h139.7v-48.58h-60.8v-144.96h60.8Zm-12.33-63.69h-48.47v-119.29h48.47v119.29Zm-79.16,0h-48.47v-119.29h48.47v119.29Zm-21.42-154.05v-46.44c0-19.86,16.16-36.01,36.02-36.01h1.54c19.86,0,36.02,16.16,36.02,36.01v46.44h-73.57Z"/>
        </g>
        <g>
          <path class="cls-3" d="m521.76,396.81h-162.03l-99.26,99.26,86.42,122.27h187.72l86.42-122.27-99.26-99.26Zm-98.4,152.17h-73.57v-46.44c0-19.86,16.16-36.02,36.02-36.02h1.54c19.86,0,36.02,16.16,36.02,36.02v46.44Zm52.81,0v-46.44c0-19.86,16.16-36.02,36.02-36.02h1.54c19.86,0,36.02,16.16,36.02,36.02v46.44h-73.57Z"/>
          <g>
            <path class="cls-3" d="m457.77,917.46c-4.55-4.13-9.9-6.79-15.49-8.05-5.59,1.26-10.95,3.92-15.49,8.05-7.13,6.47-11.22,15.7-11.22,25.33v111.89h53.43v-111.89c0-9.63-4.09-18.86-11.22-25.33Z"/>
            <path class="cls-3" d="m442.33,694.03c-12.33,3.29-21.45,14.53-21.45,27.88v60.66h42.9v-60.66c0-13.35-9.12-24.59-21.45-27.88Z"/>
          </g>
        </g>
        <g>
          <path class="cls-3" d="m1243.01,292.86v641.12c1.24.05,2.47.13,3.7.23,2.48-.2,4.99-.32,7.51-.32,33.53,0,63.73,17.61,80.41,45.42,15.3-10.27,33.42-15.9,52.23-15.9,2.53,0,5.04.12,7.52.33,2.52-.2,5.06-.33,7.61-.33.58,0,1.15.03,1.73.04v-28.44c-11.28,5.54-23.79,8.52-36.76,8.52-2.53,0-5.03-.13-7.5-.35-2.52.23-5.06.35-7.63.35-46.05,0-83.51-37.46-83.51-83.51,0-32.7,18.8-61.83,47.74-75.48-16.42-21.08-25.35-46.92-25.35-73.81,0-66.41,54.03-120.44,120.44-120.44,2.61,0,5.19.08,7.76.25,2.44-.15,4.9-.25,7.37-.25,14.96,0,29.28,2.76,42.51,7.76v-305.19h-225.77Zm99.66,255.14h-71.79v-73.65h71.79v73.65Zm0-130.91h-71.79v-73.65h71.79v73.65Zm113.37,130.91h-71.79v-73.65h71.79v73.65Zm0-130.91h-71.79v-73.65h71.79v73.65Z"/>
          <path class="cls-3" d="m746.59,292.86v208.58l12.74,18.06v-45.15h71.79v73.65h-51.68l29.93,42.41c64.03,2.71,115.3,55.62,115.3,120.31,0,26.9-8.93,52.73-25.35,73.81,28.95,13.66,47.74,42.78,47.74,75.48,0,46.05-37.46,83.51-83.51,83.51-2.56,0-5.1-.13-7.63-.35-2.47.22-4.97.35-7.5.35-12.97,0-25.48-2.98-36.76-8.52v28.44c.58-.01,1.15-.04,1.73-.04,2.55,0,5.09.12,7.61.33,2.48-.2,4.98-.33,7.52-.33,18.8,0,36.92,5.64,52.23,15.9,16.69-27.81,46.88-45.42,80.41-45.42,2.52,0,5.02.11,7.51.32,1.23-.1,2.46-.18,3.7-.23V292.86h-225.77Zm84.53,124.23h-71.79v-73.65h71.79v73.65Zm113.37,130.91h-71.79v-73.65h71.79v73.65Zm0-130.91h-71.79v-73.65h71.79v73.65Z"/>
        </g>
        <g>
          <path class="cls-3" d="m1200.26,212.53h-71.79v73.65h71.79v-73.65Zm-14.87,58.78h-42.05v-43.91h42.05v43.91Z"/>
          <path class="cls-3" d="m1086.9,212.53h-71.79v73.65h71.79v-73.65Zm-14.87,58.78h-42.05v-43.91h42.05v43.91Z"/>
          <path class="cls-3" d="m1200.26,343.44h-71.79v73.65h71.79v-73.65Zm-14.87,58.78h-42.05v-43.91h42.05v43.91Z"/>
          <path class="cls-3" d="m1086.9,343.44h-71.79v73.65h71.79v-73.65Zm-14.87,58.78h-42.05v-43.91h42.05v43.91Z"/>
          <path class="cls-3" d="m1200.26,474.35h-71.79v73.65h71.79v-73.65Zm-14.87,58.78h-42.05v-43.91h42.05v43.91Z"/>
          <path class="cls-3" d="m1086.9,474.35h-71.79v73.65h71.79v-73.65Zm-14.87,58.78h-42.05v-43.91h42.05v43.91Z"/>
          <path class="cls-3" d="m1200.26,605.25h-71.79v73.65h71.79v-73.65Zm-14.87,58.78h-42.05v-43.91h42.05v43.91Z"/>
          <path class="cls-3" d="m1086.9,605.25h-71.79v73.65h71.79v-73.65Zm-14.87,58.78h-42.05v-43.91h42.05v43.91Z"/>
          <path class="cls-3" d="m1200.26,736.16h-71.79v73.65h71.79v-73.65Zm-14.87,58.78h-42.05v-43.91h42.05v43.91Z"/>
          <path class="cls-3" d="m1086.9,736.16h-71.79v73.65h71.79v-73.65Zm-14.87,58.78h-42.05v-43.91h42.05v43.91Z"/>
          <path class="cls-3" d="m1200.26,867.06h-71.79v73.65h71.79v-73.65Zm-14.87,58.78h-42.05v-43.91h42.05v43.91Z"/>
          <path class="cls-3" d="m1086.9,867.06h-71.79v73.65h71.79v-73.65Zm-14.87,58.78h-42.05v-43.91h42.05v43.91Z"/>
          <path class="cls-3" d="m1456.04,343.44h-71.79v73.65h71.79v-73.65Zm-14.87,58.78h-42.05v-43.91h42.05v43.91Z"/>
          <path class="cls-3" d="m1342.67,343.44h-71.79v73.65h71.79v-73.65Zm-14.87,58.78h-42.05v-43.91h42.05v43.91Z"/>
          <path class="cls-3" d="m1456.04,474.35h-71.79v73.65h71.79v-73.65Zm-14.87,58.78h-42.05v-43.91h42.05v43.91Z"/>
          <path class="cls-3" d="m1342.67,474.35h-71.79v73.65h71.79v-73.65Zm-14.87,58.78h-42.05v-43.91h42.05v43.91Z"/>
          <path class="cls-3" d="m944.49,343.44h-71.79v73.65h71.79v-73.65Zm-14.87,58.78h-42.05v-43.91h42.05v43.91Z"/>
          <path class="cls-3" d="m831.12,343.44h-71.79v73.65h71.79v-73.65Zm-14.87,58.78h-42.05v-43.91h42.05v43.91Z"/>
          <path class="cls-3" d="m944.49,474.35h-71.79v73.65h71.79v-73.65Zm-14.87,58.78h-42.05v-43.91h42.05v43.91Z"/>
          <path class="cls-3" d="m223.91,797.45h48.47v-119.29h-48.47v119.29Zm14.87-104.42h18.73v89.55h-18.73v-89.55Z"/>
          <path class="cls-3" d="m382.04,701.95c0-13.12-10.67-23.79-23.79-23.79h-.88c-13.12,0-23.79,10.67-23.79,23.79v95.5h48.47v-95.5Zm-14.87,80.62h-18.73v-80.62c0-4.92,4-8.92,8.92-8.92h.88c4.92,0,8.92,4,8.92,8.92v80.62Z"/>
          <path class="cls-3" d="m565.97,701.95c0-13.12-10.67-23.79-23.79-23.79h-.88c-13.12,0-23.79,10.67-23.79,23.79v95.5h48.47v-95.5Zm-14.87,80.62h-18.73v-80.62c0-4.92,4-8.92,8.92-8.92h.88c4.92,0,8.92,4,8.92,8.92v80.62Z"/>
          <path class="cls-3" d="m144.75,797.45h48.47v-119.29h-48.47v119.29Zm14.87-104.42h18.73v89.55h-18.73v-89.55Z"/>
          <path class="cls-3" d="m627.15,797.45h48.47v-119.29h-48.47v119.29Zm14.87-104.42h18.73v89.55h-18.73v-89.55Z"/>
          <path class="cls-3" d="m706.31,797.45h48.47v-119.29h-48.47v119.29Zm14.87-104.42h18.73v89.55h-18.73v-89.55Z"/>
          <path class="cls-3" d="m245.33,596.96c0-19.86-16.16-36.01-36.02-36.01h-1.54c-19.86,0-36.02,16.16-36.02,36.01v46.44h73.57v-46.44Zm-14.87,31.57h-43.83v-31.57c0-11.66,9.48-21.14,21.14-21.14h1.54c11.66,0,21.14,9.49,21.14,21.14v31.57Z"/>
          <path class="cls-3" d="m654.2,596.96v46.44h73.57v-46.44c0-19.86-16.16-36.01-36.02-36.01h-1.54c-19.86,0-36.02,16.16-36.02,36.01Zm58.7,0v31.57h-43.83v-31.57c0-11.66,9.48-21.14,21.14-21.14h1.54c11.66,0,21.14,9.49,21.14,21.14Z"/>
          <path class="cls-3" d="m549.74,502.54c0-19.86-16.16-36.02-36.02-36.02h-1.54c-19.86,0-36.02,16.16-36.02,36.02v46.44h73.57v-46.44Zm-14.87,31.57h-43.83v-31.57c0-11.66,9.48-21.14,21.14-21.14h1.54c11.66,0,21.14,9.48,21.14,21.14v31.57Z"/>
          <path class="cls-3" d="m423.36,502.54c0-19.86-16.16-36.02-36.02-36.02h-1.54c-19.86,0-36.02,16.16-36.02,36.02v46.44h73.57v-46.44Zm-14.87,31.57h-43.83v-31.57c0-11.66,9.49-21.14,21.14-21.14h1.54c11.66,0,21.14,9.48,21.14,21.14v31.57Z"/>
          <path class="cls-3" d="m493.52,721.91c0-24.13-19.63-43.76-43.76-43.76s-43.76,19.63-43.76,43.76v75.53h87.51v-75.53Zm-14.87,60.66h-57.77v-60.66c0-15.93,12.96-28.89,28.89-28.89s28.89,12.96,28.89,28.89v60.66Z"/>
          <path class="cls-3" d="m1380.08,751.03c5.1,0,9.23-4.13,9.23-9.23s-4.13-9.23-9.23-9.23-9.23,4.13-9.23,9.23,4.13,9.23,9.23,9.23Z"/>
          <path class="cls-3" d="m1345.89,840.84c-7.98,0-14.44,6.47-14.44,14.44s6.47,14.44,14.44,14.44,14.44-6.47,14.44-14.44-6.47-14.44-14.44-14.44Z"/>
          <path class="cls-3" d="m1413.56,663.6c7.98,0,14.44-6.47,14.44-14.44s-6.47-14.44-14.44-14.44-14.44,6.47-14.44,14.44,6.47,14.44,14.44,14.44Z"/>
          <circle class="cls-3" cx="1244.12" cy="982.87" r="9.23"/>
          <path class="cls-3" d="m1300.1,1021.3c-5.1,0-9.23,4.13-9.23,9.23s4.13,9.23,9.23,9.23,9.23-4.13,9.23-9.23-4.13-9.23-9.23-9.23Z"/>
          <path class="cls-3" d="m1128.85,1021.3c-5.1,0-9.23,4.13-9.23,9.23s4.13,9.23,9.23,9.23,9.23-4.13,9.23-9.23-4.13-9.23-9.23-9.23Z"/>
          <path class="cls-3" d="m1192.12,1013.2c-7.98,0-14.44,6.47-14.44,14.44s6.47,14.44,14.44,14.44,14.44-6.47,14.44-14.44-6.47-14.44-14.44-14.44Z"/>
          <path class="cls-3" d="m1380.08,998.75c-7.98,0-14.44,6.47-14.44,14.44s6.47,14.44,14.44,14.44,14.44-6.47,14.44-14.44-6.47-14.44-14.44-14.44Z"/>
          <circle class="cls-3" cx="971.25" cy="982.87" r="9.23" transform="translate(-102.54 1852.54) rotate(-84.35)"/>
          <circle class="cls-3" cx="915.27" cy="1030.53" r="9.23" transform="translate(-142.2 1914.53) rotate(-88.28)"/>
          <path class="cls-3" d="m1023.25,1013.2c-7.98,0-14.44,6.47-14.44,14.44s6.47,14.44,14.44,14.44,14.44-6.47,14.44-14.44-6.47-14.44-14.44-14.44Z"/>
          <path class="cls-3" d="m828.68,1006.86c-7.98,0-14.44,6.47-14.44,14.44s6.47,14.44,14.44,14.44,14.44-6.47,14.44-14.44-6.47-14.44-14.44-14.44Z"/>
          <path class="cls-3" d="m820.34,769.49c5.1,0,9.23-4.13,9.23-9.23s-4.13-9.23-9.23-9.23-9.23,4.13-9.23,9.23,4.13,9.23,9.23,9.23Z"/>
          <path class="cls-3" d="m869.48,869.73c7.98,0,14.44-6.47,14.44-14.44s-6.47-14.44-14.44-14.44-14.44,6.47-14.44,14.44,6.47,14.44,14.44,14.44Z"/>
          <path class="cls-3" d="m849.74,686.66c7.98,0,14.44-6.47,14.44-14.44s-6.47-14.44-14.44-14.44-14.44,6.47-14.44,14.44,6.47,14.44,14.44,14.44Z"/>
          <path class="cls-3" d="m1988.55,1012.81l-39.15-83.96-12.77,5.95-13.63-29.22c37.42-26.45,61.9-70.05,61.9-119.25,0-52.32-27.68-98.29-69.15-124.06l-53.17-78.1h-198.89v-19.65h25.33v-64.75h-114.64v64.75h23.13v19.65h-80.02l-18.71,27.49v-333.67h-255.78v-130.91h-270.65v130.91h-255.78v180.93l-25.61-36.29-43.2,61.13-101.81-101.81h-192.39l-101.81,101.81-43.2-61.13-148.83,210.94h42.46v421.12h-52.27v14.87h1985.28v-14.87h-51.75c9.22-11.48,11.74-27.65,5.11-41.87Zm-65.4-71.72l-19.78,9.22-12.81-27.46c6.85-2.6,13.45-5.7,19.77-9.25l12.82,27.49Zm-24.05,68.59h-223.31v-194.83h20c13.3,66.88,72.43,117.44,143.15,117.44,12.91,0,25.42-1.69,37.35-4.85l13.6,29.16-12.77,5.95,21.98,47.13Zm70.93-223.35c0,72.28-58.8,131.08-131.08,131.08s-131.08-58.8-131.08-131.08,58.8-131.08,131.08-131.08,131.08,58.8,131.08,131.08Zm-299.71-124.04h91.79c-22.37,13.91-40.71,33.68-52.87,57.17l-38.92-57.17Zm22.53,59.52h-73.78l-40.52-59.52h73.78l40.52,59.52Zm161.87-122.77l34.12,50.11c-15.57-5.68-32.37-8.78-49.89-8.78-15.63,0-30.68,2.48-44.81,7.05h-30.08l-32.93-48.37h123.6Zm-265.46-49.4v-35h84.89v35h-84.89Zm8.26,49.4v18.22h14.87v-52.74h36.43v52.74h14.87v-18.22h49.44l32.93,48.37h-177.64l-32.93-48.37h62.03ZM987.23,161.95h240.9v775.64c-21.83,6.32-40.9,20.44-53.29,40.06-6.52-1.41-13.15-2.12-19.8-2.12-17.11,0-33.38,4.55-47.46,12.78-14.31-8.36-30.55-12.78-47.27-12.78-6.65,0-13.28.71-19.8,2.12-12.39-19.62-31.46-33.74-53.29-40.06V161.95Zm-255.78,130.91h240.9v641.71c-3.69-.44-7.43-.68-11.2-.68-36.77,0-69.53,21.17-84.87,53.75-17.16-15.52-39.51-24.23-62.9-24.23-5.47,0-10.82.51-16.03,1.42v-38.77c14.48,11.24,32.3,17.48,51.07,17.48,46.05,0,83.51-37.46,83.51-83.51,0-32.7-18.8-61.83-47.74-75.48,16.42-21.08,25.35-46.92,25.35-73.81,0-59.04-42.72-108.25-98.86-118.46l-31.24-44.27h51.68v-73.65h-71.79v45.15l-27.87-39.51v-187.13Zm92.52,318.26c41.11,14.44,70.69,53.62,70.69,99.6,0,26.7-10.05,52.21-28.31,71.83l-7.96,8.55,11.12,3.59c28.44,9.18,47.54,35.43,47.54,65.32,0,37.85-30.79,68.64-68.64,68.64-19.64,0-38.03-8.3-51.07-22.85v-272.25h42.46l-15.83-22.44Zm-49.77-78v-43.91h42.05v43.91h-42.05Zm-414.47-136.32h180.07l99.26,99.26-86.42,122.27h-205.76l-86.42-122.27,99.26-99.26Zm-44.82,252.4v-15.99h269.71v15.99h-269.71Zm269.71,14.87v147.45h-269.71v-147.45h269.71Zm-496.2-45.38l120.15-170.29,120.11,169.94h-17.37l-102.73-143.72-102.79,144.07h-17.37Zm28.64,257.32h61.3v115.21h-61.3v-115.21Zm155.07,115.21h-33.34v-115.21h33.34v115.21Zm0-130.08h-48.21v144.96h48.21v48.58H117.05v-48.58h76.17v-144.96h-76.17v-232.63l91.53-128.3,91.46,127.95v183.36h-27.92v49.61Zm50.7,163.38h-12.99v30.15h-22.84v-195.5h35.83v165.35Zm40.15,30.15h-38.28v-15.28h38.28v15.28Zm-25.28-30.15v-165.35h13.05v165.35h-13.05Zm146.28,30.15h-68.41v-111.89c0-9.63,4.09-18.86,11.22-25.33,13.1-11.89,32.87-11.89,45.97,0,7.13,6.47,11.22,15.7,11.22,25.33v111.89Zm49.94-30.15h-12.24v30.15h-22.84v-111.89c0-13.82-5.87-27.06-16.1-36.35-18.8-17.06-47.16-17.06-65.96,0-10.23,9.28-16.1,22.53-16.1,36.35v111.89h-22.84v-30.15h-12.24v-165.35h168.3v165.35Zm40.91,30.15h-38.28v-15.28h38.28v15.28Zm-26.04-30.15v-165.35h13.05v165.35h-13.05Zm63.75-18.43v48.58h-22.84v-30.15h-12.99v-165.35h35.83v146.92Zm0-161.79h-325.54v-17.91h325.54v17.91Zm169.94,146.92h-61.3v-115.21h61.3v115.21Zm0-130.08h-76.17v144.96h76.17v48.58h-155.07v-48.58h48.21v-144.96h-48.21v-49.61h-27.92v-183.36l91.45-127.95,91.53,128.29v232.63Zm-155.07,130.08v-115.21h33.34v115.21h-33.34Zm63.55-516.6l-102.73,143.72h-17.37l120.11-169.94,120.15,170.29h-17.37l-102.79-144.07Zm727.79,580.06h-621.4v-74.73c5.18-1.08,10.54-1.67,16.03-1.67,23.05,0,44.9,10.06,59.94,27.59l8.62,10.05,4.09-12.59c10.6-32.63,40.79-54.56,75.11-54.56,28.82,0,55.36,15.72,69.26,41.01l2.84,5.17,5.68-1.59c6.98-1.96,14.18-2.95,21.38-2.95,11.77,0,23.24,2.59,33.73,7.55-9.47,8.11-17.4,18.19-23.18,29.89l13.33,6.59c13.43-27.16,40.57-44.03,70.85-44.03,7.2,0,14.39.99,21.38,2.95l5.68,1.59,2.84-5.17c13.9-25.3,40.44-41.01,69.26-41.01,34.33,0,64.51,21.93,75.11,54.56l4.09,12.59,8.63-10.05c15.05-17.53,36.89-27.59,59.94-27.59,5.75,0,11.36.64,16.77,1.81v74.58Zm0-89.74c-5.44-.99-11.04-1.53-16.77-1.53-23.39,0-45.74,8.71-62.9,24.23-15.33-32.58-48.1-53.75-84.87-53.75-3.77,0-7.51.24-11.21.68V292.86h240.9v312.14c-17.13-9.38-36.77-14.71-57.64-14.71-66.41,0-120.44,54.03-120.44,120.44,0,26.9,8.93,52.73,25.35,73.81-28.95,13.66-47.74,42.78-47.74,75.48,0,46.05,37.46,83.51,83.51,83.51,19.08,0,37.19-6.44,51.8-18.03v39.44Zm0-59.94c-13.07,15.06-31.79,23.66-51.8,23.66-37.85,0-68.64-30.79-68.64-68.64,0-29.89,19.11-56.15,47.54-65.32l11.12-3.59-7.96-8.55c-18.25-19.62-28.31-45.13-28.31-71.83,0-58.21,47.36-105.57,105.57-105.57,23.5,0,45.23,7.73,62.8,20.77l-128.62,188.92h58.3v90.16Zm-30.18-105.03l132.86-195.15,16.84,24.74-116.02,170.42h-33.68Zm109.89,254.71h-64.83v-30.13h64.83v30.13Zm82.76,0h-67.89v-148.35c0-18.72,15.23-33.94,33.94-33.94s33.94,15.23,33.94,33.94v148.35Zm79.7,0h-64.83v-30.13h64.83v30.13Zm0-45h-64.83v-103.35c0-26.92-21.9-48.82-48.82-48.82s-48.82,21.9-48.82,48.82v103.35h-64.83v-199.98l113.65-166.93,113.65,166.93v199.98Zm-31.72-272.99h72.49c-5.63,15.5-8.7,32.22-8.7,49.64,0,4.6.22,9.15.64,13.64h-21.35l-43.09-63.29Zm46.59,318v-30.13h230.25l10.24,21.96c1.38,2.96,3.09,5.69,5.08,8.17h-245.57Zm287.19-2.36c-6.05,2.82-12.84,3.12-19.12.83-6.27-2.28-11.28-6.88-14.11-12.93l-32.87-70.48,45.32-21.13,32.87,70.48c5.82,12.49.4,27.4-12.09,33.22Z"/>
          <rect class="cls-3" y="1054.68" width="26.38" height="14.87"/>
          <rect class="cls-3" x="2058.73" y="1054.68" width="26.38" height="14.87"/>
        </g>
      </g>
      <g>
        <rect class="cls-3" x="557.93" y="223.45" width="14.87" height="32.86"/>
        <rect class="cls-3" x="557.93" y="286.32" width="14.87" height="32.86"/>
        <rect class="cls-3" x="517.5" y="263.88" width="32.86" height="14.87"/>
        <rect class="cls-3" x="580.37" y="263.88" width="32.86" height="14.87"/>
        <path class="cls-3" d="m795.23,129.49c-17.9,0-32.46,14.56-32.46,32.46s14.56,32.46,32.46,32.46,32.46-14.56,32.46-32.46-14.56-32.46-32.46-32.46Zm0,50.05c-9.7,0-17.59-7.89-17.59-17.59s7.89-17.59,17.59-17.59,17.59,7.89,17.59,17.59-7.89,17.59-17.59,17.59Z"/>
        <path class="cls-3" d="m159.62,255.82l-22.25,40.69-40.69,22.25,40.69,22.25,22.25,40.69,22.25-40.69,40.69-22.25-40.69-22.25-22.25-40.69Zm11.3,74.24l-11.3,20.65-11.3-20.65-20.66-11.3,20.66-11.3,11.3-20.65,11.3,20.65,20.66,11.3-20.66,11.3Z"/>
        <rect class="cls-3" x="1807.36" y="423.88" width="14.87" height="34.37" transform="translate(219.66 1412.44) rotate(-45)"/>
        <rect class="cls-3" x="1853.86" y="470.39" width="14.87" height="34.37" transform="translate(200.41 1458.97) rotate(-45)"/>
        <rect class="cls-3" x="1797.61" y="480.13" width="34.37" height="14.87" transform="translate(186.71 1425.94) rotate(-45)"/>
        <rect class="cls-3" x="1844.11" y="433.63" width="34.37" height="14.87" transform="translate(233.21 1445.2) rotate(-45)"/>
        <path class="cls-3" d="m1640.78,218.02c24.31,0,44.09-19.78,44.09-44.09s-19.78-44.09-44.09-44.09-44.09,19.78-44.09,44.09,19.78,44.09,44.09,44.09Zm0-73.31c16.11,0,29.22,13.11,29.22,29.22s-13.11,29.22-29.22,29.22-29.22-13.11-29.22-29.22,13.11-29.22,29.22-29.22Z"/>
        <path class="cls-3" d="m1365.63,39.97l-18.59,34-34,18.59,34,18.59,18.59,33.99,18.59-33.99,34-18.59-34-18.59-18.59-34Zm7.64,60.22l-7.64,13.96-7.64-13.96-13.96-7.64,13.96-7.63,7.64-13.96,7.64,13.96,13.96,7.63-13.96,7.64Z"/>
        <rect class="cls-3" x="882.22" width="211.67" height="14.87"/>
        <rect class="cls-3" x="830.16" width="30.87" height="14.87"/>
        <rect class="cls-3" x="1565.43" y="336" width="147.96" height="14.87"/>
        <rect class="cls-3" x="1734.58" y="336" width="30.87" height="14.87"/>
        <rect class="cls-3" x="352.87" y="166.5" width="110.38" height="14.87"/>
        <rect class="cls-3" x="300.82" y="166.5" width="30.87" height="14.87"/>
      </g>
    </g>
  </g>
</svg>