<?xml version="1.0" encoding="UTF-8"?>
<svg id="Calque_2" data-name="Calque 2" xmlns="http://www.w3.org/2000/svg" viewBox="0 0 172.31 201.08">
  <defs>
    <style>
      .cls-1 {
        fill: #22c55e;
      }
    </style>
  </defs>
  <g id="OBJECT">
    <g>
      <g>
        <path class="cls-1" d="m132.68,118.97h-27.46c-7.45,0-13.52-6.06-13.52-13.52s6.06-13.52,13.52-13.52h19.44c5.86,0,10.63-4.77,10.63-10.63v-4.01c0-1.39-1.13-2.52-2.52-2.52s-2.52,1.13-2.52,2.52v4.01c0,3.08-2.5,5.58-5.58,5.58h-19.44c-10.24,0-18.57,8.33-18.57,18.57s8.33,18.57,18.57,18.57h27.46c11.92,0,21.62,9.7,21.62,21.62s-9.7,21.62-21.62,21.62H29.19c-1.39,0-2.52,1.13-2.52,2.52s1.13,2.52,2.52,2.52h103.49c14.71,0,26.67-11.96,26.67-26.67s-11.96-26.67-26.67-26.67Z"/>
        <path class="cls-1" d="m168.59,36.13c.37.2.79.3,1.2.3.45,0,.9-.12,1.29-.36.76-.46,1.23-1.28,1.23-2.17v-11.46c0-.93-.51-1.78-1.33-2.22L133.96.3c-.75-.4-1.65-.4-2.39,0l-37.02,19.92c-.82.44-1.33,1.29-1.33,2.22v11.46c0,.89.47,1.71,1.23,2.17.76.46,1.71.48,2.49.06l3.01-1.62v32.8h-4.21c-1.39,0-2.52,1.13-2.52,2.52s1.13,2.52,2.52,2.52h74.04c1.39,0,2.52-1.13,2.52-2.52s-1.13-2.52-2.52-2.52h-4.21v-32.8l3.01,1.62Zm-70.32-12.17l34.5-18.57,34.5,18.57v5.73l-33.3-17.92c-.37-.2-.78-.3-1.2-.3s-.82.1-1.2.3l-33.3,17.92v-5.73Zm42.38,43.35h-15.78v-13.12c0-4.35,3.54-7.89,7.89-7.89s7.89,3.54,7.89,7.89v13.12Zm19.88,0h-14.83v-13.12c0-7.13-5.8-12.94-12.94-12.94s-12.94,5.8-12.94,12.94v13.12h-14.83V31.79l27.76-14.94,27.76,14.94v35.51Z"/>
        <path class="cls-1" d="m39.27,162.21h.02c.76,0,1.47-.34,1.95-.92l14.47-17.67c14.23-6.37,23.38-20.47,23.38-36.1,0-21.8-17.74-39.54-39.54-39.54S0,85.72,0,107.52c0,15.51,9.06,29.56,23.13,35.98l14.18,17.75c.48.6,1.19.94,1.96.95Zm-13.54-23.07c-12.57-5.5-20.69-17.91-20.69-31.62,0-19.02,15.47-34.5,34.5-34.5s34.5,15.47,34.5,34.5c0,13.81-8.2,26.26-20.9,31.71-.37.16-.7.41-.96.72l-12.87,15.72-12.62-15.79c-.26-.32-.59-.57-.96-.74Z"/>
        <path class="cls-1" d="m62.26,107.52c0-12.53-10.19-22.72-22.72-22.72s-22.72,10.19-22.72,22.72,10.19,22.72,22.72,22.72,22.72-10.19,22.72-22.72Zm-40.38,0c0-9.74,7.93-17.67,17.67-17.67s17.67,7.93,17.67,17.67-7.93,17.67-17.67,17.67-17.67-7.93-17.67-17.67Z"/>
      </g>
      <g>
        <path class="cls-1" d="m48.26,186v14.94h-2.3v-14.94h2.3Z"/>
        <path class="cls-1" d="m59.05,190.36c.86.46,1.53,1.12,2.02,1.98.48.86.73,1.87.73,3.03s-.24,2.19-.73,3.05c-.48.86-1.16,1.52-2.02,1.98-.86.46-1.83.69-2.91.69s-2.04-.23-2.9-.69c-.85-.46-1.53-1.12-2.02-1.99-.49-.87-.74-1.88-.74-3.04s.25-2.17.74-3.03c.49-.86,1.16-1.52,2.02-1.98.85-.46,1.82-.69,2.9-.69s2.05.23,2.91.69Zm-4.54,1.72c-.5.27-.9.68-1.2,1.24-.3.56-.45,1.24-.45,2.05s.15,1.51.45,2.06c.3.55.7.96,1.2,1.23.5.27,1.04.4,1.64.4s1.14-.13,1.64-.4c.5-.27.9-.68,1.2-1.23.3-.55.45-1.24.45-2.06s-.15-1.49-.45-2.05c-.3-.56-.7-.97-1.2-1.24-.5-.27-1.04-.4-1.64-.4s-1.14.13-1.64.4Z"/>
        <path class="cls-1" d="m72.53,190.81c.94.76,1.53,1.79,1.76,3.1h-2.44c-.13-.7-.46-1.25-.98-1.65-.52-.4-1.17-.6-1.95-.6-.89,0-1.63.31-2.22.94-.59.63-.89,1.54-.89,2.76s.3,2.13.89,2.77c.59.63,1.33.95,2.22.95.78,0,1.43-.2,1.95-.61.52-.4.84-.96.98-1.66h2.44c-.23,1.31-.81,2.34-1.76,3.11-.94.77-2.13,1.15-3.57,1.15-1.08,0-2.03-.23-2.86-.69-.83-.46-1.48-1.12-1.95-1.98-.47-.86-.71-1.88-.71-3.05s.24-2.17.71-3.03c.47-.86,1.12-1.52,1.95-1.98.83-.46,1.78-.69,2.86-.69,1.44,0,2.63.38,3.57,1.14Z"/>
        <path class="cls-1" d="m83.56,190.42c.71.5,1.22,1.16,1.51,1.98v-2.58h2.3v11.13h-2.3v-2.58c-.3.82-.8,1.48-1.51,1.98-.71.5-1.58.75-2.58.75s-1.83-.23-2.59-.69c-.76-.46-1.36-1.12-1.79-1.98-.43-.86-.65-1.88-.65-3.05s.22-2.17.65-3.03c.43-.86,1.03-1.52,1.79-1.98.76-.46,1.63-.69,2.59-.69s1.87.25,2.58.75Zm-4.33,2.25c-.61.65-.92,1.55-.92,2.7s.31,2.04.92,2.7c.61.65,1.43.98,2.45.98.65,0,1.22-.15,1.74-.45.51-.3.92-.73,1.21-1.28.3-.55.44-1.2.44-1.94s-.15-1.37-.44-1.93c-.3-.56-.7-.99-1.21-1.29-.51-.3-1.09-.45-1.74-.45-1.02,0-1.84.33-2.45.98Z"/>
        <path class="cls-1" d="m95.74,198.94v2h-1.41c-1.18,0-2.08-.29-2.7-.86-.61-.57-.92-1.52-.92-2.86v-5.45h-1.59v-1.96h1.59v-2.77h2.32v2.77h2.69v1.96h-2.69v5.49c0,.63.12,1.07.35,1.31.24.24.65.36,1.24.36h1.11Z"/>
        <path class="cls-1" d="m97.98,185.61c.27-.26.63-.38,1.07-.38s.8.13,1.08.38c.28.26.41.58.41.97s-.14.71-.41.95c-.28.24-.64.36-1.08.36s-.8-.12-1.07-.36c-.27-.24-.4-.56-.4-.95s.13-.71.4-.97Zm2.22,4.2v11.13h-2.3v-11.13h2.3Z"/>
        <path class="cls-1" d="m110.98,190.36c.86.46,1.53,1.12,2.02,1.98.48.86.73,1.87.73,3.03s-.24,2.19-.73,3.05c-.48.86-1.16,1.52-2.02,1.98-.86.46-1.83.69-2.91.69s-2.04-.23-2.9-.69c-.85-.46-1.53-1.12-2.02-1.99-.49-.87-.74-1.88-.74-3.04s.25-2.17.74-3.03c.49-.86,1.16-1.52,2.02-1.98.85-.46,1.82-.69,2.9-.69s2.05.23,2.91.69Zm-4.54,1.72c-.5.27-.9.68-1.2,1.24-.3.56-.45,1.24-.45,2.05s.15,1.51.45,2.06c.3.55.7.96,1.2,1.23.5.27,1.04.4,1.64.4s1.14-.13,1.64-.4c.5-.27.9-.68,1.2-1.23.3-.55.45-1.24.45-2.06s-.15-1.49-.45-2.05c-.3-.56-.7-.97-1.2-1.24-.5-.27-1.04-.4-1.64-.4s-1.14.13-1.64.4Z"/>
        <path class="cls-1" d="m125.28,190.88c.78.83,1.17,2.03,1.17,3.57v6.48h-2.3v-6.24c0-1-.26-1.77-.77-2.31-.51-.55-1.21-.82-2.1-.82s-1.65.29-2.2.88c-.55.59-.83,1.44-.83,2.57v5.92h-2.3v-11.13h2.3v2.44c.3-.83.79-1.48,1.49-1.94.7-.46,1.51-.69,2.42-.69,1.29,0,2.33.42,3.11,1.25Z"/>
      </g>
    </g>
  </g>
</svg>