
<svg id="Calque_2" data-name="Calque 2" xmlns="http://www.w3.org/2000/svg" viewBox="0 0 3245.89 2158.46">
  <defs>
    <style>
      .cls-1 {
        fill: #3b82f6;
      }

      .cls-1, .cls-2, .cls-3, .cls-4 {
        fill-rule: evenodd;
      }

      .cls-2 {
        fill: #22c55e;
      }

      .cls-3 {
        fill: #c7e7ff;
      }

      .cls-5 {
        fill: #c80050;
      }

      .cls-4 {
        fill: #ccc;
      }
    </style>
  </defs>
  <g id="Calque_1-2" data-name="Calque 1">
    <g>
      <g>
        <path class="cls-5" d="m2165.59,187.24c-121.47-106.9-253.15,82.22-6.76,200.47,4.19,2.25,9.31,1.98,13.63-.02,245.87-117.16,115.34-306.97-6.87-200.44Z"/>
        <path class="cls-5" d="m2857.45,457.39c-30.18-197.51-303.56-122.7-165.38,183.23,2.4,5.18,6.77,8.93,12.69,10.39,325.34,84.78,352.21-197.96,152.69-193.61Z"/>
        <path class="cls-5" d="m2607.21,71.63c-59.62-109.33-204.49-7.52-58.11,142.93,2.7,2.42,5.86,3.58,9.48,3.47,208.93-20.26,164.77-191.34,48.62-146.4Z"/>
      </g>
      <g>
        <path class="cls-5" d="m435.78,427.08c-161.8.78-134.61,229.62,128.11,154.34,4.63-1.1,8.28-4.71,10.18-9.07,105.97-250.9-117.69-306.08-138.29-145.27Z"/>
        <path class="cls-5" d="m1132.4,169.44c-153.76-127.59-308.42,109.92-1.91,246.82,5.24,2.28,10.99,2.18,16.38-.66,299.51-152.73,131.78-381.93-14.47-246.15Z"/>
        <path class="cls-5" d="m689.1,47.32c-117.19-42.12-157.85,130.22,51.51,145.44,3.63.02,6.76-1.22,9.4-3.7,142.72-153.93-3.93-252.47-60.9-141.74Z"/>
      </g>
    </g>
    <g id="Layer_1" data-name="Layer 1">
      <g>
        <path class="cls-1" d="m1185.43,1125.75v-166.81h147.92v44.86l289.58-238.75,699.29,576.52h-136.13v816.88h-1126.3v-816.88h-136.14l261.78-215.83h0Zm905.06,148.68l-467.55-385.47-385.19,317.57-82.36,67.9v788.43h274.35v-508.98h386.41v508.98h274.34v-788.43h0Z"/>
        <path class="cls-4" d="m1634.84,1348.67v95.41h95.41v-95.41h-95.41Zm-119.21,0v95.41h95.42v-95.41h-95.42Zm119.21-119.21v95.41h95.41v-95.41h-95.41Zm-119.21,0v95.41h95.42v-95.41h-95.42Z"/>
        <polygon class="cls-2" points="2816.59 1461.22 2219.72 969.15 2082.68 1082.13 2146.82 1135.01 2219.72 1074.9 2618.79 1403.91 2618.79 2076.86 2440.04 2076.86 2384.63 2076.86 2233.89 2076.86 2233.89 2158.46 2700.39 2158.46 2700.39 1461.22 2816.59 1461.22"/>
        <polygon class="cls-2" points="429.29 1461.22 1026.15 969.15 1163.2 1082.13 1099.06 1135.01 1026.15 1074.9 627.08 1403.91 627.08 2076.86 805.84 2076.86 861.25 2076.86 1011.99 2076.86 1011.99 2158.46 545.48 2158.46 545.48 1461.22 429.29 1461.22"/>
        <path class="cls-3" d="m3227.12,1730.14c0-49.5-40.12-89.62-89.62-89.62-4.09,0-8.11.27-12.06.8,9.43-4.14,19.86-6.44,30.82-6.44,42.42,0,76.82,34.4,76.82,76.82,0,11.44-2.5,22.3-6.99,32.06.68-4.44,1.03-8.99,1.03-13.63m-127.65-137.41c0-26.77-21.7-48.46-48.46-48.46-2.21,0-4.39.15-6.52.43,5.1-2.24,10.74-3.48,16.66-3.48,22.94,0,41.54,18.6,41.54,41.54,0,6.18-1.35,12.06-3.78,17.33.37-2.4.56-4.86.56-7.36Zm-38.32,38.49c26.77,0,48.46-21.7,48.46-48.46s-21.69-48.46-48.46-48.46-48.46,21.7-48.46,48.46,21.7,48.46,48.46,48.46Zm127.19-44.2c0-15.66-12.69-28.35-28.35-28.35-1.29,0-2.56.09-3.81.26,2.99-1.31,6.28-2.04,9.75-2.04,13.42,0,24.3,10.88,24.3,24.3,0,3.62-.79,7.06-2.22,10.14.22-1.41.33-2.85.33-4.31h0Zm-50.76-5.83c0,15.65,12.69,28.35,28.35,28.35s28.35-12.69,28.35-28.35-12.69-28.35-28.35-28.35-28.35,12.69-28.35,28.35ZM18.77,1730.14c0-49.5,40.12-89.62,89.62-89.62,4.09,0,8.12.27,12.06.8-9.43-4.14-19.87-6.44-30.82-6.44-42.42,0-76.82,34.4-76.82,76.82,0,11.44,2.5,22.3,6.99,32.06-.68-4.44-1.03-8.99-1.03-13.63h0Zm70.85-108.04c49.5,0,89.62,40.12,89.62,89.62s-40.13,89.62-89.62,89.62S0,1761.21,0,1711.71s40.13-89.62,89.62-89.62Zm56.8-29.36c0-26.77,21.7-48.46,48.46-48.46,2.21,0,4.39.15,6.52.43-5.1-2.24-10.74-3.48-16.67-3.48-22.93,0-41.54,18.6-41.54,41.54,0,6.18,1.35,12.06,3.78,17.33-.37-2.4-.56-4.86-.56-7.36h.01Zm38.31,38.49c-26.76,0-48.46-21.7-48.46-48.46s21.7-48.46,48.46-48.46,48.46,21.7,48.46,48.46-21.7,48.46-48.46,48.46Zm-127.19-44.2c0-15.66,12.7-28.35,28.36-28.35,1.29,0,2.56.09,3.81.26-2.99-1.31-6.28-2.04-9.75-2.04-13.42,0-24.3,10.88-24.3,24.3,0,3.62.79,7.06,2.22,10.14-.22-1.41-.33-2.85-.33-4.31h0Zm50.76-5.83c0,15.65-12.69,28.35-28.35,28.35s-28.35-12.69-28.35-28.35,12.69-28.35,28.35-28.35,28.35,12.69,28.35,28.35Zm2752.24-610.79c0-75.11-60.89-136-136-136-7.48,0-14.83.61-21.98,1.77,14.35-6,30.1-9.32,46.63-9.32,66.73,0,120.83,54.11,120.83,120.83,0,19.98-4.85,38.84-13.44,55.44,2.59-10.48,3.96-21.44,3.96-32.72Zm.06,189.44c0-45.26-28.84-83.79-69.14-98.2,46.75,5.24,83.09,44.91,83.09,93.06,0,34.65-18.81,64.89-46.77,81.09,20.21-19.01,32.82-46,32.82-75.95h0Zm-251.13-493.63c0-49.18-31.75-90.94-75.86-105.91,51.04,5.16,90.87,48.26,90.87,100.65,0,38.14-21.11,71.35-52.28,88.59,22.87-20.47,37.27-50.22,37.27-83.33Zm-469.43-118.15c-17.89-77.83-87.58-135.86-170.83-135.86-19.67,0-38.57,3.24-56.22,9.21-.26-.21-.52-.42-.78-.62,22.73-12.79,48.96-20.08,76.9-20.08,83.37,0,151.57,64.93,156.79,146.98-1.96.07-3.92.19-5.85.37h0Zm-1618.71,286.33c-75.11,0-136,60.89-136,136,0,11.28,1.37,22.24,3.96,32.72-8.59-16.61-13.44-35.46-13.44-55.44,0-66.73,54.1-120.83,120.83-120.83,16.53,0,32.28,3.32,46.63,9.32-7.16-1.16-14.5-1.77-21.98-1.77Zm-66.92,227.24c-40.31,14.41-69.15,52.95-69.15,98.2,0,29.94,12.61,56.93,32.82,75.95-27.95-16.2-46.76-46.45-46.76-81.09,0-48.15,36.34-87.82,83.09-93.06h0Zm257.85-501.34c-44.11,14.97-75.86,56.73-75.86,105.91,0,33.11,14.39,62.86,37.27,83.33-31.18-17.23-52.28-50.44-52.28-88.59,0-52.4,39.83-95.49,90.87-100.65Zm387.71-12.61c5.22-82.05,73.42-146.98,156.79-146.98,27.93,0,54.17,7.29,76.9,20.08-.25.21-.52.41-.78.62-17.65-5.97-36.56-9.21-56.22-9.21-83.26,0-152.95,58.03-170.84,135.86-1.93-.18-3.89-.3-5.85-.37Zm1411.25,387.45c-21.64,0-41.68-6.84-58.07-18.49,13.04,5.33,27.32,8.27,42.28,8.27,61.76,0,111.82-50.06,111.82-111.82,0-3.02-.12-5.99-.35-8.95,3.07,9.65,4.74,19.91,4.74,30.58,0,55.46-44.95,100.41-100.41,100.41h-.01Zm25.91-151.2c.8-7.07,1.21-14.26,1.21-21.55,0-105.36-85.41-190.76-190.77-190.76-17.15,0-33.77,2.26-49.58,6.5,22.84-11.26,48.54-17.59,75.73-17.59,94.68,0,171.43,76.75,171.43,171.43,0,18.12-2.81,35.57-8.02,51.96h0Zm-387.05-27.1c-45.1,0-83.04-30.66-94.12-72.27,19.12,34.22,55.7,57.35,97.68,57.35,32.32,0,61.43-13.71,81.85-35.63-16.56,30.13-48.6,50.54-85.4,50.54h-.01Zm-439.94-234.79c2.04-64.03,54.57-115.3,119.09-115.3,38,0,71.84,17.78,93.65,45.48-22.88-18.26-51.89-29.17-83.44-29.17-61.88,0-113.95,41.97-129.3,98.99h0Zm52.38,141.58c0-4.4.3-8.72.86-12.97,8.9,52.83,54.87,93.08,110.23,93.08,21.29,0,41.18-5.95,58.12-16.27-17.71,20.11-43.66,32.79-72.56,32.79-53.37,0-96.64-43.27-96.64-96.64h-.01Zm-969.79,253.05c-16.39,11.64-36.43,18.49-58.07,18.49-55.46,0-100.41-44.95-100.41-100.41,0-10.66,1.66-20.93,4.74-30.58-.23,2.96-.35,5.93-.35,8.95,0,61.75,50.06,111.82,111.81,111.82,14.96,0,29.23-2.94,42.27-8.27h.01Zm-85.18-154.27c0,7.29.41,14.48,1.2,21.55-5.21-16.39-8.02-33.85-8.02-51.96,0-94.67,76.75-171.43,171.43-171.43,27.19,0,52.89,6.33,75.72,17.59-15.8-4.25-32.43-6.5-49.58-6.5-105.35,0-190.76,85.4-190.76,190.76h.01Zm990.38-262.87c-18.82-19.88-45.45-32.29-74.99-32.29s-56.17,12.41-74.99,32.29c-.15-.72-.29-1.44-.45-2.16,15.93-24.81,43.76-41.24,75.43-41.24s59.5,16.43,75.43,41.24c-.15.72-.3,1.44-.45,2.16h.02Zm-291.49-76.49c-31.56,0-60.56,10.91-83.45,29.17,21.82-27.7,55.66-45.48,93.66-45.48,64.52,0,117.04,51.27,119.08,115.3-15.36-57.02-67.42-98.99-129.3-98.99h.01Zm-310.64,333.79c-36.8,0-68.84-20.41-85.41-50.54,20.42,21.92,49.53,35.63,81.85,35.63,41.97,0,78.56-23.13,97.68-57.35-11.08,41.61-49.03,72.27-94.12,72.27h0Zm290.92,3.41c-28.91,0-54.85-12.69-72.56-32.79,16.93,10.32,36.83,16.27,58.12,16.27,55.36,0,101.32-40.25,110.22-93.08.57,4.24.87,8.57.87,12.97,0,53.38-43.27,96.64-96.64,96.64h-.01Zm-810.63,188.19c0,96.8,78.48,175.29,175.29,175.29,3.69,0,7.36-.11,10.99-.34l263.78-217.47,110.5,91.1v-86.86h233.6l252.69-208.33,422.17,348.05,174.62-143.96,263.78,217.47c3.64.22,7.3.34,10.99.34,96.81,0,175.28-78.48,175.28-175.29,0-14.63-1.79-28.86-5.17-42.44,10.59,21.32,16.54,45.35,16.54,70.77,0,88-71.34,159.34-159.34,159.34-8.61,0-17.06-.68-25.29-2l410.64,338.55c60.37-22.42,103.39-80.56,103.39-148.73,0-74.23-51-136.55-119.87-153.84,81.14,4.42,145.56,71.61,145.56,153.84,0,75.42-54.18,138.18-125.75,151.48l26.11,21.53c73.55-23.12,126.89-91.83,126.89-173.01,0-99.36-79.93-180.05-179-181.3-4.2-36.48-27.23-67.23-59.12-82.28,36.09-24.46,59.82-65.8,59.82-112.69,0-75.11-60.88-136-135.99-136-39.76,0-75.54,17.06-100.4,44.27-7.84-8.23-16.46-15.7-25.75-22.28-.3-31.98-14.03-60.75-35.81-80.95,28.96-20.2,47.91-53.76,47.91-91.76,0-61.76-50.07-111.82-111.82-111.82-20.97,0-40.6,5.78-57.37,15.83-27.33-15.12-58.77-23.75-92.22-23.75-51.46,0-98.15,20.38-132.46,53.5-17.7-24.89-45.33-42.22-77.11-46.21-4.85-92.47-81.36-165.96-175.04-165.96-34.38,0-66.45,9.91-93.52,27.02-19.57-11.19-42.21-17.58-66.36-17.58-58.11,0-107.57,37.02-126.09,88.76-18.92-23.33-47.82-38.25-80.2-38.25s-61.27,14.92-80.2,38.25c-18.52-51.74-67.97-88.76-126.08-88.76-24.15,0-46.8,6.39-66.37,17.58-27.06-17.11-59.14-27.02-93.52-27.02-93.68,0-170.19,73.49-175.04,165.96-31.79,3.99-59.42,21.33-77.11,46.21-34.32-33.12-81-53.5-132.46-53.5-33.46,0-64.9,8.62-92.22,23.75-16.78-10.05-36.4-15.83-57.38-15.83-61.75,0-111.82,50.06-111.82,111.82,0,38,18.95,71.55,47.91,91.76-21.78,20.2-35.51,48.97-35.81,80.95-9.29,6.58-17.91,14.06-25.75,22.28-24.87-27.2-60.64-44.27-100.4-44.27-75.11,0-136,60.89-136,136,0,46.89,23.73,88.23,59.82,112.69-31.89,15.05-54.92,45.8-59.12,82.28-99.07,1.25-179,81.94-179,181.3,0,81.17,53.33,149.89,126.88,173.01l26.12-21.53c-71.56-13.3-125.75-76.06-125.75-151.48,0-82.23,64.42-149.42,145.56-153.84-68.87,17.29-119.87,79.61-119.87,153.84,0,68.18,43.02,126.31,103.39,148.73l410.65-338.55c-8.24,1.32-16.69,2-25.29,2-88,0-159.34-71.34-159.34-159.34,0-25.42,5.95-49.45,16.55-70.77-3.39,13.59-5.18,27.81-5.18,42.44h-.04Zm2439.73,220.5c15.05,0,27.26-12.2,27.26-27.26,0-1.24-.08-2.47-.25-3.67,1.25,2.87,1.95,6.04,1.95,9.37,0,12.91-10.46,23.36-23.36,23.36-3.48,0-6.78-.76-9.75-2.12,1.35.2,2.73.31,4.15.31h0Zm-21.65-21.54c0,15.05,12.21,27.26,27.26,27.26s27.26-12.2,27.26-27.26-12.21-27.26-27.26-27.26-27.26,12.21-27.26,27.26Zm25.5-86.15c0-39.4-31.94-71.33-71.34-71.33-3.25,0-6.46.21-9.6.63,7.51-3.29,15.81-5.12,24.54-5.12,33.77,0,61.15,27.38,61.15,61.15,0,9.11-1.99,17.75-5.57,25.52.54-3.53.82-7.16.82-10.85h0Zm-56.4,56.66c39.4,0,71.34-31.94,71.34-71.34s-31.94-71.34-71.34-71.34-71.34,31.94-71.34,71.34,31.94,71.34,71.34,71.34Zm-527.31-669.55c-17.67-34.84-60.23-48.76-95.07-31.09-2.88,1.46-5.61,3.09-8.2,4.87,5.16-6.28,11.68-11.62,19.4-15.53,29.86-15.14,66.35-3.21,81.48,26.65,4.09,8.06,6.2,16.6,6.53,25.07-1.1-3.37-2.49-6.7-4.14-9.96h0Zm-24.47,75.39c34.84-17.67,48.77-60.24,31.09-95.07-17.66-34.84-60.23-48.76-95.06-31.09-34.84,17.67-48.77,60.23-31.1,95.07s60.23,48.77,95.07,31.1h0Zm-130.53-83.36c-6.37-25.99-32.6-41.9-58.6-35.54-2.14.53-4.23,1.19-6.23,1.98,4.42-3.39,9.6-5.94,15.36-7.35,22.28-5.45,44.77,8.18,50.23,30.46,1.47,6.01,1.56,12.03.45,17.74-.21-2.42-.62-4.86-1.21-7.29h0Zm-28.05,46.5c26-6.37,41.9-32.6,35.54-58.6-6.38-25.99-32.61-41.9-58.61-35.53s-41.9,32.61-35.54,58.6c6.37,26,32.61,41.9,58.6,35.53h.01ZM230.06,1168.92c-15.05,0-27.26-12.2-27.26-27.26,0-1.24.08-2.47.25-3.67-1.26,2.87-1.96,6.04-1.96,9.37,0,12.91,10.46,23.36,23.36,23.36,3.48,0,6.78-.76,9.75-2.12-1.35.2-2.74.31-4.14.31h0Zm21.65-21.54c0,15.05-12.21,27.26-27.25,27.26s-27.26-12.2-27.26-27.26,12.21-27.26,27.26-27.26,27.25,12.21,27.25,27.26Zm-25.5-86.15c0-39.4,31.95-71.33,71.34-71.33,3.26,0,6.46.21,9.6.63-7.51-3.29-15.81-5.12-24.54-5.12-33.77,0-61.15,27.38-61.15,61.15,0,9.11,1.99,17.75,5.56,25.52-.54-3.53-.82-7.16-.82-10.85h.01Zm56.41,56.66c-39.41,0-71.34-31.94-71.34-71.34s31.93-71.34,71.34-71.34,71.34,31.94,71.34,71.34-31.94,71.34-71.34,71.34ZM809.93,448.33c17.67-34.84,60.23-48.76,95.08-31.09,2.87,1.46,5.61,3.09,8.2,4.87-5.16-6.28-11.68-11.62-19.4-15.53-29.86-15.14-66.35-3.21-81.48,26.65-4.09,8.06-6.21,16.6-6.53,25.07,1.11-3.37,2.48-6.7,4.14-9.96h0Zm24.47,75.39c-34.84-17.67-48.77-60.24-31.1-95.07,17.66-34.84,60.23-48.76,95.07-31.09s48.77,60.23,31.1,95.07c-17.66,34.84-60.23,48.77-95.07,31.1h0Zm130.53-83.36c6.37-25.99,32.61-41.9,58.6-35.54,2.15.53,4.23,1.19,6.23,1.98-4.42-3.39-9.6-5.94-15.36-7.35-22.28-5.45-44.77,8.18-50.23,30.46-1.47,6.01-1.56,12.03-.45,17.74.21-2.42.62-4.86,1.21-7.29h0Zm28.05,46.5c-26-6.37-41.9-32.6-35.54-58.6,6.38-25.99,32.61-41.9,58.6-35.53,26,6.37,41.9,32.61,35.54,58.6-6.37,26-32.6,41.9-58.6,35.53ZM168.09,1966.97c0,66.82,37.72,124.84,93.05,153.91-66.83-19.27-115.71-80.89-115.71-153.91s48.88-134.65,115.71-153.92c-55.32,29.07-93.05,87.09-93.05,153.92Zm164.7-392.11c33.47,0,62.52,18.92,77.03,46.66-17.94-19.45-43.65-31.63-72.2-31.63-41.25,0-76.55,25.42-91.09,61.46,5.13-43.08,41.79-76.49,86.26-76.49h0Zm163.91,310.73v-375.61h-116.85c-10.98,16.86-18.59,36.11-21.86,56.81-8.04-2.13-16.49-3.27-25.2-3.27-54.24,0-98.2,43.97-98.2,98.21,0,50.03,37.4,91.32,85.77,97.43-1.82,7.91-2.93,16.1-3.24,24.48-3.82-.23-7.66-.37-11.52-.37-101.46,0-183.7,82.25-183.7,183.7,0,88.28,62.29,162.02,145.32,179.67.5,4,1.19,7.93,2.06,11.8h218.61c.05-1.34.07-2.69.07-4.04,0-66.77-54.13-120.89-120.89-120.89-9.91,0-19.55,1.2-28.78,3.45,14.64-7.58,31.27-11.86,48.89-11.86,58.82,0,106.5,47.69,106.5,106.51,0,9.27-1.18,18.26-3.41,26.83h6.43v-270.97c-14.78,7.36-31.44,11.49-49.07,11.49-60.91,0-110.3-49.38-110.3-110.3,0-10.07,1.36-19.83,3.88-29.11,1.18,71.12,59.2,128.41,130.59,128.41,8.51,0,16.84-.82,24.89-2.38h0Zm2488.05,235.3c55.32-29.07,93.05-87.09,93.05-153.91s-37.74-124.84-93.05-153.92c66.83,19.27,115.71,80.89,115.71,153.92s-48.88,134.64-115.71,153.91Zm-76.49-530.99c-28.55,0-54.25,12.18-72.19,31.63,14.51-27.74,43.56-46.66,77.03-46.66,44.47,0,81.13,33.41,86.27,76.49-14.54-36.04-49.86-61.46-91.1-61.46h-.01Zm-159.08-79.91v375.61c8.06,1.56,16.38,2.38,24.89,2.38,71.4,0,129.42-57.3,130.59-128.41,2.53,9.28,3.88,19.03,3.88,29.11,0,60.92-49.38,110.3-110.29,110.3-17.63,0-34.3-4.14-49.08-11.5v270.98h6.44c-2.23-8.57-3.41-17.57-3.41-26.83,0-58.82,47.69-106.51,106.51-106.51,17.62,0,34.24,4.28,48.88,11.86-9.23-2.25-18.86-3.45-28.78-3.45-66.77,0-120.89,54.12-120.89,120.89,0,1.35.02,2.69.07,4.04h218.6c.88-3.87,1.57-7.8,2.06-11.8,83.03-17.65,145.32-91.38,145.32-179.67,0-101.45-82.24-183.7-183.69-183.7-3.87,0-7.71.14-11.52.37-.32-8.39-1.42-16.57-3.25-24.48,48.37-6.1,85.78-47.4,85.78-97.43,0-54.24-43.96-98.21-98.2-98.21-8.71,0-17.16,1.14-25.21,3.27-3.27-20.7-10.88-39.96-21.86-56.81h-116.85.01Zm407.09,112.07c-49.5,0-89.62,40.12-89.62,89.62s40.12,89.62,89.62,89.62,89.62-40.12,89.62-89.62-40.13-89.62-89.62-89.62Z"/>
      </g>
    </g>
  </g>
</svg>