<?xml version="1.0" encoding="UTF-8"?>
<svg id="Calque_2" data-name="Calque 2" xmlns="http://www.w3.org/2000/svg" viewBox="0 0 263.02 229.04">
  <defs>
    <style>
      .cls-1 {
        fill: #231f20;
      }

      .cls-2 {
        fill: #414042;
      }
    </style>
  </defs>
  <g id="Layer_4" data-name="Layer 4">
    <g>
      <path class="cls-1" d="m179.65,122.2h-96.25v-6.42h5.06c.47-3.17,2.95-5.53,5.88-5.53h10.91v-2.19c0-7.43,4.35-13.47,9.69-13.47h30.97c5.34,0,9.69,6.04,9.69,13.47v2.19h11.46c2.92,0,5.41,2.36,5.88,5.53h6.72v6.42Zm-95.67-.58h95.09v-5.25h-6.65l-.03-.26c-.33-3-2.63-5.27-5.33-5.27h-12.04v-2.77c0-7.11-4.09-12.89-9.11-12.89h-30.97c-5.02,0-9.11,5.78-9.11,12.89v2.77h-11.49c-2.71,0-5,2.27-5.33,5.27l-.03.26h-4.99v5.25Zm66.08-10.78h-39.29v-2.77c0-3.15,1.87-5.72,4.16-5.72h30.97c2.3,0,4.16,2.57,4.16,5.72v2.77Zm-38.71-.58h38.13v-2.19c0-2.83-1.61-5.14-3.58-5.14h-30.97c-1.97,0-3.58,2.3-3.58,5.14v2.19Z"/>
      <path class="cls-1" d="m162.46,205.12h-62.77l-11.43-73.09h-4.61v-2.76h-.27v-3.96h96.25v6.72h-5.19l-12,73.09Zm-62.27-.58h61.77l12-73.09h5.1v-5.56h-95.09v2.8h.27v2.76h4.53l11.43,73.09Zm50.06-9.24h-.42c-2.91,0-5.28-2.67-5.28-5.96v-50.08c0-3.29,2.37-5.96,5.28-5.96h.42c2.91,0,5.28,2.67,5.28,5.96v50.08c0,3.29-2.37,5.96-5.28,5.96Zm-.42-61.42c-2.59,0-4.7,2.41-4.7,5.38v50.08c0,2.97,2.11,5.38,4.7,5.38h.42c2.59,0,4.7-2.41,4.7-5.38v-50.08c0-2.97-2.11-5.38-4.7-5.38h-.42Zm-18.3,61.42h-.42c-2.91,0-5.28-2.67-5.28-5.96v-50.08c0-3.29,2.37-5.96,5.28-5.96h.42c2.91,0,5.28,2.67,5.28,5.96v50.08c0,3.29-2.37,5.96-5.28,5.96Zm-.42-61.42c-2.59,0-4.7,2.41-4.7,5.38v50.08c0,2.97,2.11,5.38,4.7,5.38h.42c2.59,0,4.7-2.41,4.7-5.38v-50.08c0-2.97-2.11-5.38-4.7-5.38h-.42Zm-17.89,61.42h-.42c-2.91,0-5.28-2.67-5.28-5.96v-50.08c0-3.29,2.37-5.96,5.28-5.96h.42c2.91,0,5.28,2.67,5.28,5.96v50.08c0,3.29-2.37,5.96-5.28,5.96Zm-.42-61.42c-2.59,0-4.7,2.41-4.7,5.38v50.08c0,2.97,2.11,5.38,4.7,5.38h.42c2.59,0,4.7-2.41,4.7-5.38v-50.08c0-2.97-2.11-5.38-4.7-5.38h-.42Z"/>
    </g>
    <path class="cls-2" d="m261.88,91.24l-50.23-35.38V2.67C211.65,1.2,210.46,0,208.98,0h-34.6c-1.48,0-2.67,1.2-2.67,2.67v25.06l-17.64-12.42c-.07-.06-.15-.13-.23-.18L133.05.49c-.92-.65-2.16-.65-3.08,0L1.13,91.22c-.71.5-1.13,1.32-1.13,2.19v29.29c0,1,.56,1.91,1.44,2.37.89.46,1.95.39,2.77-.19l35.04-24.68v126.17c0,1.48,1.2,2.67,2.67,2.67h179.16c1.48,0,2.67-1.2,2.67-2.67v-126.15l35.04,24.68c.46.32,1,.49,1.54.49.42,0,.84-.1,1.23-.3.89-.46,1.44-1.37,1.44-2.37v-29.29c0-.87-.42-1.69-1.13-2.19ZM177.06,15.35h29.25v3.21h-29.25v-3.21Zm29.25-10v7.33h-29.25v-7.33h29.25Zm-29.25,15.88h29.25v30.87l-29.25-20.6v-10.27Zm-45.55-15.29l19.01,13.39c.07.06.15.13.23.18l106.92,75.3v16.17L132.28,21.86c-.46-.33-1.09-.33-1.55,0L5.35,110.98v-16.19L131.51,5.94ZM44.6,96.43l3.82-2.69v129.95h-3.82v-127.26Zm86.89-61.19l80.42,56.64v131.82H51.1V91.86l80.4-56.62Zm86.92,188.46h-3.82V93.76l3.82,2.69v127.24ZM133.03,29.79c-.46-.33-1-.49-1.54-.49s-1.08.16-1.54.49L5.35,117.54v-3.28L131.51,24.59l126.16,89.67v3.3L133.03,29.79Z"/>
  </g>
</svg>