<?xml version="1.0" encoding="UTF-8"?>
<svg id="Calque_2" data-name="Calque 2" xmlns="http://www.w3.org/2000/svg" viewBox="0 0 263.02 229.04">
  <defs>
    <style>
      .cls-1 {
        fill: #414042;
      }
    </style>
  </defs>
  <g id="Layer_4" data-name="Layer 4">
    <g>
      <path class="cls-1" d="m261.88,91.24l-50.23-35.38V2.67C211.65,1.2,210.45,0,208.98,0h-34.6c-1.48,0-2.67,1.2-2.67,2.67v25.06l-17.64-12.42c-.07-.07-.15-.13-.23-.18L133.05.49c-.92-.65-2.16-.65-3.08,0L1.13,91.22c-.71.5-1.13,1.32-1.13,2.19v29.29c0,1,.56,1.91,1.44,2.37.89.46,1.95.39,2.77-.19l35.04-24.68v126.17c0,1.48,1.2,2.67,2.67,2.67h179.16c1.48,0,2.67-1.2,2.67-2.67v-126.15l35.04,24.68c.46.32,1,.49,1.54.49.42,0,.84-.1,1.23-.3.89-.46,1.44-1.37,1.44-2.37v-29.29c0-.87-.42-1.69-1.13-2.19ZM177.06,15.35h29.25v3.21h-29.25v-3.21Zm29.25-10v7.33h-29.25v-7.33h29.25Zm-29.25,15.88h29.25v30.87l-29.25-20.6v-10.27Zm-45.55-15.29l19.01,13.39c.07.07.15.13.23.18l106.92,75.3v16.17L132.28,21.86c-.46-.33-1.09-.33-1.55,0L5.35,110.98v-16.19L131.51,5.94ZM44.6,96.43l3.82-2.69v129.95h-3.82v-127.26Zm86.89-61.19l80.42,56.64v131.82H51.1V91.86l80.4-56.62Zm86.92,188.46h-3.82V93.76l3.82,2.69v127.24ZM133.03,29.79c-.46-.33-1-.49-1.54-.49s-1.08.16-1.54.49L5.35,117.54v-3.28L131.51,24.59l126.16,89.67v3.3L133.03,29.79Z"/>
      <g>
        <path class="cls-1" d="m143.9,92.58h-8.84l-4.03-3.54-3.92,3.54h-8.72l12.57-11.36,12.93,11.36Zm-8.12-1.91h3.06l-7.85-6.9-7.64,6.9h3.03l4.63-4.19,4.77,4.19Z"/>
        <path class="cls-1" d="m171.99,194.08h-80.96c-8.48,0-15.39-6.23-15.39-13.89v-43.88c0-2.77.9-5.44,2.61-7.73l.29-.38h.45l7.81-7.05v-16.5c0-6.91,5.62-12.54,12.54-12.54h61.49c6.91,0,12.54,5.62,12.54,12.54v13.83l12.41,10.91-.3.24c1.25,2.04,1.91,4.34,1.91,6.69v43.88c0,7.66-6.9,13.89-15.39,13.89Zm-92.48-63.98c-1.28,1.87-1.96,4.01-1.96,6.21v43.88c0,6.61,6.05,11.98,13.48,11.98h80.96c7.43,0,13.48-5.38,13.48-11.98v-43.88c0-2.25-.71-4.44-2.05-6.34l-.22-.32-8.4-7.39v2.69l4.12,3.62.72.5-.08.07.54.48.05-.04.27.32.23.2h-.06l.17.21c1.46,1.74,2.23,3.82,2.23,6v43.88c0,.76-.1,1.52-.29,2.27l-.33,1.26-38.62-24.11,35.78-29.51h-1.06l-35.32,29.13-11.63-7.26-11.19,6.98-30.67-22.85v-1.74l-.83,1.12-6.59-4.91,3.13-2.83v-2.74l-5.64,5.1h-.22Zm67.49,29.3l34.06,21.26c.01-.16.02-.31.02-.47v-43.88c0-1.43-.42-2.8-1.22-4.02l-32.86,27.1Zm-15.49-9.67l11.48,7.16,25.61-21.12v-31.12c0-4.28-3.49-7.77-7.77-7.77h-61.49c-4.28,0-7.77,3.49-7.77,7.77v30.51l28.85,21.5,11.09-6.92Zm-32.18-54.76h61.49c5.34,0,9.68,4.34,9.68,9.68v29.52l.95-.79v-28.73c0-5.86-4.77-10.63-10.63-10.63h-61.49c-5.86,0-10.63,4.77-10.63,10.63v28.38l.95.71v-29.09c0-5.34,4.34-9.68,9.68-9.68Zm74.03,31.28v5.59l3.15-2.6-1.5-1.04h.57l-2.22-1.95Zm-88.13,4.19l1.56,1.17v-2.58l-1.56,1.41Zm86.75,59.71h-80.96c-3.55,0-6.9-1.57-8.96-4.2l-.66-.84,50.1-31.27,50.1,31.27-.66.84c-2.06,2.63-5.41,4.2-8.96,4.2Zm-87.7-4.57c1.72,1.69,4.16,2.67,6.75,2.67h80.96c2.58,0,5.03-.98,6.75-2.67l-47.23-29.48-47.23,29.48Zm-3.63-1.85l-.33-1.26c-.19-.75-.29-1.51-.29-2.27v-43.88c0-1.53.38-3,1.12-4.37l.52-.97,38.05,28.35-39.08,24.39Zm1.72-49.85c-.28.78-.43,1.6-.43,2.44v43.88c0,.16,0,.31.02.47l34.39-21.47-33.98-25.32Z"/>
        <path class="cls-1" d="m130.87,147.21c-1.15,0-2.28-.07-3.41-.2-2.7-.32-5.3-1.02-7.73-2.08-2.45-1.07-4.69-2.54-6.68-4.37-.82-.76-1.66-1.72-2.5-2.87-.84-1.14-1.59-2.44-2.24-3.86-.64-1.41-1.18-2.93-1.61-4.53-.43-1.62-.65-3.31-.65-5.02,0-2.24.34-4.51,1.01-6.74.67-2.23,1.65-4.35,2.91-6.31,1.26-1.96,2.81-3.73,4.61-5.27,1.81-1.55,3.87-2.78,6.14-3.68,2.16-.8,4.41-1.33,6.73-1.6,2.33-.27,4.67-.26,6.96.04,2.3.3,4.55.88,6.69,1.75,2.15.87,4.11,2.02,5.84,3.41,2.2,1.93,3.84,4.18,4.91,6.69,1.06,2.5,1.59,5.24,1.59,8.13,0,1.36-.18,2.79-.53,4.25-.35,1.45-.87,2.88-1.55,4.25-.67,1.37-1.5,2.67-2.44,3.87-.95,1.21-2.04,2.25-3.24,3.11-.93.75-2.05,1.28-3.34,1.6-1.26.31-2.54.41-3.8.31-1.29-.11-2.52-.45-3.66-1.03-.88-.45-1.62-1.05-2.18-1.81-1.33,1.1-2.91,1.83-4.71,2.18-2.2.42-4.33.13-6.32-.87l-.04-.02c-1.48-.84-2.62-1.89-3.41-3.12-.76-1.2-1.28-2.49-1.53-3.85-.25-1.33-.31-2.72-.17-4.14.13-1.37.36-2.75.68-4.08.39-1.43.95-2.83,1.68-4.18.74-1.36,1.66-2.61,2.72-3.7,1.08-1.1,2.35-2.01,3.76-2.7,1.45-.71,3.07-1.07,4.81-1.07,1.15,0,2.31.23,3.46.68.6.23,1.14.53,1.64.87l.28-1.26h6.62l-.26,1.16c-1.04,4.64-1.89,8.5-2.56,11.59h0c-.69,3.14-1.17,5.23-1.49,6.4-.23.8-.31,1.57-.24,2.28.06.63.23,1.12.51,1.44.14.16.41.38,1.08.36.42-.01,1.2-.21,2.49-1.09,1.17-.82,2.29-2.12,3.34-3.87,1.04-1.75,1.74-3.69,2.05-5.76.32-2.06.18-4.2-.41-6.36-.57-2.1-1.86-4.05-3.83-5.78-1.65-1.43-3.48-2.45-5.43-3.03-2.01-.6-3.97-.92-5.82-.97-1.86-.05-3.6.09-5.15.41-1.54.32-2.7.67-3.45,1.06-.54.27-1.41.81-2.59,1.6-1.14.76-2.3,1.84-3.46,3.2-1.15,1.36-2.18,3.04-3.04,5.01-.85,1.93-1.28,4.21-1.28,6.79,0,2.03.34,3.94,1.02,5.69.68,1.76,1.63,3.38,2.8,4.8,1.17,1.42,2.6,2.66,4.24,3.67,1.64,1.02,3.44,1.76,5.36,2.22,2.58.64,5.19.79,7.78.45,2.62-.35,5.63-1.28,8.95-2.76l1.29-.58.23,6.13-.57.27c-2.61,1.23-5.33,2.08-8.07,2.52-1.59.26-3.19.39-4.78.39Zm-.08-44.82c-1.04,0-2.08.06-3.12.18-2.17.25-4.28.76-6.27,1.49-2.05.81-3.93,1.94-5.58,3.35-1.66,1.42-3.09,3.05-4.25,4.85-1.16,1.81-2.07,3.77-2.69,5.82-.62,2.05-.93,4.13-.93,6.19,0,1.54.2,3.06.59,4.53.4,1.49.9,2.92,1.5,4.23.59,1.3,1.28,2.49,2.04,3.53.76,1.05,1.52,1.92,2.25,2.59,1.83,1.69,3.9,3.04,6.15,4.03,2.26.99,4.68,1.64,7.2,1.94,2.52.3,5.1.24,7.67-.17,2.37-.38,4.72-1.09,6.99-2.1l-.08-2.07c-2.99,1.24-5.74,2.03-8.19,2.35-2.83.37-5.68.21-8.48-.49-2.1-.5-4.1-1.32-5.91-2.45-1.82-1.13-3.4-2.5-4.7-4.08-1.3-1.58-2.35-3.37-3.11-5.32-.77-1.97-1.15-4.11-1.15-6.38,0-2.85.49-5.39,1.44-7.56.94-2.13,2.06-3.97,3.33-5.47,1.27-1.49,2.56-2.69,3.85-3.55,1.26-.84,2.17-1.4,2.78-1.71.9-.47,2.19-.87,3.93-1.23,1.7-.35,3.58-.5,5.58-.45,2.02.05,4.14.4,6.31,1.04,2.22.66,4.29,1.81,6.15,3.43,2.26,1.99,3.75,4.25,4.42,6.72.65,2.41.81,4.82.45,7.14-.36,2.32-1.13,4.48-2.3,6.45-1.18,1.98-2.49,3.47-3.89,4.46-1.37.93-2.51,1.4-3.51,1.43-1.37.05-2.16-.53-2.58-1.01-.54-.63-.87-1.47-.97-2.51-.09-.95.01-1.95.3-2.97.3-1.11.79-3.23,1.46-6.29h0c.62-2.83,1.39-6.31,2.31-10.44h-2.71l-.71,3.16-1.24-1.4c-.57-.65-1.31-1.15-2.2-1.5-.92-.36-1.85-.54-2.76-.54-1.45,0-2.79.29-3.97.87-1.22.59-2.31,1.38-3.24,2.32-.94.96-1.75,2.06-2.41,3.27-.66,1.22-1.17,2.48-1.51,3.74-.29,1.22-.51,2.51-.63,3.79-.12,1.24-.07,2.46.14,3.61.21,1.12.64,2.19,1.27,3.18.61.96,1.52,1.79,2.72,2.47,1.63.81,3.29,1.04,5.09.69,1.77-.34,3.22-1.09,4.42-2.29v-.03s1.8-3.29,1.8-3.29v3.55s.02.06.03.09c.43.77,1.03,1.35,1.86,1.77.92.47,1.91.75,2.95.83,1.06.09,2.13,0,3.19-.26,1.03-.25,1.91-.67,2.62-1.25l.05-.03c1.06-.76,2.03-1.69,2.88-2.76.86-1.09,1.61-2.28,2.23-3.53.61-1.25,1.09-2.54,1.41-3.86.32-1.31.48-2.59.48-3.8,0-2.63-.49-5.12-1.44-7.38-.95-2.25-2.42-4.26-4.38-5.97-1.55-1.25-3.35-2.3-5.33-3.1-1.99-.8-4.08-1.35-6.22-1.63-1.12-.14-2.25-.22-3.38-.22Zm-4.51,31.32c-.84,0-1.69-.23-2.55-.69-.71-.36-1.32-.94-1.77-1.72-.41-.71-.71-1.52-.89-2.41-.17-.86-.24-1.75-.21-2.66.03-.92.19-1.78.47-2.58.12-.47.37-1.21.76-2.25.41-1.09.96-2.18,1.64-3.26.7-1.11,1.57-2.11,2.6-2.98,1.13-.96,2.42-1.45,3.84-1.45,1.51,0,2.76.51,3.69,1.53.92.99,1.38,2.2,1.38,3.59,0,1.5-.18,3.02-.53,4.53h0c-.34,1.47-.79,2.93-1.32,4.35-.29.74-.71,1.54-1.26,2.38-.58.88-1.28,1.64-2.09,2.25-.84.63-1.79,1.07-2.83,1.29-.31.07-.62.1-.93.1Zm3.88-18.1c-.97,0-1.82.33-2.61.99-.88.75-1.63,1.6-2.22,2.54-.61.97-1.11,1.95-1.47,2.92-.37.99-.61,1.69-.7,2.08l-.03.1c-.22.62-.35,1.3-.37,2.04-.02.76.04,1.51.18,2.23.13.68.36,1.3.67,1.82.27.46.6.79,1,.99.81.43,1.52.57,2.21.42.76-.16,1.46-.48,2.07-.94.63-.48,1.19-1.08,1.65-1.77.48-.73.84-1.41,1.07-2.01.5-1.33.92-2.72,1.24-4.11.32-1.36.48-2.73.48-4.09,0-.91-.29-1.66-.87-2.3-.57-.61-1.32-.91-2.29-.91Z"/>
      </g>
    </g>
  </g>
</svg>