<?xml version="1.0" encoding="UTF-8"?>
<svg id="Calque_2" data-name="Calque 2" xmlns="http://www.w3.org/2000/svg" viewBox="0 0 263.34 229.48">
  <defs>
    <style>
      .cls-1 {
        fill: #414042;
      }
    </style>
  </defs>
  <g id="Layer_1" data-name="Layer 1">
    <path class="cls-1" d="m262.06,91.68l-50.23-35.38V3.11c0-1.48-1.2-2.67-2.67-2.67-44.04,2.28-36.84-10.99-37.27,27.74-9.57-6.76-29.02-20.45-38.66-27.25C129.7-2.77,4.31,91.61,1.3,91.66c-2.48-.1-.54,30.22-1.13,31.47-.05,2.09,2.53,3.46,4.21,2.19,0,0,35.04-24.68,35.04-24.68v126.17c0,1.48,1.2,2.67,2.67,2.67h179.16c1.48,0,2.67-1.2,2.67-2.67v-126.15l35.04,24.68c1.68,1.26,4.28-.09,4.21-2.19-.48-1.2,1.21-31.68-1.13-31.47ZM177.23,15.79h29.25v3.21h-29.25v-3.21Zm29.25-10v7.33h-29.25v-7.33h29.25Zm-29.25,15.88h29.25v30.87l-29.25-20.6v-10.27Zm-45.55-15.29c10.27,7.25,113.02,79.62,126.16,88.87v16.17c-1.52.02-125.16-91.06-126.93-89.12,0,0-125.39,89.12-125.39,89.12v-16.19L131.68,6.38ZM44.78,96.87l3.82-2.69v129.95h-3.82v-127.26Zm86.89-61.19l80.42,56.64v131.82H51.27V92.3l80.4-56.62Zm86.92,188.46h-3.82V94.2l3.82,2.69v127.24ZM133.21,30.22c-3.67-3.7-124.59,87.72-127.69,87.76v-3.28L131.68,25.03l126.16,89.67v3.3L133.21,30.22Z"/>
    <path class="cls-1" d="m116.43,201.88h30.5c14.33,0,26-11.66,26-26v-42.26c0-5.22-3.94-9.53-9-10.12v-13.4c0-17.78-14.46-32.24-32.24-32.24s-32.24,14.46-32.24,32.24v13.4c-5.06.59-9,4.9-9,10.12v42.26c0,14.33,11.66,26,26,26Zm8.09-2.76c-10.55,0-19.13-8.58-19.13-19.13v-47.84c0-3.29,2.68-5.97,5.97-5.97h40.63c3.29,0,5.97,2.68,5.97,5.97v47.84c0,10.55-8.58,19.13-19.13,19.13h-14.31Zm29.32-75.69h-2.61v-12.79c0-10.78-8.77-19.55-19.55-19.55s-19.55,8.77-19.55,19.55v12.79h-2.61v-12.19c0-12.22,9.94-22.16,22.16-22.16s22.16,9.94,22.16,22.16v12.19Zm-5.37,0h-33.59v-12.79c0-9.26,7.53-16.79,16.79-16.79s16.79,7.53,16.79,16.79v12.79Zm21.7,10.2v42.26c0,11.86-8.93,21.66-20.41,23.06,6.54-3.79,10.96-10.86,10.96-18.95v-47.84c0-2.31-.91-4.41-2.38-5.97h4.39c4.1,0,7.44,3.34,7.44,7.44Zm-67.98-23.52c0-16.26,13.23-29.49,29.49-29.49s29.49,13.23,29.49,29.49v13.32h-4.57v-12.19c0-13.74-11.18-24.92-24.92-24.92s-24.92,11.18-24.92,24.92v12.19h-4.57v-13.32Zm-9,23.52c0-4.1,3.34-7.44,7.44-7.44h4.39c-1.47,1.56-2.38,3.66-2.38,5.97v47.84c0,8.09,4.42,15.16,10.96,18.95-11.48-1.4-20.41-11.21-20.41-23.06v-42.26Z"/>
    <path class="cls-1" d="m143.04,153.91c0-6.26-5.09-11.36-11.36-11.36s-11.36,5.09-11.36,11.36c0,4.28,2.38,8.15,6.14,10.09v13.55c0,.76.62,1.38,1.38,1.38h7.68c.76,0,1.38-.62,1.38-1.38v-13.55c3.76-1.94,6.14-5.81,6.14-10.09Zm-8.05,7.94c-.51.21-.85.72-.85,1.27v13.05h-4.92v-13.05c0-.56-.33-1.06-.85-1.27-3.22-1.34-5.29-4.46-5.29-7.94,0-4.74,3.86-8.6,8.6-8.6s8.6,3.86,8.6,8.6c0,3.48-2.08,6.6-5.29,7.94Z"/>
  </g>
</svg>