<?xml version="1.0" encoding="UTF-8"?>
<svg id="Calque_2" data-name="Calque 2" xmlns="http://www.w3.org/2000/svg" viewBox="0 0 263.02 229.04">
  <defs>
    <style>
      .cls-1 {
        fill: #414042;
      }
    </style>
  </defs>
  <g id="Layer_4" data-name="Layer 4">
    <g>
      <path class="cls-1" d="m261.88,91.24l-50.23-35.38V2.67c0-1.48-1.2-2.67-2.67-2.67h-34.59c-1.48,0-2.67,1.2-2.67,2.67v25.06l-17.63-12.42c-.07-.07-.15-.13-.23-.19L133.05.49c-.92-.65-2.16-.65-3.08,0L1.13,91.22c-.71.5-1.13,1.32-1.13,2.19v29.29c0,1,.56,1.91,1.44,2.37.89.46,1.95.39,2.77-.19l35.04-24.68v126.17c0,1.48,1.2,2.67,2.67,2.67h179.16c1.48,0,2.67-1.2,2.67-2.67v-126.15l35.04,24.68c.46.32,1,.49,1.54.49.42,0,.84-.1,1.23-.3.89-.46,1.44-1.37,1.44-2.37v-29.29c0-.87-.42-1.69-1.13-2.19ZM177.06,15.35h29.25v3.21h-29.25v-3.21Zm29.25-10v7.33h-29.25v-7.33h29.25Zm-29.25,15.88h29.25v30.87l-29.25-20.6v-10.27Zm-45.55-15.28l19.01,13.38c.07.07.15.13.23.18l106.92,75.3v16.17L132.28,21.86c-.46-.33-1.09-.33-1.55,0L5.35,110.98v-16.19L131.51,5.94ZM44.6,96.43l3.93-2.77v130.03h-3.93v-127.26Zm9.75-6.87v134.13h-3.15V91.79l3.15-2.22Zm71.28,9.45v124.68h-49.99v-124.68h49.99Zm-52.66,124.68h-2.22v-124.68h2.22v124.68Zm145.44,0h-90.1v-126.02c0-.74-.6-1.34-1.34-1.34h-57.56c-.74,0-1.34.6-1.34,1.34v126.02h-11.05V87.68l74.47-52.44,86.92,61.21v127.24ZM133.03,29.79c-.46-.33-1-.49-1.54-.49s-1.08.16-1.54.49L5.35,117.54v-3.28L131.51,24.59l126.16,89.67v3.3L133.03,29.79Z"/>
      <path class="cls-1" d="m146.1,150.91h47.5c.74,0,1.34-.6,1.34-1.34v-51.89c0-.74-.6-1.34-1.34-1.34h-47.5c-.74,0-1.34.6-1.34,1.34v51.89c0,.74.6,1.34,1.34,1.34Zm46.17-2.67h-39.31v-49.22h39.31v49.22Zm-44.83-49.22h2.85v49.22h-2.85v-49.22Z"/>
      <path class="cls-1" d="m109.06,165.12h12.3c.74,0,1.34-.6,1.34-1.34v-4.28c0-.74-.6-1.34-1.34-1.34h-12.3c-.74,0-1.34.6-1.34,1.34v4.28c0,.74.6,1.34,1.34,1.34Zm1.34-4.28h9.62v1.6h-9.62v-1.6Z"/>
    </g>
  </g>
</svg>